<svg width="100" height="98" viewBox="0 0 100 98" fill="none" xmlns="http://www.w3.org/2000/svg">
<g clip-path="url(#clip0_768_11478)">
<path fill-rule="evenodd" clip-rule="evenodd" d="M4.17578 4.42676H95.8236V93.5751H4.17578V4.42676Z" fill="#1F0040"/>
<path fill-rule="evenodd" clip-rule="evenodd" d="M0.0117188 0.260742V97.7407H99.9916V0.260742H0.0117188ZM4.17753 4.42655H95.8258V93.5749H4.17753V4.42655Z" fill="#D291FF"/>
<path fill-rule="evenodd" clip-rule="evenodd" d="M28.2681 55.4578L24.9688 67.899C24.8996 68.2423 24.7622 68.3719 24.3498 68.3719H18.2327C17.8203 68.3719 17.7511 68.2344 17.8203 67.7537L29.6424 26.3746C29.849 25.619 29.9865 25.0224 30.0548 22.9608C30.0548 22.6858 30.1923 22.5483 30.3989 22.5483H39.1284C39.4025 22.5483 39.54 22.6175 39.6091 22.9608L52.8756 67.822C52.9439 68.1661 52.8756 68.3719 52.5315 68.3719H45.6579C45.3146 68.3719 45.108 68.2423 45.0397 67.9682L41.6029 55.4578H28.2681ZM39.9591 48.6951C38.7905 44.0898 35.9657 33.9893 34.9347 29.1091H34.8663C33.9728 33.9893 31.7166 42.2297 29.9982 48.6909L39.9591 48.6951ZM62.2899 52.9583C62.359 58.5951 65.0402 62.3752 71.3634 62.3752C73.8375 62.3752 75.9579 62.0482 78.1575 61.0854C78.4324 60.948 78.639 61.0171 78.639 61.3604V66.5847C78.639 66.9971 78.5016 67.2029 78.2266 67.4091C76.0275 68.5093 73.288 68.9901 69.8513 68.9901C58.8539 68.9901 54.7294 60.8796 54.7294 51.8061C54.7294 41.9773 59.8154 33.9356 68.7519 33.9356C77.8246 33.9356 80.9865 41.5649 80.9865 47.7511C80.9865 49.7444 80.849 51.3945 80.6432 52.1502C80.5741 52.4934 80.4366 52.6147 80.0933 52.683C79.2685 52.8205 76.794 52.9579 73.1506 52.9579L62.2899 52.9583ZM70.7444 47.2304C72.8752 47.2304 73.6321 47.2304 73.8379 47.162C73.8379 46.8871 73.9071 46.6509 73.9071 46.4451C73.9071 44.1768 72.8069 40.0135 68.4769 40.0135C64.4903 40.0135 62.7719 43.5186 62.359 47.2304H70.7444Z" fill="#D291FF"/>
</g>
<defs>
<clipPath id="clip0_768_11478">
<rect width="100" height="97.48" fill="white" transform="translate(0 0.259766)"/>
</clipPath>
</defs>
</svg>
