<svg width="59" height="58" viewBox="0 0 59 58" fill="none" xmlns="http://www.w3.org/2000/svg">
<path d="M20.8941 11.4401L20.8941 11.4402C20.5115 11.8229 20.2966 12.3419 20.2966 12.8831C20.2966 13.4243 20.5115 13.9433 20.8941 14.326L20.8941 14.3261L24.476 17.9079L24.476 17.908L24.4791 17.911C24.864 18.2828 25.3796 18.4885 25.9147 18.4838C26.4498 18.4792 26.9617 18.2645 27.3401 17.8861C27.7185 17.5077 27.9332 16.9958 27.9378 16.4607C27.9425 15.9256 27.7368 15.41 27.365 15.0251L27.365 15.0251L27.362 15.022L27.348 15.0081C31.239 15.3546 34.8744 17.1271 37.5469 19.9975C40.3699 23.0296 41.8942 27.0461 41.7938 31.1877C41.6934 35.3293 39.9761 39.2672 37.0094 42.1589C34.0427 45.0506 30.0622 46.6665 25.9193 46.6609H25.919H6.21867C5.67738 46.6609 5.15826 46.8759 4.77551 47.2587C4.39276 47.6414 4.17773 48.1606 4.17773 48.7018C4.17773 49.2431 4.39276 49.7623 4.77551 50.145C5.15826 50.5278 5.67738 50.7428 6.21867 50.7428H25.9182C31.1543 50.7582 36.1862 48.7132 39.9271 45.0495C43.668 41.3859 45.8175 36.3977 45.9114 31.1624C46.0052 25.9272 44.0359 20.8652 40.4287 17.0698C36.9524 13.4121 32.2238 11.2138 27.2012 10.9049L27.3605 10.7457C27.5546 10.5577 27.7096 10.3331 27.8162 10.0848C27.9232 9.83576 27.9795 9.56795 27.9819 9.29695C27.9842 9.02596 27.9326 8.75721 27.8299 8.50639C27.7273 8.25556 27.5758 8.02769 27.3842 7.83606C27.1925 7.64443 26.9646 7.49288 26.7138 7.39026C26.463 7.28764 26.1943 7.236 25.9233 7.23836C25.6523 7.24071 25.3845 7.29702 25.1354 7.40398C24.8871 7.51064 24.6625 7.66555 24.4746 7.85971L20.8941 11.4401ZM25.919 46.9109H6.21867C5.74369 46.9109 5.28815 47.0996 4.95229 47.4355C4.61642 47.7713 4.42773 48.2269 4.42773 48.7018C4.42773 49.1768 4.61642 49.6324 4.95229 49.9682C5.28815 50.3041 5.74369 50.4928 6.21867 50.4928H25.919C31.0894 50.508 36.0582 48.4886 39.7522 44.8709C43.4462 41.2532 45.5687 36.3275 45.6614 31.1579C45.7541 25.9884 43.8094 20.9898 40.2475 17.242C36.7636 13.5764 32.0061 11.3951 26.9641 11.1421L25.919 46.9109Z" fill="#AB0E12" stroke="#AB0E12" stroke-width="0.5"/>
<path d="M13.2432 40.3123L13.2441 40.3134C13.4715 40.6166 13.61 40.9772 13.644 41.3547C13.678 41.7322 13.6063 42.1117 13.4368 42.4507C13.2673 42.7897 13.0067 43.0748 12.6843 43.2741C12.3619 43.4734 11.9903 43.5789 11.6113 43.5789C11.2945 43.5789 10.982 43.5052 10.6986 43.3635C10.4154 43.2219 10.169 43.0163 9.97896 42.7631C9.97882 42.7629 9.97869 42.7627 9.97856 42.7626L10.1786 42.6126C7.60027 39.2122 6.20917 35.0597 6.2188 30.7924L13.2432 40.3123ZM13.2432 40.3123C11.165 37.5745 10.0434 34.2301 10.0507 30.7929L10.0507 30.7927M13.2432 40.3123L10.0507 30.7927M10.0507 30.7927C10.0541 28.0105 10.789 25.2782 12.1816 22.8697M10.0507 30.7927L12.1816 22.8697M12.1816 22.8697C13.5741 20.4612 15.5754 18.4611 17.9848 17.0701L12.1816 22.8697ZM54.2262 47.2588L54.2261 47.2588L50.6443 43.6769L50.6443 43.6769L50.6412 43.6738C50.2562 43.3021 49.7407 43.0964 49.2056 43.101C48.6704 43.1057 48.1586 43.3203 47.7801 43.6987C47.4017 44.0771 47.1871 44.589 47.1824 45.1241C47.1778 45.6593 47.3835 46.1748 47.7553 46.5597L47.7553 46.5598L47.7583 46.5628L47.8563 46.6608H42.0375C41.4963 46.6608 40.9771 46.8758 40.5944 47.2586C40.2116 47.6413 39.9966 48.1604 39.9966 48.7017C39.9966 49.243 40.2116 49.7621 40.5944 50.1449C40.9771 50.5276 41.4963 50.7427 42.0375 50.7427H47.8563L47.7614 50.8376C47.7609 50.8381 47.7603 50.8386 47.7598 50.8392C47.5656 51.0271 47.4107 51.2518 47.3041 51.5001C47.1971 51.7491 47.1408 52.0169 47.1384 52.2879C47.1361 52.5589 47.1877 52.8276 47.2903 53.0785C47.393 53.3293 47.5445 53.5572 47.7361 53.7488C47.9278 53.9404 48.1556 54.092 48.4065 54.1946C48.6573 54.2972 48.926 54.3488 49.197 54.3465C49.468 54.3441 49.7358 54.2878 49.9848 54.1809C50.2332 54.0742 50.4578 53.9193 50.6458 53.7251C50.6463 53.7246 50.6468 53.724 50.6473 53.7235L54.2261 50.1447L54.2262 50.1447C54.6088 49.762 54.8237 49.2429 54.8237 48.7017C54.8237 48.1606 54.6088 47.6415 54.2262 47.2588Z" fill="#AB0E12" stroke="#AB0E12" stroke-width="0.5"/>
</svg>
