<svg width="48" height="48" viewBox="0 0 48 48" fill="none" xmlns="http://www.w3.org/2000/svg">
<path d="M19.3036 9.13228C19.7103 7.30212 21.3336 6 23.2084 6H24.791C26.6658 6 28.289 7.30212 28.6958 9.13228L29.1016 10.9587C30.4238 11.4764 31.6482 12.1893 32.739 13.0621L34.5274 12.4992C36.3158 11.9364 38.255 12.6911 39.1924 14.3147L39.9838 15.6853C40.9212 17.3089 40.6052 19.3657 39.2236 20.633L37.8432 21.8992C37.9462 22.5844 37.9998 23.286 37.9998 24C37.9998 24.714 37.9462 25.4156 37.8432 26.1008L39.2236 27.367C40.6052 28.6342 40.9212 30.691 39.9838 32.3148L39.1926 33.6852C38.2552 35.309 36.3158 36.0636 34.5274 35.5008L32.7392 34.9378C31.6482 35.8106 30.4238 36.5236 29.1016 37.0412L28.6958 38.8678C28.289 40.6978 26.6658 42 24.791 42H23.2084C21.3336 42 19.7103 40.6978 19.3036 38.8678L18.8977 37.0412C17.5755 36.5236 16.3511 35.8106 15.2603 34.9378L13.4718 35.5008C11.6835 36.0636 9.74425 35.309 8.80685 33.6852L8.01553 32.3146C7.07813 30.691 7.39419 28.6342 8.77579 27.367L10.1562 26.1008C10.0531 25.4154 9.99967 24.714 9.99967 24C9.99967 23.286 10.0531 22.5844 10.1562 21.8992L8.77583 20.633C7.39421 19.3658 7.07817 17.3089 8.01557 15.6853L8.80687 14.3147C9.74427 12.6911 11.6836 11.9364 13.4719 12.4992L15.2603 13.0621C16.3512 12.1893 17.5755 11.4764 18.8977 10.9587L19.3036 9.13228Z" stroke="#AB0E12" stroke-width="2.8" stroke-linecap="round" stroke-linejoin="round"/>
<path d="M26 24C26 25.1046 25.1046 26 24 26C22.8954 26 22 25.1046 22 24C22 22.8954 22.8954 22 24 22C25.1046 22 26 22.8954 26 24Z" stroke="#AB0E12" stroke-width="4" stroke-linecap="round" stroke-linejoin="round"/>
</svg>
