<svg width="49" height="48" viewBox="0 0 49 48" fill="none" xmlns="http://www.w3.org/2000/svg">
<path d="M11.4137 34.3743C11.4395 34.3761 11.4615 34.3776 11.4795 34.3786L11.5231 34.4222H11.5852L11.6256 34.4222L11.6273 34.4222L15.7079 34.3759C16.4514 37.0487 18.9189 39.0323 21.8161 39.0323C25.2942 39.0323 28.1531 36.1734 28.1531 32.6953C28.1531 29.2171 25.2942 26.3582 21.8161 26.3582C18.7498 26.3582 16.1648 28.5801 15.5956 31.4894L11.6656 31.5342H11.6655L11.6653 31.5342L11.6647 31.5342L11.6643 31.5342H11.6623L11.6535 31.5342L11.6268 31.5343L11.5996 31.5343L11.5914 31.5343C11.4497 31.5242 9.4706 31.3329 7.45005 30.2578C6.39961 29.6988 5.391 28.9589 4.64402 27.8505C3.89788 26.7435 3.40493 25.2572 3.40493 23.1922C3.40493 21.3791 3.84026 20.017 4.49984 18.9635C5.16021 17.9087 6.05097 17.1542 6.97493 16.5655C7.89696 15.9781 8.82446 15.6089 9.52218 15.3866C9.87078 15.2756 10.1613 15.2014 10.3641 15.1551C10.4655 15.132 10.5449 15.1158 10.5986 15.1055C10.6255 15.1003 10.6459 15.0966 10.6594 15.0943L10.6677 15.0928H14.2136H15.0628H15.1603L15.1999 15.0037L15.5233 14.2762L15.5234 14.276L15.5234 14.2759L15.5238 14.2751L15.5255 14.2712L15.5332 14.2547C15.54 14.2399 15.5505 14.2176 15.5646 14.1884C15.5928 14.13 15.6356 14.0437 15.6932 13.9335C15.8086 13.7132 15.9836 13.3975 16.2209 13.0182C16.6958 12.2593 17.4195 11.2474 18.4143 10.2358C20.4033 8.21319 23.4706 6.19641 27.8008 6.19641C32.1604 6.19641 34.7696 7.77386 36.5509 9.54945C38.2137 11.207 39.0746 13.0378 39.604 14.1635C39.643 14.2465 39.6803 14.3256 39.7159 14.4006C39.7784 14.5321 39.844 14.7651 39.9065 15.0809C39.9682 15.3931 40.0247 15.775 40.0725 16.197C40.168 17.0408 40.2281 18.0381 40.2271 18.946C40.2258 19.8569 40.1956 20.7036 40.1657 21.3228C40.1507 21.6323 40.1358 21.8848 40.1247 22.0598C40.1191 22.1473 40.1145 22.2154 40.1113 22.2616L40.1075 22.314L40.1066 22.3273L40.1063 22.3306L40.1063 22.3306L40.1063 22.3315L40.1062 22.3316V22.3317L39.9851 23.7863L39.9708 23.9581L40.1429 23.9485L41.5947 23.8678H41.595L41.604 23.8678C41.6124 23.8678 41.6253 23.8679 41.6422 23.8682C41.676 23.8688 41.7261 23.8701 41.79 23.8732C41.9179 23.8795 42.1006 23.893 42.3182 23.9218C42.7545 23.9795 43.3258 24.0981 43.8753 24.3404C44.4322 24.5859 44.9382 24.8872 45.3089 25.4098C45.6794 25.9321 45.9273 26.6937 45.929 27.8832C45.9302 28.6774 45.7468 29.2449 45.4627 29.6798C45.1772 30.1167 44.7826 30.4314 44.3414 30.7079C43.905 30.9814 43.4621 31.1588 43.1275 31.2677C42.9604 31.3221 42.8211 31.3592 42.724 31.3826C42.6755 31.3943 42.6376 31.4026 42.6121 31.4079L42.5885 31.4126L33.8189 31.2478C33.1404 25.2153 28.0261 20.4947 21.8161 20.4947C20.1593 20.4947 18.5829 20.8745 17.148 21.4769L17.0055 21.5368L17.0696 21.6774L18.3232 24.4273L18.3828 24.5578L18.5158 24.5041C19.5384 24.0917 20.6454 23.8276 21.8161 23.8276C26.6878 23.8276 30.5624 27.7409 30.5624 32.6144C30.5624 37.4871 26.6887 41.3608 21.8161 41.3608C20.5827 41.3608 19.4136 41.1345 18.3566 40.6853L18.2221 40.6281L18.1615 40.7611L16.9079 43.5109L16.8447 43.6496L16.9844 43.7106C18.4643 44.3564 20.104 44.6937 21.8161 44.6937C27.9722 44.6937 33.0525 40.0887 33.8004 34.1355L42.8008 34.3009H42.8035H42.9248H42.9602L42.9918 34.2852L43.0528 34.2547C43.0638 34.2527 43.0786 34.2501 43.0969 34.2466C43.1396 34.2385 43.2016 34.226 43.28 34.2083C43.437 34.1729 43.66 34.1167 43.9267 34.033C44.4596 33.8659 45.1697 33.5882 45.8756 33.1458C47.2903 32.2592 48.8207 30.5223 48.817 27.8829C48.8119 24.5182 46.8775 22.4869 45.0477 21.6801C44.313 21.3561 43.6271 21.2459 43.043 21.1626C43.0445 21.1411 43.0459 21.1197 43.0473 21.0985C43.0831 20.5528 43.114 20.0837 43.1152 18.9464L43.1153 18.9362C43.1178 16.9998 43.1206 14.84 42.3324 13.1801L42.1969 13.2445L42.3324 13.1801C42.2888 13.0884 42.2394 12.9807 42.1835 12.859C41.6746 11.751 40.6311 9.47863 38.623 7.47689C36.3899 5.25091 32.8845 3.3085 27.8009 3.3085C18.8041 3.3085 14.4846 10.1951 13.3962 12.2049H10.453H10.3721H10.3477L10.3246 12.2126L10.2153 12.249L10.1996 12.2515C10.181 12.2546 10.1537 12.2592 10.1183 12.2656C10.0476 12.2783 9.94443 12.2981 9.81353 12.3267C9.55175 12.3837 9.17865 12.4755 8.73093 12.6149C7.83597 12.8936 6.64019 13.3636 5.43899 14.1289C3.03255 15.6621 0.516992 18.5633 0.516992 23.1922C0.516992 28.337 3.36028 31.3719 6.09613 32.8276C7.46076 33.5538 8.82001 33.9419 9.8371 34.1486C10.346 34.2521 10.77 34.3103 11.0675 34.3427C11.2162 34.3589 11.3334 34.3686 11.4137 34.3743Z" fill="#AB0E12" stroke="#AB0E12" stroke-width="0.3"/>
</svg>
