<svg width="48" height="48" viewBox="0 0 48 48" fill="none" xmlns="http://www.w3.org/2000/svg">
<path fill-rule="evenodd" clip-rule="evenodd" d="M26.983 29.6856C26.6429 29.69 26.3144 29.8099 26.0514 30.0255L23.0074 32.5069L22.023 31.5899C21.7323 31.3191 21.3459 31.1747 20.9488 31.1884C20.5517 31.2021 20.1762 31.3729 19.9049 31.6631C19.7703 31.8072 19.6655 31.9763 19.5964 32.1609C19.5272 32.3455 19.4951 32.5418 19.5019 32.7388C19.5087 32.9358 19.5542 33.1295 19.6359 33.3089C19.7177 33.4883 19.8339 33.6498 19.9781 33.7842L21.9175 35.5947C22.1827 35.8412 22.528 35.9835 22.8898 35.9954C23.2516 36.0072 23.6056 35.8878 23.8863 35.6592L27.9497 32.3487C28.2576 32.0972 28.4531 31.7338 28.4932 31.3383C28.5333 30.9428 28.4148 30.5475 28.1636 30.2393C28.0212 30.0641 27.841 29.9234 27.6366 29.8275C27.4322 29.7316 27.2088 29.6831 26.983 29.6856Z" fill="#AB0E12"/>
<path fill-rule="evenodd" clip-rule="evenodd" d="M20.9999 6C15.2187 6 10.4999 10.7188 10.4999 16.4999C10.4999 16.5049 10.4999 16.51 10.4999 16.515C10.5008 16.6105 10.5229 16.7038 10.5264 16.7991C6.29763 17.5312 3 21.0695 3 25.5002C3 30.453 7.0472 34.5002 12 34.5002H15.1289C15.8484 38.7437 19.5586 42.0001 24 42.0001C28.4413 42.0001 32.1515 38.7437 32.871 34.5002H37.4999C41.6242 34.5002 44.9999 31.1245 44.9999 27.0002C44.9999 23.3934 42.3681 20.5009 38.9618 19.7962C38.9663 19.7003 38.9991 19.608 38.9999 19.512C38.9999 19.511 38.9999 19.51 38.9999 19.509C38.9999 19.508 38.9999 19.507 38.9999 19.506C38.9999 19.505 38.9999 19.504 38.9999 19.503C38.9999 19.502 38.9999 19.501 38.9999 19.5C38.9998 15.3757 35.6242 12.0001 31.4999 12C31.4959 12 31.4919 12 31.4879 12C31.1266 12.003 30.7834 12.1274 30.4274 12.1817C28.7327 8.49946 25.1324 6.00025 20.9999 6ZM20.9999 8.99998C24.2894 9.00019 27.1824 11.1296 28.1601 14.2705C28.2197 14.462 28.3172 14.6396 28.4467 14.7927C28.5762 14.9459 28.7351 15.0715 28.914 15.1622C29.0929 15.2529 29.2882 15.3068 29.4883 15.3207C29.6884 15.3346 29.8893 15.3082 30.079 15.2431C30.5366 15.0859 31.0189 15.0042 31.5028 14.9999C34.0035 15.0014 35.9983 16.9963 35.9999 19.497V19.5C35.9969 19.8806 35.9433 20.2571 35.8446 20.625C35.7819 20.8582 35.7764 21.1031 35.8286 21.3389C35.8808 21.5747 35.9892 21.7944 36.1445 21.9793C36.2998 22.1643 36.4975 22.3089 36.7207 22.4011C36.9439 22.4933 37.1861 22.5303 37.4266 22.5088C37.4673 22.5058 37.4833 22.5043 37.5087 22.5028C40.007 22.5088 41.9999 24.5002 41.9999 26.9998C41.9999 29.5029 40.0029 31.4998 37.4999 31.4998H32.871C32.1515 27.2562 28.4412 23.9998 23.9999 23.9998C19.5586 23.9998 15.8483 27.2562 15.1288 31.4998H11.9999C8.66847 31.4998 5.99995 28.8313 5.99995 25.4998C5.99995 22.1684 8.66847 19.4999 11.9999 19.4999C12.0134 19.4999 12.0462 19.5012 12.0967 19.5029C12.3197 19.5094 12.5413 19.4661 12.7454 19.3761C12.9495 19.2862 13.131 19.1518 13.2767 18.9829C13.4223 18.8139 13.5285 18.6147 13.5874 18.3995C13.6463 18.1844 13.6564 17.9588 13.6172 17.7392C13.5438 17.329 13.5044 16.9152 13.5 16.4999V16.497C13.5015 12.3385 16.841 8.99998 20.9999 8.99998ZM23.9999 26.9999C27.3314 26.9999 29.9999 29.6684 29.9999 32.9998C29.9999 36.3313 27.3314 38.9998 23.9999 38.9998C20.6684 38.9998 17.9999 36.3313 17.9999 32.9998C17.9999 29.6684 20.6684 26.9999 23.9999 26.9999Z" fill="#AB0E12"/>
</svg>
