<svg width="58" height="58" viewBox="0 0 58 58" fill="none" xmlns="http://www.w3.org/2000/svg">
<g clip-path="url(#clip0_336_5261)">
<path d="M21.4912 28.925V12.2846C21.4912 8.32817 24.6985 5.12085 28.655 5.12085C32.6114 5.12085 35.8187 8.32817 35.8187 12.2846V14.6793" stroke="white" stroke-width="3.5" stroke-linecap="round"/>
<path d="M35.8187 29.0042V45.7154C35.8187 49.6718 32.6114 52.8791 28.655 52.8791C24.6985 52.8791 21.4912 49.6718 21.4912 45.7154V43.2917" stroke="white" stroke-width="3.5" stroke-linecap="round"/>
<path d="M28.6555 36.1637H11.9212C7.97521 36.1637 4.77637 32.9564 4.77637 28.9999C4.77637 25.0435 7.97521 21.8362 11.9212 21.8362H14.3144" stroke="white" stroke-width="3.5" stroke-linecap="round"/>
<path d="M28.6553 21.8362H45.3573C49.3211 21.8362 52.5344 25.0435 52.5344 28.9999C52.5344 32.9564 49.3211 36.1637 45.3573 36.1637H43.0619" stroke="white" stroke-width="3.5" stroke-linecap="round"/>
</g>
<defs>
<clipPath id="clip0_336_5261">
<rect width="57.31" height="57.31" fill="white" transform="translate(0 0.344971)"/>
</clipPath>
</defs>
</svg>
