<svg width="201" height="49" viewBox="0 0 201 49" fill="none" xmlns="http://www.w3.org/2000/svg">
<path d="M0 4.76074C0 2.5516 1.79086 0.760742 4 0.760742H196.054C198.263 0.760742 200.054 2.5516 200.054 4.76074V44.7607C200.054 46.9699 198.263 48.7607 196.054 48.7607H4C1.79086 48.7607 0 46.9699 0 44.7607V4.76074Z" fill="#222222"/>
<path d="M57.3685 32.2512C56.6748 33.7864 56.3436 34.4716 55.4503 35.828C54.2058 37.7222 52.4497 40.0814 50.2737 40.1013C48.3409 40.1194 47.8442 38.8443 45.2201 38.8597C42.5962 38.8751 42.0494 40.1241 40.1164 40.106C37.9404 40.0867 36.278 37.9563 35.032 36.0608C31.5494 30.7633 31.1856 24.5471 33.3334 21.2425C34.8598 18.8926 37.2688 17.5196 39.5329 17.5196C41.8384 17.5196 43.2879 18.7826 45.1948 18.7826C47.0442 18.7826 48.1706 17.5176 50.8366 17.5176C52.8517 17.5176 54.9869 18.6138 56.5086 20.5079C51.523 23.2374 52.3336 30.349 57.3685 32.2512Z" fill="white"/>
<path d="M49.0973 14.2028C50.066 12.9604 50.8004 11.2078 50.5334 9.41504C48.951 9.52318 47.1015 10.5293 46.0213 11.8403C45.0405 13.0299 44.2305 14.7946 44.5457 16.5099C46.2717 16.564 48.059 15.5331 49.0973 14.2028Z" fill="white"/>
<path opacity="0.6" d="M68.5466 12.4502V8.58158H69.4952C70.4866 8.58158 71.307 9.205 71.307 10.5202C71.307 11.8353 70.478 12.4502 69.4867 12.4502H68.5466ZM69.5294 13.5434C71.2557 13.5434 72.5291 12.4331 72.5291 10.5202C72.5291 8.6072 71.2643 7.48845 69.5379 7.48845H67.3672V13.5434H69.5294ZM75.483 10.5116C75.483 9.14522 76.4402 8.49618 77.3718 8.49618C78.3119 8.49618 79.269 9.14522 79.269 10.5116C79.269 11.878 78.3119 12.5271 77.3718 12.5271C76.4402 12.5271 75.483 11.878 75.483 10.5116ZM74.2609 10.5202C74.2609 12.4673 75.7309 13.6715 77.3718 13.6715C79.0212 13.6715 80.4912 12.4673 80.4912 10.5202C80.4912 8.5645 79.0212 7.36035 77.3718 7.36035C75.7309 7.36035 74.2609 8.5645 74.2609 10.5202ZM88.0648 11.6731L86.7145 7.48845H85.4924L84.1507 11.656L83.0397 7.48845H81.7919L83.4755 13.5434H84.7062L86.0907 9.23062L87.4752 13.5434H88.6887L90.3638 7.48845H89.1588L88.0648 11.6731ZM97.4003 13.5434V7.48845H96.2209V11.4937L93.6997 7.48845H92.2298V13.5434H93.4091V9.2477L96.161 13.5434H97.4003ZM103.73 13.5434V12.4161H101.029V7.48845H99.8497V13.5434H103.73ZM106.363 10.5116C106.363 9.14522 107.32 8.49618 108.252 8.49618C109.192 8.49618 110.149 9.14522 110.149 10.5116C110.149 11.878 109.192 12.5271 108.252 12.5271C107.32 12.5271 106.363 11.878 106.363 10.5116ZM105.141 10.5202C105.141 12.4673 106.611 13.6715 108.252 13.6715C109.901 13.6715 111.371 12.4673 111.371 10.5202C111.371 8.5645 109.901 7.36035 108.252 7.36035C106.611 7.36035 105.141 8.5645 105.141 10.5202ZM117.281 13.5434H118.563L116.255 7.48845H114.888L112.563 13.5434H113.811L114.315 12.1599H116.776L117.281 13.5434ZM115.546 8.79508L116.383 11.0838H114.708L115.546 8.79508ZM121.585 12.4502V8.58158H122.533C123.525 8.58158 124.345 9.205 124.345 10.5202C124.345 11.8353 123.516 12.4502 122.525 12.4502H121.585ZM122.568 13.5434C124.294 13.5434 125.567 12.4331 125.567 10.5202C125.567 8.6072 124.302 7.48845 122.576 7.48845H120.405V13.5434H122.568ZM131.701 10.5116C131.701 9.14522 132.659 8.49618 133.59 8.49618C134.53 8.49618 135.487 9.14522 135.487 10.5116C135.487 11.878 134.53 12.5271 133.59 12.5271C132.659 12.5271 131.701 11.878 131.701 10.5116ZM130.479 10.5202C130.479 12.4673 131.949 13.6715 133.59 13.6715C135.239 13.6715 136.709 12.4673 136.709 10.5202C136.709 8.5645 135.239 7.36035 133.59 7.36035C131.949 7.36035 130.479 8.5645 130.479 10.5202ZM143.971 13.5434V7.48845H142.791V11.4937L140.27 7.48845H138.8V13.5434H139.979V9.2477L142.731 13.5434H143.971ZM154.062 8.6072V7.48845H149.045V8.6072H150.959V13.5434H152.147V8.6072H154.062ZM160.968 13.5434V7.48845H159.78V9.92237H157.139V7.48845H155.96V13.5434H157.139V11.0326H159.78V13.5434H160.968ZM167.215 13.5434V12.4331H164.6V11.0326H166.967V9.98215H164.6V8.59866H167.215V7.48845H163.421V13.5434H167.215Z" fill="white"/>
<path d="M80.177 37.9018L78.4496 33.4631H71.4053L69.7228 37.9018H67.3672L73.6936 22.0077H76.2286L82.555 37.9018H80.177ZM74.905 24.2943L72.1905 31.4231H77.6644L74.905 24.2943ZM86.5568 42.1611H84.4704V27.1189H86.5119V28.8002C86.826 28.2323 87.2971 27.769 87.9252 27.4103C88.5534 27.0516 89.2862 26.8723 90.1238 26.8723C91.6792 26.8723 92.8906 27.4028 93.7581 28.4639C94.6405 29.525 95.0817 30.8701 95.0817 32.4991C95.0817 34.1431 94.6255 35.5031 93.7132 36.5791C92.8158 37.6552 91.5969 38.1932 90.0564 38.1932C89.2638 38.1932 88.5609 38.0288 87.9477 37.7C87.3345 37.3712 86.8708 36.9528 86.5568 36.4446V42.1611ZM92.928 32.4991C92.928 31.4081 92.6364 30.5114 92.0531 29.809C91.4847 29.0916 90.7145 28.7329 89.7424 28.7329C88.7852 28.7329 88.0075 29.0916 87.4092 29.809C86.826 30.5114 86.5343 31.4081 86.5343 32.4991C86.5343 33.62 86.826 34.5391 87.4092 35.2565C88.0075 35.9589 88.7852 36.3101 89.7424 36.3101C90.6996 36.3101 91.4698 35.9589 92.0531 35.2565C92.6364 34.5391 92.928 33.62 92.928 32.4991ZM99.8551 42.1611H97.7687V27.1189H99.8102V28.8002C100.124 28.2323 100.595 27.769 101.224 27.4103C101.852 27.0516 102.585 26.8723 103.422 26.8723C104.977 26.8723 106.189 27.4028 107.056 28.4639C107.939 29.525 108.38 30.8701 108.38 32.4991C108.38 34.1431 107.924 35.5031 107.011 36.5791C106.114 37.6552 104.895 38.1932 103.355 38.1932C102.562 38.1932 101.859 38.0288 101.246 37.7C100.633 37.3712 100.169 36.9528 99.8551 36.4446V42.1611ZM106.226 32.4991C106.226 31.4081 105.935 30.5114 105.351 29.809C104.783 29.0916 104.013 28.7329 103.041 28.7329C102.084 28.7329 101.306 29.0916 100.708 29.809C100.124 30.5114 99.8326 31.4081 99.8326 32.4991C99.8326 33.62 100.124 34.5391 100.708 35.2565C101.306 35.9589 102.084 36.3101 103.041 36.3101C103.998 36.3101 104.768 35.9589 105.351 35.2565C105.935 34.5391 106.226 33.62 106.226 32.4991ZM127.04 25.6169L125.066 26.3118C124.962 25.6244 124.625 25.0041 124.057 24.4512C123.488 23.8833 122.703 23.5993 121.701 23.5993C120.819 23.5993 120.086 23.8534 119.503 24.3615C118.919 24.8696 118.627 25.4973 118.627 26.2446C118.627 26.8274 118.799 27.3206 119.143 27.7242C119.503 28.1277 120.011 28.4042 120.669 28.5536L123.047 29.0692C124.363 29.3532 125.38 29.8912 126.098 30.6833C126.816 31.4604 127.175 32.4094 127.175 33.5303C127.175 34.8156 126.667 35.9215 125.65 36.8481C124.632 37.7747 123.309 38.238 121.679 38.238C119.899 38.238 118.5 37.7747 117.483 36.8481C116.481 35.9066 115.898 34.7932 115.733 33.5079L117.842 32.8354C117.932 33.7919 118.306 34.5989 118.964 35.2565C119.622 35.9141 120.52 36.2429 121.656 36.2429C122.703 36.2429 123.511 36.0037 124.079 35.5255C124.647 35.0473 124.932 34.442 124.932 33.7097C124.932 33.1119 124.73 32.5963 124.326 32.1628C123.922 31.7145 123.331 31.4081 122.554 31.2437L120.288 30.7505C119.106 30.4965 118.164 29.9958 117.461 29.2486C116.758 28.5013 116.406 27.5523 116.406 26.4015C116.406 25.1461 116.915 24.0477 117.932 23.1061C118.964 22.1496 120.206 21.6714 121.656 21.6714C123.286 21.6714 124.535 22.0674 125.403 22.8595C126.27 23.6516 126.816 24.5707 127.04 25.6169ZM132.582 23.7114V27.1189H134.915V29.0244H132.582V34.6288C132.582 35.1369 132.694 35.5106 132.918 35.7497C133.157 35.9888 133.546 36.1084 134.085 36.1084C134.399 36.1084 134.675 36.0785 134.915 36.0187V37.8121C134.556 37.9466 134.077 38.0139 133.479 38.0139C132.552 38.0139 131.819 37.7448 131.28 37.2068C130.742 36.6688 130.473 35.9141 130.473 34.9426V29.0244H128.409V27.1189H128.992C129.546 27.1189 129.957 26.9694 130.226 26.6705C130.51 26.3567 130.652 25.9532 130.652 25.46V23.7114H132.582ZM139.841 35.3462C140.499 36.0187 141.299 36.3549 142.241 36.3549C143.183 36.3549 143.976 36.0187 144.619 35.3462C145.277 34.6587 145.606 33.7097 145.606 32.4991C145.606 31.3035 145.277 30.3694 144.619 29.6969C143.976 29.0094 143.183 28.6657 142.241 28.6657C141.299 28.6657 140.499 29.0094 139.841 29.6969C139.197 30.3694 138.876 31.3035 138.876 32.4991C138.876 33.7097 139.197 34.6587 139.841 35.3462ZM138.27 28.4191C139.317 27.3281 140.641 26.7826 142.241 26.7826C143.841 26.7826 145.157 27.3281 146.189 28.4191C147.236 29.4951 147.76 30.8552 147.76 32.4991C147.76 34.158 147.244 35.533 146.212 36.624C145.18 37.7 143.856 38.238 142.241 38.238C140.626 38.238 139.302 37.7 138.27 36.624C137.238 35.533 136.722 34.158 136.722 32.4991C136.722 30.8552 137.238 29.4951 138.27 28.4191ZM156.448 27.0068V29.2486C156.134 29.2037 155.827 29.1813 155.528 29.1813C153.554 29.1813 152.567 30.2872 152.567 32.4991V37.9018H150.458V27.1189H152.522V29.002C153.18 27.627 154.257 26.9395 155.753 26.9395C155.992 26.9395 156.224 26.962 156.448 27.0068ZM159.954 31.4006H165.854C165.824 30.5936 165.555 29.936 165.047 29.4279C164.538 28.9048 163.82 28.6433 162.893 28.6433C162.056 28.6433 161.368 28.9198 160.829 29.4727C160.291 30.0108 159.999 30.6534 159.954 31.4006ZM166.168 34.2029L167.986 34.8306C167.671 35.8319 167.088 36.6539 166.236 37.2965C165.383 37.9242 164.351 38.238 163.14 38.238C161.629 38.238 160.343 37.7224 159.281 36.6912C158.234 35.6451 157.711 34.2402 157.711 32.4767C157.711 30.8327 158.219 29.4727 159.236 28.3967C160.253 27.3206 161.465 26.7826 162.871 26.7826C164.501 26.7826 165.772 27.2982 166.684 28.3294C167.597 29.3457 168.053 30.7132 168.053 32.4319C168.053 32.7009 168.038 32.925 168.008 33.1044H159.887C159.902 34.0609 160.216 34.8455 160.829 35.4582C161.457 36.071 162.228 36.3774 163.14 36.3774C164.68 36.3774 165.69 35.6525 166.168 34.2029Z" fill="white"/>
</svg>
