<svg width="351" height="351" viewBox="0 0 351 351" fill="none" xmlns="http://www.w3.org/2000/svg">
<path d="M0 175.5C0 78.574 78.574 0 175.5 0C272.426 0 351 78.574 351 175.5C351 272.426 272.426 351 175.5 351C78.574 351 0 272.426 0 175.5ZM339.523 175.5C339.523 84.9126 266.087 11.477 175.5 11.477C84.9126 11.477 11.477 84.9126 11.477 175.5C11.477 266.087 84.9126 339.523 175.5 339.523C266.087 339.523 339.523 266.087 339.523 175.5Z" fill="url(#paint0_radial_36_2471)"/>
<path d="M91.0563 189V140.328L95.3244 144.746H79.974V136.584H100.791V189H91.0563ZM133.053 189.749C128.91 189.749 125.166 188.7 121.821 186.604C118.527 184.507 115.931 181.462 114.034 177.468C112.137 173.425 111.188 168.533 111.188 162.792C111.188 157.051 112.137 152.184 114.034 148.19C115.931 144.147 118.527 141.077 121.821 138.98C125.166 136.884 128.91 135.835 133.053 135.835C137.247 135.835 140.991 136.884 144.285 138.98C147.58 141.077 150.176 144.147 152.073 148.19C154.02 152.184 154.993 157.051 154.993 162.792C154.993 168.533 154.02 173.425 152.073 177.468C150.176 181.462 147.58 184.507 144.285 186.604C140.991 188.7 137.247 189.749 133.053 189.749ZM133.053 181.287C135.5 181.287 137.621 180.638 139.418 179.34C141.215 177.993 142.613 175.946 143.612 173.2C144.66 170.455 145.184 166.985 145.184 162.792C145.184 158.549 144.66 155.079 143.612 152.384C142.613 149.638 141.215 147.616 139.418 146.318C137.621 144.971 135.5 144.297 133.053 144.297C130.707 144.297 128.611 144.971 126.764 146.318C124.966 147.616 123.544 149.638 122.495 152.384C121.497 155.079 120.998 158.549 120.998 162.792C120.998 166.985 121.497 170.455 122.495 173.2C123.544 175.946 124.966 177.993 126.764 179.34C128.611 180.638 130.707 181.287 133.053 181.287ZM183.437 189.749C179.293 189.749 175.549 188.7 172.205 186.604C168.91 184.507 166.314 181.462 164.417 177.468C162.52 173.425 161.572 168.533 161.572 162.792C161.572 157.051 162.52 152.184 164.417 148.19C166.314 144.147 168.91 141.077 172.205 138.98C175.549 136.884 179.293 135.835 183.437 135.835C187.63 135.835 191.374 136.884 194.669 138.98C197.963 141.077 200.559 144.147 202.456 148.19C204.403 152.184 205.376 157.051 205.376 162.792C205.376 168.533 204.403 173.425 202.456 177.468C200.559 181.462 197.963 184.507 194.669 186.604C191.374 188.7 187.63 189.749 183.437 189.749ZM183.437 181.287C185.883 181.287 188.004 180.638 189.801 179.34C191.598 177.993 192.996 175.946 193.995 173.2C195.043 170.455 195.567 166.985 195.567 162.792C195.567 158.549 195.043 155.079 193.995 152.384C192.996 149.638 191.598 147.616 189.801 146.318C188.004 144.971 185.883 144.297 183.437 144.297C181.09 144.297 178.994 144.971 177.147 146.318C175.35 147.616 173.927 149.638 172.878 152.384C171.88 155.079 171.381 158.549 171.381 162.792C171.381 166.985 171.88 170.455 172.878 173.2C173.927 175.946 175.35 177.993 177.147 179.34C178.994 180.638 181.09 181.287 183.437 181.287ZM219.293 189L255.086 136.584H262.424L226.631 189H219.293ZM223.636 164.814C221.19 164.814 219.018 164.215 217.121 163.017C215.224 161.819 213.752 160.146 212.704 158C211.655 155.853 211.131 153.332 211.131 150.437C211.131 147.541 211.655 145.02 212.704 142.874C213.752 140.727 215.224 139.055 217.121 137.857C219.018 136.659 221.19 136.06 223.636 136.06C226.182 136.06 228.378 136.659 230.225 137.857C232.122 139.055 233.595 140.727 234.643 142.874C235.692 145.02 236.216 147.541 236.216 150.437C236.216 153.332 235.692 155.853 234.643 158C233.595 160.146 232.122 161.819 230.225 163.017C228.378 164.215 226.182 164.814 223.636 164.814ZM223.711 159.572C225.708 159.572 227.255 158.798 228.353 157.251C229.502 155.653 230.076 153.382 230.076 150.437C230.076 147.492 229.502 145.245 228.353 143.698C227.255 142.1 225.708 141.301 223.711 141.301C221.714 141.301 220.117 142.1 218.919 143.698C217.77 145.295 217.196 147.541 217.196 150.437C217.196 153.332 217.77 155.579 218.919 157.176C220.117 158.773 221.714 159.572 223.711 159.572ZM258.006 189.524C255.56 189.524 253.388 188.925 251.491 187.727C249.594 186.529 248.122 184.857 247.073 182.71C246.025 180.564 245.501 178.043 245.501 175.147C245.501 172.252 246.025 169.731 247.073 167.584C248.122 165.438 249.594 163.765 251.491 162.567C253.388 161.369 255.56 160.77 258.006 160.77C260.552 160.77 262.748 161.369 264.595 162.567C266.492 163.765 267.965 165.438 269.013 167.584C270.062 169.731 270.586 172.252 270.586 175.147C270.586 178.043 270.062 180.564 269.013 182.71C267.965 184.857 266.492 186.529 264.595 187.727C262.748 188.925 260.552 189.524 258.006 189.524ZM258.006 184.283C260.003 184.283 261.575 183.484 262.723 181.886C263.872 180.289 264.446 178.043 264.446 175.147C264.446 172.252 263.872 170.005 262.723 168.408C261.575 166.811 260.003 166.012 258.006 166.012C256.059 166.012 254.487 166.811 253.288 168.408C252.14 169.956 251.566 172.202 251.566 175.147C251.566 178.092 252.14 180.364 253.288 181.961C254.487 183.509 256.059 184.283 258.006 184.283Z" fill="#222222"/>
<path d="M81.7 224.112C80.714 224.112 79.803 223.95 78.9668 223.626C78.1307 223.289 77.4068 222.821 76.7953 222.222C76.1838 221.623 75.7033 220.917 75.3539 220.106C75.0169 219.295 74.8484 218.409 74.8484 217.448C74.8484 216.487 75.0169 215.601 75.3539 214.79C75.7033 213.979 76.1838 213.273 76.7953 212.674C77.4193 212.075 78.1494 211.614 78.9856 211.289C79.8217 210.952 80.7328 210.784 81.7187 210.784C82.6672 210.784 83.5595 210.946 84.3956 211.27C85.2318 211.582 85.9369 212.057 86.511 212.693L85.6312 213.573C85.0945 213.024 84.5017 212.631 83.8528 212.394C83.2038 212.144 82.5049 212.019 81.7561 212.019C80.9699 212.019 80.2398 212.156 79.5659 212.431C78.892 212.693 78.3054 213.074 77.8062 213.573C77.307 214.06 76.9139 214.634 76.6268 215.295C76.3523 215.944 76.215 216.662 76.215 217.448C76.215 218.234 76.3523 218.958 76.6268 219.62C76.9139 220.268 77.307 220.843 77.8062 221.342C78.3054 221.828 78.892 222.209 79.5659 222.484C80.2398 222.746 80.9699 222.877 81.7561 222.877C82.5049 222.877 83.2038 222.752 83.8528 222.502C84.5017 222.253 85.0945 221.853 85.6312 221.304L86.511 222.184C85.9369 222.821 85.2318 223.301 84.3956 223.626C83.5595 223.95 82.6609 224.112 81.7 224.112ZM92.9165 224.094C92.0803 224.094 91.3502 223.938 90.7262 223.626C90.1022 223.314 89.6155 222.846 89.2661 222.222C88.9291 221.598 88.7606 220.818 88.7606 219.882V214.172H90.0897V219.732C90.0897 220.78 90.3456 221.573 90.8573 222.109C91.3814 222.633 92.1115 222.896 93.0475 222.896C93.7339 222.896 94.3267 222.758 94.8259 222.484C95.3376 222.197 95.7245 221.785 95.9865 221.248C96.2611 220.712 96.3984 220.069 96.3984 219.32V214.172H97.7275V224H96.4545V221.304L96.6605 221.791C96.3485 222.515 95.8617 223.083 95.2003 223.495C94.5513 223.894 93.7901 224.094 92.9165 224.094ZM104.071 224.094C103.26 224.094 102.493 223.981 101.769 223.757C101.045 223.52 100.477 223.226 100.065 222.877L100.664 221.828C101.064 222.128 101.575 222.39 102.199 222.615C102.823 222.827 103.478 222.933 104.165 222.933C105.101 222.933 105.775 222.789 106.187 222.502C106.598 222.203 106.804 221.81 106.804 221.323C106.804 220.961 106.686 220.68 106.449 220.481C106.224 220.268 105.925 220.112 105.55 220.013C105.176 219.9 104.758 219.807 104.296 219.732C103.834 219.657 103.372 219.57 102.911 219.47C102.461 219.37 102.049 219.226 101.675 219.039C101.301 218.84 100.995 218.571 100.758 218.234C100.533 217.897 100.421 217.448 100.421 216.886C100.421 216.35 100.571 215.869 100.87 215.445C101.17 215.021 101.606 214.69 102.181 214.453C102.767 214.203 103.478 214.078 104.315 214.078C104.951 214.078 105.588 214.166 106.224 214.34C106.861 214.503 107.385 214.721 107.797 214.996L107.216 216.063C106.779 215.763 106.311 215.551 105.812 215.426C105.313 215.289 104.814 215.22 104.315 215.22C103.429 215.22 102.773 215.376 102.349 215.688C101.937 215.988 101.731 216.375 101.731 216.849C101.731 217.223 101.844 217.517 102.068 217.729C102.305 217.941 102.611 218.109 102.985 218.234C103.372 218.347 103.79 218.44 104.24 218.515C104.701 218.59 105.157 218.684 105.606 218.796C106.068 218.896 106.486 219.039 106.861 219.226C107.247 219.401 107.553 219.657 107.778 219.994C108.015 220.318 108.133 220.749 108.133 221.286C108.133 221.86 107.971 222.359 107.647 222.783C107.335 223.195 106.873 223.52 106.261 223.757C105.662 223.981 104.932 224.094 104.071 224.094ZM113.68 224.094C112.756 224.094 112.045 223.844 111.546 223.345C111.047 222.846 110.797 222.14 110.797 221.229V212H112.126V221.155C112.126 221.729 112.27 222.172 112.557 222.484C112.856 222.796 113.281 222.952 113.83 222.952C114.416 222.952 114.903 222.783 115.29 222.446L115.758 223.401C115.496 223.638 115.177 223.813 114.803 223.925C114.441 224.037 114.067 224.094 113.68 224.094ZM109.037 215.276V214.172H115.121V215.276H109.037ZM121.836 224.094C120.888 224.094 120.033 223.881 119.271 223.457C118.523 223.02 117.93 222.428 117.493 221.679C117.056 220.917 116.838 220.05 116.838 219.077C116.838 218.091 117.056 217.223 117.493 216.475C117.93 215.726 118.523 215.139 119.271 214.715C120.02 214.291 120.875 214.078 121.836 214.078C122.81 214.078 123.671 214.291 124.419 214.715C125.181 215.139 125.774 215.726 126.198 216.475C126.635 217.223 126.853 218.091 126.853 219.077C126.853 220.05 126.635 220.917 126.198 221.679C125.774 222.428 125.181 223.02 124.419 223.457C123.658 223.881 122.797 224.094 121.836 224.094ZM121.836 222.914C122.547 222.914 123.178 222.758 123.727 222.446C124.276 222.122 124.706 221.672 125.018 221.098C125.343 220.512 125.505 219.838 125.505 219.077C125.505 218.303 125.343 217.629 125.018 217.055C124.706 216.481 124.276 216.038 123.727 215.726C123.178 215.401 122.554 215.239 121.855 215.239C121.156 215.239 120.532 215.401 119.983 215.726C119.434 216.038 118.997 216.481 118.672 217.055C118.348 217.629 118.186 218.303 118.186 219.077C118.186 219.838 118.348 220.512 118.672 221.098C118.997 221.672 119.434 222.122 119.983 222.446C120.532 222.758 121.15 222.914 121.836 222.914ZM141.847 214.078C142.646 214.078 143.338 214.234 143.925 214.546C144.524 214.846 144.986 215.308 145.31 215.932C145.647 216.556 145.816 217.342 145.816 218.29V224H144.486V218.421C144.486 217.386 144.237 216.606 143.738 216.081C143.251 215.545 142.558 215.276 141.66 215.276C140.986 215.276 140.399 215.42 139.9 215.707C139.413 215.982 139.033 216.387 138.758 216.924C138.496 217.448 138.365 218.084 138.365 218.833V224H137.036V218.421C137.036 217.386 136.786 216.606 136.287 216.081C135.788 215.545 135.089 215.276 134.19 215.276C133.529 215.276 132.949 215.42 132.449 215.707C131.95 215.982 131.563 216.387 131.289 216.924C131.027 217.448 130.896 218.084 130.896 218.833V224H129.567V214.172H130.84V216.83L130.634 216.362C130.933 215.651 131.414 215.096 132.075 214.696C132.749 214.284 133.541 214.078 134.452 214.078C135.413 214.078 136.231 214.322 136.905 214.808C137.579 215.283 138.016 216 138.215 216.961L137.691 216.755C137.978 215.957 138.484 215.314 139.207 214.827C139.944 214.328 140.824 214.078 141.847 214.078ZM153.595 224.094C152.571 224.094 151.673 223.881 150.899 223.457C150.125 223.02 149.52 222.428 149.083 221.679C148.646 220.917 148.428 220.05 148.428 219.077C148.428 218.103 148.634 217.242 149.046 216.493C149.47 215.744 150.044 215.158 150.768 214.734C151.504 214.297 152.328 214.078 153.239 214.078C154.162 214.078 154.98 214.291 155.691 214.715C156.415 215.127 156.983 215.713 157.395 216.475C157.807 217.223 158.012 218.091 158.012 219.077C158.012 219.139 158.006 219.208 157.994 219.283C157.994 219.345 157.994 219.414 157.994 219.488H149.439V218.496H157.282L156.758 218.889C156.758 218.178 156.602 217.548 156.29 216.999C155.991 216.437 155.579 216 155.055 215.688C154.531 215.376 153.925 215.22 153.239 215.22C152.565 215.22 151.96 215.376 151.423 215.688C150.886 216 150.468 216.437 150.169 216.999C149.869 217.56 149.72 218.203 149.72 218.927V219.133C149.72 219.882 149.882 220.543 150.206 221.117C150.543 221.679 151.005 222.122 151.592 222.446C152.191 222.758 152.871 222.914 153.632 222.914C154.231 222.914 154.786 222.808 155.298 222.596C155.822 222.384 156.272 222.059 156.646 221.623L157.395 222.484C156.958 223.008 156.409 223.407 155.747 223.682C155.098 223.956 154.381 224.094 153.595 224.094ZM160.718 224V214.172H161.991V216.849L161.86 216.381C162.134 215.632 162.596 215.064 163.245 214.677C163.894 214.278 164.699 214.078 165.66 214.078V215.37C165.61 215.37 165.56 215.37 165.51 215.37C165.46 215.358 165.41 215.351 165.36 215.351C164.325 215.351 163.513 215.67 162.927 216.306C162.34 216.93 162.047 217.822 162.047 218.983V224H160.718ZM175.77 224.094C174.959 224.094 174.192 223.981 173.468 223.757C172.744 223.52 172.176 223.226 171.764 222.877L172.363 221.828C172.763 222.128 173.274 222.39 173.898 222.615C174.522 222.827 175.177 222.933 175.864 222.933C176.8 222.933 177.474 222.789 177.886 222.502C178.297 222.203 178.503 221.81 178.503 221.323C178.503 220.961 178.385 220.68 178.148 220.481C177.923 220.268 177.624 220.112 177.249 220.013C176.875 219.9 176.457 219.807 175.995 219.732C175.533 219.657 175.071 219.57 174.61 219.47C174.16 219.37 173.749 219.226 173.374 219.039C173 218.84 172.694 218.571 172.457 218.234C172.232 217.897 172.12 217.448 172.12 216.886C172.12 216.35 172.27 215.869 172.569 215.445C172.869 215.021 173.305 214.69 173.88 214.453C174.466 214.203 175.177 214.078 176.014 214.078C176.65 214.078 177.287 214.166 177.923 214.34C178.56 214.503 179.084 214.721 179.496 214.996L178.915 216.063C178.478 215.763 178.01 215.551 177.511 215.426C177.012 215.289 176.513 215.22 176.014 215.22C175.128 215.22 174.472 215.376 174.048 215.688C173.636 215.988 173.43 216.375 173.43 216.849C173.43 217.223 173.543 217.517 173.767 217.729C174.004 217.941 174.31 218.109 174.685 218.234C175.071 218.347 175.489 218.44 175.939 218.515C176.401 218.59 176.856 218.684 177.305 218.796C177.767 218.896 178.185 219.039 178.56 219.226C178.946 219.401 179.252 219.657 179.477 219.994C179.714 220.318 179.833 220.749 179.833 221.286C179.833 221.86 179.67 222.359 179.346 222.783C179.034 223.195 178.572 223.52 177.961 223.757C177.361 223.981 176.631 224.094 175.77 224.094ZM188.43 224V221.828L188.374 221.473V217.841C188.374 217.005 188.137 216.362 187.663 215.913C187.201 215.464 186.508 215.239 185.585 215.239C184.948 215.239 184.343 215.345 183.769 215.557C183.195 215.769 182.708 216.05 182.309 216.4L181.71 215.408C182.209 214.983 182.808 214.659 183.507 214.434C184.206 214.197 184.942 214.078 185.716 214.078C186.989 214.078 187.969 214.397 188.655 215.033C189.354 215.657 189.703 216.612 189.703 217.897V224H188.43ZM185.042 224.094C184.306 224.094 183.663 223.975 183.114 223.738C182.577 223.488 182.165 223.151 181.878 222.727C181.591 222.29 181.448 221.791 181.448 221.229C181.448 220.718 181.566 220.256 181.803 219.844C182.053 219.42 182.452 219.083 183.001 218.833C183.563 218.571 184.312 218.44 185.248 218.44H188.636V219.432H185.285C184.337 219.432 183.675 219.601 183.301 219.938C182.939 220.275 182.758 220.693 182.758 221.192C182.758 221.754 182.977 222.203 183.413 222.54C183.85 222.877 184.462 223.045 185.248 223.045C185.997 223.045 186.639 222.877 187.176 222.54C187.725 222.19 188.125 221.691 188.374 221.042L188.674 221.96C188.424 222.608 187.987 223.126 187.363 223.513C186.752 223.9 185.978 224.094 185.042 224.094ZM196.421 224.094C195.497 224.094 194.786 223.844 194.287 223.345C193.788 222.846 193.538 222.14 193.538 221.229V212H194.867V221.155C194.867 221.729 195.011 222.172 195.298 222.484C195.597 222.796 196.021 222.952 196.571 222.952C197.157 222.952 197.644 222.783 198.031 222.446L198.499 223.401C198.237 223.638 197.918 223.813 197.544 223.925C197.182 224.037 196.808 224.094 196.421 224.094ZM191.778 215.276V214.172H197.862V215.276H191.778ZM200.918 224V214.172H202.247V224H200.918ZM201.592 212C201.318 212 201.087 211.907 200.9 211.72C200.712 211.532 200.619 211.308 200.619 211.046C200.619 210.784 200.712 210.565 200.9 210.391C201.087 210.203 201.318 210.11 201.592 210.11C201.867 210.11 202.098 210.197 202.285 210.372C202.472 210.547 202.566 210.765 202.566 211.027C202.566 211.302 202.472 211.532 202.285 211.72C202.11 211.907 201.879 212 201.592 212ZM208.585 224.094C207.774 224.094 207.006 223.981 206.283 223.757C205.559 223.52 204.991 223.226 204.579 222.877L205.178 221.828C205.577 222.128 206.089 222.39 206.713 222.615C207.337 222.827 207.992 222.933 208.679 222.933C209.615 222.933 210.289 222.789 210.701 222.502C211.112 222.203 211.318 221.81 211.318 221.323C211.318 220.961 211.2 220.68 210.963 220.481C210.738 220.268 210.438 220.112 210.064 220.013C209.69 219.9 209.272 219.807 208.81 219.732C208.348 219.657 207.886 219.57 207.425 219.47C206.975 219.37 206.563 219.226 206.189 219.039C205.815 218.84 205.509 218.571 205.272 218.234C205.047 217.897 204.935 217.448 204.935 216.886C204.935 216.35 205.085 215.869 205.384 215.445C205.684 215.021 206.12 214.69 206.694 214.453C207.281 214.203 207.992 214.078 208.829 214.078C209.465 214.078 210.101 214.166 210.738 214.34C211.374 214.503 211.899 214.721 212.31 214.996L211.73 216.063C211.293 215.763 210.825 215.551 210.326 215.426C209.827 215.289 209.328 215.22 208.829 215.22C207.942 215.22 207.287 215.376 206.863 215.688C206.451 215.988 206.245 216.375 206.245 216.849C206.245 217.223 206.357 217.517 206.582 217.729C206.819 217.941 207.125 218.109 207.499 218.234C207.886 218.347 208.304 218.44 208.754 218.515C209.215 218.59 209.671 218.684 210.12 218.796C210.582 218.896 211 219.039 211.374 219.226C211.761 219.401 212.067 219.657 212.292 219.994C212.529 220.318 212.647 220.749 212.647 221.286C212.647 221.86 212.485 222.359 212.161 222.783C211.849 223.195 211.387 223.52 210.775 223.757C210.176 223.981 209.446 224.094 208.585 224.094ZM215.311 224V212.936C215.311 212.063 215.567 211.358 216.078 210.821C216.59 210.284 217.326 210.016 218.287 210.016C218.662 210.016 219.024 210.066 219.373 210.166C219.723 210.266 220.016 210.422 220.253 210.634L219.804 211.626C219.616 211.464 219.398 211.345 219.148 211.27C218.899 211.183 218.631 211.139 218.344 211.139C217.782 211.139 217.351 211.295 217.052 211.607C216.752 211.919 216.603 212.381 216.603 212.993V214.49L216.64 215.108V224H215.311ZM213.551 215.276V214.172H219.635V215.276H213.551ZM227.406 224V221.828L227.35 221.473V217.841C227.35 217.005 227.113 216.362 226.638 215.913C226.177 215.464 225.484 215.239 224.56 215.239C223.924 215.239 223.319 215.345 222.745 215.557C222.171 215.769 221.684 216.05 221.284 216.4L220.685 215.408C221.185 214.983 221.784 214.659 222.483 214.434C223.181 214.197 223.918 214.078 224.692 214.078C225.964 214.078 226.944 214.397 227.631 215.033C228.329 215.657 228.679 216.612 228.679 217.897V224H227.406ZM224.018 224.094C223.281 224.094 222.639 223.975 222.089 223.738C221.553 223.488 221.141 223.151 220.854 222.727C220.567 222.29 220.423 221.791 220.423 221.229C220.423 220.718 220.542 220.256 220.779 219.844C221.029 219.42 221.428 219.083 221.977 218.833C222.539 218.571 223.288 218.44 224.224 218.44H227.612V219.432H224.261C223.312 219.432 222.651 219.601 222.277 219.938C221.915 220.275 221.734 220.693 221.734 221.192C221.734 221.754 221.952 222.203 222.389 222.54C222.826 222.877 223.437 223.045 224.224 223.045C224.972 223.045 225.615 222.877 226.152 222.54C226.701 222.19 227.1 221.691 227.35 221.042L227.649 221.96C227.4 222.608 226.963 223.126 226.339 223.513C225.727 223.9 224.954 224.094 224.018 224.094ZM236.37 224.094C235.396 224.094 234.523 223.881 233.749 223.457C232.988 223.02 232.389 222.428 231.952 221.679C231.515 220.917 231.297 220.05 231.297 219.077C231.297 218.091 231.515 217.223 231.952 216.475C232.389 215.726 232.988 215.139 233.749 214.715C234.523 214.291 235.396 214.078 236.37 214.078C237.206 214.078 237.961 214.241 238.635 214.565C239.309 214.89 239.839 215.376 240.226 216.025L239.234 216.699C238.897 216.2 238.479 215.832 237.98 215.595C237.481 215.358 236.938 215.239 236.351 215.239C235.652 215.239 235.022 215.401 234.46 215.726C233.899 216.038 233.456 216.481 233.131 217.055C232.807 217.629 232.645 218.303 232.645 219.077C232.645 219.85 232.807 220.524 233.131 221.098C233.456 221.672 233.899 222.122 234.46 222.446C235.022 222.758 235.652 222.914 236.351 222.914C236.938 222.914 237.481 222.796 237.98 222.559C238.479 222.321 238.897 221.96 239.234 221.473L240.226 222.147C239.839 222.783 239.309 223.27 238.635 223.607C237.961 223.931 237.206 224.094 236.37 224.094ZM246.054 224.094C245.131 224.094 244.42 223.844 243.92 223.345C243.421 222.846 243.172 222.14 243.172 221.229V212H244.501V221.155C244.501 221.729 244.644 222.172 244.931 222.484C245.231 222.796 245.655 222.952 246.204 222.952C246.791 222.952 247.277 222.783 247.664 222.446L248.132 223.401C247.87 223.638 247.552 223.813 247.178 223.925C246.816 224.037 246.441 224.094 246.054 224.094ZM241.412 215.276V214.172H247.496V215.276H241.412ZM250.552 224V214.172H251.881V224H250.552ZM251.226 212C250.951 212 250.72 211.907 250.533 211.72C250.346 211.532 250.252 211.308 250.252 211.046C250.252 210.784 250.346 210.565 250.533 210.391C250.72 210.203 250.951 210.11 251.226 210.11C251.5 210.11 251.731 210.197 251.918 210.372C252.106 210.547 252.199 210.765 252.199 211.027C252.199 211.302 252.106 211.532 251.918 211.72C251.744 211.907 251.513 212 251.226 212ZM259.585 224.094C258.637 224.094 257.782 223.881 257.021 223.457C256.272 223.02 255.679 222.428 255.242 221.679C254.805 220.917 254.587 220.05 254.587 219.077C254.587 218.091 254.805 217.223 255.242 216.475C255.679 215.726 256.272 215.139 257.021 214.715C257.769 214.291 258.624 214.078 259.585 214.078C260.559 214.078 261.42 214.291 262.169 214.715C262.93 215.139 263.523 215.726 263.947 216.475C264.384 217.223 264.602 218.091 264.602 219.077C264.602 220.05 264.384 220.917 263.947 221.679C263.523 222.428 262.93 223.02 262.169 223.457C261.407 223.881 260.546 224.094 259.585 224.094ZM259.585 222.914C260.297 222.914 260.927 222.758 261.476 222.446C262.025 222.122 262.456 221.672 262.768 221.098C263.092 220.512 263.254 219.838 263.254 219.077C263.254 218.303 263.092 217.629 262.768 217.055C262.456 216.481 262.025 216.038 261.476 215.726C260.927 215.401 260.303 215.239 259.604 215.239C258.905 215.239 258.281 215.401 257.732 215.726C257.183 216.038 256.746 216.481 256.422 217.055C256.097 217.629 255.935 218.303 255.935 219.077C255.935 219.838 256.097 220.512 256.422 221.098C256.746 221.672 257.183 222.122 257.732 222.446C258.281 222.758 258.899 222.914 259.585 222.914ZM272.333 214.078C273.131 214.078 273.83 214.234 274.429 214.546C275.041 214.846 275.515 215.308 275.852 215.932C276.202 216.556 276.376 217.342 276.376 218.29V224H275.047V218.421C275.047 217.386 274.785 216.606 274.261 216.081C273.749 215.545 273.025 215.276 272.089 215.276C271.39 215.276 270.779 215.42 270.255 215.707C269.743 215.982 269.344 216.387 269.057 216.924C268.782 217.448 268.645 218.084 268.645 218.833V224H267.316V214.172H268.589V216.868L268.383 216.362C268.695 215.651 269.194 215.096 269.88 214.696C270.567 214.284 271.384 214.078 272.333 214.078Z" fill="#7D7C7C"/>
<defs>
<radialGradient id="paint0_radial_36_2471" cx="0" cy="0" r="1" gradientUnits="userSpaceOnUse" gradientTransform="translate(183.69 26.91) rotate(110.803) scale(317.905)">
<stop stop-color="#FF6E4E"/>
<stop offset="1" stop-color="#FF8C8F"/>
</radialGradient>
</defs>
</svg>
