<svg width="58" height="58" viewBox="0 0 58 58" fill="none" xmlns="http://www.w3.org/2000/svg">
<path fill-rule="evenodd" clip-rule="evenodd" d="M14.8406 28.5702C14.3827 28.6942 13.9928 28.9948 13.7563 29.4061L4.16893 46.0135C3.99184 46.3201 3.90955 46.6722 3.93247 47.0254C3.95538 47.3787 4.08247 47.7173 4.29767 47.9983C4.51287 48.2794 4.80655 48.4904 5.1416 48.6047C5.47665 48.7189 5.83804 48.7314 6.18015 48.6404L11.7906 47.1363L13.2911 52.7432C13.3826 53.0855 13.5735 53.3929 13.8397 53.6266C14.1059 53.8603 14.4355 54.0098 14.7867 54.0563C15.1379 54.1027 15.4949 54.0439 15.8127 53.8874C16.1305 53.7309 16.3947 53.4837 16.572 53.177L25.3619 37.9547C25.5991 37.5436 25.6634 37.0553 25.5408 36.5969C25.4181 36.1384 25.1185 35.7475 24.7078 35.5097C24.2968 35.2726 23.8085 35.2083 23.35 35.3309C22.8916 35.4535 22.5006 35.7531 22.2629 36.1638L15.6346 47.6435L14.7882 44.4815C14.7276 44.2541 14.6229 44.0408 14.4799 43.8539C14.3369 43.667 14.1584 43.5101 13.9548 43.3921C13.7511 43.2742 13.5262 43.1976 13.2929 43.1667C13.0595 43.1357 12.8224 43.1511 12.5951 43.2118L9.42958 44.0583L16.8553 31.197C17.0925 30.7859 17.1568 30.2976 17.0342 29.8392C16.9115 29.3808 16.612 28.9897 16.2013 28.752C15.9976 28.6337 15.7725 28.5568 15.5391 28.5256C15.3056 28.4943 15.0682 28.5095 14.8406 28.5702Z" fill="#AB0E12"/>
<path fill-rule="evenodd" clip-rule="evenodd" d="M41.7978 28.7519C41.3871 28.9896 41.0875 29.3806 40.9649 29.839C40.8422 30.2974 40.9066 30.7858 41.1437 31.1968L48.5695 44.0581L45.404 43.2117C45.1766 43.1509 44.9395 43.1356 44.7062 43.1665C44.4729 43.1975 44.248 43.2741 44.0443 43.392C43.8406 43.5099 43.6622 43.6668 43.5192 43.8537C43.3762 44.0407 43.2714 44.2539 43.2109 44.4814L42.3644 47.6433L35.7362 36.1637C35.4984 35.753 35.1074 35.4534 34.649 35.3308C34.1906 35.2081 33.7022 35.2724 33.2912 35.5096C32.8805 35.7473 32.5809 36.1383 32.4583 36.5967C32.3357 37.0551 32.4 37.5435 32.6371 37.9545L41.427 53.1768C41.6043 53.4835 41.8686 53.7308 42.1863 53.8873C42.5041 54.0438 42.8612 54.1026 43.2124 54.0561C43.5636 54.0097 43.8931 53.8602 44.1593 53.6264C44.4255 53.3927 44.6165 53.0853 44.7079 52.7431L46.2085 47.1362L51.8189 48.6402C52.161 48.7312 52.5224 48.7188 52.8575 48.6045C53.1925 48.4903 53.4862 48.2793 53.7014 47.9982C53.9166 47.7171 54.0437 47.3786 54.0666 47.0253C54.0895 46.672 54.0072 46.3199 53.8301 46.0134L44.2427 29.406C44.005 28.9953 43.614 28.6957 43.1556 28.573C42.6972 28.4504 42.2088 28.5147 41.7978 28.7519Z" fill="#AB0E12"/>
<path fill-rule="evenodd" clip-rule="evenodd" d="M28.9994 3.92871C19.13 3.92871 11.0908 11.9679 11.0908 21.8373C11.0908 31.7067 19.13 39.7459 28.9994 39.7459C38.8688 39.7459 46.908 31.7067 46.908 21.8373C46.908 11.9679 38.8688 3.92871 28.9994 3.92871ZM28.9994 7.51043C36.9331 7.51043 43.3263 13.9036 43.3263 21.8373C43.3263 29.771 36.9331 36.1642 28.9994 36.1642C21.0657 36.1642 14.6725 29.771 14.6725 21.8373C14.6725 13.9036 21.0657 7.51043 28.9994 7.51043Z" fill="#AB0E12"/>
<path fill-rule="evenodd" clip-rule="evenodd" d="M23.2983 31.624C23.7358 31.738 24.2004 31.683 24.599 31.4699L28.9996 29.114L33.4002 31.4699C33.6974 31.6293 34.0337 31.7017 34.3703 31.679C34.707 31.6563 35.0304 31.5394 35.3034 31.3416C35.5764 31.1438 35.7879 30.8732 35.9136 30.561C36.0394 30.2487 36.0742 29.9074 36.0142 29.5762L35.1271 24.6729L38.7328 21.226C38.9764 20.9934 39.1494 20.697 39.2318 20.3708C39.3142 20.0446 39.3027 19.7019 39.1986 19.3819C39.0945 19.0619 38.9021 18.7777 38.6434 18.5619C38.3847 18.3461 38.0702 18.2074 37.736 18.1618L32.7872 17.4883L30.6143 13.0025C30.4676 12.6998 30.2383 12.4444 29.9527 12.2657C29.6671 12.087 29.3368 11.9922 28.9996 11.9922C28.6625 11.9922 28.3321 12.087 28.0465 12.2657C27.7609 12.4444 27.5316 12.6998 27.3849 13.0025L25.212 17.4883L20.2632 18.1618C19.929 18.2074 19.6145 18.3461 19.3558 18.5619C19.0971 18.7777 18.9047 19.0619 18.8006 19.3819C18.6965 19.7019 18.685 20.0446 18.7674 20.3708C18.8498 20.697 19.0228 20.9934 19.2664 21.226L22.8721 24.6729L21.985 29.5762C21.905 30.0198 21.9958 30.4771 22.2393 30.8568C22.4827 31.2364 22.8609 31.5105 23.2983 31.624ZM31.8254 26.5667L29.8468 25.508C29.5863 25.3687 29.2952 25.2958 28.9996 25.2958C28.704 25.2958 28.4129 25.3687 28.1524 25.508L26.1739 26.5667L26.5725 24.3623C26.625 24.072 26.6047 23.7733 26.5134 23.4928C26.4221 23.2122 26.2626 22.9586 26.0493 22.7544L24.4296 21.2061L26.6523 20.9029C26.9452 20.8627 27.2236 20.7509 27.4627 20.5775C27.7018 20.4041 27.8942 20.1744 28.0228 19.9088L28.9996 17.8909L29.9764 19.9088C30.105 20.1744 30.2974 20.4041 30.5365 20.5775C30.7756 20.7509 31.054 20.8627 31.3469 20.9029L33.5697 21.2061L31.95 22.7544C31.7366 22.9586 31.5771 23.2122 31.4858 23.4928C31.3945 23.7733 31.3742 24.072 31.4267 24.3623L31.8254 26.5667Z" fill="#AB0E12"/>
</svg>
