<svg width="16" height="17" viewBox="0 0 16 17" fill="none" xmlns="http://www.w3.org/2000/svg">
<path d="M14.6463 12.6162C14.6463 12.8562 14.593 13.1028 14.4797 13.3428C14.3663 13.5828 14.2197 13.8095 14.0263 14.0228C13.6997 14.3828 13.3397 14.6428 12.933 14.8095C12.533 14.9762 12.0997 15.0628 11.633 15.0628C10.953 15.0628 10.2263 14.9028 9.45967 14.5762C8.69301 14.2495 7.92634 13.8095 7.16634 13.2562C6.39967 12.6962 5.67301 12.0762 4.97967 11.3895C4.29301 10.6962 3.67301 9.96949 3.11967 9.20949C2.57301 8.44949 2.13301 7.68949 1.81301 6.93616C1.49301 6.17616 1.33301 5.44949 1.33301 4.75616C1.33301 4.30283 1.41301 3.86949 1.57301 3.46949C1.73301 3.06283 1.98634 2.68949 2.33967 2.35616C2.76634 1.93616 3.23301 1.72949 3.72634 1.72949C3.91301 1.72949 4.09967 1.76949 4.26634 1.84949C4.43967 1.92949 4.59301 2.04949 4.71301 2.22283L6.25967 4.40283C6.37967 4.56949 6.46634 4.72283 6.52634 4.86949C6.58634 5.00949 6.61967 5.14949 6.61967 5.27616C6.61967 5.43616 6.57301 5.59616 6.47967 5.74949C6.39301 5.90283 6.26634 6.06283 6.10634 6.22283L5.59967 6.74949C5.52634 6.82283 5.49301 6.90949 5.49301 7.01616C5.49301 7.06949 5.49967 7.11616 5.51301 7.16949C5.53301 7.22283 5.55301 7.26282 5.56634 7.30282C5.68634 7.52282 5.89301 7.80949 6.18634 8.15616C6.48634 8.50283 6.80634 8.85616 7.15301 9.20949C7.51301 9.56283 7.85967 9.88949 8.21301 10.1895C8.55967 10.4828 8.84634 10.6828 9.07301 10.8028C9.10634 10.8162 9.14634 10.8362 9.19301 10.8562C9.24634 10.8762 9.29967 10.8828 9.35967 10.8828C9.47301 10.8828 9.55967 10.8428 9.63301 10.7695L10.1397 10.2695C10.3063 10.1028 10.4663 9.97616 10.6197 9.89616C10.773 9.80283 10.9263 9.75616 11.093 9.75616C11.2197 9.75616 11.353 9.78283 11.4997 9.84283C11.6463 9.90283 11.7997 9.98949 11.9663 10.1028L14.173 11.6695C14.3463 11.7895 14.4663 11.9295 14.5397 12.0962C14.6063 12.2628 14.6463 12.4295 14.6463 12.6162Z" stroke="white" stroke-miterlimit="10"/>
</svg>
