<svg width="459" height="459" viewBox="0 0 459 459" fill="none" xmlns="http://www.w3.org/2000/svg">
<circle cx="229.5" cy="229.5" r="229.133" stroke="#AB0E12" stroke-width="0.7344" stroke-dasharray="5.88 5.88"/>
<path fill-rule="evenodd" clip-rule="evenodd" d="M442.952 229.976C442.952 347.599 347.599 442.952 229.976 442.952C112.353 442.952 17 347.599 17 229.976C17 112.353 112.353 17 229.976 17C347.599 17 442.952 112.353 442.952 229.976ZM229.976 379.794C312.718 379.794 379.794 312.718 379.794 229.976C379.794 147.234 312.718 80.1584 229.976 80.1584C147.234 80.1584 80.1584 147.234 80.1584 229.976C80.1584 312.718 147.234 379.794 229.976 379.794Z" fill="#AB0E12"/>
<path d="M80.3205 147.824C79.642 149.149 78.781 150.142 77.7375 150.805C76.6801 151.46 75.4859 151.764 74.1551 151.716C72.8242 151.668 71.371 151.24 69.7953 150.433C68.1219 149.576 66.8602 148.551 66.0099 147.359C65.1668 146.153 64.7204 144.859 64.6708 143.478C64.6283 142.083 64.9678 140.682 65.6892 139.273C66.0677 138.534 66.5051 137.869 67.0014 137.279C67.5047 136.674 68.0382 136.217 68.6018 135.907L70.1373 137.961C69.6653 138.229 69.259 138.576 68.9185 139C68.5713 139.403 68.2655 139.862 68.0012 140.378C67.2941 141.759 67.1587 143.071 67.5951 144.316C68.0314 145.56 69.0792 146.607 70.7386 147.457C71.0036 147.593 71.3209 147.747 71.6906 147.919C72.0463 148.083 72.4269 148.217 72.8323 148.319L71.4834 148.684C71.0403 148.14 70.7412 147.556 70.5861 146.93C70.4242 146.284 70.3992 145.611 70.5111 144.912C70.6302 144.198 70.8719 143.486 71.2361 142.775C71.729 141.813 72.3565 141.051 73.1187 140.491C73.8669 139.924 74.697 139.592 75.6088 139.496C76.5067 139.393 77.4088 139.573 78.3152 140.037C79.2774 140.53 79.9926 141.196 80.4609 142.034C80.9292 142.872 81.1515 143.796 81.1277 144.805C81.1038 145.814 80.8348 146.82 80.3205 147.824ZM78.112 146.878C78.3977 146.32 78.5537 145.775 78.5799 145.242C78.5921 144.703 78.4707 144.218 78.2157 143.789C77.9677 143.345 77.5928 142.994 77.0908 142.737C76.3238 142.344 75.5815 142.298 74.8639 142.6C74.1463 142.901 73.5589 143.498 73.1018 144.39C72.8018 144.976 72.6491 145.549 72.6436 146.11C72.6313 146.649 72.7456 147.148 72.9864 147.605C73.2343 148.049 73.6023 148.396 74.0904 148.646C74.5366 148.875 75.0087 148.967 75.5066 148.923C76.0045 148.879 76.4793 148.69 76.931 148.359C77.3898 148.013 77.7835 147.519 78.112 146.878Z" fill="white"/>
<path d="M94.3172 124.834L89.1218 120.912L91.0329 121.501L77.294 120.08L79.2622 117.473L90.3134 118.631L89.209 120.094L85.096 109.746L86.9085 107.345L92.0382 120.169L90.9625 118.474L96.158 122.396L94.3172 124.834Z" fill="white"/>
<path d="M98.9722 104.103L104.619 98.1876L106.438 99.9239L100.791 105.84L98.9722 104.103ZM104.234 108.801L110.644 102.087L112.497 103.856L103.978 112.78L92.0782 101.421L100.37 92.7345L102.223 94.5033L96.0407 100.98L104.234 108.801Z" fill="white"/>
<path d="M115.933 100.462L111.191 83.0572L113.514 81.1452L129.703 89.1245L127.236 91.156L112.893 83.7563L113.837 82.9796L118.364 98.4607L115.933 100.462ZM116.144 95.3573L115.255 92.9839L122.113 87.3374L124.272 88.6651L116.144 95.3573Z" fill="white"/>
<path d="M134.19 86.0509L125.386 72.1548L131.103 68.5324C132.334 67.7526 133.512 67.2845 134.637 67.1281C135.775 66.9633 136.817 67.1006 137.763 67.5398C138.709 67.9791 139.505 68.7082 140.151 69.7273C140.797 70.7463 141.116 71.7773 141.109 72.8203C141.094 73.8501 140.769 74.8444 140.134 75.8032C139.503 76.7405 138.573 77.599 137.342 78.3788L133.054 81.0956L133.463 79.1949L136.771 84.4158L134.19 86.0509ZM143.283 80.2903L136.574 77.4743L139.333 75.726L146.062 78.5294L143.283 80.2903ZM133.639 79.4728L131.708 78.9715L135.877 76.3302C137.015 75.609 137.714 74.8233 137.972 73.9731C138.244 73.1145 138.104 72.2484 137.55 71.375C136.989 70.4883 136.266 69.9912 135.381 69.8837C134.51 69.7678 133.506 70.0704 132.368 70.7916L128.199 73.4329L128.545 71.4329L133.639 79.4728Z" fill="white"/>
<path d="M156.86 73.2888C155.701 73.8442 154.514 74.2135 153.299 74.3966C152.077 74.5656 151.03 74.5377 150.157 74.3131L150.085 71.7156C150.902 71.8973 151.823 71.9335 152.848 71.8244C153.872 71.7152 154.844 71.4405 155.762 71.0002C156.539 70.6276 157.127 70.2414 157.526 69.8416C157.925 69.4418 158.17 69.0464 158.261 68.6555C158.345 68.2504 158.298 67.8642 158.122 67.4969C157.905 67.0448 157.57 66.7625 157.117 66.6499C156.656 66.5231 156.127 66.5074 155.53 66.6026C154.94 66.6769 154.294 66.7959 153.59 66.9594C152.901 67.1162 152.194 67.2551 151.471 67.3763C150.754 67.4766 150.063 67.5037 149.399 67.4576C148.741 67.3907 148.128 67.1808 147.559 66.828C146.99 66.4753 146.516 65.9033 146.137 65.1122C145.751 64.3069 145.61 63.4707 145.716 62.6035C145.829 61.7154 146.228 60.8636 146.914 60.0481C147.608 59.2116 148.633 58.4683 149.989 57.818C150.879 57.3913 151.816 57.0809 152.8 56.887C153.785 56.6931 154.703 56.6522 155.556 56.7644L155.714 59.3213C154.86 59.2441 154.036 59.283 153.242 59.438C152.441 59.5789 151.715 59.8052 151.065 60.1168C150.302 60.4826 149.725 60.8724 149.332 61.2864C148.954 61.6936 148.723 62.0997 148.64 62.5048C148.57 62.903 148.627 63.2929 148.809 63.6743C149.026 64.1264 149.358 64.4192 149.804 64.5527C150.258 64.6653 150.776 64.6774 151.359 64.589C151.956 64.4937 152.61 64.3714 153.32 64.222C154.024 64.0584 154.73 63.9195 155.44 63.8051C156.164 63.6839 156.851 63.6498 157.502 63.7026C158.167 63.7486 158.777 63.9514 159.331 64.311C159.9 64.6638 160.371 65.2287 160.743 66.0056C161.123 66.7968 161.256 67.6364 161.143 68.5245C161.038 69.3917 160.638 70.2435 159.944 71.0799C159.244 71.9022 158.216 72.6385 156.86 73.2888Z" fill="white"/>
<path d="M186.243 62.3529C185.003 62.6871 183.806 62.7905 182.652 62.6632C181.498 62.5359 180.438 62.2131 179.47 61.6948C178.499 61.1614 177.669 60.46 176.981 59.5908C176.288 58.7065 175.783 57.6743 175.465 56.4943C175.147 55.3143 175.068 54.1756 175.227 53.0782C175.381 51.9657 175.747 50.9424 176.322 50.0085C176.894 49.0594 177.647 48.24 178.581 47.5504C179.515 46.8607 180.594 46.3509 181.82 46.0208C183.06 45.6867 184.25 45.5853 185.389 45.7166C186.542 45.8439 187.605 46.1743 188.576 46.7077C189.543 47.226 190.373 47.9273 191.066 48.8117C191.754 49.6809 192.257 50.7055 192.575 51.8855C192.893 53.0655 192.975 54.2117 192.82 55.3243C192.665 56.4368 192.3 57.4601 191.724 58.3941C191.148 59.328 190.393 60.1398 189.459 60.8295C188.541 61.515 187.469 62.0228 186.243 62.3529ZM185.524 59.7721C186.326 59.5562 187.03 59.2203 187.638 58.7646C188.245 58.309 188.731 57.7643 189.096 57.1306C189.457 56.4818 189.683 55.7879 189.776 55.0489C189.88 54.2907 189.822 53.5031 189.602 52.6862C189.382 51.8693 189.039 51.1668 188.572 50.5786C188.117 49.9711 187.572 49.4851 186.938 49.1203C186.3 48.7404 185.604 48.506 184.85 48.4171C184.096 48.3282 183.318 48.3917 182.517 48.6077C181.715 48.8237 181.01 49.1595 180.403 49.6152C179.81 50.0668 179.326 50.619 178.951 51.2719C178.586 51.9056 178.351 52.6016 178.247 53.3598C178.154 54.0987 178.218 54.8767 178.438 55.6936C178.654 56.4954 178.99 57.2 179.445 57.8074C179.916 58.4107 180.471 58.9023 181.108 59.2822C181.742 59.6469 182.436 59.8738 183.19 59.9627C183.944 60.0516 184.722 59.9881 185.524 59.7721Z" fill="white"/>
<path d="M202.766 49.5264L210.888 48.3896L211.246 50.9498L203.124 52.0865L202.766 49.5264ZM204.253 58.2881L201.227 58.7116L198.947 42.4198L210.84 40.7553L211.195 43.2922L202.328 44.5332L204.253 58.2881Z" fill="white"/>
<path d="M233.113 46.7092L241.286 46.989L241.2 49.5022L233.027 49.2223L233.113 46.7092ZM233.107 53.7633L242.384 54.081L242.296 56.6411L229.966 56.2189L230.529 39.7779L242.53 40.1889L242.443 42.749L233.494 42.4426L233.107 53.7633Z" fill="white"/>
<path d="M247.444 57.0172L255.741 48.6347L255.392 50.9112L250.258 40.8058L253.673 41.3285L257.497 48.8084L256.1 48.6183L261.943 42.5943L265.218 43.0957L257.368 51.0473L257.703 48.8637L263.148 59.4209L259.663 58.8875L255.648 50.9503L257.018 51.1601L250.882 57.5435L247.444 57.0172Z" fill="white"/>
<path d="M276.586 63.1048C275.38 62.7659 274.311 62.2542 273.381 61.5697C272.469 60.8744 271.731 60.0566 271.165 59.1166C270.618 58.1656 270.274 57.1331 270.131 56.019C269.988 54.9048 270.082 53.7595 270.412 52.583C270.743 51.4065 271.259 50.3798 271.961 49.5029C272.663 48.626 273.5 47.9336 274.473 47.4257C275.45 46.9026 276.506 46.5891 277.642 46.485C278.782 46.3658 279.963 46.4778 281.185 46.821C282.482 47.1853 283.602 47.7442 284.546 48.4975C285.494 49.2357 286.215 50.146 286.708 51.2284L284.306 52.482C283.906 51.7026 283.394 51.0625 282.77 50.5617C282.15 50.0458 281.425 49.6714 280.596 49.4384C279.766 49.2054 278.966 49.1272 278.196 49.2038C277.441 49.2847 276.738 49.5019 276.085 49.8557C275.447 50.2136 274.89 50.6917 274.413 51.29C273.951 51.8925 273.605 52.601 273.376 53.4155C273.148 54.23 273.074 55.0148 273.154 55.7698C273.25 56.529 273.477 57.2274 273.835 57.865C274.208 58.5068 274.696 59.0588 275.299 59.5209C275.916 59.9873 276.64 60.337 277.469 60.57C278.299 60.803 279.111 60.8683 279.904 60.7657C280.702 60.6481 281.477 60.353 282.228 59.8805L283.62 62.2243C282.639 62.8765 281.55 63.2784 280.352 63.4301C279.154 63.5818 277.899 63.4734 276.586 63.1048Z" fill="white"/>
<path d="M295.63 59.1755L303.183 62.3121L302.218 64.6344L294.666 61.4978L295.63 59.1755ZM293.143 65.7767L301.716 69.337L300.733 71.7027L289.339 66.9707L295.648 51.7782L306.739 56.3839L305.756 58.7496L297.487 55.3156L293.143 65.7767Z" fill="white"/>
<path d="M307.161 74.8837L315.118 60.4854L317.792 61.9631L311.086 74.0988L318.614 78.2591L317.364 80.5217L307.161 74.8837Z" fill="white"/>
<path d="M322.75 83.9727L332.198 70.5062L334.699 72.2609L326.735 83.6113L333.776 88.5515L332.292 90.6676L322.75 83.9727Z" fill="white"/>
<path d="M345.758 89.3074L351.89 94.7188L350.226 96.6042L344.094 91.1928L345.758 89.3074ZM341.269 94.7491L348.229 100.891L346.534 102.812L337.283 94.6482L348.168 82.3138L357.173 90.2598L355.478 92.1805L348.764 86.2559L341.269 94.7491Z" fill="white"/>
<path d="M351.621 107.82L363.949 96.9271L365.614 98.8115L362.953 114.93L362.128 113.997L371.621 105.609L373.628 107.881L361.3 118.774L359.635 116.889L362.296 100.771L363.121 101.704L353.629 110.091L351.621 107.82Z" fill="white"/>
<path d="M370.11 131.388C369.408 130.35 368.922 129.27 368.653 128.146C368.406 127.027 368.369 125.926 368.544 124.842C368.74 123.763 369.144 122.752 369.754 121.809C370.364 120.866 371.175 120.052 372.187 119.366C373.198 118.681 374.255 118.23 375.358 118.014C376.46 117.797 377.546 117.809 378.617 118.048C379.701 118.279 380.71 118.722 381.644 119.376C382.592 120.02 383.422 120.868 384.133 121.919C384.889 123.035 385.384 124.185 385.619 125.369C385.866 126.545 385.829 127.706 385.507 128.851L382.863 128.257C383.061 127.404 383.083 126.585 382.93 125.8C382.789 125.005 382.478 124.252 381.994 123.538C381.511 122.825 380.951 122.249 380.313 121.81C379.684 121.384 379.006 121.096 378.28 120.945C377.562 120.807 376.827 120.812 376.077 120.961C375.335 121.123 374.613 121.441 373.913 121.915C373.213 122.39 372.649 122.942 372.224 123.57C371.807 124.212 371.53 124.892 371.391 125.61C371.262 126.341 371.278 127.078 371.44 127.819C371.611 128.574 371.938 129.308 372.421 130.022C372.904 130.735 373.482 131.309 374.154 131.743C374.84 132.168 375.622 132.443 376.5 132.567L376.051 135.255C374.881 135.121 373.789 134.724 372.776 134.067C371.763 133.41 370.875 132.517 370.11 131.388Z" fill="white"/>
<path d="M387.192 140.679L390.936 147.95L388.701 149.102L384.957 141.831L387.192 140.679ZM381.032 144.116L385.282 152.369L383.004 153.542L377.356 142.572L391.981 135.041L397.479 145.718L395.202 146.891L391.103 138.93L381.032 144.116Z" fill="white"/>
<path d="M64.9589 330.51C64.1288 329.275 63.6768 328.04 63.6028 326.806C63.5419 325.564 63.8548 324.372 64.5416 323.231C65.2284 322.09 66.3066 321.026 67.7761 320.038C69.3366 318.99 70.8445 318.383 72.2995 318.217C73.7634 318.064 75.1113 318.3 76.3433 318.926C77.584 319.564 78.6456 320.54 79.528 321.854C79.9911 322.543 80.3608 323.248 80.6372 323.968C80.9223 324.702 81.0638 325.39 81.0618 326.033L78.521 326.381C78.5147 325.838 78.4085 325.315 78.2025 324.811C78.0182 324.312 77.7644 323.822 77.4411 323.341C76.5761 322.053 75.4936 321.299 74.1935 321.078C72.8935 320.857 71.4697 321.266 69.9221 322.306C69.6751 322.472 69.3868 322.675 69.0574 322.915C68.7411 323.146 68.44 323.415 68.1543 323.72L68.4884 322.363C69.1789 322.239 69.8351 322.26 70.4571 322.427C71.1008 322.599 71.7015 322.903 72.2593 323.34C72.8258 323.79 73.3319 324.346 73.7775 325.01C74.3804 325.907 74.7422 326.825 74.8629 327.763C74.9966 328.692 74.8846 329.579 74.527 330.423C74.1823 331.259 73.5874 331.961 72.7421 332.529C71.8448 333.132 70.916 333.435 69.9557 333.438C68.9954 333.442 68.0798 333.189 67.2089 332.679C66.338 332.169 65.588 331.446 64.9589 330.51ZM66.8568 329.037C67.2063 329.557 67.6075 329.957 68.0605 330.238C68.5264 330.51 69.0092 330.639 69.5088 330.624C70.0172 330.622 70.5055 330.464 70.9737 330.149C71.6889 329.669 72.0886 329.042 72.1727 328.268C72.2569 327.494 72.0193 326.691 71.4601 325.859C71.0932 325.313 70.6658 324.901 70.1782 324.625C69.7122 324.353 69.2207 324.211 68.7036 324.2C68.1952 324.202 67.7134 324.356 67.2582 324.662C66.8421 324.941 66.5327 325.309 66.3301 325.766C66.1276 326.223 66.062 326.73 66.1335 327.286C66.2138 327.855 66.4549 328.438 66.8568 329.037Z" fill="white"/>
<path d="M82.3751 352.337L87.1549 347.918L86.2371 349.695L90.0669 336.424L92.2845 338.823L89.1886 349.494L87.9442 348.148L98.8574 345.932L100.899 348.141L87.3698 350.92L89.2289 350.161L84.4491 354.58L82.3751 352.337Z" fill="white"/>
<path d="M102.079 358.501L108.22 363.903L106.559 365.791L100.418 360.389L102.079 358.501ZM97.5988 363.949L104.568 370.081L102.876 372.004L93.6131 363.855L104.479 351.503L113.495 359.436L111.803 361.359L105.081 355.445L97.5988 363.949Z" fill="white"/>
<path d="M107.106 375.51L122.64 366.338L125.098 368.073L121.679 385.795L119.067 383.952L122.415 368.165L123.414 368.869L109.679 377.326L107.106 375.51ZM112.085 374.364L114.14 372.88L121.397 378.003L120.687 380.435L112.085 374.364Z" fill="white"/>
<path d="M126.939 388.938L134.882 374.532L140.809 377.8C142.085 378.504 143.063 379.311 143.741 380.222C144.433 381.14 144.815 382.12 144.885 383.16C144.955 384.201 144.699 385.25 144.117 386.306C143.534 387.362 142.784 388.139 141.866 388.635C140.956 389.117 139.928 389.31 138.782 389.215C137.657 389.114 136.457 388.711 135.181 388.008L130.736 385.557L132.599 385L129.614 390.413L126.939 388.938ZM136.365 394.135L135.604 386.899L138.465 388.476L139.246 395.724L136.365 394.135ZM132.44 385.289L131.95 383.354L136.272 385.737C137.452 386.388 138.476 386.622 139.346 386.44C140.23 386.265 140.921 385.725 141.421 384.819C141.927 383.9 142.015 383.027 141.684 382.2C141.366 381.381 140.618 380.646 139.438 379.996L135.116 377.613L137.036 376.954L132.44 385.289Z" fill="white"/>
<path d="M150.704 401.128C149.52 400.629 148.457 399.986 147.514 399.197C146.577 398.394 145.904 397.592 145.494 396.79L147.39 395.013C147.796 395.745 148.379 396.459 149.14 397.154C149.901 397.849 150.751 398.394 151.69 398.79C152.484 399.124 153.163 399.309 153.726 399.342C154.29 399.376 154.749 399.297 155.101 399.106C155.46 398.9 155.719 398.609 155.877 398.234C156.072 397.772 156.061 397.334 155.844 396.919C155.634 396.491 155.295 396.084 154.828 395.7C154.381 395.308 153.864 394.903 153.275 394.485C152.7 394.072 152.128 393.636 151.557 393.174C151.007 392.704 150.529 392.205 150.123 391.677C149.737 391.14 149.488 390.542 149.375 389.882C149.262 389.222 149.376 388.488 149.716 387.68C150.063 386.857 150.596 386.198 151.315 385.702C152.055 385.197 152.958 384.932 154.023 384.905C155.109 384.869 156.345 385.144 157.731 385.728C158.641 386.112 159.494 386.607 160.292 387.216C161.09 387.824 161.729 388.485 162.211 389.198L160.401 391.011C159.893 390.32 159.317 389.729 158.675 389.237C158.038 388.731 157.388 388.338 156.723 388.058C155.944 387.729 155.269 387.555 154.699 387.536C154.144 387.523 153.686 387.619 153.328 387.825C152.983 388.037 152.729 388.338 152.565 388.728C152.37 389.19 152.37 389.632 152.566 390.054C152.783 390.469 153.117 390.865 153.57 391.243C154.037 391.627 154.562 392.035 155.145 392.468C155.734 392.886 156.306 393.323 156.862 393.778C157.433 394.24 157.914 394.732 158.306 395.254C158.713 395.782 158.965 396.373 159.064 397.027C159.176 397.687 159.066 398.413 158.731 399.207C158.39 400.016 157.85 400.672 157.11 401.177C156.391 401.673 155.489 401.938 154.403 401.973C153.323 401.994 152.09 401.713 150.704 401.128Z" fill="white"/>
<path d="M181.548 411.277C180.298 410.978 179.197 410.497 178.244 409.834C177.291 409.171 176.514 408.381 175.911 407.464C175.313 406.531 174.919 405.519 174.729 404.426C174.543 403.319 174.592 402.171 174.876 400.982C175.161 399.793 175.634 398.755 176.298 397.867C176.965 396.963 177.775 396.238 178.727 395.693C179.683 395.132 180.735 394.772 181.885 394.612C183.035 394.452 184.227 394.52 185.461 394.815C186.711 395.114 187.804 395.593 188.742 396.252C189.695 396.915 190.471 397.713 191.069 398.645C191.671 399.562 192.065 400.575 192.252 401.683C192.441 402.775 192.394 403.916 192.11 405.104C191.825 406.293 191.35 407.339 190.683 408.242C190.015 409.146 189.206 409.87 188.254 410.416C187.302 410.961 186.251 411.314 185.101 411.474C183.966 411.638 182.782 411.572 181.548 411.277ZM182.148 408.666C182.956 408.859 183.735 408.9 184.486 408.79C185.238 408.68 185.925 408.433 186.548 408.051C187.175 407.653 187.705 407.152 188.14 406.547C188.594 405.93 188.919 405.211 189.116 404.388C189.312 403.565 189.346 402.784 189.217 402.044C189.107 401.293 188.86 400.606 188.478 399.983C188.099 399.344 187.599 398.806 186.979 398.368C186.359 397.929 185.645 397.614 184.838 397.42C184.03 397.227 183.251 397.186 182.5 397.296C181.764 397.41 181.075 397.664 180.433 398.058C179.809 398.441 179.271 398.94 178.818 399.557C178.383 400.162 178.067 400.875 177.87 401.698C177.677 402.506 177.636 403.285 177.746 404.036C177.872 404.791 178.124 405.488 178.503 406.126C178.885 406.749 179.387 407.28 180.007 407.718C180.627 408.157 181.341 408.472 182.148 408.666Z" fill="white"/>
<path d="M201.28 405.755L209.419 406.77L209.099 409.335L200.96 408.32L201.28 405.755ZM200.437 414.602L197.405 414.224L199.441 397.899L211.358 399.386L211.041 401.927L202.156 400.819L200.437 414.602Z" fill="white"/>
<path d="M229.66 406.801L237.835 406.551L237.912 409.064L229.737 409.314L229.66 406.801ZM230.11 413.84L239.389 413.557L239.467 416.117L227.135 416.494L226.633 400.051L238.636 399.684L238.714 402.245L229.765 402.518L230.11 413.84Z" fill="white"/>
<path d="M245.269 415.727L250.849 405.337L251.16 407.619L243.373 399.383L246.796 398.916L252.583 405.006L251.189 405.219L255.085 397.786L258.368 397.338L253.094 407.189L252.796 405L261.01 413.581L257.517 414.057L251.417 407.584L252.79 407.397L248.715 415.257L245.269 415.727Z" fill="white"/>
<path d="M275.324 410.589C274.108 410.892 272.926 410.977 271.779 410.843C270.643 410.69 269.596 410.345 268.639 409.809C267.693 409.254 266.882 408.527 266.206 407.63C265.53 406.733 265.045 405.691 264.749 404.506C264.454 403.32 264.394 402.172 264.569 401.063C264.745 399.953 265.129 398.937 265.722 398.014C266.312 397.076 267.074 396.281 268.01 395.628C268.941 394.959 270.022 394.472 271.254 394.165C272.561 393.839 273.811 393.769 275.004 393.956C276.194 394.128 277.271 394.562 278.235 395.258L276.769 397.537C276.036 397.058 275.274 396.755 274.484 396.629C273.69 396.488 272.875 396.522 272.039 396.73C271.203 396.939 270.469 397.267 269.838 397.715C269.222 398.159 268.718 398.696 268.326 399.327C267.95 399.954 267.702 400.645 267.584 401.401C267.481 402.154 267.532 402.94 267.736 403.761C267.941 404.582 268.265 405.3 268.71 405.916C269.169 406.528 269.712 407.023 270.339 407.399C270.981 407.772 271.678 408.01 272.43 408.113C273.198 408.212 273.999 408.158 274.836 407.949C275.672 407.741 276.409 407.396 277.048 406.913C277.683 406.416 278.209 405.776 278.628 404.994L280.998 406.34C280.469 407.393 279.722 408.281 278.756 409.006C277.791 409.731 276.647 410.259 275.324 410.589Z" fill="white"/>
<path d="M288.066 396.506L295.746 393.693L296.611 396.054L288.932 398.867L288.066 396.506ZM290.713 403.045L299.429 399.852L300.31 402.257L288.725 406.502L283.066 391.055L294.342 386.924L295.223 389.329L286.816 392.409L290.713 403.045Z" fill="white"/>
<path d="M307.458 399.156L300.295 384.346L303.046 383.016L309.083 395.499L316.826 391.754L317.951 394.081L307.458 399.156Z" fill="white"/>
<path d="M324.061 390.683L315.52 376.623L318.131 375.037L325.33 386.887L332.681 382.421L334.023 384.631L324.061 390.683Z" fill="white"/>
<path d="M336.276 371.299L342.811 366.382L344.323 368.391L337.788 373.309L336.276 371.299ZM340.703 376.791L348.12 371.209L349.661 373.256L339.803 380.675L329.91 367.531L339.506 360.31L341.046 362.357L333.892 367.741L340.703 376.791Z" fill="white"/>
<path d="M355.677 368.247L344.393 356.276L346.223 354.551L362.419 356.692L361.512 357.546L352.824 348.329L355.03 346.25L366.313 358.22L364.484 359.945L348.288 357.804L349.194 356.95L357.883 366.167L355.677 368.247Z" fill="white"/>
<path d="M377.212 346.35C376.404 347.309 375.496 348.07 374.488 348.634C373.478 349.176 372.428 349.51 371.338 349.636C370.246 349.74 369.163 349.627 368.09 349.296C367.016 348.965 366.013 348.405 365.078 347.618C364.144 346.83 363.423 345.935 362.915 344.934C362.407 343.932 362.123 342.883 362.063 341.787C361.991 340.682 362.143 339.59 362.518 338.513C362.881 337.426 363.472 336.397 364.29 335.427C365.158 334.397 366.13 333.608 367.207 333.06C368.271 332.502 369.398 332.223 370.588 332.222L370.735 334.928C369.86 334.969 369.065 335.17 368.351 335.531C367.625 335.882 366.984 336.387 366.429 337.046C365.874 337.705 365.471 338.4 365.223 339.133C364.984 339.854 364.89 340.585 364.942 341.325C365.004 342.054 365.209 342.759 365.556 343.441C365.914 344.111 366.416 344.719 367.062 345.264C367.709 345.809 368.393 346.201 369.114 346.44C369.845 346.667 370.575 346.749 371.303 346.687C372.042 346.613 372.746 346.397 373.416 346.04C374.096 345.671 374.714 345.157 375.269 344.498C375.825 343.839 376.22 343.127 376.455 342.362C376.678 341.587 376.73 340.76 376.61 339.881L379.32 339.583C379.508 340.746 379.423 341.904 379.066 343.057C378.708 344.21 378.09 345.308 377.212 346.35Z" fill="white"/>
<path d="M379.286 327.472L383.86 320.693L385.945 322.099L381.371 328.879L379.286 327.472ZM385.262 331.221L390.454 323.525L392.577 324.958L385.677 335.186L372.04 325.985L378.756 316.03L380.88 317.463L375.872 324.885L385.262 331.221Z" fill="white"/>
<circle cx="50.0481" cy="233.648" r="6.6096" fill="white"/>
<circle cx="409.904" cy="233.648" r="6.6096" fill="white"/>
<path d="M157.825 238V197.063L161.415 200.779H148.504V193.914H166.012V238H157.825ZM193.147 238.63C189.663 238.63 186.514 237.748 183.701 235.985C180.929 234.221 178.746 231.66 177.151 228.301C175.555 224.9 174.757 220.786 174.757 215.957C174.757 211.129 175.555 207.035 177.151 203.676C178.746 200.275 180.929 197.693 183.701 195.93C186.514 194.166 189.663 193.285 193.147 193.285C196.674 193.285 199.823 194.166 202.594 195.93C205.365 197.693 207.549 200.275 209.144 203.676C210.782 207.035 211.6 211.129 211.6 215.957C211.6 220.786 210.782 224.9 209.144 228.301C207.549 231.66 205.365 234.221 202.594 235.985C199.823 237.748 196.674 238.63 193.147 238.63ZM193.147 231.513C195.205 231.513 196.989 230.967 198.501 229.876C200.012 228.742 201.188 227.021 202.028 224.711C202.909 222.402 203.35 219.484 203.35 215.957C203.35 212.388 202.909 209.47 202.028 207.203C201.188 204.894 200.012 203.193 198.501 202.102C196.989 200.968 195.205 200.401 193.147 200.401C191.174 200.401 189.411 200.968 187.857 202.102C186.346 203.193 185.149 204.894 184.267 207.203C183.428 209.47 183.008 212.388 183.008 215.957C183.008 219.484 183.428 222.402 184.267 224.711C185.149 227.021 186.346 228.742 187.857 229.876C189.411 230.967 191.174 231.513 193.147 231.513ZM235.523 238.63C232.038 238.63 228.889 237.748 226.076 235.985C223.305 234.221 221.122 231.66 219.526 228.301C217.931 224.9 217.133 220.786 217.133 215.957C217.133 211.129 217.931 207.035 219.526 203.676C221.122 200.275 223.305 197.693 226.076 195.93C228.889 194.166 232.038 193.285 235.523 193.285C239.05 193.285 242.199 194.166 244.97 195.93C247.741 197.693 249.925 200.275 251.52 203.676C253.158 207.035 253.976 211.129 253.976 215.957C253.976 220.786 253.158 224.9 251.52 228.301C249.925 231.66 247.741 234.221 244.97 235.985C242.199 237.748 239.05 238.63 235.523 238.63ZM235.523 231.513C237.581 231.513 239.365 230.967 240.877 229.876C242.388 228.742 243.564 227.021 244.403 224.711C245.285 222.402 245.726 219.484 245.726 215.957C245.726 212.388 245.285 209.47 244.403 207.203C243.564 204.894 242.388 203.193 240.877 202.102C239.365 200.968 237.581 200.401 235.523 200.401C233.55 200.401 231.787 200.968 230.233 202.102C228.721 203.193 227.525 204.894 226.643 207.203C225.803 209.47 225.384 212.388 225.384 215.957C225.384 219.484 225.803 222.402 226.643 224.711C227.525 227.021 228.721 228.742 230.233 229.876C231.787 230.967 233.55 231.513 235.523 231.513ZM265.681 238L295.785 193.914H301.957L271.853 238H265.681ZM269.334 217.658C267.277 217.658 265.45 217.154 263.855 216.146C262.259 215.138 261.021 213.732 260.139 211.926C259.257 210.121 258.816 208.001 258.816 205.566C258.816 203.13 259.257 201.01 260.139 199.205C261.021 197.399 262.259 195.993 263.855 194.985C265.45 193.977 267.277 193.474 269.334 193.474C271.475 193.474 273.323 193.977 274.876 194.985C276.472 195.993 277.71 197.399 278.592 199.205C279.474 201.01 279.914 203.13 279.914 205.566C279.914 208.001 279.474 210.121 278.592 211.926C277.71 213.732 276.472 215.138 274.876 216.146C273.323 217.154 271.475 217.658 269.334 217.658ZM269.397 213.249C271.076 213.249 272.378 212.598 273.302 211.297C274.267 209.953 274.75 208.043 274.75 205.566C274.75 203.088 274.267 201.199 273.302 199.897C272.378 198.554 271.076 197.882 269.397 197.882C267.717 197.882 266.374 198.554 265.366 199.897C264.401 201.241 263.918 203.13 263.918 205.566C263.918 208.001 264.401 209.89 265.366 211.234C266.374 212.577 267.717 213.249 269.397 213.249ZM298.242 238.441C296.184 238.441 294.358 237.937 292.762 236.929C291.167 235.922 289.928 234.515 289.047 232.71C288.165 230.904 287.724 228.784 287.724 226.349C287.724 223.914 288.165 221.793 289.047 219.988C289.928 218.182 291.167 216.776 292.762 215.768C294.358 214.761 296.184 214.257 298.242 214.257C300.383 214.257 302.23 214.761 303.784 215.768C305.379 216.776 306.618 218.182 307.499 219.988C308.381 221.793 308.822 223.914 308.822 226.349C308.822 228.784 308.381 230.904 307.499 232.71C306.618 234.515 305.379 235.922 303.784 236.929C302.23 237.937 300.383 238.441 298.242 238.441ZM298.242 234.032C299.921 234.032 301.244 233.361 302.209 232.017C303.175 230.673 303.658 228.784 303.658 226.349C303.658 223.914 303.175 222.024 302.209 220.681C301.244 219.337 299.921 218.665 298.242 218.665C296.604 218.665 295.281 219.337 294.274 220.681C293.308 221.982 292.825 223.872 292.825 226.349C292.825 228.826 293.308 230.736 294.274 232.08C295.281 233.382 296.604 234.032 298.242 234.032Z" fill="#222222"/>
<path d="M157.352 274.112C156.605 274.112 155.915 273.991 155.28 273.748C154.655 273.496 154.109 273.146 153.642 272.698C153.185 272.241 152.825 271.709 152.564 271.102C152.303 270.495 152.172 269.828 152.172 269.1C152.172 268.372 152.303 267.705 152.564 267.098C152.825 266.491 153.189 265.964 153.656 265.516C154.123 265.059 154.669 264.709 155.294 264.466C155.929 264.214 156.619 264.088 157.366 264.088C158.122 264.088 158.817 264.219 159.452 264.48C160.096 264.732 160.642 265.11 161.09 265.614L160.18 266.496C159.807 266.104 159.387 265.815 158.92 265.628C158.453 265.432 157.954 265.334 157.422 265.334C156.871 265.334 156.358 265.427 155.882 265.614C155.415 265.801 155.009 266.062 154.664 266.398C154.319 266.734 154.048 267.135 153.852 267.602C153.665 268.059 153.572 268.559 153.572 269.1C153.572 269.641 153.665 270.145 153.852 270.612C154.048 271.069 154.319 271.466 154.664 271.802C155.009 272.138 155.415 272.399 155.882 272.586C156.358 272.773 156.871 272.866 157.422 272.866C157.954 272.866 158.453 272.773 158.92 272.586C159.387 272.39 159.807 272.091 160.18 271.69L161.09 272.572C160.642 273.076 160.096 273.459 159.452 273.72C158.817 273.981 158.117 274.112 157.352 274.112ZM165.781 274.084C165.146 274.084 164.586 273.967 164.101 273.734C163.625 273.501 163.251 273.146 162.981 272.67C162.719 272.185 162.589 271.578 162.589 270.85V266.58H163.933V270.696C163.933 271.424 164.105 271.97 164.451 272.334C164.805 272.698 165.3 272.88 165.935 272.88C166.401 272.88 166.807 272.787 167.153 272.6C167.498 272.404 167.764 272.124 167.951 271.76C168.137 271.387 168.231 270.939 168.231 270.416V266.58H169.575V274H168.301V271.998L168.511 272.53C168.268 273.025 167.904 273.407 167.419 273.678C166.933 273.949 166.387 274.084 165.781 274.084ZM174.261 274.084C173.645 274.084 173.057 274 172.497 273.832C171.947 273.664 171.513 273.459 171.195 273.216L171.755 272.152C172.073 272.367 172.465 272.549 172.931 272.698C173.398 272.847 173.874 272.922 174.359 272.922C174.985 272.922 175.433 272.833 175.703 272.656C175.983 272.479 176.123 272.231 176.123 271.914C176.123 271.681 176.039 271.499 175.871 271.368C175.703 271.237 175.479 271.139 175.199 271.074C174.929 271.009 174.625 270.953 174.289 270.906C173.953 270.85 173.617 270.785 173.281 270.71C172.945 270.626 172.637 270.514 172.357 270.374C172.077 270.225 171.853 270.024 171.685 269.772C171.517 269.511 171.433 269.165 171.433 268.736C171.433 268.288 171.559 267.896 171.811 267.56C172.063 267.224 172.418 266.967 172.875 266.79C173.342 266.603 173.893 266.51 174.527 266.51C175.013 266.51 175.503 266.571 175.997 266.692C176.501 266.804 176.912 266.967 177.229 267.182L176.655 268.246C176.319 268.022 175.969 267.868 175.605 267.784C175.241 267.7 174.877 267.658 174.513 267.658C173.925 267.658 173.487 267.756 173.197 267.952C172.908 268.139 172.763 268.381 172.763 268.68C172.763 268.932 172.847 269.128 173.015 269.268C173.193 269.399 173.417 269.501 173.687 269.576C173.967 269.651 174.275 269.716 174.611 269.772C174.947 269.819 175.283 269.884 175.619 269.968C175.955 270.043 176.259 270.15 176.529 270.29C176.809 270.43 177.033 270.626 177.201 270.878C177.379 271.13 177.467 271.466 177.467 271.886C177.467 272.334 177.337 272.721 177.075 273.048C176.814 273.375 176.445 273.631 175.969 273.818C175.493 273.995 174.924 274.084 174.261 274.084ZM181.695 274.084C180.948 274.084 180.37 273.883 179.959 273.482C179.548 273.081 179.343 272.507 179.343 271.76V264.956H180.687V271.704C180.687 272.105 180.785 272.413 180.981 272.628C181.186 272.843 181.476 272.95 181.849 272.95C182.269 272.95 182.619 272.833 182.899 272.6L183.319 273.566C183.114 273.743 182.866 273.874 182.577 273.958C182.297 274.042 182.003 274.084 181.695 274.084ZM178.083 267.686V266.58H182.815V267.686H178.083ZM187.876 274.084C187.129 274.084 186.466 273.921 185.888 273.594C185.309 273.267 184.852 272.819 184.516 272.25C184.18 271.671 184.012 271.018 184.012 270.29C184.012 269.553 184.18 268.899 184.516 268.33C184.852 267.761 185.309 267.317 185.888 267C186.466 266.673 187.129 266.51 187.876 266.51C188.613 266.51 189.271 266.673 189.85 267C190.438 267.317 190.895 267.761 191.222 268.33C191.558 268.89 191.726 269.543 191.726 270.29C191.726 271.027 191.558 271.681 191.222 272.25C190.895 272.819 190.438 273.267 189.85 273.594C189.271 273.921 188.613 274.084 187.876 274.084ZM187.876 272.908C188.352 272.908 188.776 272.801 189.15 272.586C189.532 272.371 189.831 272.068 190.046 271.676C190.26 271.275 190.368 270.813 190.368 270.29C190.368 269.758 190.26 269.301 190.046 268.918C189.831 268.526 189.532 268.223 189.15 268.008C188.776 267.793 188.352 267.686 187.876 267.686C187.4 267.686 186.975 267.793 186.602 268.008C186.228 268.223 185.93 268.526 185.706 268.918C185.482 269.301 185.37 269.758 185.37 270.29C185.37 270.813 185.482 271.275 185.706 271.676C185.93 272.068 186.228 272.371 186.602 272.586C186.975 272.801 187.4 272.908 187.876 272.908ZM202.867 266.51C203.464 266.51 203.991 266.627 204.449 266.86C204.906 267.093 205.261 267.448 205.513 267.924C205.774 268.4 205.905 269.002 205.905 269.73V274H204.561V269.884C204.561 269.165 204.393 268.624 204.057 268.26C203.721 267.896 203.249 267.714 202.643 267.714C202.195 267.714 201.803 267.807 201.467 267.994C201.131 268.181 200.869 268.456 200.683 268.82C200.505 269.184 200.417 269.637 200.417 270.178V274H199.073V269.884C199.073 269.165 198.905 268.624 198.569 268.26C198.242 267.896 197.771 267.714 197.155 267.714C196.716 267.714 196.329 267.807 195.993 267.994C195.657 268.181 195.395 268.456 195.209 268.82C195.022 269.184 194.929 269.637 194.929 270.178V274H193.585V266.58H194.873V268.554L194.663 268.05C194.896 267.565 195.255 267.187 195.741 266.916C196.226 266.645 196.791 266.51 197.435 266.51C198.144 266.51 198.755 266.687 199.269 267.042C199.782 267.387 200.118 267.915 200.277 268.624L199.731 268.4C199.955 267.831 200.347 267.373 200.907 267.028C201.467 266.683 202.12 266.51 202.867 266.51ZM211.682 274.084C210.888 274.084 210.188 273.921 209.582 273.594C208.984 273.267 208.518 272.819 208.182 272.25C207.855 271.681 207.692 271.027 207.692 270.29C207.692 269.553 207.85 268.899 208.168 268.33C208.494 267.761 208.938 267.317 209.498 267C210.067 266.673 210.706 266.51 211.416 266.51C212.134 266.51 212.769 266.669 213.32 266.986C213.87 267.303 214.3 267.751 214.608 268.33C214.925 268.899 215.084 269.567 215.084 270.332C215.084 270.388 215.079 270.453 215.07 270.528C215.07 270.603 215.065 270.673 215.056 270.738H208.742V269.772H214.356L213.81 270.108C213.819 269.632 213.721 269.207 213.516 268.834C213.31 268.461 213.026 268.171 212.662 267.966C212.307 267.751 211.892 267.644 211.416 267.644C210.949 267.644 210.534 267.751 210.17 267.966C209.806 268.171 209.521 268.465 209.316 268.848C209.11 269.221 209.008 269.651 209.008 270.136V270.36C209.008 270.855 209.12 271.298 209.344 271.69C209.577 272.073 209.899 272.371 210.31 272.586C210.72 272.801 211.192 272.908 211.724 272.908C212.162 272.908 212.559 272.833 212.914 272.684C213.278 272.535 213.595 272.311 213.866 272.012L214.608 272.88C214.272 273.272 213.852 273.571 213.348 273.776C212.853 273.981 212.298 274.084 211.682 274.084ZM216.95 274V266.58H218.238V268.596L218.112 268.092C218.317 267.579 218.662 267.187 219.148 266.916C219.633 266.645 220.23 266.51 220.94 266.51V267.812C220.884 267.803 220.828 267.798 220.772 267.798C220.725 267.798 220.678 267.798 220.632 267.798C219.913 267.798 219.344 268.013 218.924 268.442C218.504 268.871 218.294 269.492 218.294 270.304V274H216.95ZM228.58 274.084C227.964 274.084 227.376 274 226.816 273.832C226.265 273.664 225.831 273.459 225.514 273.216L226.074 272.152C226.391 272.367 226.783 272.549 227.25 272.698C227.716 272.847 228.192 272.922 228.678 272.922C229.303 272.922 229.751 272.833 230.022 272.656C230.302 272.479 230.442 272.231 230.442 271.914C230.442 271.681 230.358 271.499 230.19 271.368C230.022 271.237 229.798 271.139 229.518 271.074C229.247 271.009 228.944 270.953 228.608 270.906C228.272 270.85 227.936 270.785 227.6 270.71C227.264 270.626 226.956 270.514 226.676 270.374C226.396 270.225 226.172 270.024 226.004 269.772C225.836 269.511 225.752 269.165 225.752 268.736C225.752 268.288 225.878 267.896 226.13 267.56C226.382 267.224 226.736 266.967 227.194 266.79C227.66 266.603 228.211 266.51 228.846 266.51C229.331 266.51 229.821 266.571 230.316 266.692C230.82 266.804 231.23 266.967 231.548 267.182L230.974 268.246C230.638 268.022 230.288 267.868 229.924 267.784C229.56 267.7 229.196 267.658 228.832 267.658C228.244 267.658 227.805 267.756 227.516 267.952C227.226 268.139 227.082 268.381 227.082 268.68C227.082 268.932 227.166 269.128 227.334 269.268C227.511 269.399 227.735 269.501 228.006 269.576C228.286 269.651 228.594 269.716 228.93 269.772C229.266 269.819 229.602 269.884 229.938 269.968C230.274 270.043 230.577 270.15 230.848 270.29C231.128 270.43 231.352 270.626 231.52 270.878C231.697 271.13 231.786 271.466 231.786 271.886C231.786 272.334 231.655 272.721 231.394 273.048C231.132 273.375 230.764 273.631 230.288 273.818C229.812 273.995 229.242 274.084 228.58 274.084ZM238.071 274V272.432L238.001 272.138V269.464C238.001 268.895 237.833 268.456 237.497 268.148C237.171 267.831 236.676 267.672 236.013 267.672C235.575 267.672 235.145 267.747 234.725 267.896C234.305 268.036 233.951 268.227 233.661 268.47L233.101 267.462C233.484 267.154 233.941 266.921 234.473 266.762C235.015 266.594 235.579 266.51 236.167 266.51C237.185 266.51 237.969 266.757 238.519 267.252C239.07 267.747 239.345 268.503 239.345 269.52V274H238.071ZM235.635 274.084C235.085 274.084 234.599 273.991 234.179 273.804C233.769 273.617 233.451 273.361 233.227 273.034C233.003 272.698 232.891 272.32 232.891 271.9C232.891 271.499 232.985 271.135 233.171 270.808C233.367 270.481 233.68 270.22 234.109 270.024C234.548 269.828 235.136 269.73 235.873 269.73H238.225V270.696H235.929C235.257 270.696 234.805 270.808 234.571 271.032C234.338 271.256 234.221 271.527 234.221 271.844C234.221 272.208 234.366 272.502 234.655 272.726C234.945 272.941 235.346 273.048 235.859 273.048C236.363 273.048 236.802 272.936 237.175 272.712C237.558 272.488 237.833 272.161 238.001 271.732L238.267 272.656C238.09 273.095 237.777 273.445 237.329 273.706C236.881 273.958 236.317 274.084 235.635 274.084ZM244.381 274.084C243.634 274.084 243.055 273.883 242.645 273.482C242.234 273.081 242.029 272.507 242.029 271.76V264.956H243.373V271.704C243.373 272.105 243.471 272.413 243.667 272.628C243.872 272.843 244.161 272.95 244.535 272.95C244.955 272.95 245.305 272.833 245.585 272.6L246.005 273.566C245.799 273.743 245.552 273.874 245.263 273.958C244.983 274.042 244.689 274.084 244.381 274.084ZM240.769 267.686V266.58H245.501V267.686H240.769ZM247.629 274V266.58H248.973V274H247.629ZM248.301 265.152C248.04 265.152 247.821 265.068 247.643 264.9C247.475 264.732 247.391 264.527 247.391 264.284C247.391 264.032 247.475 263.822 247.643 263.654C247.821 263.486 248.04 263.402 248.301 263.402C248.563 263.402 248.777 263.486 248.945 263.654C249.123 263.813 249.211 264.013 249.211 264.256C249.211 264.508 249.127 264.723 248.959 264.9C248.791 265.068 248.572 265.152 248.301 265.152ZM253.668 274.084C253.052 274.084 252.464 274 251.904 273.832C251.353 273.664 250.919 273.459 250.602 273.216L251.162 272.152C251.479 272.367 251.871 272.549 252.338 272.698C252.804 272.847 253.28 272.922 253.766 272.922C254.391 272.922 254.839 272.833 255.11 272.656C255.39 272.479 255.53 272.231 255.53 271.914C255.53 271.681 255.446 271.499 255.278 271.368C255.11 271.237 254.886 271.139 254.606 271.074C254.335 271.009 254.032 270.953 253.696 270.906C253.36 270.85 253.024 270.785 252.688 270.71C252.352 270.626 252.044 270.514 251.764 270.374C251.484 270.225 251.26 270.024 251.092 269.772C250.924 269.511 250.84 269.165 250.84 268.736C250.84 268.288 250.966 267.896 251.218 267.56C251.47 267.224 251.824 266.967 252.282 266.79C252.748 266.603 253.299 266.51 253.934 266.51C254.419 266.51 254.909 266.571 255.404 266.692C255.908 266.804 256.318 266.967 256.636 267.182L256.062 268.246C255.726 268.022 255.376 267.868 255.012 267.784C254.648 267.7 254.284 267.658 253.92 267.658C253.332 267.658 252.893 267.756 252.604 267.952C252.314 268.139 252.17 268.381 252.17 268.68C252.17 268.932 252.254 269.128 252.422 269.268C252.599 269.399 252.823 269.501 253.094 269.576C253.374 269.651 253.682 269.716 254.018 269.772C254.354 269.819 254.69 269.884 255.026 269.968C255.362 270.043 255.665 270.15 255.936 270.29C256.216 270.43 256.44 270.626 256.608 270.878C256.785 271.13 256.874 271.466 256.874 271.886C256.874 272.334 256.743 272.721 256.482 273.048C256.22 273.375 255.852 273.631 255.376 273.818C254.9 273.995 254.33 274.084 253.668 274.084ZM258.749 274V265.922C258.749 265.194 258.959 264.615 259.379 264.186C259.809 263.747 260.415 263.528 261.199 263.528C261.489 263.528 261.764 263.565 262.025 263.64C262.296 263.705 262.525 263.813 262.711 263.962L262.305 264.984C262.165 264.872 262.007 264.788 261.829 264.732C261.652 264.667 261.465 264.634 261.269 264.634C260.877 264.634 260.579 264.746 260.373 264.97C260.168 265.185 260.065 265.507 260.065 265.936V266.93L260.093 267.546V274H258.749ZM257.489 267.686V266.58H262.221V267.686H257.489ZM267.958 274V272.432L267.888 272.138V269.464C267.888 268.895 267.72 268.456 267.384 268.148C267.057 267.831 266.563 267.672 265.9 267.672C265.461 267.672 265.032 267.747 264.612 267.896C264.192 268.036 263.837 268.227 263.548 268.47L262.988 267.462C263.371 267.154 263.828 266.921 264.36 266.762C264.901 266.594 265.466 266.51 266.054 266.51C267.071 266.51 267.855 266.757 268.406 267.252C268.957 267.747 269.232 268.503 269.232 269.52V274H267.958ZM265.522 274.084C264.971 274.084 264.486 273.991 264.066 273.804C263.655 273.617 263.338 273.361 263.114 273.034C262.89 272.698 262.778 272.32 262.778 271.9C262.778 271.499 262.871 271.135 263.058 270.808C263.254 270.481 263.567 270.22 263.996 270.024C264.435 269.828 265.023 269.73 265.76 269.73H268.112V270.696H265.816C265.144 270.696 264.691 270.808 264.458 271.032C264.225 271.256 264.108 271.527 264.108 271.844C264.108 272.208 264.253 272.502 264.542 272.726C264.831 272.941 265.233 273.048 265.746 273.048C266.25 273.048 266.689 272.936 267.062 272.712C267.445 272.488 267.72 272.161 267.888 271.732L268.154 272.656C267.977 273.095 267.664 273.445 267.216 273.706C266.768 273.958 266.203 274.084 265.522 274.084ZM274.953 274.084C274.197 274.084 273.521 273.921 272.923 273.594C272.335 273.267 271.873 272.819 271.537 272.25C271.201 271.681 271.033 271.027 271.033 270.29C271.033 269.553 271.201 268.899 271.537 268.33C271.873 267.761 272.335 267.317 272.923 267C273.521 266.673 274.197 266.51 274.953 266.51C275.625 266.51 276.223 266.645 276.745 266.916C277.277 267.177 277.688 267.569 277.977 268.092L276.955 268.75C276.713 268.386 276.414 268.12 276.059 267.952C275.714 267.775 275.341 267.686 274.939 267.686C274.454 267.686 274.02 267.793 273.637 268.008C273.255 268.223 272.951 268.526 272.727 268.918C272.503 269.301 272.391 269.758 272.391 270.29C272.391 270.822 272.503 271.284 272.727 271.676C272.951 272.068 273.255 272.371 273.637 272.586C274.02 272.801 274.454 272.908 274.939 272.908C275.341 272.908 275.714 272.824 276.059 272.656C276.414 272.479 276.713 272.208 276.955 271.844L277.977 272.488C277.688 273.001 277.277 273.398 276.745 273.678C276.223 273.949 275.625 274.084 274.953 274.084ZM282.361 274.084C281.614 274.084 281.036 273.883 280.625 273.482C280.214 273.081 280.009 272.507 280.009 271.76V264.956H281.353V271.704C281.353 272.105 281.451 272.413 281.647 272.628C281.852 272.843 282.142 272.95 282.515 272.95C282.935 272.95 283.285 272.833 283.565 272.6L283.985 273.566C283.78 273.743 283.532 273.874 283.243 273.958C282.963 274.042 282.669 274.084 282.361 274.084ZM278.749 267.686V266.58H283.481V267.686H278.749ZM285.61 274V266.58H286.954V274H285.61ZM286.282 265.152C286.021 265.152 285.801 265.068 285.624 264.9C285.456 264.732 285.372 264.527 285.372 264.284C285.372 264.032 285.456 263.822 285.624 263.654C285.801 263.486 286.021 263.402 286.282 263.402C286.543 263.402 286.758 263.486 286.926 263.654C287.103 263.813 287.192 264.013 287.192 264.256C287.192 264.508 287.108 264.723 286.94 264.9C286.772 265.068 286.553 265.152 286.282 265.152ZM292.698 274.084C291.951 274.084 291.289 273.921 290.71 273.594C290.131 273.267 289.674 272.819 289.338 272.25C289.002 271.671 288.834 271.018 288.834 270.29C288.834 269.553 289.002 268.899 289.338 268.33C289.674 267.761 290.131 267.317 290.71 267C291.289 266.673 291.951 266.51 292.698 266.51C293.435 266.51 294.093 266.673 294.672 267C295.26 267.317 295.717 267.761 296.044 268.33C296.38 268.89 296.548 269.543 296.548 270.29C296.548 271.027 296.38 271.681 296.044 272.25C295.717 272.819 295.26 273.267 294.672 273.594C294.093 273.921 293.435 274.084 292.698 274.084ZM292.698 272.908C293.174 272.908 293.599 272.801 293.972 272.586C294.355 272.371 294.653 272.068 294.868 271.676C295.083 271.275 295.19 270.813 295.19 270.29C295.19 269.758 295.083 269.301 294.868 268.918C294.653 268.526 294.355 268.223 293.972 268.008C293.599 267.793 293.174 267.686 292.698 267.686C292.222 267.686 291.797 267.793 291.424 268.008C291.051 268.223 290.752 268.526 290.528 268.918C290.304 269.301 290.192 269.758 290.192 270.29C290.192 270.813 290.304 271.275 290.528 271.676C290.752 272.068 291.051 272.371 291.424 272.586C291.797 272.801 292.222 272.908 292.698 272.908ZM302.369 266.51C302.975 266.51 303.507 266.627 303.965 266.86C304.431 267.093 304.795 267.448 305.057 267.924C305.318 268.4 305.449 269.002 305.449 269.73V274H304.105V269.884C304.105 269.165 303.927 268.624 303.573 268.26C303.227 267.896 302.737 267.714 302.103 267.714C301.627 267.714 301.211 267.807 300.857 267.994C300.502 268.181 300.227 268.456 300.031 268.82C299.844 269.184 299.751 269.637 299.751 270.178V274H298.407V266.58H299.695V268.582L299.485 268.05C299.727 267.565 300.101 267.187 300.605 266.916C301.109 266.645 301.697 266.51 302.369 266.51Z" fill="#7D7C7C"/>
</svg>
