<svg width="24" height="24" viewBox="0 0 24 24" fill="none" xmlns="http://www.w3.org/2000/svg">
<path d="M12.0011 20.63C13.5917 20.63 14.8811 19.3406 14.8811 17.75C14.8811 16.1594 13.5917 14.87 12.0011 14.87C10.4105 14.87 9.12109 16.1594 9.12109 17.75C9.12109 19.3406 10.4105 20.63 12.0011 20.63Z" stroke="#222222" stroke-width="1.92001" stroke-miterlimit="10"/>
<path d="M12.001 14.88V12.96" stroke="#222222" stroke-width="1.46572" stroke-miterlimit="10" stroke-linecap="round"/>
<path d="M12.001 22.55V20.63" stroke="#222222" stroke-width="1.46572" stroke-miterlimit="10"/>
<path d="M12.001 14.88V12.96" stroke="#222222" stroke-width="1.46572" stroke-miterlimit="10" stroke-linecap="round"/>
<path d="M12.001 22.55V20.63" stroke="#222222" stroke-width="1.46572" stroke-miterlimit="10" stroke-linecap="round"/>
<path d="M9.50082 16.31L7.84082 15.35" stroke="#222222" stroke-width="1.46572" stroke-miterlimit="10" stroke-linecap="round"/>
<path d="M16.1502 20.1501L14.4902 19.1901" stroke="#222222" stroke-width="1.46572" stroke-miterlimit="10" stroke-linecap="round"/>
<path d="M9.50082 16.31L7.84082 15.35" stroke="#222222" stroke-width="1.46572" stroke-miterlimit="10" stroke-linecap="round"/>
<path d="M16.1502 20.1501L14.4902 19.1901" stroke="#222222" stroke-width="1.46572" stroke-miterlimit="10" stroke-linecap="round"/>
<path d="M14.1233 15.6756C13.773 15.8782 13.6532 16.3265 13.8558 16.6769C14.0585 17.0272 14.5067 17.147 14.8571 16.9444L14.1233 15.6756ZM14.8571 16.9444L16.5171 15.9844L15.7833 14.7156L14.1233 15.6756L14.8571 16.9444Z" fill="#222222"/>
<path d="M7.84082 20.1501L9.50082 19.1901" stroke="#222222" stroke-width="1.46572" stroke-miterlimit="10" stroke-linecap="round"/>
<path d="M14.4902 16.31L16.1502 15.35" stroke="#222222" stroke-width="1.46572" stroke-miterlimit="10" stroke-linecap="round"/>
<path d="M7.84082 20.1501L9.50082 19.1901" stroke="#222222" stroke-width="1.46572" stroke-miterlimit="10" stroke-linecap="round"/>
<path d="M17.7508 17.75H18.7508C19.724 17.7497 20.6608 17.3799 21.3718 16.7153C22.0828 16.0508 22.5149 15.141 22.5808 14.17C22.5858 14.0868 22.5858 14.0033 22.5808 13.92C22.5808 13.4157 22.4815 12.9164 22.2885 12.4505C22.0955 11.9846 21.8127 11.5613 21.4561 11.2047C21.0995 10.8481 20.6762 10.5653 20.2103 10.3723C19.7444 10.1793 19.2451 10.08 18.7408 10.08H17.7408V8.15996C17.7356 6.6383 17.1294 5.18031 16.0544 4.10339C14.9794 3.02648 13.5225 2.41781 12.0008 2.40991H11.7808C10.795 2.44807 9.83595 2.74192 8.99794 3.26262C8.15993 3.78331 7.4717 4.51295 7.00082 5.37994C6.94958 5.46243 6.90607 5.54946 6.87082 5.63994C6.51384 6.43325 6.32 7.29024 6.30082 8.15996C5.66215 8.15056 5.02808 8.26925 4.43605 8.50903C3.84403 8.74881 3.30607 9.10481 2.85395 9.556C2.40183 10.0072 2.04473 10.5444 1.80373 11.1359C1.56273 11.7275 1.44273 12.3613 1.45082 13C1.44608 13.0666 1.44608 13.1334 1.45082 13.2C1.49993 14.4345 2.02513 15.6021 2.91629 16.4578C3.80744 17.3136 4.99532 17.791 6.23082 17.79" stroke="#222222" stroke-width="1.46572" stroke-miterlimit="10" stroke-linecap="round"/>
</svg>
