<svg width="59" height="58" viewBox="0 0 59 58" fill="none" xmlns="http://www.w3.org/2000/svg">
<path fill-rule="evenodd" clip-rule="evenodd" d="M33.0615 35.7887C32.6554 35.7939 32.2632 35.937 31.9492 36.1944L28.3151 39.1569L27.1399 38.0622C26.7928 37.7388 26.3315 37.5664 25.8574 37.5828C25.3833 37.5992 24.9351 37.803 24.6111 38.1496C24.4505 38.3215 24.3253 38.5235 24.2428 38.7438C24.1602 38.9642 24.1219 39.1986 24.13 39.4338C24.1381 39.669 24.1925 39.9003 24.29 40.1144C24.3876 40.3286 24.5264 40.5214 24.6985 40.6819L27.014 42.8434C27.3305 43.1377 27.7428 43.3076 28.1747 43.3217C28.6067 43.3359 29.0293 43.1933 29.3644 42.9204L34.2156 38.9681C34.5832 38.6678 34.8166 38.2339 34.8645 37.7617C34.9123 37.2895 34.7708 36.8177 34.471 36.4497C34.3009 36.2406 34.0858 36.0725 33.8418 35.958C33.5977 35.8436 33.331 35.7857 33.0615 35.7887Z" fill="#AB0E12"/>
<path fill-rule="evenodd" clip-rule="evenodd" d="M25.9183 7.51025C19.0163 7.51025 13.3827 13.1439 13.3827 20.0459C13.3826 20.0518 13.3826 20.0578 13.3827 20.0638C13.3837 20.1779 13.4101 20.2892 13.4142 20.4031C8.36566 21.277 4.42871 25.5014 4.42871 30.7911C4.42871 36.704 9.26054 41.5359 15.1735 41.5359H18.909C19.768 46.6022 24.1975 50.4899 29.4999 50.4899C34.8023 50.4899 39.2319 46.6022 40.0908 41.5359H45.6171C50.541 41.5359 54.5711 37.5058 54.5711 32.5819C54.5711 28.2758 51.4291 24.8225 47.3624 23.9812C47.3678 23.8667 47.407 23.7565 47.4079 23.6418C47.4079 23.6406 47.4079 23.6395 47.4079 23.6383C47.4079 23.6371 47.4079 23.6359 47.4079 23.6347C47.4079 23.6335 47.4079 23.6323 47.4079 23.6311C47.4079 23.6299 47.4079 23.6287 47.4079 23.6275C47.4079 18.7036 43.3778 14.6736 38.4539 14.6735C38.4491 14.6735 38.4443 14.6735 38.4396 14.6735C38.0082 14.6771 37.5985 14.8255 37.1734 14.8904C35.1502 10.4943 30.8519 7.51056 25.9183 7.51025ZM25.9183 11.0919C29.8456 11.0921 33.2993 13.6343 34.4666 17.3841C34.5378 17.6128 34.6542 17.8248 34.8088 18.0077C34.9634 18.1905 35.1531 18.3405 35.3667 18.4487C35.5803 18.557 35.8134 18.6214 36.0523 18.6379C36.2912 18.6545 36.531 18.6231 36.7575 18.5454C37.3039 18.3577 37.8796 18.2602 38.4574 18.2551C41.4429 18.2569 43.8244 20.6385 43.8263 23.624V23.6276C43.8227 24.082 43.7588 24.5314 43.6409 24.9707C43.566 25.2491 43.5595 25.5415 43.6218 25.823C43.6842 26.1045 43.8135 26.3668 43.9989 26.5876C44.1844 26.8084 44.4204 26.9811 44.6869 27.0911C44.9534 27.2012 45.2425 27.2453 45.5296 27.2197C45.5782 27.2161 45.5973 27.2143 45.6276 27.2125C48.6103 27.2197 50.9895 29.5971 50.9895 32.5814C50.9895 35.5697 48.6054 37.9538 45.6171 37.9538H40.0908C39.2318 32.8875 34.8023 28.9998 29.4999 28.9998C24.1975 28.9998 19.7679 32.8875 18.909 37.9538H15.1735C11.1961 37.9538 8.01026 34.768 8.01026 30.7906C8.01026 26.8133 11.1961 23.6274 15.1735 23.6274C15.1896 23.6274 15.2286 23.629 15.289 23.631C15.5552 23.6387 15.8198 23.5871 16.0635 23.4797C16.3072 23.3723 16.5238 23.2119 16.6977 23.0102C16.8716 22.8085 16.9983 22.5706 17.0687 22.3137C17.139 22.0569 17.1511 21.7875 17.1042 21.5254C17.0167 21.0357 16.9696 20.5417 16.9644 20.0459V20.0423C16.9662 15.0776 20.9531 11.0919 25.9183 11.0919ZM29.4999 32.5815C33.4772 32.5815 36.6631 35.7673 36.6631 39.7447C36.6631 43.722 33.4772 46.9079 29.4999 46.9079C25.5225 46.9079 22.3367 43.722 22.3367 39.7447C22.3367 35.7673 25.5225 32.5815 29.4999 32.5815Z" fill="#AB0E12"/>
</svg>
