<svg width="50" height="48" viewBox="0 0 50 48" fill="none" xmlns="http://www.w3.org/2000/svg">
<path d="M38.9016 14.81C37.4163 7.86625 31.1872 2.75049 24.0029 2.75049C15.5928 2.75049 8.7529 9.59039 8.7529 18.0005C8.7529 18.2705 8.76164 18.5453 8.78008 18.8306C4.25621 19.4319 0.75293 23.3137 0.75293 28.0005C0.75293 33.1006 4.90286 37.2505 10.0029 37.2505H17.003C17.693 37.2505 18.253 36.6906 18.253 36.0005C18.253 35.3104 17.693 34.7505 17.003 34.7505H10.0029C6.28103 34.7505 3.2529 31.7224 3.2529 28.0004C3.2529 24.282 6.27439 21.2585 9.9243 21.2485C10.1245 21.2711 10.344 21.2489 10.5465 21.1856C10.7534 21.121 10.9604 21.0076 11.1099 20.8342C11.3474 20.5614 11.4548 20.1984 11.4023 19.8384C11.2996 19.1292 11.253 18.5456 11.253 18.0005C11.253 10.9705 16.973 5.25046 24.003 5.25046C30.3004 5.25046 35.721 9.95483 36.6095 16.1917C36.6571 16.5274 36.8733 16.7934 37.1271 16.9692C37.3815 17.1454 37.6997 17.2505 38.003 17.2505C42.8269 17.2505 46.753 21.1765 46.753 26.0005C46.753 30.8244 42.8269 34.7505 38.003 34.7505H35.003C34.3129 34.7505 33.7529 35.3104 33.7529 36.0005C33.7529 36.6906 34.3129 37.2505 35.003 37.2505H38.003C44.2071 37.2505 49.2529 32.2025 49.2529 26.0006C49.2529 20.1417 44.7541 15.3197 38.9016 14.81Z" fill="#AB0E12" stroke="#AB0E12" stroke-width="0.5"/>
<path d="M21.7169 31.3049L21.9002 32.4434C22.4244 32.516 22.8928 32.8566 22.942 33.4643L22.9421 33.4649C23.0212 34.4665 23.5091 35.4786 24.242 36.1662L24.2428 36.167C24.5704 36.4773 24.7122 36.9414 24.5993 37.3819C24.5992 37.3822 24.5991 37.3825 24.5991 37.3828L24.1738 39.0858C24.1738 39.086 24.1737 39.0861 24.1737 39.0863C24.0631 39.5381 23.7097 39.8849 23.2639 39.9969L23.2635 39.997L19.6798 40.8909L21.7169 31.3049ZM21.7169 31.3049C21.9665 31.2458 22.1933 31.1107 22.3657 30.9166L22.3658 30.9166L22.3673 30.9149C22.6035 30.644 22.7139 30.289 22.6688 29.9314C22.6688 29.9314 22.6688 29.9314 22.6688 29.9314L22.4208 29.9626C22.3448 29.3586 22.2228 28.2646 22.2228 27.9126C22.2228 26.8786 22.2228 25.9006 25.1448 25.8706M21.7169 31.3049L25.8629 25.8875M25.1448 25.8706L25.1472 26.1206C25.1473 26.1206 25.1473 26.1206 25.1474 26.1206L25.1448 25.8706ZM25.1448 25.8706C25.3488 25.8687 25.5508 25.8046 25.7168 25.6846M25.7168 25.6846L25.8624 25.8878C25.8626 25.8877 25.8628 25.8876 25.8629 25.8875M25.7168 25.6846C26.6708 25.0006 27.7647 25.0006 28.2908 25.0006C29.8268 25.0006 30.2468 25.6407 30.3807 25.8526L25.8629 25.8875M25.7168 25.6846L25.8633 25.8872C25.8632 25.8873 25.863 25.8874 25.8629 25.8875M32.9358 38.464L32.9354 38.4639L30.0791 37.7522L30.0215 37.5218C30.7594 36.6733 31.288 35.6186 31.5301 34.5196C32.0776 34.1945 32.4716 33.6279 32.557 32.9582L32.557 32.9577L32.775 31.2196C32.775 31.2196 32.775 31.2196 32.775 31.2196C32.85 30.6224 32.6638 30.0196 32.2696 29.5664L32.2695 29.5663C32.1788 29.4622 32.0785 29.3683 31.9713 29.2853L32.012 28.4563L32.1288 28.3383L32.1288 28.3383L32.1331 28.3338C32.4106 28.039 32.7461 27.567 32.858 26.9313C32.9712 26.2887 32.8503 25.5105 32.2682 24.6215L32.2681 24.6214C31.6991 23.7538 30.5451 22.7505 28.2911 22.7505H28.2862C27.6511 22.7505 26.1842 22.7505 24.7416 23.6311C22.6816 23.715 21.469 24.3169 20.7796 25.165C20.0887 26.0149 19.967 27.0603 19.967 27.9145C19.967 28.2279 20.0177 28.7758 20.0685 29.2567C19.9498 29.3449 19.842 29.445 19.7446 29.5538L19.7434 29.5553C19.3423 30.0108 19.1541 30.616 19.2288 31.2212L19.2289 31.2216L19.4469 32.9596C19.5348 33.6609 19.9593 34.2439 20.5827 34.56C20.8205 35.6071 21.3183 36.6153 22.0053 37.437L21.9265 37.7543L19.0705 38.466L19.0703 38.4661C16.5289 39.1019 14.7529 41.378 14.7529 44.0006C14.7529 44.3313 14.8822 44.6519 15.1192 44.8863L15.295 44.7086L15.1192 44.8863C15.3535 45.118 15.6704 45.2505 16.003 45.2505L36.003 45.2486C36.693 45.2486 37.253 44.6886 37.253 43.9985C37.253 41.3778 35.477 39.102 32.9358 38.464ZM27.8024 36.2201C27.4564 36.5284 27.3119 37.0038 27.4242 37.4532L27.4243 37.4535L27.8343 39.0874L27.8343 39.0875C27.9467 39.5349 28.2965 39.8846 28.7437 39.997L28.7442 39.9971L32.3279 40.891C33.3288 41.1421 34.1181 41.846 34.5009 42.7505L17.5053 42.7485C17.8895 41.8444 18.6787 41.1422 19.6795 40.891L27.8024 36.2201Z" fill="#AB0E12" stroke="#AB0E12" stroke-width="0.5"/>
</svg>
