<svg width="50" height="48" viewBox="0 0 50 48" fill="none" xmlns="http://www.w3.org/2000/svg">
<path d="M38.9016 14.81C37.4163 7.86625 31.1872 2.75049 24.0029 2.75049C15.5928 2.75049 8.7529 9.59039 8.7529 18.0005C8.7529 18.2705 8.76164 18.5453 8.78008 18.8306C4.25621 19.4319 0.75293 23.3137 0.75293 28.0005C0.75293 33.1006 4.90286 37.2505 10.0029 37.2505H17.003C17.693 37.2505 18.253 36.6906 18.253 36.0005C18.253 35.3104 17.693 34.7505 17.003 34.7505H10.0029C6.28103 34.7505 3.2529 31.7224 3.2529 28.0004C3.2529 24.282 6.27439 21.2585 9.9243 21.2485C10.1245 21.2711 10.344 21.2489 10.5465 21.1856C10.7534 21.121 10.9604 21.0076 11.1099 20.8342C11.3474 20.5614 11.4548 20.1984 11.4023 19.8384C11.2996 19.1292 11.253 18.5456 11.253 18.0005C11.253 10.9705 16.973 5.25046 24.003 5.25046C30.3004 5.25046 35.721 9.95483 36.6095 16.1917C36.6571 16.5274 36.8733 16.7934 37.1271 16.9692C37.3815 17.1454 37.6997 17.2505 38.003 17.2505C42.8269 17.2505 46.753 21.1765 46.753 26.0005C46.753 30.8244 42.8269 34.7505 38.003 34.7505H35.003C34.3129 34.7505 33.7529 35.3104 33.7529 36.0005C33.7529 36.6906 34.3129 37.2505 35.003 37.2505H38.003C44.2071 37.2505 49.2529 32.2025 49.2529 26.0006C49.2529 20.1417 44.7541 15.3197 38.9016 14.81Z" fill="#AB0E12" stroke="#AB0E12" stroke-width="0.5"/>
<path d="M26 46.5001C25.7327 46.5001 25.4654 46.4282 25.2281 46.2862L22.2281 44.4859C18.9548 42.523 17 39.3502 17 36.0001V28.5001C17 27.7852 17.5046 27.17 18.2056 27.0293L25.7056 25.5293C25.9004 25.4912 26.0996 25.4912 26.2945 25.5293L33.7945 27.0293C34.4954 27.17 35 27.7852 35 28.5001V36.0001C35 39.3502 33.0452 42.523 29.7713 44.4859L26.772 46.2862C26.5346 46.4282 26.2673 46.5001 26 46.5001ZM20 29.729V36.0001C20 38.2867 21.4099 40.4971 23.7713 41.9137L26 43.2511L28.2281 41.9137C30.5901 40.4971 32 38.2867 32 36.0001V29.729L26 28.5293L20 29.729Z" fill="#AB0E12"/>
</svg>
