<svg width="63" height="54" viewBox="0 0 63 54" fill="none" xmlns="http://www.w3.org/2000/svg">
<path d="M55.7231 1.19678H7.2732C3.30505 1.19678 0.0507812 4.32942 0.0507812 8.21341V45.7868C0.0507812 49.6708 3.30505 52.8034 7.2732 52.8034H55.7231C59.6912 52.8034 62.9455 49.6708 62.9455 45.7868V8.21341C62.9455 4.32942 59.6912 1.19678 55.7231 1.19678ZM60.1286 45.7868C60.1286 48.1183 58.1667 50.0422 55.7231 50.0422H7.2732C4.82962 50.0422 2.86765 48.1183 2.86765 45.7868V8.21341C2.86765 5.88194 4.82962 3.95803 7.2732 3.95803H55.7231C58.1667 3.95803 60.1286 5.88194 60.1286 8.21341V45.7868Z" fill="#222222" stroke="#222222"/>
<path d="M57.6601 10.5903H5.33422C4.57119 10.5903 3.92578 11.1938 3.92578 11.971C3.92578 12.7481 4.57119 13.3516 5.33422 13.3516H57.6601C58.4231 13.3516 59.0685 12.7481 59.0685 11.971C59.0685 11.1938 58.4231 10.5903 57.6601 10.5903Z" fill="#222222" stroke="#222222"/>
<path d="M7.27172 8.65481C7.63838 8.65481 7.99785 8.51243 8.2617 8.2555C8.52727 7.99922 8.68015 7.64357 8.68015 7.27418C8.68015 6.90617 8.5275 6.54937 8.2617 6.29286C7.99785 6.03593 7.63838 5.89355 7.27172 5.89355C6.90505 5.89355 6.54558 6.03593 6.28174 6.29286C6.01593 6.54937 5.86328 6.90617 5.86328 7.27418C5.86328 7.64342 6.01614 7.99919 6.28174 8.2555C6.54558 8.51243 6.90505 8.65481 7.27172 8.65481Z" fill="#222222" stroke="#222222"/>
<path d="M15.0256 8.65481C15.3907 8.65481 15.7515 8.51267 16.0156 8.2555C16.2812 7.99922 16.4341 7.64357 16.4341 7.27418C16.4341 6.90617 16.2814 6.54937 16.0156 6.29286C15.7515 6.03569 15.3907 5.89355 15.0256 5.89355C14.659 5.89355 14.2995 6.03593 14.0356 6.29286C13.7698 6.54937 13.6172 6.90617 13.6172 7.27418C13.6172 7.64341 13.77 7.99919 14.0356 8.25549C14.2995 8.51243 14.659 8.65481 15.0256 8.65481Z" fill="#222222" stroke="#222222"/>
<path d="M11.1506 8.65481C11.5173 8.65481 11.8768 8.51243 12.1406 8.2555C12.4062 7.99922 12.5591 7.64357 12.5591 7.27418C12.5591 6.90617 12.4064 6.54937 12.1406 6.29286C11.8768 6.03593 11.5173 5.89355 11.1506 5.89355C10.7855 5.89355 10.4247 6.03569 10.1606 6.29286C9.89484 6.54937 9.74219 6.90617 9.74219 7.27418C9.74219 7.64341 9.89504 7.99919 10.1606 8.25549C10.4247 8.51266 10.7855 8.65481 11.1506 8.65481Z" fill="#222222" stroke="#222222"/>
<path d="M23.7685 21.3218L23.7684 21.3216C23.2197 20.79 22.3363 20.7899 21.7877 21.3217L12.0978 30.715L12.0977 30.7151C11.5404 31.2555 11.5403 32.1381 12.0978 32.6785L21.7877 42.0718C22.0637 42.3394 22.4234 42.4707 22.7781 42.4707C23.1328 42.4707 23.4924 42.3394 23.7684 42.0718L23.7685 42.0718C24.3258 41.5314 24.3259 40.6488 23.7684 40.1084L23.4204 40.4674L23.7684 40.1084L15.0911 31.6968L23.7684 23.2853L23.7685 23.2852C24.3258 22.7447 24.3258 21.8622 23.7685 21.3218Z" fill="#222222" stroke="#222222"/>
<path d="M41.2112 21.3217L41.2112 21.3216C40.6625 20.79 39.7792 20.7899 39.2306 21.3217L39.2305 21.3218C38.6732 21.8622 38.6731 22.7448 39.2306 23.2851L39.2306 23.2851L47.9079 31.6967L39.2306 40.1083L39.2305 40.1083C38.6732 40.6488 38.6731 41.5313 39.2306 42.0717L39.5769 41.7144L39.2306 42.0717C39.5065 42.3392 39.8662 42.4706 40.2209 42.4706C40.5756 42.4706 40.9353 42.3392 41.2112 42.0717L40.8632 41.7127L41.2112 42.0717L50.9012 32.6784L50.9013 32.6783C51.4586 32.1379 51.4587 31.2553 50.9012 30.7149L50.5532 31.0739L50.9012 30.7149L41.2112 21.3217Z" fill="#222222" stroke="#222222"/>
<path d="M35.8522 20.0649L35.8518 20.0648C35.1344 19.8125 34.3248 20.1653 34.0537 20.8874L34.0537 20.8875L26.3017 41.5528C26.0278 42.283 26.4221 43.073 27.1467 43.3286C27.3039 43.3841 27.4651 43.4103 27.6235 43.4103C28.1886 43.4103 28.7331 43.0719 28.9454 42.5062L28.9455 42.5061L36.6974 21.8407L36.6975 21.8406C36.9712 21.1106 36.5768 20.3204 35.8522 20.0649Z" fill="#222222" stroke="#222222"/>
</svg>
