<svg width="61" height="60" viewBox="0 0 61 60" fill="none" xmlns="http://www.w3.org/2000/svg">
<path d="M31.7854 27.4288H48.4997L56.214 35.1431V13.2859C56.214 10.4574 53.8997 8.14307 51.0711 8.14307H31.7854C28.9569 8.14307 26.6426 10.4574 26.6426 13.2859V22.2859C26.6426 25.1145 28.9569 27.4288 31.7854 27.4288Z" fill="#1565C0"/>
<path d="M29.2137 23.5714H12.4994L4.78516 31.2856V9.4285C4.78516 6.59993 7.09944 4.28564 9.92801 4.28564H29.2137C32.0423 4.28564 34.3566 6.59993 34.3566 9.4285V18.4285C34.3566 21.2571 32.0423 23.5714 29.2137 23.5714Z" fill="#2196F3"/>
<path d="M15.0711 45.4284C18.6216 45.4284 21.4997 42.5503 21.4997 38.9999C21.4997 35.4495 18.6216 32.5713 15.0711 32.5713C11.5207 32.5713 8.64258 35.4495 8.64258 38.9999C8.64258 42.5503 11.5207 45.4284 15.0711 45.4284Z" fill="#FFA726"/>
<path d="M45.9286 45.4284C49.479 45.4284 52.3571 42.5503 52.3571 38.9999C52.3571 35.4495 49.479 32.5713 45.9286 32.5713C42.3782 32.5713 39.5 35.4495 39.5 38.9999C39.5 42.5503 42.3782 45.4284 45.9286 45.4284Z" fill="#FFA726"/>
<path d="M25.3566 53.1429C25.3566 53.1429 22.528 48 15.0709 48C7.61373 48 4.78516 53.1429 4.78516 53.1429V55.7143H25.3566V53.1429ZM56.2137 53.1429C56.2137 53.1429 53.3852 48 45.928 48C38.4709 48 35.6423 53.1429 35.6423 53.1429V55.7143H56.2137V53.1429Z" fill="#607D8B"/>
</svg>
