<svg width="33" height="32" viewBox="0 0 33 32" fill="none" xmlns="http://www.w3.org/2000/svg">
<g clip-path="url(#clip0_45_198)">
<path d="M31.2885 27.3463C31.3995 27.7938 31.393 28.2624 31.2695 28.7066C31.146 29.1509 30.9098 29.5556 30.5838 29.8816C30.2578 30.2077 29.853 30.4439 29.4088 30.5673C28.9646 30.6908 28.496 30.6973 28.0485 30.5863L22.8752 29.293C20.6415 30.3349 18.1811 30.7963 15.7218 30.6345C13.2624 30.4728 10.8836 29.693 8.80572 28.3676C6.72779 27.0421 5.01792 25.2138 3.83442 23.0519C2.65092 20.8899 2.03207 18.4643 2.03517 15.9997C2.03404 14.8773 2.1638 13.7586 2.42183 12.6663C3.17646 9.44534 4.99786 6.57407 7.59022 4.51886C10.1826 2.46365 13.3936 1.34521 16.7018 1.34521C20.01 1.34521 23.2211 2.46365 25.8134 4.51886C28.4058 6.57407 30.2272 9.44534 30.9818 12.6663C31.2399 13.7586 31.3696 14.8773 31.3685 15.9997C31.3645 18.1328 30.8959 20.2394 29.9952 22.173L31.2885 27.3463Z" fill="#DA3380"/>
<path d="M16.7019 23.9997C24.5885 23.9997 30.9819 18.9256 30.9819 12.6663C30.9819 6.40711 24.5885 1.33301 16.7019 1.33301C8.81525 1.33301 2.42188 6.40711 2.42188 12.6663C2.42188 18.9256 8.81525 23.9997 16.7019 23.9997Z" fill="#F55FA6"/>
<path d="M11.3678 18.6663C12.8406 18.6663 14.0345 17.4724 14.0345 15.9997C14.0345 14.5269 12.8406 13.333 11.3678 13.333C9.89508 13.333 8.70117 14.5269 8.70117 15.9997C8.70117 17.4724 9.89508 18.6663 11.3678 18.6663Z" fill="#F2F2F2"/>
<path d="M22.0358 18.6663C23.5086 18.6663 24.7025 17.4724 24.7025 15.9997C24.7025 14.5269 23.5086 13.333 22.0358 13.333C20.563 13.333 19.3691 14.5269 19.3691 15.9997C19.3691 17.4724 20.563 18.6663 22.0358 18.6663Z" fill="#F2F2F2"/>
<path d="M16.7021 0C12.4587 0 8.38902 1.68571 5.38844 4.68629C2.38786 7.68687 0.702148 11.7565 0.702148 16C0.702148 20.2435 2.38786 24.3131 5.38844 27.3137C8.38902 30.3143 12.4587 32 16.7021 32C18.8684 32.001 21.0118 31.5571 22.9995 30.696L27.7301 31.8787C28.052 31.9589 28.3824 31.9997 28.7141 32C29.321 31.998 29.9195 31.8579 30.4643 31.5903C31.009 31.3227 31.4857 30.9347 31.8583 30.4556C32.2308 29.9765 32.4895 29.419 32.6147 28.8251C32.7399 28.2313 32.7283 27.6167 32.5808 27.028L31.3981 22.2973C32.2593 20.3096 32.7031 18.1662 32.7021 16C32.6976 11.7579 31.0104 7.69095 28.0108 4.69136C25.0112 1.69177 20.9442 0.00458811 16.7021 0ZM28.7021 22.4973L29.9955 27.6747C30.0511 27.8979 30.048 28.1317 29.9864 28.3534C29.9249 28.575 29.8071 28.777 29.6445 28.9397C29.4818 29.1023 29.2798 29.2201 29.0582 29.2816C28.8365 29.3431 28.6027 29.3463 28.3795 29.2907L23.1995 28C23.0935 27.9736 22.9847 27.9601 22.8755 27.96C22.6811 27.9598 22.4891 28.0022 22.3128 28.084C20.5571 28.9075 18.6414 29.3341 16.7021 29.3333C14.0651 29.3333 11.4872 28.5513 9.29455 27.0863C7.10189 25.6212 5.39292 23.5388 4.38375 21.1024C3.37459 18.6661 3.11054 15.9852 3.62501 13.3988C4.13948 10.8124 5.40936 8.43661 7.27406 6.57191C9.13876 4.70721 11.5145 3.43733 14.1009 2.92286C16.6874 2.40839 19.3682 2.67244 21.8046 3.68161C24.2409 4.69077 26.3233 6.39974 27.7884 8.5924C29.2535 10.7851 30.0355 13.3629 30.0355 16C30.0354 17.9395 29.6079 19.8551 28.7835 21.6107C28.6556 21.8882 28.6269 22.2012 28.7021 22.4973Z" fill="#6C2E7C"/>
<path d="M11.3682 12C10.577 12 9.80368 12.2346 9.14588 12.6741C8.48809 13.1136 7.9754 13.7384 7.67265 14.4693C7.3699 15.2002 7.29068 16.0044 7.44502 16.7804C7.59937 17.5563 7.98033 18.269 8.53974 18.8284C9.09915 19.3878 9.81188 19.7688 10.5878 19.9231C11.3637 20.0775 12.168 19.9983 12.8989 19.6955C13.6298 19.3928 14.2545 18.8801 14.694 18.2223C15.1336 17.5645 15.3682 16.7911 15.3682 16C15.3682 14.9391 14.9467 13.9217 14.1966 13.1716C13.4464 12.4214 12.429 12 11.3682 12ZM11.3682 17.3333C11.1045 17.3333 10.8467 17.2551 10.6274 17.1086C10.4081 16.9621 10.2372 16.7539 10.1363 16.5102C10.0354 16.2666 10.009 15.9985 10.0605 15.7399C10.1119 15.4812 10.2389 15.2437 10.4254 15.0572C10.6118 14.8707 10.8494 14.7437 11.108 14.6923C11.3667 14.6408 11.6348 14.6672 11.8784 14.7682C12.122 14.8691 12.3303 15.04 12.4768 15.2592C12.6233 15.4785 12.7015 15.7363 12.7015 16C12.7015 16.3536 12.561 16.6928 12.311 16.9428C12.0609 17.1929 11.7218 17.3333 11.3682 17.3333Z" fill="#6C2E7C"/>
<path d="M22.0361 12C21.245 12 20.4717 12.2346 19.8139 12.6741C19.1561 13.1136 18.6434 13.7384 18.3406 14.4693C18.0379 15.2002 17.9587 16.0044 18.113 16.7804C18.2673 17.5563 18.6483 18.269 19.2077 18.8284C19.7671 19.3878 20.4798 19.7688 21.2558 19.9231C22.0317 20.0775 22.836 19.9983 23.5669 19.6955C24.2978 19.3928 24.9225 18.8801 25.362 18.2223C25.8015 17.5645 26.0361 16.7911 26.0361 16C26.0361 14.9391 25.6147 13.9217 24.8646 13.1716C24.1144 12.4214 23.097 12 22.0361 12ZM22.0361 17.3333C21.7724 17.3333 21.5146 17.2551 21.2954 17.1086C21.0761 16.9621 20.9052 16.7539 20.8043 16.5102C20.7034 16.2666 20.677 15.9985 20.7284 15.7399C20.7799 15.4812 20.9069 15.2437 21.0933 15.0572C21.2798 14.8707 21.5174 14.7437 21.776 14.6923C22.0347 14.6408 22.3027 14.6672 22.5464 14.7682C22.79 14.8691 22.9983 15.04 23.1448 15.2592C23.2913 15.4785 23.3695 15.7363 23.3695 16C23.3695 16.3536 23.229 16.6928 22.9789 16.9428C22.7289 17.1929 22.3898 17.3333 22.0361 17.3333Z" fill="#6C2E7C"/>
<g clip-path="url(#clip1_45_198)">
<path d="M28.8828 11.625C28.1435 9.87792 27.0869 8.30959 25.7392 6.9629C24.3925 5.6162 22.8241 4.55859 21.0781 3.8203C19.2695 3.0547 17.3481 2.66699 15.3686 2.66699C13.3887 2.66699 11.4683 3.0547 9.65967 3.8203C7.91308 4.55859 6.34425 5.6162 4.99755 6.9629C3.65086 8.30959 2.59374 9.87798 1.85502 11.625C1.08986 13.4337 0.702148 15.3545 0.702148 17.334C0.702148 19.3135 1.08986 21.2344 1.85496 23.043C2.59374 24.7891 3.65086 26.3584 4.99755 27.7051C6.34418 29.0518 7.91308 30.1084 9.65967 30.8477C11.4683 31.6123 13.3887 32 15.3686 32C17.3481 32 19.2695 31.6123 21.0781 30.8477C22.8242 30.1084 24.3925 29.0518 25.7392 27.7051C27.0869 26.3584 28.1435 24.7891 28.8828 23.043C29.6474 21.2344 30.0351 19.3135 30.0351 17.334C30.0351 15.3545 29.6474 13.4337 28.8828 11.625Z" fill="#ED5564"/>
<path d="M22.439 10.2627C20.5502 8.37404 18.0395 7.33398 15.3682 7.33398C12.6968 7.33398 10.1856 8.37404 8.29688 10.2627C6.40815 12.1514 5.36816 14.6631 5.36816 17.3339C5.36816 20.0048 6.40822 22.5156 8.29688 24.4052C10.1855 26.2939 12.6968 27.3339 15.3682 27.3339C18.0395 27.3339 20.5502 26.2939 22.439 24.4052C24.3286 22.5156 25.3686 20.0049 25.3686 17.3339C25.3686 14.663 24.3286 12.1514 22.439 10.2627Z" fill="#E6E9ED"/>
<path d="M15.3687 12C12.4278 12 10.0352 14.3926 10.0352 17.334C10.0352 20.2744 12.4277 22.667 15.3687 22.667C18.3096 22.667 20.7021 20.2744 20.7021 17.334C20.7021 14.3926 18.3096 12 15.3687 12Z" fill="#ED5564"/>
<path d="M32.6652 5.15972C32.5803 4.91852 32.3644 4.74663 32.1096 4.71832L28.3967 4.3053L27.9845 0.59336C27.9562 0.338472 27.7843 0.122649 27.5422 0.0376445C27.301 -0.0472973 27.0315 0.0142058 26.8498 0.194902L22.136 4.90977C22.0276 5.01815 21.9592 5.16172 21.9446 5.31504L21.6038 8.74571C21.5784 9.00547 21.7063 9.25642 21.9319 9.38824C22.0364 9.44881 22.1517 9.47812 22.2679 9.47812C22.4026 9.47812 22.5374 9.43806 22.6526 9.35605L25.0139 7.6881L23.3459 10.0504C23.1955 10.2633 23.1828 10.5445 23.3146 10.7701C23.4347 10.9771 23.6545 11.1012 23.8898 11.1012C23.9123 11.1012 23.9338 11.1002 23.9562 11.0983L27.3878 10.7584C27.5411 10.7428 27.6837 10.6754 27.793 10.566L32.5069 5.85219C32.6886 5.67143 32.7491 5.40192 32.6652 5.15972Z" fill="#F6BB42"/>
<path d="M15.3689 17.9998C15.198 17.9998 15.0276 17.9353 14.8973 17.8044C14.637 17.5447 14.637 17.1228 14.8978 16.8621L16.9504 14.8093C17.2107 14.5486 17.6331 14.5486 17.8938 14.8093C18.1536 15.0691 18.1536 15.4919 17.8938 15.7517L15.8401 17.8044C15.7102 17.9353 15.5393 17.9998 15.3689 17.9998Z" fill="#434A54"/>
<path d="M28.2646 4.43844C28.1513 4.32519 27.9511 4.19043 27.6396 4.19043C27.0263 4.19043 25.8613 4.72846 21.5293 8.63084C19.1777 10.75 16.9775 12.8964 16.956 12.9179C16.8276 13.0439 16.7549 13.2158 16.7549 13.3955V15.2802C16.7549 15.6484 17.0537 15.9473 17.4219 15.9473H19.3076C19.4873 15.9473 19.6592 15.875 19.7842 15.7461C19.8076 15.7226 22.1494 13.3232 24.3593 10.8525C25.665 9.39257 26.6718 8.19138 27.3525 7.28121C27.7783 6.71193 28.0751 6.26072 28.2607 5.89939C28.3838 5.66013 28.7578 4.93159 28.2646 4.43844Z" fill="#FFCE54"/>
</g>
</g>
<defs>
<clipPath id="clip0_45_198">
<rect width="32" height="32" fill="white" transform="translate(0.702148)"/>
</clipPath>
<clipPath id="clip1_45_198">
<rect width="32" height="32" fill="white" transform="translate(0.702148)"/>
</clipPath>
</defs>
</svg>
