<svg width="61" height="60" viewBox="0 0 61 60" fill="none" xmlns="http://www.w3.org/2000/svg">
<g clip-path="url(#clip0_324_1733)">
<path d="M21.125 30.9375H17.375C15.8217 30.9375 14.5625 32.1967 14.5625 33.75V49.6875C14.5625 51.2408 15.8217 52.5 17.375 52.5H21.125C22.6783 52.5 23.9375 51.2408 23.9375 49.6875V33.75C23.9375 32.1967 22.6783 30.9375 21.125 30.9375Z" fill="#4796E7"/>
<path d="M33.3125 24.375H29.5625C28.0092 24.375 26.75 25.6342 26.75 27.1875V49.6875C26.75 51.2408 28.0092 52.5 29.5625 52.5H33.3125C34.8658 52.5 36.125 51.2408 36.125 49.6875V27.1875C36.125 25.6342 34.8658 24.375 33.3125 24.375Z" fill="#22BA8E"/>
<path d="M45.5 17.8125H41.75C40.1967 17.8125 38.9375 19.0717 38.9375 20.625V49.6875C38.9375 51.2408 40.1967 52.5 41.75 52.5H45.5C47.0533 52.5 48.3125 51.2408 48.3125 49.6875V20.625C48.3125 19.0717 47.0533 17.8125 45.5 17.8125Z" fill="#FFAF40"/>
<path d="M9.83203 26.4885C9.83203 26.4885 28.0924 21.4397 38.0239 9.14941" stroke="#0AA906" stroke-width="1.875" stroke-linecap="round"/>
<path fill-rule="evenodd" clip-rule="evenodd" d="M44.5829 3.04046L41.2684 14.31L33.3134 6.35503L44.5829 3.04046Z" fill="#0AA906"/>
<path d="M56.75 54.375H3.3125V57.1875H56.75V54.375Z" fill="#0AA906"/>
</g>
<defs>
<clipPath id="clip0_324_1733">
<rect width="60" height="60" fill="white" transform="translate(0.5)"/>
</clipPath>
</defs>
</svg>
