<svg width="61" height="60" viewBox="0 0 61 60" fill="none" xmlns="http://www.w3.org/2000/svg">
<g clip-path="url(#clip0_323_1628)">
<path d="M58.3571 27.8576H52.263C52.6636 23.4925 49.2683 19.2862 44.4286 19.2862C39.5831 19.2862 36.194 23.4974 36.5941 27.8576H32.6428V21.0219C32.6428 19.376 30.8565 18.3417 29.4287 19.166C27.0968 20.5121 24.0713 18.8714 24.0713 16.0719C24.0713 13.2819 27.0895 11.6275 29.4287 12.9778C30.8539 13.8008 32.6428 12.7706 32.6428 11.1219V2.14338C32.6429 0.959902 31.6835 0.000488281 30.5 0.000488281H6.92855C3.38387 0.000488281 0.5 2.88436 0.5 6.42904V30.0005C0.5 31.184 1.45941 32.1434 2.64289 32.1434H8.73699C8.33539 36.5181 11.7413 40.7148 16.5714 40.7148C21.4236 40.7148 24.8052 36.4968 24.4059 32.1434H28.3572V38.9776C28.3572 40.6235 30.1434 41.6578 31.5716 40.8335C33.9031 39.4874 36.9287 41.1284 36.9287 43.9276C36.9287 46.7178 33.9104 48.372 31.5713 47.022C30.1461 46.199 28.3572 47.2292 28.3572 48.8779V57.8577C28.3572 59.0412 29.3166 60.0006 30.5001 60.0006H54.0716C57.6161 60.0005 60.5 57.1166 60.5 53.5719V30.0005C60.5 28.817 59.5406 27.8576 58.3571 27.8576Z" fill="#FFD15C"/>
<path d="M58.3573 27.8576H52.2632C52.6638 23.4925 49.2685 19.2862 44.4288 19.2862C39.5833 19.2862 36.1943 23.4974 36.5943 27.8576H32.643V21.022C32.643 19.7752 31.6179 18.8803 30.5001 18.8774V41.1223C30.858 41.1231 31.2253 41.0335 31.5716 40.8336C33.9031 39.4874 36.9287 41.1284 36.9287 43.9277C36.9287 46.7178 33.9104 48.372 31.5713 47.022C31.2253 46.8223 30.858 46.7324 30.5 46.7335V60.0005H54.0714C57.6164 60.0005 60.5002 57.1167 60.5002 53.572V30.0005C60.5002 28.8171 59.5408 27.8576 58.3573 27.8576Z" fill="#A5EB78"/>
<path d="M54.0714 0.000488281H30.5C29.3165 0.000488281 28.3571 0.959902 28.3571 2.14338V8.23748C23.9936 7.83635 19.7857 11.2312 19.7857 16.0719C19.7857 20.9195 24.0002 24.3071 28.3571 23.9064V27.8577H21.5214C19.8755 27.8577 18.8413 29.644 19.6655 31.0721C21.0117 33.4041 19.3706 36.4292 16.5714 36.4292C13.7814 36.4292 12.127 33.411 13.4773 31.0718C14.3002 29.6463 13.2702 27.8577 11.6214 27.8577H2.64289C1.45941 27.8576 0.5 28.817 0.5 30.0005V53.5719C0.5 57.1166 3.38387 60.0005 6.92855 60.0005H30.5C31.6835 60.0005 32.6429 59.0411 32.6429 57.8576V51.7622C37.0091 52.1626 41.2143 48.7669 41.2143 43.9276C41.2143 39.0816 37.0033 35.6937 32.6429 36.0932V32.1434H39.4786C41.1245 32.1434 42.1588 30.3572 41.3345 28.9293C39.9857 26.5928 41.6355 23.5719 44.4286 23.5719C47.2187 23.5719 48.8729 26.5902 47.5227 28.9293C46.7 30.3547 47.7298 32.1434 49.3786 32.1434H58.3571C59.5406 32.1434 60.5 31.184 60.5 30.0005V6.42904C60.5 2.88436 57.6161 0.000488281 54.0714 0.000488281Z" fill="#FF6464"/>
<path d="M32.6429 11.1219V2.14338C32.6429 0.959902 31.6835 0.000488281 30.5 0.000488281V13.2663C31.617 13.2633 32.6429 12.3704 32.6429 11.1219Z" fill="#FFD15C"/>
<path d="M54.0714 0.000488281H30.5V60.0005C31.6835 60.0005 32.6429 59.0411 32.6429 57.8576V51.7622C37.0091 52.1626 41.2143 48.7669 41.2143 43.9276C41.2143 39.0816 37.0033 35.6937 32.6429 36.0932V32.1434H39.4786C41.1245 32.1434 42.1588 30.3572 41.3345 28.9293C39.9857 26.5928 41.6355 23.5719 44.4286 23.5719C47.2187 23.5719 48.8729 26.5902 47.5227 28.9293C46.7 30.3547 47.7298 32.1434 49.3786 32.1434H58.3571C59.5406 32.1434 60.5 31.184 60.5 30.0005V6.42904C60.5 2.88436 57.6161 0.000488281 54.0714 0.000488281Z" fill="#169ED9"/>
</g>
<defs>
<clipPath id="clip0_323_1628">
<rect width="60" height="60" fill="white" transform="translate(0.5 0.000488281)"/>
</clipPath>
</defs>
</svg>
