<svg width="61" height="46" viewBox="0 0 61 46" fill="none" xmlns="http://www.w3.org/2000/svg">
<path d="M53.9375 0.874849C53.2928 0.457781 52.5556 0.205464 51.7905 0.140076C51.0255 0.0746884 50.2561 0.198233 49.55 0.499849L26.4125 9.61235C25.8647 9.83529 25.2789 9.9499 24.6875 9.94985H9.875C8.6318 9.94985 7.43951 10.4437 6.56044 11.3228C5.68136 12.2019 5.1875 13.3941 5.1875 14.6373V15.0123H0.5V26.2623H5.1875V26.7498C5.21688 27.9734 5.72367 29.137 6.59959 29.9919C7.4755 30.8468 8.65105 31.3252 9.875 31.3249L15.5 43.2499C15.8809 44.0529 16.4805 44.7322 17.2301 45.2098C17.9797 45.6874 18.8487 45.9439 19.7375 45.9499H22.1C23.3367 45.94 24.5194 45.4417 25.3903 44.5637C26.2613 43.6857 26.75 42.4991 26.75 41.2624V31.7749L49.55 40.8874C50.1108 41.1105 50.7089 41.2251 51.3125 41.2248C52.2489 41.2097 53.1608 40.9232 53.9375 40.3999C54.5543 39.9834 55.063 39.4261 55.4217 38.774C55.7804 38.1219 55.9786 37.3938 56 36.6499V4.73735C55.9966 3.97428 55.8069 3.22359 55.4475 2.55048C55.088 1.87736 54.5697 1.30216 53.9375 0.874849ZM22.0625 14.6373V26.7498H9.875V14.6373H22.0625ZM22.0625 41.2624H19.7L15.0875 31.3249H22.0625V41.2624ZM28.1375 27.3123C27.6923 27.0848 27.228 26.8966 26.75 26.7498V14.3748C27.2234 14.2772 27.6876 14.1392 28.1375 13.9623L51.3125 4.73735V36.5373L28.1375 27.3123ZM56.1125 15.9498V25.3248C57.3557 25.3248 58.548 24.831 59.4271 23.9519C60.3061 23.0728 60.8 21.8806 60.8 20.6373C60.8 19.3941 60.3061 18.2019 59.4271 17.3228C58.548 16.4437 57.3557 15.9498 56.1125 15.9498Z" fill="#222222"/>
<path d="M53.9375 0.874849C53.2928 0.457781 52.5556 0.205464 51.7905 0.140076C51.0255 0.0746884 50.2561 0.198233 49.55 0.499849L26.4125 9.61235C25.8647 9.83529 25.2789 9.9499 24.6875 9.94985H9.875C8.6318 9.94985 7.43951 10.4437 6.56044 11.3228C5.68136 12.2019 5.1875 13.3941 5.1875 14.6373V15.0123H0.5V26.2623H5.1875V26.7498C5.21688 27.9734 5.72367 29.137 6.59959 29.9919C7.4755 30.8468 8.65105 31.3252 9.875 31.3249L15.5 43.2499C15.8809 44.0529 16.4805 44.7322 17.2301 45.2098C17.9797 45.6874 18.8487 45.9439 19.7375 45.9499H22.1C23.3367 45.94 24.5194 45.4417 25.3903 44.5637C26.2613 43.6857 26.75 42.4991 26.75 41.2624V31.7749L49.55 40.8874C50.1108 41.1105 50.7089 41.2251 51.3125 41.2248C52.2489 41.2097 53.1608 40.9232 53.9375 40.3999C54.5543 39.9834 55.063 39.4261 55.4217 38.774C55.7804 38.1219 55.9786 37.3938 56 36.6499V4.73735C55.9966 3.97428 55.8069 3.22359 55.4475 2.55048C55.088 1.87736 54.5697 1.30216 53.9375 0.874849ZM22.0625 14.6373V26.7498H9.875V14.6373H22.0625ZM22.0625 41.2624H19.7L15.0875 31.3249H22.0625V41.2624ZM28.1375 27.3123C27.6923 27.0848 27.228 26.8966 26.75 26.7498V14.3748C27.2234 14.2772 27.6876 14.1392 28.1375 13.9623L51.3125 4.73735V36.5373L28.1375 27.3123ZM56.1125 15.9498V25.3248C57.3557 25.3248 58.548 24.831 59.4271 23.9519C60.3061 23.0728 60.8 21.8806 60.8 20.6373C60.8 19.3941 60.3061 18.2019 59.4271 17.3228C58.548 16.4437 57.3557 15.9498 56.1125 15.9498Z" stroke="#222222"/>
</svg>
