<svg width="61" height="60" viewBox="0 0 61 60" fill="none" xmlns="http://www.w3.org/2000/svg">
<g clip-path="url(#clip0_908_22987)">
<path d="M53.9375 7.87485C53.2928 7.45778 52.5556 7.20546 51.7905 7.14008C51.0255 7.07469 50.2561 7.19823 49.55 7.49985L26.4125 16.6123C25.8647 16.8353 25.2789 16.9499 24.6875 16.9498H9.875C8.6318 16.9498 7.43951 17.4437 6.56044 18.3228C5.68136 19.2019 5.1875 20.3941 5.1875 21.6373V22.0123H0.5V33.2623H5.1875V33.7498C5.21688 34.9734 5.72367 36.137 6.59959 36.9919C7.4755 37.8468 8.65105 38.3252 9.875 38.3249L15.5 50.2499C15.8809 51.0529 16.4805 51.7322 17.2301 52.2098C17.9797 52.6874 18.8487 52.9439 19.7375 52.9499H22.1C23.3367 52.94 24.5194 52.4417 25.3903 51.5637C26.2613 50.6857 26.75 49.4991 26.75 48.2624V38.7749L49.55 47.8874C50.1108 48.1105 50.7089 48.2251 51.3125 48.2248C52.2489 48.2097 53.1608 47.9232 53.9375 47.3999C54.5543 46.9834 55.063 46.4261 55.4217 45.774C55.7804 45.1219 55.9786 44.3938 56 43.6499V11.7373C55.9966 10.9743 55.8069 10.2236 55.4475 9.55048C55.088 8.87736 54.5697 8.30216 53.9375 7.87485ZM22.0625 21.6373V33.7498H9.875V21.6373H22.0625ZM22.0625 48.2624H19.7L15.0875 38.3249H22.0625V48.2624ZM28.1375 34.3123C27.6923 34.0848 27.228 33.8966 26.75 33.7498V21.3748C27.2234 21.2772 27.6876 21.1392 28.1375 20.9623L51.3125 11.7373V43.5373L28.1375 34.3123ZM56.1125 22.9498V32.3248C57.3557 32.3248 58.548 31.831 59.4271 30.9519C60.3061 30.0728 60.8 28.8806 60.8 27.6373C60.8 26.3941 60.3061 25.2019 59.4271 24.3228C58.548 23.4437 57.3557 22.9498 56.1125 22.9498Z" fill="#3E83EA"/>
<path d="M53.9375 7.87485C53.2928 7.45778 52.5556 7.20546 51.7905 7.14008C51.0255 7.07469 50.2561 7.19823 49.55 7.49985L26.4125 16.6123C25.8647 16.8353 25.2789 16.9499 24.6875 16.9498H9.875C8.6318 16.9498 7.43951 17.4437 6.56044 18.3228C5.68136 19.2019 5.1875 20.3941 5.1875 21.6373V22.0123H0.5V33.2623H5.1875V33.7498C5.21688 34.9734 5.72367 36.137 6.59959 36.9919C7.4755 37.8468 8.65105 38.3252 9.875 38.3249L15.5 50.2499C15.8809 51.0529 16.4805 51.7322 17.2301 52.2098C17.9797 52.6874 18.8487 52.9439 19.7375 52.9499H22.1C23.3367 52.94 24.5194 52.4417 25.3903 51.5637C26.2613 50.6857 26.75 49.4991 26.75 48.2624V38.7749L49.55 47.8874C50.1108 48.1105 50.7089 48.2251 51.3125 48.2248C52.2489 48.2097 53.1608 47.9232 53.9375 47.3999C54.5543 46.9834 55.063 46.4261 55.4217 45.774C55.7804 45.1219 55.9786 44.3938 56 43.6499V11.7373C55.9966 10.9743 55.8069 10.2236 55.4475 9.55048C55.088 8.87736 54.5697 8.30216 53.9375 7.87485ZM22.0625 21.6373V33.7498H9.875V21.6373H22.0625ZM22.0625 48.2624H19.7L15.0875 38.3249H22.0625V48.2624ZM28.1375 34.3123C27.6923 34.0848 27.228 33.8966 26.75 33.7498V21.3748C27.2234 21.2772 27.6876 21.1392 28.1375 20.9623L51.3125 11.7373V43.5373L28.1375 34.3123ZM56.1125 22.9498V32.3248C57.3557 32.3248 58.548 31.831 59.4271 30.9519C60.3061 30.0728 60.8 28.8806 60.8 27.6373C60.8 26.3941 60.3061 25.2019 59.4271 24.3228C58.548 23.4437 57.3557 22.9498 56.1125 22.9498Z" stroke="#3E83EA"/>
</g>
<defs>
<clipPath id="clip0_908_22987">
<rect width="60" height="60" fill="white" transform="translate(0.5)"/>
</clipPath>
</defs>
</svg>
