<svg width="60" height="92" viewBox="0 0 60 92" fill="none" xmlns="http://www.w3.org/2000/svg">
<path d="M29.9844 46.0163C29.9844 37.7463 36.6888 31.0078 44.9928 31.0078C53.2628 31.0078 60.0013 37.7123 60.0013 46.0163C60.0013 54.2863 53.2968 61.0248 44.9928 61.0248C36.7229 61.0248 29.9844 54.2863 29.9844 46.0163Z" fill="#1ABCFE"/>
<path d="M0 75.9997C0 67.7297 6.70446 60.9912 15.0085 60.9912H30.0169V75.9997C30.0169 84.2697 23.3125 91.0082 15.0085 91.0082C6.70446 91.0082 0 84.3037 0 75.9997Z" fill="#0ACF83"/>
<path d="M29.9844 1.02524V31.0082H44.9928C53.2628 31.0082 60.0013 24.3037 60.0013 15.9997C60.0013 7.72972 53.2968 0.991211 44.9928 0.991211H29.9844V1.02524Z" fill="#FF7262"/>
<path d="M0 16.0339C0 24.3039 6.70446 31.0424 15.0085 31.0424H30.0169V1.02539H15.0085C6.70446 1.02539 0 7.72987 0 16.0339Z" fill="#F24E1E"/>
<path d="M0 46.0163C0 54.2863 6.70446 61.0248 15.0085 61.0248H30.0169V31.0078H15.0085C6.70446 31.0078 0 37.7463 0 46.0163Z" fill="#A259FF"/>
</svg>
