<svg width="23" height="22" viewBox="0 0 23 22" fill="none" xmlns="http://www.w3.org/2000/svg">
<path fill-rule="evenodd" clip-rule="evenodd" d="M21.062 0.98002C20.8094 0.98002 20.6045 1.18485 20.6045 1.43752C20.6045 1.69019 20.8094 1.89502 21.062 1.89502C21.3147 1.89502 21.5195 1.69019 21.5195 1.43752C21.5195 1.18485 21.3147 0.98002 21.062 0.98002ZM19.6445 1.43752C19.6445 0.654656 20.2792 0.0200195 21.062 0.0200195C21.8449 0.0200195 22.4795 0.654656 22.4795 1.43752C22.4795 2.22038 21.8449 2.85502 21.062 2.85502C20.2792 2.85502 19.6445 2.22038 19.6445 1.43752Z" fill="#F6613F"/>
<path fill-rule="evenodd" clip-rule="evenodd" d="M8.40419 1.15914C8.59164 1.3466 8.59164 1.65051 8.40419 1.83797L7.02644 3.21572C6.83899 3.40317 6.53507 3.40317 6.34762 3.21572C6.16017 3.02826 6.16017 2.72434 6.34762 2.53689L7.72537 1.15914C7.91282 0.971692 8.21674 0.971692 8.40419 1.15914Z" fill="#F6613F"/>
<path fill-rule="evenodd" clip-rule="evenodd" d="M6.34762 1.15914C6.53507 0.971692 6.83899 0.971692 7.02644 1.15914L8.40419 2.53689C8.59164 2.72434 8.59164 3.02826 8.40419 3.21572C8.21674 3.40317 7.91282 3.40317 7.72537 3.21572L6.34762 1.83797C6.16017 1.65051 6.16017 1.3466 6.34762 1.15914Z" fill="#F6613F"/>
<path d="M5.875 4.625C6.08211 4.625 6.25 4.45711 6.25 4.25C6.25 4.04289 6.08211 3.875 5.875 3.875C5.66789 3.875 5.5 4.04289 5.5 4.25C5.5 4.45711 5.66789 4.625 5.875 4.625Z" fill="#F6613F"/>
<path fill-rule="evenodd" clip-rule="evenodd" d="M20.305 11.2788C20.5652 11.3291 20.7355 11.5809 20.6851 11.8412C19.9929 15.4232 18.1126 18.4349 15.5743 20.0237C15.6685 20.1113 15.7274 20.2363 15.7274 20.3751V21.5001C15.7274 21.7652 15.5125 21.9801 15.2474 21.9801H7.74737C7.48227 21.9801 7.26737 21.7652 7.26737 21.5001V20.3751C7.26737 20.2363 7.32625 20.1113 7.42039 20.0237C4.8819 18.4349 3.00094 15.4233 2.30957 11.8411C2.25933 11.5808 2.42962 11.329 2.68991 11.2788C2.9502 11.2286 3.20194 11.3989 3.25217 11.6591C4.04514 15.7678 6.45627 18.9114 9.41438 19.9208C9.63658 19.9966 9.77132 20.2221 9.7329 20.4537C9.69447 20.6853 9.49415 20.8551 9.25937 20.8551H8.22737V21.0201H14.7674V20.8551H13.7354C13.5006 20.8551 13.3003 20.6853 13.2618 20.4537C13.2234 20.2221 13.3582 19.9966 13.5804 19.9208C16.5384 18.9115 18.9485 15.7678 19.7426 11.659C19.7929 11.3987 20.0447 11.2285 20.305 11.2788Z" fill="#F6613F"/>
<path fill-rule="evenodd" clip-rule="evenodd" d="M9.2177 6.10038C9.23374 6.36499 9.03224 6.59251 8.76763 6.60855C8.33505 6.63478 7.92713 6.8188 7.62117 7.12573C7.31522 7.43266 7.13251 7.84117 7.10766 8.27382C7.09246 8.53849 6.86559 8.74071 6.60093 8.72552C6.33627 8.71032 6.13404 8.48345 6.14924 8.21878C6.18756 7.55146 6.46938 6.92139 6.94127 6.44799C7.41316 5.97459 8.04233 5.69076 8.70953 5.65031C8.97414 5.63427 9.20165 5.83577 9.2177 6.10038Z" fill="#F6613F"/>
<path fill-rule="evenodd" clip-rule="evenodd" d="M11.5178 3.02437C12.0724 2.99583 12.6252 3.10801 13.1247 3.35049C13.6243 3.59297 14.0544 3.95787 14.3751 4.41124C14.6958 4.8646 14.8966 5.39171 14.9588 5.94352C14.9885 6.20694 14.799 6.44458 14.5356 6.47429C14.2722 6.504 14.0345 6.31454 14.0048 6.05111C13.9607 5.66019 13.8185 5.28677 13.5913 4.9656C13.3642 4.64442 13.0594 4.38592 12.7055 4.21414C12.3516 4.04236 11.96 3.96288 11.5671 3.9831C11.1743 4.00332 10.7929 4.12259 10.4585 4.32979C10.1241 4.537 9.84751 4.82542 9.65451 5.16823C9.46151 5.51103 9.35836 5.89708 9.35464 6.29045C9.35091 6.68383 9.44675 7.07177 9.63323 7.41816C9.8197 7.76455 10.0908 8.05815 10.4212 8.27165C10.6438 8.41552 10.7077 8.71265 10.5639 8.93531C10.42 9.15797 10.1229 9.22185 9.90019 9.07798C9.43377 8.77661 9.05115 8.36217 8.78793 7.87321C8.5247 7.38425 8.38943 6.83666 8.39468 6.28137C8.39993 5.72609 8.54555 5.18115 8.81797 4.69726C9.0904 4.21337 9.48079 3.80624 9.95283 3.51375C10.4249 3.22126 10.9632 3.05292 11.5178 3.02437Z" fill="#F6613F"/>
<path fill-rule="evenodd" clip-rule="evenodd" d="M12.5691 6.44462C13.0811 5.93264 13.7755 5.64502 14.4995 5.64502C15.2236 5.64502 15.918 5.93264 16.4299 6.44462C16.9419 6.95659 17.2295 7.65098 17.2295 8.37502C17.2295 8.64012 17.0146 8.85502 16.7495 8.85502C16.4844 8.85502 16.2695 8.64012 16.2695 8.37502C16.2695 7.90559 16.083 7.45538 15.7511 7.12344C15.4192 6.7915 14.969 6.60502 14.4995 6.60502C14.0301 6.60502 13.5799 6.7915 13.248 7.12344C12.916 7.45538 12.7295 7.90559 12.7295 8.37502C12.7295 8.64012 12.5146 8.85502 12.2495 8.85502C11.9844 8.85502 11.7695 8.64012 11.7695 8.37502C11.7695 7.65098 12.0572 6.95659 12.5691 6.44462Z" fill="#F6613F"/>
<path fill-rule="evenodd" clip-rule="evenodd" d="M4.73554 8.64901C5.24356 8.16321 5.91938 7.89209 6.62229 7.89209C7.3252 7.89209 8.00102 8.16321 8.50904 8.64901C9.01707 9.1348 9.31813 9.79782 9.34956 10.5C9.36141 10.7649 9.15633 10.9892 8.8915 11.001C8.62667 11.0129 8.40237 10.8078 8.39052 10.543C8.37014 10.0877 8.17495 9.6578 7.84557 9.34284C7.51619 9.02787 7.07802 8.85209 6.62229 8.85209C6.16656 8.85209 5.72839 9.02787 5.39901 9.34284C5.06963 9.6578 4.87444 10.0877 4.85406 10.543C4.84221 10.8078 4.61791 11.0129 4.35308 11.001C4.08825 10.9892 3.88317 10.7649 3.89502 10.5C3.92645 9.79782 4.22752 9.1348 4.73554 8.64901Z" fill="#F6613F"/>
<path fill-rule="evenodd" clip-rule="evenodd" d="M9.61054 8.64998C10.1186 8.16419 10.7944 7.89307 11.4973 7.89307C12.2002 7.89307 12.876 8.16419 13.384 8.64998C13.8921 9.13578 14.1931 9.7988 14.2246 10.501C14.2364 10.7658 14.0313 10.9901 13.7665 11.002C13.5017 11.0138 13.2774 10.8088 13.2655 10.5439C13.2451 10.0887 13.0499 9.65878 12.7206 9.34381C12.3912 9.02885 11.953 8.85307 11.4973 8.85307C11.0416 8.85307 10.6034 9.02885 10.274 9.34381C9.94463 9.65878 9.74944 10.0887 9.72906 10.5439C9.71721 10.8088 9.49291 11.0138 9.22808 11.002C8.96325 10.9901 8.75817 10.7658 8.77002 10.501C8.80145 9.7988 9.10251 9.13578 9.61054 8.64998Z" fill="#F6613F"/>
<path fill-rule="evenodd" clip-rule="evenodd" d="M16.3647 7.89405C17.0659 7.89212 17.7411 8.16012 18.2501 8.64248C18.7591 9.12484 19.0629 9.78457 19.0987 10.4849C19.1122 10.7497 18.9085 10.9752 18.6438 10.9888C18.379 11.0023 18.1534 10.7986 18.1399 10.5338C18.1167 10.0798 17.9197 9.65203 17.5897 9.33929C17.2597 9.02655 16.822 8.8528 16.3673 8.85405C15.9127 8.8553 15.4759 9.03146 15.1477 9.34602C14.8194 9.66057 14.6247 10.0894 14.604 10.5436C14.592 10.8084 14.3675 11.0133 14.1027 11.0013C13.8379 10.9892 13.633 10.7648 13.645 10.4999C13.6769 9.7994 13.9771 9.13801 14.4835 8.65285C14.9898 8.16769 15.6634 7.89598 16.3647 7.89405Z" fill="#F6613F"/>
<path fill-rule="evenodd" clip-rule="evenodd" d="M11.5076 12.9614C11.653 12.9614 11.7906 13.0274 11.8817 13.1407L12.3332 13.7024L13.0495 13.6246C13.1941 13.6089 13.338 13.6596 13.4408 13.7625C13.5436 13.8653 13.5942 14.0092 13.5785 14.1538L13.5005 14.87L14.062 15.3214C14.1754 15.4125 14.2413 15.5501 14.2413 15.6956C14.2413 15.841 14.1754 15.9786 14.062 16.0697L13.5005 16.5211L13.5785 17.2373C13.5942 17.3819 13.5436 17.5259 13.4407 17.6287C13.3379 17.7316 13.1939 17.7822 13.0493 17.7665L12.3331 17.6885L11.8817 18.25C11.7906 18.3634 11.653 18.4293 11.5076 18.4293C11.3621 18.4293 11.2246 18.3634 11.1334 18.25L10.682 17.6885L9.9658 17.7665C9.82123 17.7822 9.67731 17.7316 9.57447 17.6288C9.47162 17.526 9.42092 17.3821 9.43662 17.2375L9.51438 16.5211L8.95271 16.0697C8.83937 15.9786 8.77344 15.841 8.77344 15.6956C8.77344 15.5501 8.83937 15.4125 8.95271 15.3214L9.51438 14.87L9.43662 14.1536C9.42093 14.0091 9.47159 13.8652 9.5744 13.7624C9.67721 13.6596 9.82107 13.6089 9.96561 13.6246L10.682 13.7024L11.1334 13.1407C11.2246 13.0274 11.3621 12.9614 11.5076 12.9614ZM11.5076 14.2076L11.2656 14.5086C11.163 14.6363 11.0024 14.7028 10.8396 14.6851L10.4554 14.6434L10.4971 15.0276C10.5148 15.1904 10.4483 15.351 10.3207 15.4535L10.0196 15.6956L10.3207 15.9376C10.4483 16.0401 10.5148 16.2007 10.4971 16.3635L10.4555 16.7475L10.8395 16.7056C11.0023 16.6879 11.1629 16.7544 11.2656 16.8821L11.5076 17.1831L11.7496 16.8821C11.8522 16.7544 12.0128 16.6879 12.1757 16.7056L12.5594 16.7474L12.5176 16.3637C12.4999 16.2008 12.5664 16.0402 12.6941 15.9376L12.9952 15.6956L12.6941 15.4535C12.5664 15.3509 12.4999 15.1903 12.5176 15.0274L12.5595 14.6434L12.1755 14.6851C12.0127 14.7028 11.8522 14.6363 11.7496 14.5087L11.5076 14.2076Z" fill="#F6613F"/>
<path fill-rule="evenodd" clip-rule="evenodd" d="M2.68703 11.105C2.66515 11.105 2.64417 11.1137 2.62869 11.1292C2.61322 11.1447 2.60453 11.1656 2.60453 11.1875C2.60453 11.2094 2.61322 11.2304 2.62869 11.2459C2.64417 11.2613 2.66515 11.27 2.68703 11.27H5.04203C5.30713 11.27 5.52203 11.4849 5.52203 11.75C5.52203 12.0151 5.30713 12.23 5.04203 12.23H2.68703C2.41054 12.23 2.14538 12.1202 1.94987 11.9247C1.75437 11.7292 1.64453 11.464 1.64453 11.1875C1.64453 10.911 1.75437 10.6459 1.94987 10.4504C2.14538 10.2549 2.41054 10.145 2.68703 10.145H20.312C20.5885 10.145 20.8537 10.2549 21.0492 10.4504C21.2447 10.6459 21.3545 10.911 21.3545 11.1875C21.3545 11.464 21.2447 11.7292 21.0492 11.9247C20.8537 12.1202 20.5885 12.23 20.312 12.23H7.74953C7.48443 12.23 7.26953 12.0151 7.26953 11.75C7.26953 11.4849 7.48443 11.27 7.74953 11.27H20.312C20.3339 11.27 20.3549 11.2613 20.3704 11.2459C20.3858 11.2304 20.3945 11.2094 20.3945 11.1875C20.3945 11.1656 20.3858 11.1447 20.3704 11.1292C20.3549 11.1137 20.3339 11.105 20.312 11.105H2.68703Z" fill="#F6613F"/>
<path fill-rule="evenodd" clip-rule="evenodd" d="M8.76953 20.375C8.76953 20.1099 8.98443 19.895 9.24953 19.895H11.1245C11.3896 19.895 11.6045 20.1099 11.6045 20.375C11.6045 20.6401 11.3896 20.855 11.1245 20.855H9.24953C8.98443 20.855 8.76953 20.6401 8.76953 20.375Z" fill="#F6613F"/>
<path fill-rule="evenodd" clip-rule="evenodd" d="M18.2804 19.4831C18.8045 19.003 19.4953 18.7462 20.2058 18.7673C20.9163 18.7885 21.5905 19.0859 22.0852 19.5964C22.5798 20.1069 22.8558 20.7902 22.8545 21.5011C22.854 21.7658 22.6393 21.9802 22.3745 21.9802H1.37453C1.10943 21.9802 0.894531 21.7653 0.894531 21.5002C0.894531 21.2351 1.10943 21.0202 1.37453 21.0202H17.4363C17.5405 20.4319 17.8355 19.8907 18.2804 19.4831ZM18.4197 21.0202H21.8294C21.7507 20.7385 21.6028 20.4781 21.3957 20.2645C21.075 19.9335 20.6379 19.7406 20.1772 19.7269C19.7165 19.7132 19.2687 19.8797 18.9289 20.191C18.6832 20.4161 18.508 20.7041 18.4197 21.0202Z" fill="#F6613F"/>
</svg>
