<svg width="24" height="24" viewBox="0 0 24 24" fill="none" xmlns="http://www.w3.org/2000/svg">
<g clip-path="url(#clip0_1135_4600)">
<path d="M4.95747 1.30636C4.80782 1.0438 4.8994 0.7096 5.16196 0.559953C5.7434 0.228675 6.2512 0.160206 6.67102 0.356249C7.16769 0.588289 7.39535 1.1015 7.54129 1.68787C8.32139 1.28429 9.18162 1.04398 10.0665 0.986029C11.0272 0.923094 11.9644 1.07073 12.8526 1.42469C13.1334 1.53664 13.2702 1.8549 13.1584 2.13565C13.0464 2.4164 12.7281 2.5534 12.4473 2.44139C11.7116 2.14812 10.9347 2.02595 10.1381 2.07813C9.29631 2.13328 8.48179 2.38715 7.76403 2.8159C7.83852 3.1923 7.9321 3.56486 8.06703 3.72035C8.26514 3.94862 8.24076 4.29425 8.01255 4.49236C7.90899 4.58229 7.78117 4.62637 7.65403 4.62637C7.50091 4.62637 7.34871 4.56253 7.24054 4.43787C6.86438 4.00456 6.73985 3.31501 6.61939 2.64813C6.54302 2.22522 6.40085 1.43801 6.20773 1.34777C6.16632 1.32825 6.00767 1.33762 5.70388 1.51073C5.44143 1.66069 5.10712 1.56893 4.95747 1.30636ZM11.4573 4.35901C11.6695 4.35901 11.8714 4.23484 11.9604 4.02755C12.0796 3.74984 11.9512 3.42799 11.6734 3.30874C11.0364 3.03535 10.3435 2.97309 9.66948 3.12888C9.37499 3.19692 9.19148 3.49086 9.25958 3.78535C9.32768 4.07984 9.62175 4.2636 9.91605 4.19525C10.3616 4.09218 10.82 4.13347 11.2417 4.31456C11.312 4.34478 11.3852 4.35901 11.4573 4.35901ZM12.5531 5.71951L12.6949 7.30986C12.6954 7.31722 12.6961 7.32451 12.6969 7.33175L12.7646 8.09117C12.79 8.37569 13.0288 8.58985 13.3091 8.58985C13.3254 8.58985 13.3418 8.58906 13.3584 8.58766C13.6594 8.56084 13.8817 8.295 13.8548 7.99388L13.8392 7.81881H14.4638C14.766 7.81881 15.011 7.57382 15.011 7.27155C15.011 6.96928 14.766 6.72428 14.4638 6.72428H13.7416L13.6434 5.62221C13.6035 5.17498 13.8206 4.83464 14.0098 4.62783C14.3811 4.22189 14.9545 3.97957 15.5436 3.97957H16.9195C17.5086 3.97957 18.0819 4.22188 18.4533 4.62777C18.6154 4.80497 18.798 5.08036 18.8218 5.43718H18.1139C17.8116 5.43718 17.5666 5.68217 17.5666 5.98444C17.5666 6.28672 17.8116 6.53171 18.1139 6.53171H18.7386L18.6082 7.99394C18.5814 8.29493 18.8036 8.56078 19.1047 8.58766C19.4059 8.6135 19.6716 8.39223 19.6984 8.09111L19.9098 5.71938C19.9685 5.06066 19.738 4.41069 19.2608 3.88897C18.6857 3.26034 17.8104 2.88504 16.9195 2.88504H16.9006C17.133 2.07387 17.6037 1.39709 18.2217 1.01175C18.4782 0.851828 18.5565 0.514226 18.3965 0.257863C18.2367 0.00125638 17.8991 -0.0770025 17.6426 0.083042C17.0613 0.445514 16.5773 0.985847 16.2316 1.63521C15.8857 0.985786 15.4018 0.445514 14.8205 0.083042C14.5639 -0.0768809 14.2264 0.00137797 14.0665 0.257863C13.9066 0.514287 13.9848 0.851888 14.2413 1.01175C14.8593 1.39709 15.3301 2.07387 15.5624 2.88504H15.5436C14.6526 2.88504 13.7774 3.2604 13.2022 3.88909C12.725 4.41075 12.4945 5.06078 12.5531 5.71951ZM9.86066 5.3017C9.6063 5.13837 9.26779 5.21225 9.10446 5.46673C8.94125 5.72109 9.01514 6.0596 9.26949 6.22287C9.6558 6.47078 9.94676 6.82729 10.111 7.25391C10.1947 7.4713 10.402 7.60477 10.6218 7.60477C10.6872 7.60477 10.7537 7.59298 10.8183 7.56805C11.1004 7.45944 11.241 7.14276 11.1324 6.86067C10.884 6.21527 10.4442 5.67615 9.86066 5.3017ZM4.6417 8.30497C4.65374 8.30497 4.66584 8.3046 4.678 8.30375C4.9796 8.28405 5.20806 8.02355 5.18829 7.72195C5.11399 6.58686 5.39668 5.48163 6.00585 4.52574C6.16826 4.2709 6.09335 3.93256 5.83844 3.77009C5.58366 3.60773 5.24533 3.68265 5.08279 3.93749C4.34763 5.09106 4.00638 6.42438 4.09607 7.7934C4.11511 8.0829 4.35572 8.30497 4.6417 8.30497ZM19.9109 9.6665V23.4528C19.9109 23.7551 19.6659 24.0001 19.3637 24.0001H4.6375C4.33523 24.0001 4.09024 23.7551 4.09024 23.4528V9.6665C4.09024 9.36423 4.33523 9.11924 4.6375 9.11924H4.80624C4.99857 9.11924 5.17674 9.22018 5.27561 9.38515C5.39863 9.59037 5.62556 9.71788 5.86787 9.71788C6.11019 9.71788 6.33712 9.59037 6.4602 9.38515C6.55907 9.22018 6.7373 9.11924 6.92957 9.11924H7.25404C7.44637 9.11924 7.6246 9.22018 7.72347 9.38521C7.84642 9.59037 8.07335 9.71788 8.31567 9.71788C8.55799 9.71788 8.78498 9.59031 8.90811 9.38503C9.00699 9.22012 9.18515 9.11924 9.37742 9.11924H9.71496C9.9073 9.11924 10.0855 9.22018 10.1843 9.38515C10.3073 9.59037 10.5343 9.71788 10.7765 9.71788C11.0189 9.71788 11.2458 9.59037 11.3689 9.38515C11.4678 9.22018 11.646 9.11924 11.8383 9.11924H12.1627C12.355 9.11924 12.5333 9.22018 12.6321 9.38515C12.7551 9.59037 12.9821 9.71788 13.2243 9.71788C13.4667 9.71788 13.6936 9.59037 13.8167 9.38515C13.9155 9.22018 14.0938 9.11924 14.2861 9.11924H14.6236C14.8159 9.11924 14.9941 9.22011 15.093 9.38509C15.2161 9.59037 15.4431 9.71788 15.6854 9.71788C15.9277 9.71788 16.1546 9.59037 16.2776 9.38521C16.3765 9.22018 16.5547 9.11924 16.747 9.11924H17.0715C17.2639 9.11924 17.4421 9.22018 17.541 9.38515C17.664 9.59037 17.8909 9.71788 18.1332 9.71788C18.3755 9.71788 18.6025 9.59037 18.7256 9.38509C18.8244 9.22018 19.0026 9.11924 19.1949 9.11924H19.3637C19.6659 9.11924 19.9109 9.36423 19.9109 9.6665ZM18.8164 10.676C18.6025 10.7646 18.3706 10.8124 18.1332 10.8124C17.6745 10.8124 17.2363 10.6338 16.9093 10.3278C16.5823 10.6338 16.1442 10.8124 15.6854 10.8124C15.2237 10.8124 14.7827 10.6314 14.4549 10.3217C14.1273 10.6315 13.6863 10.8124 13.2245 10.8124C12.7658 10.8124 12.3276 10.6338 12.0006 10.3278C11.6736 10.6338 11.2354 10.8124 10.7768 10.8124C10.315 10.8124 9.87398 10.6314 9.54629 10.3217C9.21854 10.6315 8.77756 10.8124 8.31585 10.8124C7.85712 10.8124 7.41895 10.6338 7.09192 10.3278C6.7649 10.6338 6.32673 10.8124 5.86806 10.8124C5.63067 10.8124 5.39869 10.7646 5.18483 10.676V22.9056H18.8165L18.8164 10.676ZM7.63901 5.37625C7.35017 5.28686 7.0437 5.44825 6.9542 5.73696C6.74934 6.39757 6.76052 7.09326 6.98661 7.7487C7.0648 7.97539 7.2769 8.11768 7.50395 8.11768C7.56312 8.11768 7.62332 8.10801 7.68242 8.08758C7.96816 7.98907 8.11987 7.67756 8.02136 7.39183C7.87172 6.95797 7.86424 6.49784 7.99965 6.06106C8.0891 5.77241 7.92766 5.46582 7.63901 5.37625ZM14.7721 13.8145C15.6017 14.7159 15.739 16.2464 15.1137 17.623C14.4919 18.9924 13.2591 19.8957 12.0408 19.8723C12.0103 19.8735 11.9795 19.874 11.949 19.874C10.7608 19.874 9.55632 19.0079 8.92325 17.6853C8.27049 16.3213 8.37702 14.7883 9.18837 13.8707C9.28646 13.7597 9.42528 13.6932 9.57322 13.6865C10.4357 13.6473 11.3156 14.0711 11.9889 14.8022C12.6515 14.0494 13.5222 13.6157 14.3835 13.6381C14.5316 13.6418 14.6718 13.7056 14.7721 13.8145ZM11.7231 16.3453C11.3118 15.4859 10.5742 14.8793 9.86485 14.7898C9.48955 15.3984 9.49928 16.3534 9.91058 17.2127C10.3219 18.0721 11.0596 18.6787 11.7689 18.7681C12.1442 18.1596 12.1344 17.2047 11.7231 16.3453ZM14.1142 14.7471C13.5884 14.8242 13.0473 15.1872 12.6418 15.7354C12.6654 15.7806 12.6883 15.8264 12.7104 15.8728C13.1219 16.7325 13.2318 17.6593 13.0535 18.4569C13.4823 18.1742 13.8667 17.7221 14.1172 17.1704C14.5111 16.3031 14.5017 15.3481 14.1142 14.7471Z" fill="#222222"/>
<path fill-rule="evenodd" clip-rule="evenodd" d="M7.47623 1.45153C7.32793 0.966162 7.09965 0.5565 6.67102 0.356249C6.2512 0.160206 5.7434 0.228675 5.16196 0.559953C4.8994 0.7096 4.80782 1.0438 4.95747 1.30636C5.10712 1.56893 5.44143 1.66069 5.70388 1.51073C6.00767 1.33762 6.16632 1.32825 6.20773 1.34777C6.40085 1.43801 6.54302 2.22522 6.61939 2.64813C6.73984 3.31496 6.86441 4.00459 7.24054 4.43787C7.34871 4.56253 7.50091 4.62637 7.65403 4.62637C7.78117 4.62637 7.90899 4.58229 8.01255 4.49236C8.24075 4.29425 8.26514 3.94862 8.06703 3.72035C7.9321 3.56486 7.83852 3.1923 7.76403 2.8159C8.48179 2.38715 9.29631 2.13328 10.1381 2.07813C10.9347 2.02595 11.7116 2.14812 12.4473 2.44139C12.7281 2.5534 13.0464 2.4164 13.1584 2.13565C13.2702 1.8549 13.1334 1.53664 12.8526 1.42469C11.9644 1.07073 11.0272 0.923094 10.0665 0.986029C9.26406 1.03858 8.48188 1.2411 7.76136 1.57934C7.68734 1.61409 7.61397 1.65027 7.54129 1.68787C7.5213 1.60754 7.49977 1.52858 7.47623 1.45153ZM12.7638 1.64764C11.909 1.30699 11.0075 1.1649 10.0822 1.22552C9.23033 1.2813 8.40229 1.51265 7.65157 1.90103L7.38176 2.04061L7.30839 1.74583C7.16491 1.16932 6.95967 0.756027 6.56947 0.573707M12.7638 1.64764C12.9214 1.71052 12.9982 1.88918 12.9354 2.04676C12.8725 2.2045 12.6938 2.28131 12.5363 2.21847C11.7671 1.91185 10.9543 1.78415 10.1224 1.83864C9.24282 1.89627 8.39148 2.16154 7.64095 2.60986L7.49576 2.69659L7.52859 2.86249C7.56634 3.05321 7.61029 3.25029 7.66366 3.42215C7.71442 3.5856 7.78325 3.75952 7.88577 3.87765C7.99704 4.00586 7.9833 4.19992 7.85521 4.31112C7.79698 4.36169 7.72559 4.38637 7.65403 4.38637C7.56747 4.38637 7.48247 4.35048 7.4218 4.28057C7.26529 4.10028 7.15249 3.85598 7.06391 3.56146C6.97533 3.26696 6.91631 2.94175 6.85557 2.60548M6.85557 2.60548L6.85491 2.60181C6.81705 2.39216 6.76104 2.082 6.68931 1.81166C6.65342 1.67635 6.61127 1.54191 6.56183 1.43148C6.53713 1.37631 6.50763 1.32031 6.47188 1.27112C6.4381 1.22464 6.3859 1.16623 6.30969 1.13051C6.24906 1.10204 6.18693 1.09945 6.14635 1.10079C6.09912 1.10234 6.04793 1.11066 5.99378 1.12474C5.88528 1.15297 5.74988 1.20829 5.58505 1.30221C5.43802 1.38622 5.25008 1.33508 5.16598 1.18752M11.7399 3.93285C11.8068 3.77695 11.7347 3.59623 11.5787 3.52928C10.9885 3.27597 10.3477 3.21845 9.72353 3.36271C9.55824 3.4009 9.45517 3.56591 9.49341 3.73127C9.53169 3.89681 9.69692 3.99975 9.86176 3.96147C10.3573 3.84685 10.8679 3.89288 11.3364 4.09403C11.3761 4.11108 11.417 4.11901 11.4573 4.11901C11.577 4.11901 11.6901 4.04882 11.7399 3.93285ZM11.6734 3.30874C11.9512 3.42799 12.0796 3.74984 11.9604 4.02755C11.8714 4.23484 11.6695 4.35901 11.4573 4.35901C11.3852 4.35901 11.312 4.34478 11.2417 4.31456C10.82 4.13347 10.3616 4.09218 9.91605 4.19525C9.62175 4.2636 9.32768 4.07984 9.25958 3.78535C9.19148 3.49086 9.37499 3.19692 9.66948 3.12888C10.3435 2.97309 11.0364 3.03535 11.6734 3.30874ZM15.3146 2.89327C14.5045 2.95138 13.728 3.31439 13.2022 3.88909C12.725 4.41075 12.4945 5.06078 12.5531 5.71951L12.6949 7.30986C12.6954 7.31722 12.6961 7.32451 12.6969 7.33175L12.7646 8.09117C12.79 8.37569 13.0288 8.58985 13.3091 8.58985C13.3254 8.58985 13.3418 8.58906 13.3584 8.58766C13.6376 8.56279 13.849 8.33233 13.8568 8.05881C13.8574 8.03741 13.8568 8.01573 13.8548 7.99388L13.8392 7.81881H14.4638C14.766 7.81881 15.011 7.57382 15.011 7.27155C15.011 6.96928 14.766 6.72428 14.4638 6.72428H13.7416L13.6434 5.62221C13.6035 5.17498 13.8206 4.83464 14.0098 4.62783C14.3811 4.22189 14.9545 3.97957 15.5436 3.97957H16.9195C17.5086 3.97957 18.0819 4.22188 18.4533 4.62777C18.5769 4.76292 18.7125 4.95521 18.7805 5.19718C18.8016 5.27245 18.8162 5.35252 18.8218 5.43718H18.1139C17.8116 5.43718 17.5666 5.68217 17.5666 5.98444C17.5666 6.28672 17.8116 6.53171 18.1139 6.53171H18.7386L18.6082 7.99394C18.5814 8.29494 18.8036 8.56078 19.1047 8.58766C19.4059 8.6135 19.6716 8.39223 19.6984 8.09111L19.9098 5.71938C19.9685 5.06066 19.738 4.41069 19.2608 3.88897C18.735 3.3143 17.9585 2.95134 17.1484 2.89326C17.0724 2.8878 16.996 2.88504 16.9195 2.88504H16.9006C16.9068 2.86361 16.9131 2.84227 16.9195 2.82103C16.9376 2.76176 16.9569 2.70324 16.9775 2.64553C17.2287 1.94124 17.6656 1.3585 18.2217 1.01175C18.4782 0.851828 18.5565 0.514226 18.3965 0.257863C18.2367 0.00125635 17.8991 -0.0770025 17.6426 0.083042C17.1357 0.399119 16.7028 0.850441 16.371 1.39137C16.3223 1.47076 16.2758 1.55209 16.2316 1.63521C16.1873 1.55209 16.1408 1.47076 16.0921 1.39137C15.7603 0.850406 15.3274 0.399124 14.8205 0.083042C14.5639 -0.0768809 14.2264 0.00137794 14.0665 0.257863C13.9066 0.514287 13.9848 0.851888 14.2413 1.01175C14.7974 1.3585 15.2343 1.94124 15.4855 2.64553C15.5061 2.70336 15.5255 2.76202 15.5436 2.82142C15.55 2.84253 15.5563 2.86374 15.5624 2.88504H15.5436C15.4671 2.88504 15.3907 2.88781 15.3146 2.89327ZM14.6935 0.286711C14.5494 0.196885 14.3599 0.240853 14.2702 0.384845C14.1804 0.528801 14.2243 0.71835 14.3683 0.808074C15.046 1.23067 15.5478 1.96222 15.7931 2.81897L15.8807 3.12504H15.5436C14.7165 3.12504 13.9067 3.47459 13.3793 4.05108C12.944 4.52691 12.7399 5.11162 12.7922 5.69821L12.9345 7.29402L12.9355 7.30568L12.936 7.31042L13.0037 8.06985C13.0179 8.22943 13.152 8.34985 13.3091 8.34985M13.3376 8.34855C13.5063 8.33322 13.6308 8.18415 13.6158 8.01517L13.5768 7.57881H14.4638C14.6335 7.57881 14.771 7.44127 14.771 7.27155C14.771 7.10182 14.6335 6.96428 14.4638 6.96428H13.5221L13.4043 5.64353C13.3561 5.10219 13.6203 4.69799 13.8327 4.46585C14.253 4.00637 14.8925 3.73957 15.5436 3.73957H16.9195C17.5706 3.73957 18.21 4.00637 18.6303 4.46577C18.8126 4.66499 19.0325 4.98974 19.0613 5.42122L19.0783 5.67718H18.1139C17.9442 5.67718 17.8066 5.81472 17.8066 5.98444C17.8066 6.15417 17.9442 6.29171 18.1139 6.29171H19.0009L18.8473 8.01524C18.8322 8.18413 18.9568 8.33333 19.1257 8.34858C19.296 8.36292 19.4444 8.238 19.4594 8.06982L19.6708 5.69809C19.723 5.11151 19.519 4.52687 19.0837 4.05097C18.5564 3.47454 17.7465 3.12504 16.9195 3.12504H16.5822L16.6699 2.81895C16.9153 1.96222 17.417 1.23069 18.0947 0.808097C18.2388 0.718296 18.2826 0.528743 18.1929 0.384889C18.1032 0.240872 17.9137 0.196787 17.7696 0.286667C17.2283 0.624218 16.7718 1.13124 16.4434 1.748L16.2316 2.14585L16.0197 1.74801C15.6913 1.13119 15.2348 0.624265 14.6935 0.286711M9.73098 5.50365C9.58825 5.412 9.39823 5.45338 9.30645 5.59634C9.21484 5.73912 9.25629 5.92919 9.39911 6.02088M9.10446 5.46673C9.26779 5.21225 9.6063 5.13837 9.86066 5.3017C10.4442 5.67615 10.884 6.21527 11.1324 6.86067C11.241 7.14276 11.1004 7.45944 10.8183 7.56805C10.7537 7.59298 10.6872 7.60477 10.6218 7.60477C10.402 7.60477 10.1947 7.4713 10.111 7.25391C9.94676 6.82729 9.6558 6.47078 9.26949 6.22287C9.01513 6.0596 8.94125 5.72109 9.10446 5.46673ZM10.335 7.16771C10.3818 7.28942 10.498 7.36477 10.6218 7.36477C10.6582 7.36477 10.6953 7.35824 10.7319 7.34412C10.8904 7.28314 10.9694 7.10527 10.9085 6.9469C10.6784 6.34926 10.2717 5.8506 9.73098 5.50365M4.66124 8.06434L4.66235 8.06426C4.83164 8.0532 4.9599 7.90699 4.94881 7.73764C4.87118 6.55181 5.16674 5.39586 5.80345 4.39676C5.89462 4.2537 5.85259 4.06373 5.70947 3.97249C5.56651 3.88139 5.37652 3.92336 5.28519 4.06647M4.678 8.30375C4.66584 8.3046 4.65374 8.30497 4.6417 8.30497C4.35572 8.30497 4.11511 8.0829 4.09607 7.7934C4.00638 6.42438 4.34763 5.09106 5.08279 3.93749C5.24533 3.68265 5.58366 3.60773 5.83844 3.77009C6.09335 3.93256 6.16826 4.2709 6.00585 4.52574C5.39668 5.48163 5.11399 6.58686 5.18829 7.72195C5.20806 8.02355 4.9796 8.28405 4.678 8.30375ZM4.33556 7.77765C4.24921 6.45948 4.57759 5.17683 5.28519 4.06647L4.33556 7.77765ZM4.33556 7.77765C4.34627 7.94019 4.4814 8.06497 4.6417 8.06497C4.64891 8.06497 4.65537 8.06475 4.66124 8.06434M5.06975 9.50853C5.01424 9.4159 4.91422 9.35924 4.80624 9.35924H4.6375C4.46778 9.35924 4.33024 9.49678 4.33024 9.6665V23.4528C4.33024 23.6226 4.46778 23.7601 4.6375 23.7601H19.3637C19.5334 23.7601 19.6709 23.6226 19.6709 23.4528V9.6665C19.6709 9.49678 19.5334 9.35924 19.3637 9.35924H19.1949C19.0869 9.35924 18.9869 9.41591 18.9314 9.50849C18.7643 9.78721 18.4585 9.95788 18.1332 9.95788C17.8078 9.95788 17.5022 9.78719 17.3351 9.50854C17.2796 9.41593 17.1796 9.35924 17.0715 9.35924H16.747C16.639 9.35924 16.539 9.41591 16.4835 9.50855C16.3165 9.7872 16.0107 9.95788 15.6854 9.95788C15.36 9.95788 15.0543 9.78723 14.8872 9.50852C14.8316 9.41586 14.7316 9.35924 14.6236 9.35924H14.2861C14.1781 9.35924 14.078 9.41592 14.0225 9.50853C13.8555 9.78721 13.5497 9.95788 13.2243 9.95788C12.899 9.95788 12.5933 9.7872 12.4263 9.50854C12.3708 9.41593 12.2707 9.35924 12.1627 9.35924H11.8383C11.7304 9.35924 11.6303 9.41591 11.5748 9.50853C11.4077 9.78717 11.1019 9.95788 10.7765 9.95788C10.4512 9.95788 10.1455 9.7872 9.97848 9.50854C9.92297 9.41591 9.82295 9.35924 9.71496 9.35924H9.37742C9.26945 9.35924 9.16945 9.41588 9.11395 9.50844C8.94682 9.78707 8.64107 9.95788 8.31567 9.95788C7.99033 9.95788 7.68459 9.78722 7.51761 9.50858C7.4621 9.41594 7.36204 9.35924 7.25404 9.35924H6.92957C6.82163 9.35924 6.72156 9.41591 6.66606 9.50853C6.49897 9.78715 6.19324 9.95788 5.86787 9.95788C5.54252 9.95788 5.23679 9.7872 5.06975 9.50853ZM15.093 9.38509C15.2161 9.59037 15.4431 9.71788 15.6854 9.71788C15.9277 9.71788 16.1546 9.59037 16.2776 9.38521C16.3765 9.22018 16.5547 9.11924 16.747 9.11924H17.0715C17.2639 9.11924 17.4421 9.22018 17.541 9.38515C17.664 9.59037 17.8909 9.71788 18.1332 9.71788C18.3755 9.71788 18.6025 9.59037 18.7256 9.38509C18.8244 9.22018 19.0026 9.11924 19.1949 9.11924H19.3637C19.6659 9.11924 19.9109 9.36423 19.9109 9.6665V23.4528C19.9109 23.7551 19.6659 24.0001 19.3637 24.0001H4.6375C4.33523 24.0001 4.09024 23.7551 4.09024 23.4528V9.6665C4.09024 9.36423 4.33523 9.11924 4.6375 9.11924H4.80624C4.99857 9.11924 5.17674 9.22018 5.27561 9.38515C5.39863 9.59037 5.62556 9.71788 5.86787 9.71788C6.11019 9.71788 6.33712 9.59037 6.4602 9.38515C6.55907 9.22018 6.7373 9.11924 6.92957 9.11924H7.25404C7.44637 9.11924 7.6246 9.22018 7.72347 9.38521C7.84642 9.59037 8.07335 9.71788 8.31567 9.71788C8.55799 9.71788 8.78498 9.59031 8.90811 9.38503C9.00699 9.22012 9.18515 9.11924 9.37742 9.11924H9.71496C9.9073 9.11924 10.0855 9.22018 10.1843 9.38515C10.3073 9.59037 10.5343 9.71788 10.7765 9.71788C11.0189 9.71788 11.2458 9.59037 11.3689 9.38515C11.4678 9.22018 11.646 9.11924 11.8383 9.11924H12.1627C12.355 9.11924 12.5333 9.22018 12.6321 9.38515C12.7551 9.59037 12.9821 9.71788 13.2243 9.71788C13.4667 9.71788 13.6936 9.59037 13.8167 9.38515C13.9155 9.22018 14.0938 9.11924 14.2861 9.11924H14.6236C14.8159 9.11924 14.9941 9.22012 15.093 9.38509ZM19.0564 10.3168L19.0565 23.1456H4.94483V10.3169L5.27663 10.4543C5.46211 10.5311 5.66295 10.5724 5.86806 10.5724C6.26459 10.5724 6.64449 10.4178 6.92797 10.1526L7.09194 9.99918L7.2559 10.1526C7.53935 10.4178 7.91923 10.5724 8.31585 10.5724C8.71504 10.5724 9.09736 10.4158 9.38144 10.1473L9.54629 9.99148L9.71113 10.1473C9.99515 10.4157 10.3775 10.5724 10.7768 10.5724C11.1733 10.5724 11.5532 10.4178 11.8366 10.1526L12.0006 9.99917L12.1646 10.1526C12.448 10.4178 12.8279 10.5724 13.2245 10.5724C13.6238 10.5724 14.0061 10.4158 14.2901 10.1473L14.4549 9.99146L14.6198 10.1473C14.9039 10.4157 15.2862 10.5724 15.6854 10.5724C16.0821 10.5724 16.4619 10.4178 16.7453 10.1526L16.9093 9.99917L17.0733 10.1526C17.3567 10.4178 17.7366 10.5724 18.1332 10.5724C18.3383 10.5724 18.5391 10.5311 18.7246 10.4542L19.0564 10.3168ZM7.68242 8.08758C7.62332 8.10801 7.56312 8.11768 7.50395 8.11768C7.2769 8.11768 7.0648 7.97539 6.98661 7.7487C6.76052 7.09326 6.74934 6.39757 6.9542 5.73696C7.0437 5.44825 7.35017 5.28686 7.63901 5.37625C7.92766 5.46582 8.0891 5.77241 7.99965 6.06106C7.86424 6.49784 7.87172 6.95797 8.02136 7.39183C8.11987 7.67756 7.96816 7.98907 7.68242 8.08758ZM7.79448 7.47008C7.62825 6.98814 7.61983 6.4757 7.77042 5.98999C7.82062 5.82792 7.72996 5.65576 7.56788 5.60547C7.40556 5.55534 7.23365 5.64604 7.18343 5.80803C6.99373 6.41975 7.00401 7.06314 7.21349 7.67044C7.25728 7.79739 7.37613 7.87768 7.50395 7.87768C7.53686 7.87768 7.57053 7.87233 7.60401 7.86075C7.76437 7.80547 7.84978 7.63055 7.79448 7.47008ZM14.5955 13.977C14.5392 13.9159 14.4605 13.8801 14.3774 13.878C13.6018 13.8578 12.7953 14.2493 12.1691 14.9608L11.993 15.1609L11.8124 14.9648C11.1754 14.2732 10.3602 13.891 9.58416 13.9262C9.50117 13.93 9.42328 13.9673 9.3682 14.0296C8.63742 14.8561 8.51649 16.2794 9.13973 17.5817C9.74375 18.8436 10.8759 19.634 11.949 19.634C11.9767 19.634 12.0044 19.6335 12.0317 19.6325L12.0454 19.632C13.1428 19.653 14.3014 18.8314 14.8952 17.5238L15.1137 17.623C14.4919 18.9924 13.2591 19.8957 12.0408 19.8723C12.0103 19.8735 11.9795 19.874 11.949 19.874C10.7608 19.874 9.55632 19.0079 8.92325 17.6853C8.27049 16.3213 8.37702 14.7883 9.18837 13.8707C9.28646 13.7597 9.42528 13.6932 9.57322 13.6865C10.3655 13.6505 11.1726 14.0052 11.8207 14.6301C11.8781 14.6854 11.9342 14.7428 11.9889 14.8022C12.0424 14.7415 12.0971 14.6829 12.1532 14.6264C12.7919 13.9824 13.5916 13.6175 14.3835 13.6381C14.5316 13.6418 14.6718 13.7056 14.7721 13.8145C15.6017 14.7159 15.739 16.2464 15.1137 17.623L14.8952 17.5238C15.4922 16.2094 15.3428 14.7889 14.5955 13.977ZM9.74165 14.5324L9.89488 14.5517C10.7087 14.6543 11.5047 15.3329 11.9396 16.2417C12.3745 17.1503 12.4038 18.1959 11.9732 18.8941L11.8921 19.0256L11.7389 19.0062C10.9251 18.9036 10.129 18.2251 9.6941 17.3164C9.25919 16.4077 9.22998 15.362 9.66058 14.6638L9.74165 14.5324ZM14.2323 14.4873L14.316 14.6171C14.7605 15.3066 14.7523 16.3525 14.3357 17.2697C14.0683 17.8586 13.6556 18.3474 13.1857 18.6573L12.6898 18.9843L12.8193 18.4046C12.9847 17.6643 12.8845 16.7923 12.4939 15.9764C12.473 15.9326 12.4513 15.8891 12.4291 15.8465L12.3596 15.7134L12.4489 15.5927C12.8811 15.0084 13.4738 14.5984 14.0795 14.5097L14.2323 14.4873ZM5.2808 0.768465C5.82647 0.457575 6.24798 0.423596 6.56947 0.573707L5.2808 0.768465ZM9.86485 14.7898C10.5742 14.8793 11.3118 15.4859 11.7231 16.3453C12.1344 17.2047 12.1442 18.1596 11.7689 18.7681C11.0596 18.6787 10.3219 18.0721 9.91058 17.2127C9.49928 16.3534 9.48955 15.3984 9.86485 14.7898ZM10.335 7.16771C10.1523 6.69325 9.82819 6.29625 9.39911 6.02088L10.335 7.16771ZM16.9093 10.3278C17.2363 10.6338 17.6745 10.8124 18.1332 10.8124C18.2842 10.8124 18.433 10.793 18.5764 10.7561C18.6584 10.735 18.7386 10.7082 18.8164 10.676L18.8165 22.9056H5.18483V10.676C5.26263 10.7082 5.34284 10.7351 5.42483 10.7562C5.5682 10.793 5.71703 10.8124 5.86806 10.8124C6.32673 10.8124 6.7649 10.6338 7.09192 10.3278C7.41895 10.6338 7.85712 10.8124 8.31585 10.8124C8.77756 10.8124 9.21853 10.6315 9.54629 10.3217C9.87398 10.6314 10.315 10.8124 10.7768 10.8124C11.2354 10.8124 11.6736 10.6338 12.0006 10.3278C12.3276 10.6338 12.7658 10.8124 13.2245 10.8124C13.6863 10.8124 14.1273 10.6315 14.4549 10.3217C14.7827 10.6314 15.2237 10.8124 15.6854 10.8124C16.1442 10.8124 16.5823 10.6338 16.9093 10.3278ZM13.1112 18.1165C13.1953 17.4023 13.0646 16.6127 12.7104 15.8728C12.6883 15.8264 12.6654 15.7806 12.6418 15.7354C13.0473 15.1872 13.5884 14.8242 14.1142 14.7471C14.5017 15.3481 14.5111 16.3031 14.1172 17.1704C13.9235 17.597 13.6497 17.9641 13.3372 18.2394C13.2456 18.32 13.1507 18.3928 13.0535 18.4569C13.0784 18.3458 13.0976 18.2321 13.1112 18.1165Z" fill="#222222"/>
</g>
<defs>
<clipPath id="clip0_1135_4600">
<rect width="24" height="24" fill="white"/>
</clipPath>
</defs>
</svg>
