<svg width="25" height="24" viewBox="0 0 25 24" fill="none" xmlns="http://www.w3.org/2000/svg">
<g clip-path="url(#clip0_1017_5058)">
<path d="M5.45747 1.30636C5.30782 1.0438 5.3994 0.7096 5.66196 0.559953C6.2434 0.228675 6.7512 0.160206 7.17102 0.356249C7.66769 0.588289 7.89535 1.1015 8.04129 1.68787C8.82139 1.28429 9.68162 1.04398 10.5665 0.986029C11.5272 0.923094 12.4644 1.07073 13.3526 1.42469C13.6334 1.53664 13.7702 1.8549 13.6584 2.13565C13.5464 2.4164 13.2281 2.5534 12.9473 2.44139C12.2116 2.14812 11.4347 2.02595 10.6381 2.07813C9.79631 2.13328 8.98179 2.38715 8.26403 2.8159C8.33852 3.1923 8.4321 3.56486 8.56703 3.72035C8.76514 3.94862 8.74076 4.29425 8.51255 4.49236C8.40899 4.58229 8.28117 4.62637 8.15403 4.62637C8.00091 4.62637 7.84871 4.56253 7.74054 4.43787C7.36438 4.00456 7.23985 3.31501 7.11939 2.64813C7.04302 2.22522 6.90085 1.43801 6.70773 1.34777C6.66632 1.32825 6.50767 1.33762 6.20388 1.51073C5.94143 1.66069 5.60712 1.56893 5.45747 1.30636ZM11.9573 4.35901C12.1695 4.35901 12.3714 4.23484 12.4604 4.02755C12.5796 3.74984 12.4512 3.42799 12.1734 3.30874C11.5364 3.03535 10.8435 2.97309 10.1695 3.12888C9.87499 3.19692 9.69148 3.49086 9.75958 3.78535C9.82768 4.07984 10.1217 4.2636 10.4161 4.19525C10.8616 4.09218 11.32 4.13347 11.7417 4.31456C11.812 4.34478 11.8852 4.35901 11.9573 4.35901ZM13.0531 5.71951L13.1949 7.30986C13.1954 7.31722 13.1961 7.32451 13.1969 7.33175L13.2646 8.09117C13.29 8.37569 13.5288 8.58985 13.8091 8.58985C13.8254 8.58985 13.8418 8.58906 13.8584 8.58766C14.1594 8.56084 14.3817 8.295 14.3548 7.99388L14.3392 7.81881H14.9638C15.266 7.81881 15.511 7.57382 15.511 7.27155C15.511 6.96928 15.266 6.72428 14.9638 6.72428H14.2416L14.1434 5.62221C14.1035 5.17498 14.3206 4.83464 14.5098 4.62783C14.8811 4.22189 15.4545 3.97957 16.0436 3.97957H17.4195C18.0086 3.97957 18.5819 4.22188 18.9533 4.62777C19.1154 4.80497 19.298 5.08036 19.3218 5.43718H18.6139C18.3116 5.43718 18.0666 5.68217 18.0666 5.98444C18.0666 6.28672 18.3116 6.53171 18.6139 6.53171H19.2386L19.1082 7.99394C19.0814 8.29493 19.3036 8.56078 19.6047 8.58766C19.9059 8.6135 20.1716 8.39223 20.1984 8.09111L20.4098 5.71938C20.4685 5.06066 20.238 4.41069 19.7608 3.88897C19.1857 3.26034 18.3104 2.88504 17.4195 2.88504H17.4006C17.633 2.07387 18.1037 1.39709 18.7217 1.01175C18.9782 0.851828 19.0565 0.514226 18.8965 0.257863C18.7367 0.00125638 18.3991 -0.0770025 18.1426 0.083042C17.5613 0.445514 17.0773 0.985847 16.7316 1.63521C16.3857 0.985786 15.9018 0.445514 15.3205 0.083042C15.0639 -0.0768809 14.7264 0.00137797 14.5665 0.257863C14.4066 0.514287 14.4848 0.851888 14.7413 1.01175C15.3593 1.39709 15.8301 2.07387 16.0624 2.88504H16.0436C15.1526 2.88504 14.2774 3.2604 13.7022 3.88909C13.225 4.41075 12.9945 5.06078 13.0531 5.71951ZM10.3607 5.3017C10.1063 5.13837 9.76779 5.21225 9.60446 5.46673C9.44125 5.72109 9.51514 6.0596 9.76949 6.22287C10.1558 6.47078 10.4468 6.82729 10.611 7.25391C10.6947 7.4713 10.902 7.60477 11.1218 7.60477C11.1872 7.60477 11.2537 7.59298 11.3183 7.56805C11.6004 7.45944 11.741 7.14276 11.6324 6.86067C11.384 6.21527 10.9442 5.67615 10.3607 5.3017ZM5.1417 8.30497C5.15374 8.30497 5.16584 8.3046 5.178 8.30375C5.4796 8.28405 5.70806 8.02355 5.68829 7.72195C5.61399 6.58686 5.89668 5.48163 6.50585 4.52574C6.66826 4.2709 6.59335 3.93256 6.33844 3.77009C6.08366 3.60773 5.74533 3.68265 5.58279 3.93749C4.84763 5.09106 4.50638 6.42438 4.59607 7.7934C4.61511 8.0829 4.85572 8.30497 5.1417 8.30497ZM20.4109 9.6665V23.4528C20.4109 23.7551 20.1659 24.0001 19.8637 24.0001H5.1375C4.83523 24.0001 4.59024 23.7551 4.59024 23.4528V9.6665C4.59024 9.36423 4.83523 9.11924 5.1375 9.11924H5.30624C5.49857 9.11924 5.67674 9.22018 5.77561 9.38515C5.89863 9.59037 6.12556 9.71788 6.36787 9.71788C6.61019 9.71788 6.83712 9.59037 6.9602 9.38515C7.05907 9.22018 7.2373 9.11924 7.42957 9.11924H7.75404C7.94637 9.11924 8.1246 9.22018 8.22347 9.38521C8.34642 9.59037 8.57335 9.71788 8.81567 9.71788C9.05799 9.71788 9.28498 9.59031 9.40811 9.38503C9.50699 9.22012 9.68515 9.11924 9.87742 9.11924H10.215C10.4073 9.11924 10.5855 9.22018 10.6843 9.38515C10.8073 9.59037 11.0343 9.71788 11.2765 9.71788C11.5189 9.71788 11.7458 9.59037 11.8689 9.38515C11.9678 9.22018 12.146 9.11924 12.3383 9.11924H12.6627C12.855 9.11924 13.0333 9.22018 13.1321 9.38515C13.2551 9.59037 13.4821 9.71788 13.7243 9.71788C13.9667 9.71788 14.1936 9.59037 14.3167 9.38515C14.4155 9.22018 14.5938 9.11924 14.7861 9.11924H15.1236C15.3159 9.11924 15.4941 9.22011 15.593 9.38509C15.7161 9.59037 15.9431 9.71788 16.1854 9.71788C16.4277 9.71788 16.6546 9.59037 16.7776 9.38521C16.8765 9.22018 17.0547 9.11924 17.247 9.11924H17.5715C17.7639 9.11924 17.9421 9.22018 18.041 9.38515C18.164 9.59037 18.3909 9.71788 18.6332 9.71788C18.8755 9.71788 19.1025 9.59037 19.2256 9.38509C19.3244 9.22018 19.5026 9.11924 19.6949 9.11924H19.8637C20.1659 9.11924 20.4109 9.36423 20.4109 9.6665ZM19.3164 10.676C19.1025 10.7646 18.8706 10.8124 18.6332 10.8124C18.1745 10.8124 17.7363 10.6338 17.4093 10.3278C17.0823 10.6338 16.6442 10.8124 16.1854 10.8124C15.7237 10.8124 15.2827 10.6314 14.9549 10.3217C14.6273 10.6315 14.1863 10.8124 13.7245 10.8124C13.2658 10.8124 12.8276 10.6338 12.5006 10.3278C12.1736 10.6338 11.7354 10.8124 11.2768 10.8124C10.815 10.8124 10.374 10.6314 10.0463 10.3217C9.71854 10.6315 9.27756 10.8124 8.81585 10.8124C8.35712 10.8124 7.91895 10.6338 7.59192 10.3278C7.2649 10.6338 6.82673 10.8124 6.36806 10.8124C6.13067 10.8124 5.89869 10.7646 5.68483 10.676V22.9056H19.3165L19.3164 10.676ZM8.13901 5.37625C7.85017 5.28686 7.5437 5.44825 7.4542 5.73696C7.24934 6.39757 7.26052 7.09326 7.48661 7.7487C7.5648 7.97539 7.7769 8.11768 8.00395 8.11768C8.06312 8.11768 8.12332 8.10801 8.18242 8.08758C8.46816 7.98907 8.61987 7.67756 8.52136 7.39183C8.37172 6.95797 8.36424 6.49784 8.49965 6.06106C8.5891 5.77241 8.42766 5.46582 8.13901 5.37625ZM15.2721 13.8145C16.1017 14.7159 16.239 16.2464 15.6137 17.623C14.9919 18.9924 13.7591 19.8957 12.5408 19.8723C12.5103 19.8735 12.4795 19.874 12.449 19.874C11.2608 19.874 10.0563 19.0079 9.42325 17.6853C8.77049 16.3213 8.87702 14.7883 9.68837 13.8707C9.78646 13.7597 9.92528 13.6932 10.0732 13.6865C10.9357 13.6473 11.8156 14.0711 12.4889 14.8022C13.1515 14.0494 14.0222 13.6157 14.8835 13.6381C15.0316 13.6418 15.1718 13.7056 15.2721 13.8145ZM12.2231 16.3453C11.8118 15.4859 11.0742 14.8793 10.3649 14.7898C9.98955 15.3984 9.99928 16.3534 10.4106 17.2127C10.8219 18.0721 11.5596 18.6787 12.2689 18.7681C12.6442 18.1596 12.6344 17.2047 12.2231 16.3453ZM14.6142 14.7471C14.0884 14.8242 13.5473 15.1872 13.1418 15.7354C13.1654 15.7806 13.1883 15.8264 13.2104 15.8728C13.6219 16.7325 13.7318 17.6593 13.5535 18.4569C13.9823 18.1742 14.3667 17.7221 14.6172 17.1704C15.0111 16.3031 15.0017 15.3481 14.6142 14.7471Z" fill="#F6613F"/>
<path fill-rule="evenodd" clip-rule="evenodd" d="M7.97623 1.45153C7.82793 0.966162 7.59965 0.5565 7.17102 0.356249C6.7512 0.160206 6.2434 0.228675 5.66196 0.559953C5.3994 0.7096 5.30782 1.0438 5.45747 1.30636C5.60712 1.56893 5.94143 1.66069 6.20388 1.51073C6.50767 1.33762 6.66632 1.32825 6.70773 1.34777C6.90085 1.43801 7.04302 2.22522 7.11939 2.64813C7.23984 3.31496 7.36441 4.00459 7.74054 4.43787C7.84871 4.56253 8.00091 4.62637 8.15403 4.62637C8.28117 4.62637 8.40899 4.58229 8.51255 4.49236C8.74075 4.29425 8.76514 3.94862 8.56703 3.72035C8.4321 3.56486 8.33852 3.1923 8.26403 2.8159C8.98179 2.38715 9.79631 2.13328 10.6381 2.07813C11.4347 2.02595 12.2116 2.14812 12.9473 2.44139C13.2281 2.5534 13.5464 2.4164 13.6584 2.13565C13.7702 1.8549 13.6334 1.53664 13.3526 1.42469C12.4644 1.07073 11.5272 0.923094 10.5665 0.986029C9.76406 1.03858 8.98188 1.2411 8.26136 1.57934C8.18734 1.61409 8.11397 1.65027 8.04129 1.68787C8.0213 1.60754 7.99977 1.52858 7.97623 1.45153ZM13.2638 1.64764C12.409 1.30699 11.5075 1.1649 10.5822 1.22552C9.73033 1.2813 8.90229 1.51265 8.15157 1.90103L7.88176 2.04061L7.80839 1.74583C7.66491 1.16932 7.45967 0.756027 7.06947 0.573707M13.2638 1.64764C13.4214 1.71052 13.4982 1.88918 13.4354 2.04676C13.3725 2.2045 13.1938 2.28131 13.0363 2.21847C12.2671 1.91185 11.4543 1.78415 10.6224 1.83864C9.74282 1.89627 8.89148 2.16154 8.14095 2.60986L7.99576 2.69659L8.02859 2.86249C8.06634 3.05321 8.11029 3.25029 8.16366 3.42215C8.21442 3.5856 8.28325 3.75952 8.38577 3.87765C8.49704 4.00586 8.4833 4.19992 8.35521 4.31112C8.29698 4.36169 8.22559 4.38637 8.15403 4.38637C8.06747 4.38637 7.98247 4.35048 7.9218 4.28057C7.76529 4.10028 7.65249 3.85598 7.56391 3.56146C7.47533 3.26696 7.41631 2.94175 7.35557 2.60548M7.35557 2.60548L7.35491 2.60181C7.31705 2.39216 7.26104 2.082 7.18931 1.81166C7.15342 1.67635 7.11127 1.54191 7.06183 1.43148C7.03713 1.37631 7.00763 1.32031 6.97188 1.27112C6.9381 1.22464 6.8859 1.16623 6.80969 1.13051C6.74906 1.10204 6.68693 1.09945 6.64635 1.10079C6.59912 1.10234 6.54793 1.11066 6.49378 1.12474C6.38528 1.15297 6.24988 1.20829 6.08505 1.30221C5.93802 1.38622 5.75008 1.33508 5.66598 1.18752M12.2399 3.93285C12.3068 3.77695 12.2347 3.59623 12.0787 3.52928C11.4885 3.27597 10.8477 3.21845 10.2235 3.36271C10.0582 3.4009 9.95517 3.56591 9.99341 3.73127C10.0317 3.89681 10.1969 3.99975 10.3618 3.96147C10.8573 3.84685 11.3679 3.89288 11.8364 4.09403C11.8761 4.11108 11.917 4.11901 11.9573 4.11901C12.077 4.11901 12.1901 4.04882 12.2399 3.93285ZM12.1734 3.30874C12.4512 3.42799 12.5796 3.74984 12.4604 4.02755C12.3714 4.23484 12.1695 4.35901 11.9573 4.35901C11.8852 4.35901 11.812 4.34478 11.7417 4.31456C11.32 4.13347 10.8616 4.09218 10.4161 4.19525C10.1217 4.2636 9.82768 4.07984 9.75958 3.78535C9.69148 3.49086 9.87499 3.19692 10.1695 3.12888C10.8435 2.97309 11.5364 3.03535 12.1734 3.30874ZM15.8146 2.89327C15.0045 2.95138 14.228 3.31439 13.7022 3.88909C13.225 4.41075 12.9945 5.06078 13.0531 5.71951L13.1949 7.30986C13.1954 7.31722 13.1961 7.32451 13.1969 7.33175L13.2646 8.09117C13.29 8.37569 13.5288 8.58985 13.8091 8.58985C13.8254 8.58985 13.8418 8.58906 13.8584 8.58766C14.1376 8.56279 14.349 8.33233 14.3568 8.05881C14.3574 8.03741 14.3568 8.01573 14.3548 7.99388L14.3392 7.81881H14.9638C15.266 7.81881 15.511 7.57382 15.511 7.27155C15.511 6.96928 15.266 6.72428 14.9638 6.72428H14.2416L14.1434 5.62221C14.1035 5.17498 14.3206 4.83464 14.5098 4.62783C14.8811 4.22189 15.4545 3.97957 16.0436 3.97957H17.4195C18.0086 3.97957 18.5819 4.22188 18.9533 4.62777C19.0769 4.76292 19.2125 4.95521 19.2805 5.19718C19.3016 5.27245 19.3162 5.35252 19.3218 5.43718H18.6139C18.3116 5.43718 18.0666 5.68217 18.0666 5.98444C18.0666 6.28672 18.3116 6.53171 18.6139 6.53171H19.2386L19.1082 7.99394C19.0814 8.29494 19.3036 8.56078 19.6047 8.58766C19.9059 8.6135 20.1716 8.39223 20.1984 8.09111L20.4098 5.71938C20.4685 5.06066 20.238 4.41069 19.7608 3.88897C19.235 3.3143 18.4585 2.95134 17.6484 2.89326C17.5724 2.8878 17.496 2.88504 17.4195 2.88504H17.4006C17.4068 2.86361 17.4131 2.84227 17.4195 2.82103C17.4376 2.76176 17.4569 2.70324 17.4775 2.64553C17.7287 1.94124 18.1656 1.3585 18.7217 1.01175C18.9782 0.851828 19.0565 0.514226 18.8965 0.257863C18.7367 0.00125635 18.3991 -0.0770025 18.1426 0.083042C17.6357 0.399119 17.2028 0.850441 16.871 1.39137C16.8223 1.47076 16.7758 1.55209 16.7316 1.63521C16.6873 1.55209 16.6408 1.47076 16.5921 1.39137C16.2603 0.850406 15.8274 0.399124 15.3205 0.083042C15.0639 -0.0768809 14.7264 0.00137794 14.5665 0.257863C14.4066 0.514287 14.4848 0.851888 14.7413 1.01175C15.2974 1.3585 15.7343 1.94124 15.9855 2.64553C16.0061 2.70336 16.0255 2.76202 16.0436 2.82142C16.05 2.84253 16.0563 2.86374 16.0624 2.88504H16.0436C15.9671 2.88504 15.8907 2.88781 15.8146 2.89327ZM15.1935 0.286711C15.0494 0.196885 14.8599 0.240853 14.7702 0.384845C14.6804 0.528801 14.7243 0.71835 14.8683 0.808074C15.546 1.23067 16.0478 1.96222 16.2931 2.81897L16.3807 3.12504H16.0436C15.2165 3.12504 14.4067 3.47459 13.8793 4.05108C13.444 4.52691 13.2399 5.11162 13.2922 5.69821L13.4345 7.29402L13.4355 7.30568L13.436 7.31042L13.5037 8.06985C13.5179 8.22943 13.652 8.34985 13.8091 8.34985M13.8376 8.34855C14.0063 8.33322 14.1308 8.18415 14.1158 8.01517L14.0768 7.57881H14.9638C15.1335 7.57881 15.271 7.44127 15.271 7.27155C15.271 7.10182 15.1335 6.96428 14.9638 6.96428H14.0221L13.9043 5.64353C13.8561 5.10219 14.1203 4.69799 14.3327 4.46585C14.753 4.00637 15.3925 3.73957 16.0436 3.73957H17.4195C18.0706 3.73957 18.71 4.00637 19.1303 4.46577C19.3126 4.66499 19.5325 4.98974 19.5613 5.42122L19.5783 5.67718H18.6139C18.4442 5.67718 18.3066 5.81472 18.3066 5.98444C18.3066 6.15417 18.4442 6.29171 18.6139 6.29171H19.5009L19.3473 8.01524C19.3322 8.18413 19.4568 8.33333 19.6257 8.34858C19.796 8.36292 19.9444 8.238 19.9594 8.06982L20.1708 5.69809C20.223 5.11151 20.019 4.52687 19.5837 4.05097C19.0564 3.47454 18.2465 3.12504 17.4195 3.12504H17.0822L17.1699 2.81895C17.4153 1.96222 17.917 1.23069 18.5947 0.808097C18.7388 0.718296 18.7826 0.528743 18.6929 0.384889C18.6032 0.240872 18.4137 0.196787 18.2696 0.286667C17.7283 0.624218 17.2718 1.13124 16.9434 1.748L16.7316 2.14585L16.5197 1.74801C16.1913 1.13119 15.7348 0.624265 15.1935 0.286711M10.231 5.50365C10.0883 5.412 9.89823 5.45338 9.80645 5.59634C9.71484 5.73912 9.75629 5.92919 9.89911 6.02088M9.60446 5.46673C9.76779 5.21225 10.1063 5.13837 10.3607 5.3017C10.9442 5.67615 11.384 6.21527 11.6324 6.86067C11.741 7.14276 11.6004 7.45944 11.3183 7.56805C11.2537 7.59298 11.1872 7.60477 11.1218 7.60477C10.902 7.60477 10.6947 7.4713 10.611 7.25391C10.4468 6.82729 10.1558 6.47078 9.76949 6.22287C9.51513 6.0596 9.44125 5.72109 9.60446 5.46673ZM10.835 7.16771C10.8818 7.28942 10.998 7.36477 11.1218 7.36477C11.1582 7.36477 11.1953 7.35824 11.2319 7.34412C11.3904 7.28314 11.4694 7.10527 11.4085 6.9469C11.1784 6.34926 10.7717 5.8506 10.231 5.50365M5.16124 8.06434L5.16235 8.06426C5.33164 8.0532 5.4599 7.90699 5.44881 7.73764C5.37118 6.55181 5.66674 5.39586 6.30345 4.39676C6.39462 4.2537 6.35259 4.06373 6.20947 3.97249C6.06651 3.88139 5.87652 3.92336 5.78519 4.06647M5.178 8.30375C5.16584 8.3046 5.15374 8.30497 5.1417 8.30497C4.85572 8.30497 4.61511 8.0829 4.59607 7.7934C4.50638 6.42438 4.84763 5.09106 5.58279 3.93749C5.74533 3.68265 6.08366 3.60773 6.33844 3.77009C6.59335 3.93256 6.66826 4.2709 6.50585 4.52574C5.89668 5.48163 5.61399 6.58686 5.68829 7.72195C5.70806 8.02355 5.4796 8.28405 5.178 8.30375ZM4.83556 7.77765C4.74921 6.45948 5.07759 5.17683 5.78519 4.06647L4.83556 7.77765ZM4.83556 7.77765C4.84627 7.94019 4.9814 8.06497 5.1417 8.06497C5.14891 8.06497 5.15537 8.06475 5.16124 8.06434M5.56975 9.50853C5.51424 9.4159 5.41422 9.35924 5.30624 9.35924H5.1375C4.96778 9.35924 4.83024 9.49678 4.83024 9.6665V23.4528C4.83024 23.6226 4.96778 23.7601 5.1375 23.7601H19.8637C20.0334 23.7601 20.1709 23.6226 20.1709 23.4528V9.6665C20.1709 9.49678 20.0334 9.35924 19.8637 9.35924H19.6949C19.5869 9.35924 19.4869 9.41591 19.4314 9.50849C19.2643 9.78721 18.9585 9.95788 18.6332 9.95788C18.3078 9.95788 18.0022 9.78719 17.8351 9.50854C17.7796 9.41593 17.6796 9.35924 17.5715 9.35924H17.247C17.139 9.35924 17.039 9.41591 16.9835 9.50855C16.8165 9.7872 16.5107 9.95788 16.1854 9.95788C15.86 9.95788 15.5543 9.78723 15.3872 9.50852C15.3316 9.41586 15.2316 9.35924 15.1236 9.35924H14.7861C14.6781 9.35924 14.578 9.41592 14.5225 9.50853C14.3555 9.78721 14.0497 9.95788 13.7243 9.95788C13.399 9.95788 13.0933 9.7872 12.9263 9.50854C12.8708 9.41593 12.7707 9.35924 12.6627 9.35924H12.3383C12.2304 9.35924 12.1303 9.41591 12.0748 9.50853C11.9077 9.78717 11.6019 9.95788 11.2765 9.95788C10.9512 9.95788 10.6455 9.7872 10.4785 9.50854C10.423 9.41591 10.3229 9.35924 10.215 9.35924H9.87742C9.76945 9.35924 9.66945 9.41588 9.61395 9.50844C9.44682 9.78707 9.14107 9.95788 8.81567 9.95788C8.49033 9.95788 8.18459 9.78722 8.01761 9.50858C7.9621 9.41594 7.86204 9.35924 7.75404 9.35924H7.42957C7.32163 9.35924 7.22156 9.41591 7.16606 9.50853C6.99897 9.78715 6.69324 9.95788 6.36787 9.95788C6.04252 9.95788 5.73679 9.7872 5.56975 9.50853ZM15.593 9.38509C15.7161 9.59037 15.9431 9.71788 16.1854 9.71788C16.4277 9.71788 16.6546 9.59037 16.7776 9.38521C16.8765 9.22018 17.0547 9.11924 17.247 9.11924H17.5715C17.7639 9.11924 17.9421 9.22018 18.041 9.38515C18.164 9.59037 18.3909 9.71788 18.6332 9.71788C18.8755 9.71788 19.1025 9.59037 19.2256 9.38509C19.3244 9.22018 19.5026 9.11924 19.6949 9.11924H19.8637C20.1659 9.11924 20.4109 9.36423 20.4109 9.6665V23.4528C20.4109 23.7551 20.1659 24.0001 19.8637 24.0001H5.1375C4.83523 24.0001 4.59024 23.7551 4.59024 23.4528V9.6665C4.59024 9.36423 4.83523 9.11924 5.1375 9.11924H5.30624C5.49857 9.11924 5.67674 9.22018 5.77561 9.38515C5.89863 9.59037 6.12556 9.71788 6.36787 9.71788C6.61019 9.71788 6.83712 9.59037 6.9602 9.38515C7.05907 9.22018 7.2373 9.11924 7.42957 9.11924H7.75404C7.94637 9.11924 8.1246 9.22018 8.22347 9.38521C8.34642 9.59037 8.57335 9.71788 8.81567 9.71788C9.05799 9.71788 9.28498 9.59031 9.40811 9.38503C9.50699 9.22012 9.68515 9.11924 9.87742 9.11924H10.215C10.4073 9.11924 10.5855 9.22018 10.6843 9.38515C10.8073 9.59037 11.0343 9.71788 11.2765 9.71788C11.5189 9.71788 11.7458 9.59037 11.8689 9.38515C11.9678 9.22018 12.146 9.11924 12.3383 9.11924H12.6627C12.855 9.11924 13.0333 9.22018 13.1321 9.38515C13.2551 9.59037 13.4821 9.71788 13.7243 9.71788C13.9667 9.71788 14.1936 9.59037 14.3167 9.38515C14.4155 9.22018 14.5938 9.11924 14.7861 9.11924H15.1236C15.3159 9.11924 15.4941 9.22012 15.593 9.38509ZM19.5564 10.3168L19.5565 23.1456H5.44483V10.3169L5.77663 10.4543C5.96211 10.5311 6.16295 10.5724 6.36806 10.5724C6.76459 10.5724 7.14449 10.4178 7.42797 10.1526L7.59194 9.99918L7.7559 10.1526C8.03935 10.4178 8.41923 10.5724 8.81585 10.5724C9.21504 10.5724 9.59736 10.4158 9.88144 10.1473L10.0463 9.99148L10.2111 10.1473C10.4952 10.4157 10.8775 10.5724 11.2768 10.5724C11.6733 10.5724 12.0532 10.4178 12.3366 10.1526L12.5006 9.99917L12.6646 10.1526C12.948 10.4178 13.3279 10.5724 13.7245 10.5724C14.1238 10.5724 14.5061 10.4158 14.7901 10.1473L14.9549 9.99146L15.1198 10.1473C15.4039 10.4157 15.7862 10.5724 16.1854 10.5724C16.5821 10.5724 16.9619 10.4178 17.2453 10.1526L17.4093 9.99917L17.5733 10.1526C17.8567 10.4178 18.2366 10.5724 18.6332 10.5724C18.8383 10.5724 19.0391 10.5311 19.2246 10.4542L19.5564 10.3168ZM8.18242 8.08758C8.12332 8.10801 8.06312 8.11768 8.00395 8.11768C7.7769 8.11768 7.5648 7.97539 7.48661 7.7487C7.26052 7.09326 7.24934 6.39757 7.4542 5.73696C7.5437 5.44825 7.85017 5.28686 8.13901 5.37625C8.42766 5.46582 8.5891 5.77241 8.49965 6.06106C8.36424 6.49784 8.37172 6.95797 8.52136 7.39183C8.61987 7.67756 8.46816 7.98907 8.18242 8.08758ZM8.29448 7.47008C8.12825 6.98814 8.11983 6.4757 8.27042 5.98999C8.32062 5.82792 8.22996 5.65576 8.06788 5.60547C7.90556 5.55534 7.73365 5.64604 7.68343 5.80803C7.49373 6.41975 7.50401 7.06314 7.71349 7.67044C7.75728 7.79739 7.87613 7.87768 8.00395 7.87768C8.03686 7.87768 8.07053 7.87233 8.10401 7.86075C8.26437 7.80547 8.34978 7.63055 8.29448 7.47008ZM15.0955 13.977C15.0392 13.9159 14.9605 13.8801 14.8774 13.878C14.1018 13.8578 13.2953 14.2493 12.6691 14.9608L12.493 15.1609L12.3124 14.9648C11.6754 14.2732 10.8602 13.891 10.0842 13.9262C10.0012 13.93 9.92328 13.9673 9.8682 14.0296C9.13742 14.8561 9.01649 16.2794 9.63973 17.5817C10.2437 18.8436 11.3759 19.634 12.449 19.634C12.4767 19.634 12.5044 19.6335 12.5317 19.6325L12.5454 19.632C13.6428 19.653 14.8014 18.8314 15.3952 17.5238L15.6137 17.623C14.9919 18.9924 13.7591 19.8957 12.5408 19.8723C12.5103 19.8735 12.4795 19.874 12.449 19.874C11.2608 19.874 10.0563 19.0079 9.42325 17.6853C8.77049 16.3213 8.87702 14.7883 9.68837 13.8707C9.78646 13.7597 9.92528 13.6932 10.0732 13.6865C10.8655 13.6505 11.6726 14.0052 12.3207 14.6301C12.3781 14.6854 12.4342 14.7428 12.4889 14.8022C12.5424 14.7415 12.5971 14.6829 12.6532 14.6264C13.2919 13.9824 14.0916 13.6175 14.8835 13.6381C15.0316 13.6418 15.1718 13.7056 15.2721 13.8145C16.1017 14.7159 16.239 16.2464 15.6137 17.623L15.3952 17.5238C15.9922 16.2094 15.8428 14.7889 15.0955 13.977ZM10.2416 14.5324L10.3949 14.5517C11.2087 14.6543 12.0047 15.3329 12.4396 16.2417C12.8745 17.1503 12.9038 18.1959 12.4732 18.8941L12.3921 19.0256L12.2389 19.0062C11.4251 18.9036 10.629 18.2251 10.1941 17.3164C9.75919 16.4077 9.72998 15.362 10.1606 14.6638L10.2416 14.5324ZM14.7323 14.4873L14.816 14.6171C15.2605 15.3066 15.2523 16.3525 14.8357 17.2697C14.5683 17.8586 14.1556 18.3474 13.6857 18.6573L13.1898 18.9843L13.3193 18.4046C13.4847 17.6643 13.3845 16.7923 12.9939 15.9764C12.973 15.9326 12.9513 15.8891 12.9291 15.8465L12.8596 15.7134L12.9489 15.5927C13.3811 15.0084 13.9738 14.5984 14.5795 14.5097L14.7323 14.4873ZM5.7808 0.768465C6.32647 0.457575 6.74798 0.423596 7.06947 0.573707L5.7808 0.768465ZM10.3649 14.7898C11.0742 14.8793 11.8118 15.4859 12.2231 16.3453C12.6344 17.2047 12.6442 18.1596 12.2689 18.7681C11.5596 18.6787 10.8219 18.0721 10.4106 17.2127C9.99928 16.3534 9.98955 15.3984 10.3649 14.7898ZM10.835 7.16771C10.6523 6.69325 10.3282 6.29625 9.89911 6.02088L10.835 7.16771ZM17.4093 10.3278C17.7363 10.6338 18.1745 10.8124 18.6332 10.8124C18.7842 10.8124 18.933 10.793 19.0764 10.7561C19.1584 10.735 19.2386 10.7082 19.3164 10.676L19.3165 22.9056H5.68483V10.676C5.76263 10.7082 5.84284 10.7351 5.92483 10.7562C6.0682 10.793 6.21703 10.8124 6.36806 10.8124C6.82673 10.8124 7.2649 10.6338 7.59192 10.3278C7.91895 10.6338 8.35712 10.8124 8.81585 10.8124C9.27756 10.8124 9.71853 10.6315 10.0463 10.3217C10.374 10.6314 10.815 10.8124 11.2768 10.8124C11.7354 10.8124 12.1736 10.6338 12.5006 10.3278C12.8276 10.6338 13.2658 10.8124 13.7245 10.8124C14.1863 10.8124 14.6273 10.6315 14.9549 10.3217C15.2827 10.6314 15.7237 10.8124 16.1854 10.8124C16.6442 10.8124 17.0823 10.6338 17.4093 10.3278ZM13.6112 18.1165C13.6953 17.4023 13.5646 16.6127 13.2104 15.8728C13.1883 15.8264 13.1654 15.7806 13.1418 15.7354C13.5473 15.1872 14.0884 14.8242 14.6142 14.7471C15.0017 15.3481 15.0111 16.3031 14.6172 17.1704C14.4235 17.597 14.1497 17.9641 13.8372 18.2394C13.7456 18.32 13.6507 18.3928 13.5535 18.4569C13.5784 18.3458 13.5976 18.2321 13.6112 18.1165Z" fill="#F6613F"/>
</g>
<defs>
<clipPath id="clip0_1017_5058">
<rect width="24" height="24" fill="white" transform="translate(0.5)"/>
</clipPath>
</defs>
</svg>
