<svg width="106" height="37" viewBox="0 0 106 37" fill="none" xmlns="http://www.w3.org/2000/svg">
<g clip-path="url(#clip0_36_2348)">
<path d="M16.3313 18.2438H20.8475V24.587C19.4384 25.0397 17.6591 25.288 15.8096 25.288C8.31385 25.288 3.90833 18.8691 3.90833 12.6002C3.90833 6.4518 7.8932 2.13904 13.4526 2.13904C16.9705 2.13904 19.0175 3.33082 20.8488 4.99093V7.06046L24.2826 3.62667C22.1107 2.15725 18.9657 0.760742 14.4705 0.760742C4.60239 0.760742 0.0917969 7.82056 0.0917969 13.6224C0.0917969 21.8807 6.1069 26.8556 13.6659 26.8556C17.331 26.8556 20.5853 26.2962 24.3444 25.2502V18.6967C24.3444 18.3616 24.4916 18.1316 24.7118 17.9297L25.8979 16.7435H17.8428L16.3313 18.2438Z" fill="url(#paint0_linear_36_2348)"/>
<path d="M36.5626 9.62402C30.8826 9.62402 27.3633 13.7744 27.3633 18.1799C27.3633 21.9825 30.1985 26.4972 35.9429 26.4972C41.4686 26.4972 44.8589 22.3386 44.8589 17.856C44.8589 13.6805 41.5457 9.62556 36.5626 9.62556V9.62402ZM35.6202 10.8341C39.6248 10.8341 41.4082 16.0514 41.4082 19.7726C41.4082 25.3068 37.2565 25.4161 36.7602 25.4161C34.8603 25.4161 33.5324 24.2679 32.5385 22.7619C31.6635 21.3739 30.8083 18.7953 30.8083 16.2757C30.8083 13.7659 31.6298 12.5405 32.9227 11.6389C33.9799 10.9631 34.9698 10.8341 35.6188 10.8341H35.6202Z" fill="url(#paint1_linear_36_2348)"/>
<path d="M73.6924 9.62231C68.7316 9.62231 66.0479 12.7631 66.0479 16.2698C66.0479 18.9394 67.9604 21.9512 71.9059 21.9512H72.9041C72.9041 21.9512 72.6323 22.6116 72.6309 23.2496C72.6309 24.1905 72.9688 24.7189 73.6865 25.5322C66.8975 25.9458 64.1689 28.6842 64.1689 31.6272C64.1689 34.2045 66.6368 36.7409 71.8231 36.7409C77.963 36.7409 81.143 33.3322 81.143 29.9869C81.143 27.6285 79.968 26.3357 76.9927 24.1064C76.1178 23.4263 75.9481 22.9932 75.9481 22.4843C75.9481 21.7552 76.3842 21.2727 76.544 21.0905C76.8259 20.7933 77.3138 20.454 77.4961 20.2913C78.4958 19.4445 79.9078 18.1911 79.9078 15.6896C79.9078 13.9734 79.1939 12.497 77.5676 11.1145H79.553L81.0449 9.62262H73.6924V9.62231ZM72.324 10.7384C73.2241 10.7384 73.9755 11.0567 74.7691 11.7171C75.6495 12.5107 77.0561 14.6433 77.0561 17.2821C77.0561 20.1298 74.8435 20.9094 73.6461 20.9094C73.06 20.9094 72.3578 20.7454 71.7631 20.3387C70.4423 19.4822 69.1312 17.2022 69.1312 14.4891C69.1312 12.041 70.5894 10.7384 72.324 10.7384ZM74.2883 26.6132C74.6667 26.6132 74.9389 26.6442 74.9389 26.6442C74.9389 26.6442 75.832 27.2822 76.456 27.7588C77.9086 28.9071 78.8142 29.7848 78.8142 31.3483C78.8142 33.4978 76.8204 35.1831 73.5913 35.1831C70.0469 35.1831 67.3379 33.5328 67.3379 30.8381C67.3379 28.6058 69.1943 26.6846 74.2883 26.6132Z" fill="url(#paint2_linear_36_2348)"/>
<path d="M82.1187 26.0046H88.9287L89.9662 24.9672L88.013 24.7232C87.4872 24.6587 87.1747 24.2044 87.1747 23.7641V3.19363C87.1747 2.78842 87.3626 2.5809 87.4998 2.44896L88.7282 1.2207H82.9207L81.4092 2.73219H83.6666V24.0402C83.6666 24.3431 83.5712 24.5492 83.3665 24.7609L82.1187 26.0046Z" fill="url(#paint3_linear_36_2348)"/>
<path d="M98.1565 9.62402C94.354 9.62402 90.3145 12.5222 90.3145 17.7255C90.3145 22.0228 93.2126 26.4972 98.6276 26.4972C99.9779 26.4972 101.09 26.3234 102.132 25.8453C103.249 25.3307 104.324 24.4951 105.109 23.4449C103.628 24.1922 102.419 24.683 100.813 24.683C97.7624 24.683 94.8207 22.4816 93.7915 18.4351L104.57 14.0787C103.947 11.8591 102.192 9.62402 98.1579 9.62402H98.1565ZM97.4525 10.8144C99.4927 10.8144 100.968 12.4928 100.968 13.8066C100.968 14.2314 100.701 14.4558 100.174 14.6633L93.549 17.3427C93.549 17.3427 93.3697 16.5085 93.3697 15.6069C93.3697 11.8254 96.1038 10.8144 97.4525 10.8144Z" fill="url(#paint4_linear_36_2348)"/>
<path d="M55.836 9.62402C50.156 9.62402 46.6367 13.7744 46.6367 18.1799C46.6367 21.9825 49.4719 26.4972 55.2163 26.4972C60.742 26.4972 64.1324 22.3386 64.1324 17.856C64.1324 13.6805 60.8192 9.62556 55.836 9.62556V9.62402ZM54.8937 10.8341C58.8983 10.8341 60.6816 16.0514 60.6816 19.7726C60.6816 25.3068 56.5299 25.4161 56.0336 25.4161C54.1337 25.4161 52.8059 24.2679 51.812 22.7619C50.937 21.3739 50.0817 18.7953 50.0817 16.2757C50.0817 13.7659 50.9032 12.5405 52.1961 11.6389C53.2533 10.9631 54.2432 10.8341 54.8923 10.8341H54.8937Z" fill="url(#paint5_linear_36_2348)"/>
</g>
<defs>
<linearGradient id="paint0_linear_36_2348" x1="12.9307" y1="0.686875" x2="12.9307" y2="26.8542" gradientUnits="userSpaceOnUse">
<stop stop-color="#196EEF"/>
<stop offset="0.5" stop-color="#186DEE"/>
<stop offset="1" stop-color="#1065E7"/>
</linearGradient>
<linearGradient id="paint1_linear_36_2348" x1="36.0475" y1="9.58406" x2="36.0475" y2="26.5043" gradientUnits="userSpaceOnUse">
<stop stop-color="#DE5744"/>
<stop offset="0.5" stop-color="#DB4632"/>
<stop offset="1" stop-color="#D13D29"/>
</linearGradient>
<linearGradient id="paint2_linear_36_2348" x1="72.5936" y1="9.58375" x2="72.5936" y2="36.7512" gradientUnits="userSpaceOnUse">
<stop stop-color="#1A6FEF"/>
<stop offset="0.25" stop-color="#1E72EF"/>
<stop offset="0.5" stop-color="#166BEC"/>
<stop offset="0.75" stop-color="#1267E9"/>
<stop offset="1" stop-color="#1063E5" stop-opacity="0.87"/>
</linearGradient>
<linearGradient id="paint3_linear_36_2348" x1="85.6256" y1="1.16237" x2="85.6256" y2="26.0284" gradientUnits="userSpaceOnUse">
<stop stop-color="#0AA561"/>
<stop offset="0.5" stop-color="#009B58"/>
<stop offset="1" stop-color="#00914B"/>
</linearGradient>
<linearGradient id="paint4_linear_36_2348" x1="97.6503" y1="9.58406" x2="97.6503" y2="26.4577" gradientUnits="userSpaceOnUse">
<stop stop-color="#DE5644"/>
<stop offset="0.5" stop-color="#DA4531"/>
<stop offset="1" stop-color="#CE3A28"/>
</linearGradient>
<linearGradient id="paint5_linear_36_2348" x1="55.3214" y1="9.6208" x2="55.3214" y2="26.4708" gradientUnits="userSpaceOnUse">
<stop stop-color="#FFC01A"/>
<stop offset="0.5" stop-color="#FFBA03"/>
<stop offset="1" stop-color="#FFB300"/>
</linearGradient>
<clipPath id="clip0_36_2348">
<rect width="105.017" height="36" fill="white" transform="translate(0.0917969 0.750732)"/>
</clipPath>
</defs>
</svg>
