<svg width="88" height="41" viewBox="0 0 88 41" fill="none" xmlns="http://www.w3.org/2000/svg">
<g clip-path="url(#clip0_36_2336)">
<path fill-rule="evenodd" clip-rule="evenodd" d="M14.8555 6.75122C22.5875 6.75122 28.8555 13.0191 28.8555 20.751C28.8555 28.4829 22.5875 34.7508 14.8555 34.7508C14.5963 34.7508 14.339 34.7432 14.0833 34.7293L17.0279 26.4593H20.0894C20.9785 26.4593 21.914 25.7319 22.1683 24.8428L24.7533 17.5826C25.2782 16.1086 24.2963 15.2391 23.1696 15.2359L18.1256 15.2344L11.3355 34.3043C5.3074 32.7432 0.855469 27.2671 0.855469 20.751C0.855469 14.0984 5.49581 8.52964 11.7164 7.10479L4.98575 26.0079H7.88483L11.1449 16.852H12.8106L9.55741 25.9886H12.4565L15.4495 17.5826C15.9744 16.1086 14.9925 15.2391 13.8657 15.2359L11.7225 15.2298L14.7408 6.75267C14.7791 6.75236 14.8172 6.75122 14.8555 6.75122Z" fill="#015294"/>
<path fill-rule="evenodd" clip-rule="evenodd" d="M17.6035 24.8428L20.4487 16.8521H22.1144L19.2692 24.8428H17.6035Z" fill="#015294"/>
</g>
<path d="M44.7084 9.62298H45.7204V16.751H44.7084V13.55H40.7704V16.751H39.7584V9.62298H40.7704V12.692H44.7084V9.62298ZM48.537 15.893H52.035V16.751H47.525V9.62298H51.98V10.481H48.537V12.703H51.551L51.441 13.539H48.537V15.893ZM62.4192 9.62298V9.68898L60.4282 16.751H59.2182L58.0192 12.373C57.8579 11.7863 57.7222 11.174 57.6122 10.536C57.5609 10.8073 57.5022 11.1043 57.4362 11.427C57.3702 11.7496 57.2969 12.065 57.2162 12.373L56.0612 16.751H54.8512L52.8162 9.68898V9.62298H53.8392L55.0712 14.111C55.1959 14.5583 55.3316 15.1193 55.4782 15.794C55.5882 15.09 55.7019 14.529 55.8192 14.111L57.0622 9.62298H58.2502L59.5152 14.111C59.6032 14.4263 59.7279 14.991 59.8892 15.805C59.9332 15.541 59.9919 15.255 60.0652 14.947C60.1386 14.639 60.2082 14.3603 60.2742 14.111L61.4292 9.62298H62.4192ZM64.5751 15.871H68.0731V16.751H63.5631V9.62298H64.5751V15.871ZM70.1826 15.893H73.6806V16.751H69.1706V9.62298H73.6256V10.481H70.1826V12.703H73.1966L73.0866 13.539H70.1826V15.893ZM80.3687 9.62298V10.503H77.9047V16.751H76.8927V10.503H74.4177V9.62298H80.3687ZM86.7174 9.62298V10.503H84.2534V16.751H83.2414V10.503H80.7664V9.62298H86.7174Z" fill="#222222"/>
<path d="M42.1344 22.623C42.6991 22.623 43.1794 22.7146 43.5754 22.898C43.9714 23.074 44.2684 23.327 44.4664 23.657C44.6644 23.9796 44.7634 24.3573 44.7634 24.79C44.7634 25.2226 44.6608 25.615 44.4554 25.967C44.2574 26.319 43.9531 26.6013 43.5424 26.814C43.1391 27.0193 42.6404 27.122 42.0464 27.122H40.7704V29.751H39.7584V22.623H42.1344ZM41.9694 26.264C42.5488 26.264 42.9814 26.1393 43.2674 25.89C43.5608 25.6406 43.7074 25.2886 43.7074 24.834C43.7074 24.394 43.5718 24.0603 43.3004 23.833C43.0364 23.5983 42.6404 23.481 42.1124 23.481H40.7704V26.264H41.9694ZM48.4377 22.623L51.1217 29.685V29.751H50.0657L49.3177 27.716H46.2817L45.5447 29.751H44.5327V29.685L47.2057 22.623H48.4377ZM46.5897 26.88H49.0097L47.7997 23.58L46.5897 26.88ZM54.7576 29.883C54.0243 29.883 53.412 29.7326 52.9206 29.432C52.4293 29.1313 52.0626 28.706 51.8206 28.156C51.586 27.606 51.4686 26.957 51.4686 26.209C51.4686 25.3436 51.619 24.636 51.9196 24.086C52.2276 23.5286 52.6273 23.1253 53.1186 22.876C53.61 22.6193 54.149 22.491 54.7356 22.491C55.183 22.491 55.5936 22.546 55.9676 22.656C56.349 22.766 56.712 22.9273 57.0566 23.14L56.6166 23.91C56.0446 23.5506 55.4323 23.371 54.7796 23.371C54.017 23.371 53.4523 23.6203 53.0856 24.119C52.7263 24.6176 52.5466 25.296 52.5466 26.154C52.5466 27.0413 52.7373 27.738 53.1186 28.244C53.5 28.75 54.061 29.003 54.8016 29.003C55.1756 29.003 55.513 28.9553 55.8136 28.86C56.1143 28.7646 56.415 28.629 56.7156 28.453L57.1226 29.19C56.734 29.4173 56.3526 29.5896 55.9786 29.707C55.612 29.8243 55.205 29.883 54.7576 29.883ZM60.3813 26.044L63.6813 29.685V29.751H62.4603L59.1933 26.11V29.751H58.1813V22.623H59.1933V26.022L62.3943 22.623H63.5493V22.689L60.3813 26.044ZM67.8811 22.623L70.5651 29.685V29.751H69.5091L68.7611 27.716H65.7251L64.9881 29.751H63.9761V29.685L66.6491 22.623H67.8811ZM66.0331 26.88H68.4531L67.2431 23.58L66.0331 26.88ZM76.943 29.685V29.751H75.777L73.72 26.968H72.664V29.751H71.652V22.623H73.973C74.5303 22.623 74.9997 22.711 75.381 22.887C75.7697 23.063 76.0593 23.3086 76.25 23.624C76.448 23.9393 76.547 24.306 76.547 24.724C76.547 25.0613 76.481 25.373 76.349 25.659C76.2243 25.945 76.0337 26.1943 75.777 26.407C75.5203 26.6123 75.2013 26.7626 74.82 26.858L76.943 29.685ZM72.664 26.132H73.819C74.369 26.132 74.7833 26.0146 75.062 25.78C75.348 25.538 75.491 25.2006 75.491 24.768C75.491 24.35 75.359 24.031 75.095 23.811C74.8383 23.591 74.457 23.481 73.951 23.481H72.664V26.132ZM80.1886 22.623C81.3986 22.623 82.3226 22.9053 82.9606 23.47C83.6059 24.0346 83.9286 24.9403 83.9286 26.187C83.9286 26.9863 83.7636 27.6536 83.4336 28.189C83.1109 28.717 82.6563 29.1093 82.0696 29.366C81.4829 29.6226 80.7936 29.751 80.0016 29.751H78.0436V22.623H80.1886ZM79.8806 28.893C80.5259 28.893 81.0649 28.816 81.4976 28.662C81.9303 28.508 82.2676 28.233 82.5096 27.837C82.7516 27.441 82.8726 26.891 82.8726 26.187C82.8726 25.2556 82.6563 24.5736 82.2236 24.141C81.7909 23.701 81.1199 23.481 80.2106 23.481H79.0556V28.893H79.8806Z" fill="#222222"/>
<defs>
<clipPath id="clip0_36_2336">
<rect width="28.0001" height="39.5994" fill="white" transform="translate(0.856445 0.951172)"/>
</clipPath>
</defs>
</svg>
