<svg width="138" height="31" viewBox="0 0 138 31" fill="none" xmlns="http://www.w3.org/2000/svg">
<path d="M75.2223 10.6468H78.2906V19.1819C78.2906 23.5142 75.9029 25.9991 71.7434 25.9991C67.6272 25.9991 65.2611 23.5575 65.2611 19.3007V10.6576H68.3294V19.2035C68.3294 21.7316 69.5719 23.0821 71.7867 23.0821C74.0015 23.0821 75.2223 21.764 75.2223 19.3115V10.6468ZM57.9361 16.7402H50.9999V10.6468H47.9316V25.7723H50.9999V19.6248H57.9252V25.7723H60.9936V10.6468H57.9252V16.7402H57.9361ZM134.773 10.6468V25.7506H137.798V10.6468H134.773ZM122.727 19.2575H128.313V16.5025H122.727V13.4018H130.83V10.6576H119.702V25.7614H131.122V23.0065H122.727V19.2575ZM110.692 21.0401L107.256 10.636H104.749L101.314 21.0401L97.9753 10.6468H94.7125L99.9848 25.7614H102.524L105.959 15.8327L109.395 25.7614H111.956L117.217 10.6468H114.03L110.692 21.0401ZM89.2566 10.7332L95.8577 25.7614H92.6382L91.2769 22.6175H84.3516L84.2544 22.8336L82.9795 25.7614H79.8464L86.5124 10.6468H89.1917L89.2566 10.7332ZM89.9912 19.5276L87.8088 14.4606L85.6372 19.5276L85.486 19.8733H90.1317L89.9912 19.5276Z" fill="#24272A"/>
<path d="M17.7233 24.1624C17.7666 24.1299 17.7774 24.0651 17.7558 24.0111C14.7767 17.608 11.0602 11.5746 6.68175 6.03341C6.68175 6.03341 3.2029 9.33941 3.45139 12.6562C3.50959 13.4209 3.71799 14.1666 4.06466 14.8507C4.41133 15.5347 4.88946 16.1437 5.47172 16.6428C8.50761 19.6031 15.8543 23.3413 17.5613 24.1948C17.6153 24.2164 17.6801 24.2056 17.7233 24.1624ZM16.5889 26.6905C16.5673 26.6257 16.5025 26.5824 16.4269 26.5824L4.19686 27.0038C5.52574 29.3698 7.76214 31.2065 10.085 30.6447C11.6948 30.245 15.3249 27.706 16.5241 26.8417C16.6213 26.7661 16.5889 26.7013 16.5889 26.6905ZM16.7726 25.5993C16.8374 25.502 16.7294 25.4156 16.7294 25.4156C11.3598 21.7855 0.944882 16.2107 0.944882 16.2107C0.599674 17.2688 0.503105 18.3922 0.662678 19.4937C0.822251 20.5952 1.23367 21.645 1.86496 22.5616C2.49625 23.4783 3.3304 24.237 4.30259 24.7788C5.27477 25.3206 6.35881 25.631 7.47044 25.6857C7.6541 25.7181 14.7415 25.6857 16.6429 25.6749C16.697 25.6641 16.7402 25.6425 16.7726 25.5993ZM17.5829 0.750306C17.0535 0.793521 15.6166 1.12844 15.6166 1.12844C12.3754 1.96034 11.6083 4.90981 11.6083 4.90981C11.0141 6.75727 11.6191 8.79921 11.6191 8.79921C12.6995 13.5961 18.015 21.4938 19.1603 23.1468C19.2359 23.2332 19.3007 23.2008 19.3007 23.2008C19.3655 23.1792 19.4195 23.1252 19.4195 23.0496C21.1914 5.41759 17.5829 0.750306 17.5829 0.750306ZM21.6343 23.1792C21.6992 23.2008 21.7748 23.1792 21.8072 23.1144C22.9848 21.4182 28.2679 13.5637 29.3483 8.78841C29.3483 8.78841 29.9317 6.47637 29.3699 4.899C29.3699 4.899 28.5705 1.90632 25.3293 1.11764C25.3293 1.11764 24.4001 0.879953 23.4062 0.739502C23.4062 0.739502 19.7761 5.40679 21.5479 23.0388C21.5371 23.1036 21.5803 23.1576 21.6343 23.1792ZM24.5298 26.5932C24.501 26.599 24.4737 26.6107 24.4496 26.6274C24.4254 26.6441 24.4049 26.6656 24.3893 26.6905C24.3785 26.7553 24.3893 26.8093 24.4326 26.8525C25.5994 27.6952 29.1539 30.1801 30.8609 30.6555C30.8609 30.6555 34.0264 31.7359 36.7706 27.0146L24.5298 26.5932ZM40.0334 16.1891C40.0334 16.1891 29.64 21.7747 24.2597 25.4048C24.2057 25.448 24.1733 25.5128 24.1949 25.5777C24.1949 25.5777 24.2489 25.6749 24.3245 25.6749C26.2476 25.6749 33.5294 25.6857 33.7239 25.6533C34.4478 25.5993 35.1608 25.4372 35.8307 25.1671C35.8307 25.1671 38.4236 24.346 39.7633 21.3966C39.7633 21.3966 40.9625 18.9981 40.0334 16.1891ZM23.2765 24.1624C23.3198 24.1948 23.3846 24.2056 23.4386 24.1732C25.1888 23.298 32.4815 19.5923 35.4958 16.6428C35.4958 16.6428 37.408 15.1087 37.5053 12.6346C37.7214 9.20976 34.2749 6.03341 34.2749 6.03341C34.2749 6.03341 27.9006 13.7582 23.2225 23.9679C23.215 24.0023 23.216 24.0379 23.2254 24.0718C23.2348 24.1057 23.2524 24.1368 23.2765 24.1624Z" fill="#CE0E2D"/>
</svg>
