<svg width="61" height="25" viewBox="0 0 61 25" fill="none" xmlns="http://www.w3.org/2000/svg">
<path d="M0.621094 0.750732V2.39275H12.3V0.750732H0.621094ZM13.9546 0.750732V2.39275H30.5976C30.5976 2.39275 28.8976 0.750732 26.6461 0.750732H13.9546ZM33.8624 0.750732V2.39275H43.9312L43.3336 0.750732H33.8624ZM51.1499 0.750732L50.5523 2.39275H60.5296V0.750732H51.1499ZM0.621094 3.94405V5.58607H12.3V3.94405H0.621094ZM13.9546 3.94639V5.58613H32.5288C32.5288 5.58613 32.3119 4.32235 31.9335 3.94639H13.9546ZM33.8624 3.94639V5.58613H45.0351L44.482 3.94639H33.8624ZM49.9546 3.94639L49.4015 5.58613H60.5296V3.94639H49.9546ZM3.97731 7.13737V8.78173H9.03513V7.13737H3.97731ZM17.3109 7.13737V8.78173H22.3687V7.13737H17.3109ZM27.2882 7.13737V8.78173H32.3461C32.3461 8.78173 32.6672 7.91335 32.6672 7.13737H27.2882ZM37.2187 7.13737V8.78173H46.1859L45.5882 7.13737H37.2187ZM48.8531 7.13737L48.2531 8.78173H57.2648V7.13737H48.8531ZM3.97731 10.3331V11.9751H9.03513V10.3331H3.97731ZM17.3109 10.3331V11.9751H30.2296C30.2296 11.9751 31.3103 11.1326 31.6546 10.3331H17.3109ZM37.2187 10.3331V11.9751H42.2765V11.0611L42.5977 11.9751H51.8625L52.207 11.0611V11.9751H57.2648V10.3331H47.7703L47.2664 11.7239L46.7601 10.3331H37.2187ZM3.97731 13.5264V15.1684H9.03513V13.5264H3.97731ZM17.3109 13.5264V15.1684H31.6546C31.3103 14.3716 30.2296 13.5264 30.2296 13.5264H17.3109ZM37.2187 13.5264V15.1684H42.2765V13.5264H37.2187ZM43.1953 13.5264L43.807 15.1684H50.7538L51.3351 13.5264H43.1953ZM52.2069 13.5264V15.1684H57.2648V13.5264H52.2069ZM3.97731 16.7197V18.3617H9.03513V16.7197H3.97731ZM17.3109 16.7197V18.3617H22.3687V16.7197H17.3109ZM27.2882 16.7197V18.3617H32.6671C32.6671 17.5868 32.346 16.7197 32.346 16.7197H27.2882ZM37.2187 16.7197V18.3617H42.2765V16.7197H37.2187ZM44.3437 16.7197L44.9367 18.3617H49.5937L50.1914 16.7197H44.3437ZM52.2069 16.7197V18.3617H57.2648V16.7197H52.2069ZM0.712474 19.913V21.5574H12.3913V19.913H0.712474ZM13.9546 19.913V21.5574H31.9335C32.3119 21.1809 32.5288 19.913 32.5288 19.913H13.9546ZM33.9539 19.913V21.5574H42.2765V19.913H33.9539ZM45.4945 19.913L46.1038 21.5574H48.4733L49.0452 19.913H45.4945ZM52.2069 19.913V21.5574H60.621V19.913H52.2069ZM0.712474 23.1087V24.7507H12.3913V23.1087H0.712474ZM13.9546 23.1087V24.7484H26.6461C28.8976 24.7484 30.5976 23.1087 30.5976 23.1087H13.9546ZM33.9539 23.1087V24.7507H42.2765V23.1087H33.9539ZM46.6499 23.1087L47.2359 24.7461L47.3367 24.7484L47.932 23.1087H46.6499ZM52.2069 23.1087V24.7507H60.621V23.1087H52.2069Z" fill="#1F70C1"/>
</svg>
