<svg width="100" height="98" viewBox="0 0 100 98" fill="none" xmlns="http://www.w3.org/2000/svg">
<g clip-path="url(#clip0_768_11472)">
<path d="M4.16797 4.41699H95.8347V93.5838H4.16797V4.41699Z" fill="url(#paint0_radial_768_11472)"/>
<path d="M4.16661 4.41661H95.8334V93.5834H4.16661V4.41661ZM0 97.7502H100V0.25H0V97.7502ZM65.4999 35C65.4999 34.6667 65.6249 34.4999 66 34.4999H72.5417C72.8748 34.4999 73.0416 34.6249 73.0416 35V67.8751C73.0416 68.2083 72.9583 68.3751 72.5417 68.3751H66.0834C65.6667 68.3751 65.5416 68.1668 65.5416 67.8335V35H65.4999ZM65.0417 25.5416C65.0417 22.875 66.9166 21.2917 69.2918 21.2917C71.8334 21.2917 73.5417 23 73.5417 25.5416C73.5417 28.2916 71.7501 29.7916 69.2084 29.7916C66.7916 29.7917 65.0417 28.2916 65.0417 25.5416ZM46.2917 48.7084C45.1251 44.0833 42.3752 34 41.3333 29.125H41.25C40.3749 34 38.1667 42.2499 36.4168 48.7084H46.2917ZM34.7084 55.4585L31.4166 67.9585C31.3333 68.2916 31.2083 68.3749 30.7917 68.3749H24.6667C24.2501 68.3749 24.1666 68.2499 24.2501 67.75L36.0834 26.3332C36.2917 25.5833 36.4166 24.9165 36.5 22.875C36.5 22.5834 36.6249 22.4584 36.8333 22.4584H45.5833C45.8749 22.4584 45.9999 22.5417 46.0834 22.875L59.3333 67.8333C59.4166 68.1664 59.3333 68.3749 59 68.3749H52.0832C51.7499 68.3749 51.5415 68.2916 51.4583 68.0001L48.0416 55.4585H34.7084Z" fill="#FF7F18"/>
</g>
<defs>
<radialGradient id="paint0_radial_768_11472" cx="0" cy="0" r="1" gradientUnits="userSpaceOnUse" gradientTransform="translate(34.3585 24.3993) scale(69.6667 67.45)">
<stop stop-color="#423325" stop-opacity="0.98"/>
<stop offset="1" stop-color="#1C0A00"/>
</radialGradient>
<clipPath id="clip0_768_11472">
<rect width="100" height="97.52" fill="white" transform="translate(0 0.240234)"/>
</clipPath>
</defs>
</svg>
