<svg width="100" height="100" viewBox="0 0 100 100" fill="none" xmlns="http://www.w3.org/2000/svg">
<g clip-path="url(#clip0_768_11459)">
<path d="M90.9348 0H9.06524C4.05859 0 0 4.05859 0 9.06524V90.9348C0 95.9414 4.05859 100 9.06524 100H90.9348C95.9414 100 100 95.9414 100 90.9348V9.06524C100 4.05859 95.9414 0 90.9348 0Z" fill="#DC395F"/>
<path d="M33.4199 31.4627C36.7441 31.4627 39.5289 28.8572 39.5289 25.4424C39.5289 22.0299 36.7441 19.4248 33.4199 19.4248C30.0957 19.4248 27.3117 22.0299 27.3117 25.4424C27.3117 28.8568 30.0957 31.4627 33.4199 31.4627ZM20.7535 63.6971C20.3945 65.2244 20.2145 66.8736 20.2145 68.2189C20.2145 73.5201 23.0891 77.0393 29.198 77.0393C34.2645 77.0393 38.3719 74.0307 41.3293 69.1725L39.5234 76.4197H49.584L55.334 53.3576C56.7715 47.5186 59.5562 44.4877 63.7789 44.4877C67.1027 44.4877 69.1687 46.5549 69.1687 49.9674C69.1687 50.9561 69.0789 52.033 68.7195 53.2014L65.7547 63.8018C65.3055 65.3291 65.1266 66.8572 65.1266 68.2936C65.1266 73.326 68.0902 77.0068 74.2891 77.0068C79.5894 77.0068 83.8113 73.5947 86.1473 65.4193L82.1949 63.8936C80.2184 69.3705 78.5113 70.3607 77.1637 70.3607C75.816 70.3607 75.0973 69.4631 75.0973 67.6674C75.0973 66.8588 75.2777 65.9615 75.5465 64.8811L78.4219 54.5537C79.1402 52.1287 79.4101 49.9783 79.4101 48.0025C79.4101 40.2768 74.7383 36.2447 69.0789 36.2447C63.7789 36.2447 58.3883 41.0256 55.6937 46.0572L57.6695 37.026H42.3086L40.1523 44.9807H47.3395L42.9137 62.6994C39.4383 70.4252 33.0543 70.5506 32.2531 70.3713C30.9375 70.0744 30.0961 69.5748 30.0961 67.8654C30.0961 66.8791 30.2758 65.4623 30.725 63.7541L37.4633 37.026H20.3945L18.2383 44.9807H25.3348L20.7535 63.6971Z" fill="white"/>
</g>
<defs>
<clipPath id="clip0_768_11459">
<rect width="100" height="100" fill="white"/>
</clipPath>
</defs>
</svg>
