<svg width="25" height="24" viewBox="0 0 25 24" fill="none" xmlns="http://www.w3.org/2000/svg">
<path fill-rule="evenodd" clip-rule="evenodd" d="M22.062 1.98002C21.8094 1.98002 21.6045 2.18485 21.6045 2.43752C21.6045 2.69019 21.8094 2.89502 22.062 2.89502C22.3147 2.89502 22.5195 2.69019 22.5195 2.43752C22.5195 2.18485 22.3147 1.98002 22.062 1.98002ZM20.6445 2.43752C20.6445 1.65466 21.2792 1.02002 22.062 1.02002C22.8449 1.02002 23.4795 1.65466 23.4795 2.43752C23.4795 3.22038 22.8449 3.85502 22.062 3.85502C21.2792 3.85502 20.6445 3.22038 20.6445 2.43752Z" fill="#54BD95"/>
<path fill-rule="evenodd" clip-rule="evenodd" d="M9.40419 2.15914C9.59164 2.3466 9.59164 2.65051 9.40419 2.83797L8.02644 4.21572C7.83899 4.40317 7.53507 4.40317 7.34762 4.21572C7.16017 4.02826 7.16017 3.72434 7.34762 3.53689L8.72537 2.15914C8.91282 1.97169 9.21674 1.97169 9.40419 2.15914Z" fill="#54BD95"/>
<path fill-rule="evenodd" clip-rule="evenodd" d="M7.34762 2.15914C7.53507 1.97169 7.83899 1.97169 8.02644 2.15914L9.40419 3.53689C9.59164 3.72434 9.59164 4.02826 9.40419 4.21572C9.21674 4.40317 8.91282 4.40317 8.72537 4.21572L7.34762 2.83797C7.16017 2.65051 7.16017 2.3466 7.34762 2.15914Z" fill="#54BD95"/>
<path d="M6.875 5.625C7.08211 5.625 7.25 5.45711 7.25 5.25C7.25 5.04289 7.08211 4.875 6.875 4.875C6.66789 4.875 6.5 5.04289 6.5 5.25C6.5 5.45711 6.66789 5.625 6.875 5.625Z" fill="#54BD95"/>
<path fill-rule="evenodd" clip-rule="evenodd" d="M21.305 12.2788C21.5652 12.3291 21.7355 12.5809 21.6851 12.8412C20.9929 16.4232 19.1126 19.4349 16.5743 21.0237C16.6685 21.1113 16.7274 21.2363 16.7274 21.3751V22.5001C16.7274 22.7652 16.5125 22.9801 16.2474 22.9801H8.74737C8.48227 22.9801 8.26737 22.7652 8.26737 22.5001V21.3751C8.26737 21.2363 8.32625 21.1113 8.42039 21.0237C5.8819 19.4349 4.00094 16.4233 3.30957 12.8411C3.25933 12.5808 3.42962 12.329 3.68991 12.2788C3.9502 12.2286 4.20194 12.3989 4.25217 12.6591C5.04514 16.7678 7.45627 19.9114 10.4144 20.9208C10.6366 20.9966 10.7713 21.2221 10.7329 21.4537C10.6945 21.6853 10.4941 21.8551 10.2594 21.8551H9.22737V22.0201H15.7674V21.8551H14.7354C14.5006 21.8551 14.3003 21.6853 14.2618 21.4537C14.2234 21.2221 14.3582 20.9966 14.5804 20.9208C17.5384 19.9115 19.9485 16.7678 20.7426 12.659C20.7929 12.3987 21.0447 12.2285 21.305 12.2788Z" fill="#54BD95"/>
<path fill-rule="evenodd" clip-rule="evenodd" d="M10.2177 7.10038C10.2337 7.36499 10.0322 7.59251 9.76763 7.60855C9.33505 7.63478 8.92713 7.8188 8.62117 8.12573C8.31522 8.43266 8.13251 8.84117 8.10766 9.27382C8.09246 9.53849 7.86559 9.74071 7.60093 9.72552C7.33627 9.71032 7.13404 9.48345 7.14924 9.21878C7.18756 8.55146 7.46938 7.92139 7.94127 7.44799C8.41316 6.97459 9.04233 6.69076 9.70953 6.65031C9.97414 6.63427 10.2017 6.83577 10.2177 7.10038Z" fill="#54BD95"/>
<path fill-rule="evenodd" clip-rule="evenodd" d="M12.5178 4.02437C13.0724 3.99583 13.6252 4.10801 14.1247 4.35049C14.6243 4.59297 15.0544 4.95787 15.3751 5.41124C15.6958 5.8646 15.8966 6.39171 15.9588 6.94352C15.9885 7.20694 15.799 7.44458 15.5356 7.47429C15.2722 7.504 15.0345 7.31454 15.0048 7.05111C14.9607 6.66019 14.8185 6.28677 14.5913 5.9656C14.3642 5.64442 14.0594 5.38592 13.7055 5.21414C13.3516 5.04236 12.96 4.96288 12.5671 4.9831C12.1743 5.00332 11.7929 5.12259 11.4585 5.32979C11.1241 5.537 10.8475 5.82542 10.6545 6.16823C10.4615 6.51103 10.3584 6.89708 10.3546 7.29045C10.3509 7.68383 10.4467 8.07177 10.6332 8.41816C10.8197 8.76455 11.0908 9.05815 11.4212 9.27165C11.6438 9.41552 11.7077 9.71265 11.5639 9.93531C11.42 10.158 11.1229 10.2218 10.9002 10.078C10.4338 9.77661 10.0512 9.36217 9.78793 8.87321C9.5247 8.38425 9.38943 7.83666 9.39468 7.28137C9.39993 6.72609 9.54555 6.18115 9.81797 5.69726C10.0904 5.21337 10.4808 4.80624 10.9528 4.51375C11.4249 4.22126 11.9632 4.05292 12.5178 4.02437Z" fill="#54BD95"/>
<path fill-rule="evenodd" clip-rule="evenodd" d="M13.5691 7.44462C14.0811 6.93264 14.7755 6.64502 15.4995 6.64502C16.2236 6.64502 16.918 6.93264 17.4299 7.44462C17.9419 7.95659 18.2295 8.65098 18.2295 9.37502C18.2295 9.64012 18.0146 9.85502 17.7495 9.85502C17.4844 9.85502 17.2695 9.64012 17.2695 9.37502C17.2695 8.90559 17.083 8.45538 16.7511 8.12344C16.4192 7.7915 15.969 7.60502 15.4995 7.60502C15.0301 7.60502 14.5799 7.7915 14.248 8.12344C13.916 8.45538 13.7295 8.90559 13.7295 9.37502C13.7295 9.64012 13.5146 9.85502 13.2495 9.85502C12.9844 9.85502 12.7695 9.64012 12.7695 9.37502C12.7695 8.65098 13.0572 7.95659 13.5691 7.44462Z" fill="#54BD95"/>
<path fill-rule="evenodd" clip-rule="evenodd" d="M5.73554 9.64901C6.24356 9.16321 6.91938 8.89209 7.62229 8.89209C8.3252 8.89209 9.00102 9.16321 9.50904 9.64901C10.0171 10.1348 10.3181 10.7978 10.3496 11.5C10.3614 11.7649 10.1563 11.9892 9.8915 12.001C9.62667 12.0129 9.40237 11.8078 9.39052 11.543C9.37014 11.0877 9.17495 10.6578 8.84557 10.3428C8.51619 10.0279 8.07802 9.85209 7.62229 9.85209C7.16656 9.85209 6.72839 10.0279 6.39901 10.3428C6.06963 10.6578 5.87444 11.0877 5.85406 11.543C5.84221 11.8078 5.61791 12.0129 5.35308 12.001C5.08825 11.9892 4.88317 11.7649 4.89502 11.5C4.92645 10.7978 5.22752 10.1348 5.73554 9.64901Z" fill="#54BD95"/>
<path fill-rule="evenodd" clip-rule="evenodd" d="M10.6105 9.64998C11.1186 9.16419 11.7944 8.89307 12.4973 8.89307C13.2002 8.89307 13.876 9.16419 14.384 9.64998C14.8921 10.1358 15.1931 10.7988 15.2246 11.501C15.2364 11.7658 15.0313 11.9901 14.7665 12.002C14.5017 12.0138 14.2774 11.8088 14.2655 11.5439C14.2451 11.0887 14.0499 10.6588 13.7206 10.3438C13.3912 10.0288 12.953 9.85307 12.4973 9.85307C12.0416 9.85307 11.6034 10.0288 11.274 10.3438C10.9446 10.6588 10.7494 11.0887 10.7291 11.5439C10.7172 11.8088 10.4929 12.0138 10.2281 12.002C9.96325 11.9901 9.75817 11.7658 9.77002 11.501C9.80145 10.7988 10.1025 10.1358 10.6105 9.64998Z" fill="#54BD95"/>
<path fill-rule="evenodd" clip-rule="evenodd" d="M17.3647 8.89405C18.0659 8.89212 18.7411 9.16012 19.2501 9.64248C19.7591 10.1248 20.0629 10.7846 20.0987 11.4849C20.1122 11.7497 19.9085 11.9752 19.6438 11.9888C19.379 12.0023 19.1534 11.7986 19.1399 11.5338C19.1167 11.0798 18.9197 10.652 18.5897 10.3393C18.2597 10.0266 17.822 9.8528 17.3673 9.85405C16.9127 9.8553 16.4759 10.0315 16.1477 10.346C15.8194 10.6606 15.6247 11.0894 15.604 11.5436C15.592 11.8084 15.3675 12.0133 15.1027 12.0013C14.8379 11.9892 14.633 11.7648 14.645 11.4999C14.6769 10.7994 14.9771 10.138 15.4835 9.65285C15.9898 9.16769 16.6634 8.89598 17.3647 8.89405Z" fill="#54BD95"/>
<path fill-rule="evenodd" clip-rule="evenodd" d="M12.5076 13.9614C12.653 13.9614 12.7906 14.0274 12.8817 14.1407L13.3332 14.7024L14.0495 14.6246C14.1941 14.6089 14.338 14.6596 14.4408 14.7625C14.5436 14.8653 14.5942 15.0092 14.5785 15.1538L14.5005 15.87L15.062 16.3214C15.1754 16.4125 15.2413 16.5501 15.2413 16.6956C15.2413 16.841 15.1754 16.9786 15.062 17.0697L14.5005 17.5211L14.5785 18.2373C14.5942 18.3819 14.5436 18.5259 14.4407 18.6287C14.3379 18.7316 14.1939 18.7822 14.0493 18.7665L13.3331 18.6885L12.8817 19.25C12.7906 19.3634 12.653 19.4293 12.5076 19.4293C12.3621 19.4293 12.2246 19.3634 12.1334 19.25L11.682 18.6885L10.9658 18.7665C10.8212 18.7822 10.6773 18.7316 10.5745 18.6288C10.4716 18.526 10.4209 18.3821 10.4366 18.2375L10.5144 17.5211L9.95271 17.0697C9.83937 16.9786 9.77344 16.841 9.77344 16.6956C9.77344 16.5501 9.83937 16.4125 9.95271 16.3214L10.5144 15.87L10.4366 15.1536C10.4209 15.0091 10.4716 14.8652 10.5744 14.7624C10.6772 14.6596 10.8211 14.6089 10.9656 14.6246L11.682 14.7024L12.1334 14.1407C12.2246 14.0274 12.3621 13.9614 12.5076 13.9614ZM12.5076 15.2076L12.2656 15.5086C12.163 15.6363 12.0024 15.7028 11.8396 15.6851L11.4554 15.6434L11.4971 16.0276C11.5148 16.1904 11.4483 16.351 11.3207 16.4535L11.0196 16.6956L11.3207 16.9376C11.4483 17.0401 11.5148 17.2007 11.4971 17.3635L11.4555 17.7475L11.8395 17.7056C12.0023 17.6879 12.1629 17.7544 12.2656 17.8821L12.5076 18.1831L12.7496 17.8821C12.8522 17.7544 13.0128 17.6879 13.1757 17.7056L13.5594 17.7474L13.5176 17.3637C13.4999 17.2008 13.5664 17.0402 13.6941 16.9376L13.9952 16.6956L13.6941 16.4535C13.5664 16.3509 13.4999 16.1903 13.5176 16.0274L13.5595 15.6434L13.1755 15.6851C13.0127 15.7028 12.8522 15.6363 12.7496 15.5087L12.5076 15.2076Z" fill="#54BD95"/>
<path fill-rule="evenodd" clip-rule="evenodd" d="M3.68703 12.105C3.66515 12.105 3.64417 12.1137 3.62869 12.1292C3.61322 12.1447 3.60453 12.1656 3.60453 12.1875C3.60453 12.2094 3.61322 12.2304 3.62869 12.2459C3.64417 12.2613 3.66515 12.27 3.68703 12.27H6.04203C6.30713 12.27 6.52203 12.4849 6.52203 12.75C6.52203 13.0151 6.30713 13.23 6.04203 13.23H3.68703C3.41054 13.23 3.14538 13.1202 2.94987 12.9247C2.75437 12.7292 2.64453 12.464 2.64453 12.1875C2.64453 11.911 2.75437 11.6459 2.94987 11.4504C3.14538 11.2549 3.41054 11.145 3.68703 11.145H21.312C21.5885 11.145 21.8537 11.2549 22.0492 11.4504C22.2447 11.6459 22.3545 11.911 22.3545 12.1875C22.3545 12.464 22.2447 12.7292 22.0492 12.9247C21.8537 13.1202 21.5885 13.23 21.312 13.23H8.74953C8.48443 13.23 8.26953 13.0151 8.26953 12.75C8.26953 12.4849 8.48443 12.27 8.74953 12.27H21.312C21.3339 12.27 21.3549 12.2613 21.3704 12.2459C21.3858 12.2304 21.3945 12.2094 21.3945 12.1875C21.3945 12.1656 21.3858 12.1447 21.3704 12.1292C21.3549 12.1137 21.3339 12.105 21.312 12.105H3.68703Z" fill="#54BD95"/>
<path fill-rule="evenodd" clip-rule="evenodd" d="M9.76953 21.375C9.76953 21.1099 9.98443 20.895 10.2495 20.895H12.1245C12.3896 20.895 12.6045 21.1099 12.6045 21.375C12.6045 21.6401 12.3896 21.855 12.1245 21.855H10.2495C9.98443 21.855 9.76953 21.6401 9.76953 21.375Z" fill="#54BD95"/>
<path fill-rule="evenodd" clip-rule="evenodd" d="M19.2804 20.4831C19.8045 20.003 20.4953 19.7462 21.2058 19.7673C21.9163 19.7885 22.5905 20.0859 23.0852 20.5964C23.5798 21.1069 23.8558 21.7902 23.8545 22.5011C23.854 22.7658 23.6393 22.9802 23.3745 22.9802H2.37453C2.10943 22.9802 1.89453 22.7653 1.89453 22.5002C1.89453 22.2351 2.10943 22.0202 2.37453 22.0202H18.4363C18.5405 21.4319 18.8355 20.8907 19.2804 20.4831ZM19.4197 22.0202H22.8294C22.7507 21.7385 22.6028 21.4781 22.3957 21.2645C22.075 20.9335 21.6379 20.7406 21.1772 20.7269C20.7165 20.7132 20.2687 20.8797 19.9289 21.191C19.6832 21.4161 19.508 21.7041 19.4197 22.0202Z" fill="#54BD95"/>
</svg>
