<svg width="17" height="24" viewBox="0 0 17 24" fill="none" xmlns="http://www.w3.org/2000/svg">
<mask id="path-1-inside-1_1017_5712" fill="white">
<path d="M1.45747 1.30636C1.30782 1.0438 1.3994 0.7096 1.66196 0.559953C2.2434 0.228675 2.7512 0.160206 3.17102 0.356249C3.66769 0.588289 3.89535 1.1015 4.04129 1.68787C4.82139 1.28429 5.68162 1.04398 6.56649 0.986029C7.52725 0.923094 8.46441 1.07073 9.35262 1.42469C9.63336 1.53664 9.77024 1.8549 9.65836 2.13565C9.54641 2.4164 9.22815 2.5534 8.94734 2.44139C8.21163 2.14812 7.4347 2.02595 6.63806 2.07813C5.79631 2.13328 4.98179 2.38715 4.26403 2.8159C4.33852 3.1923 4.4321 3.56486 4.56703 3.72035C4.76514 3.94862 4.74076 4.29425 4.51255 4.49236C4.40899 4.58229 4.28117 4.62637 4.15403 4.62637C4.00091 4.62637 3.84871 4.56253 3.74054 4.43787C3.36438 4.00456 3.23985 3.31501 3.11939 2.64813C3.04302 2.22522 2.90085 1.43801 2.70773 1.34777C2.66632 1.32825 2.50767 1.33762 2.20388 1.51073C1.94143 1.66069 1.60712 1.56893 1.45747 1.30636ZM7.95727 4.35901C8.16949 4.35901 8.37143 4.23484 8.46039 4.02755C8.57964 3.74984 8.45115 3.42799 8.17338 3.30874C7.53637 3.03535 6.84347 2.97309 6.16948 3.12888C5.87499 3.19692 5.69148 3.49086 5.75958 3.78535C5.82768 4.07984 6.12175 4.2636 6.41605 4.19525C6.86159 4.09218 7.31995 4.13347 7.74165 4.31456C7.81201 4.34478 7.88522 4.35901 7.95727 4.35901ZM9.05314 5.71951L9.19495 7.30986C9.19543 7.31722 9.1961 7.32451 9.19689 7.33175L9.26463 8.09117C9.28999 8.37569 9.52884 8.58985 9.8091 8.58985C9.82539 8.58985 9.84181 8.58906 9.85835 8.58766C10.1594 8.56084 10.3817 8.295 10.3548 7.99388L10.3392 7.81881H10.9638C11.266 7.81881 11.511 7.57382 11.511 7.27155C11.511 6.96928 11.266 6.72428 10.9638 6.72428H10.2416L10.1434 5.62221C10.1035 5.17498 10.3206 4.83464 10.5098 4.62783C10.8811 4.22189 11.4545 3.97957 12.0436 3.97957H13.4195C14.0086 3.97957 14.5819 4.22188 14.9533 4.62777C15.1154 4.80497 15.298 5.08036 15.3218 5.43718H14.6139C14.3116 5.43718 14.0666 5.68217 14.0666 5.98444C14.0666 6.28672 14.3116 6.53171 14.6139 6.53171H15.2386L15.1082 7.99394C15.0814 8.29493 15.3036 8.56078 15.6047 8.58766C15.9059 8.6135 16.1716 8.39223 16.1984 8.09111L16.4098 5.71938C16.4685 5.06066 16.238 4.41069 15.7608 3.88897C15.1857 3.26034 14.3104 2.88504 13.4195 2.88504H13.4006C13.633 2.07387 14.1037 1.39709 14.7217 1.01175C14.9782 0.851828 15.0565 0.514226 14.8965 0.257863C14.7367 0.00125638 14.3991 -0.0770025 14.1426 0.083042C13.5613 0.445514 13.0773 0.985847 12.7316 1.63521C12.3857 0.985786 11.9018 0.445514 11.3205 0.083042C11.0639 -0.0768809 10.7264 0.00137797 10.5665 0.257863C10.4066 0.514287 10.4848 0.851888 10.7413 1.01175C11.3593 1.39709 11.8301 2.07387 12.0624 2.88504H12.0436C11.1526 2.88504 10.2774 3.2604 9.7022 3.88909C9.22498 4.41075 8.99446 5.06078 9.05314 5.71951ZM6.36066 5.3017C6.1063 5.13837 5.76779 5.21225 5.60446 5.46673C5.44125 5.72109 5.51514 6.0596 5.76949 6.22287C6.1558 6.47078 6.44676 6.82729 6.611 7.25391C6.69467 7.4713 6.90203 7.60477 7.12184 7.60477C7.18721 7.60477 7.25367 7.59298 7.31831 7.56805C7.6004 7.45944 7.74104 7.14276 7.63244 6.86067C7.38398 6.21527 6.94423 5.67615 6.36066 5.3017ZM1.1417 8.30497C1.15374 8.30497 1.16584 8.3046 1.178 8.30375C1.4796 8.28405 1.70806 8.02355 1.68829 7.72195C1.61399 6.58686 1.89668 5.48163 2.50585 4.52574C2.66826 4.2709 2.59335 3.93256 2.33844 3.77009C2.08366 3.60773 1.74533 3.68265 1.58279 3.93749C0.847633 5.09106 0.506383 6.42438 0.596074 7.7934C0.615106 8.0829 0.855721 8.30497 1.1417 8.30497ZM16.4109 9.6665V23.4528C16.4109 23.7551 16.1659 24.0001 15.8637 24.0001H1.1375C0.835229 24.0001 0.590237 23.7551 0.590237 23.4528V9.6665C0.590237 9.36423 0.835229 9.11924 1.1375 9.11924H1.30624C1.49857 9.11924 1.67674 9.22018 1.77561 9.38515C1.89863 9.59037 2.12556 9.71788 2.36787 9.71788C2.61019 9.71788 2.83712 9.59037 2.9602 9.38515C3.05907 9.22018 3.2373 9.11924 3.42957 9.11924H3.75404C3.94637 9.11924 4.1246 9.22018 4.22347 9.38521C4.34642 9.59037 4.57335 9.71788 4.81567 9.71788C5.05799 9.71788 5.28498 9.59031 5.40811 9.38503C5.50699 9.22012 5.68515 9.11924 5.87742 9.11924H6.21496C6.4073 9.11924 6.58546 9.22018 6.68434 9.38515C6.80735 9.59037 7.03428 9.71788 7.27654 9.71788C7.51885 9.71788 7.74585 9.59037 7.86892 9.38515C7.96779 9.22018 8.14602 9.11924 8.33829 9.11924H8.6627C8.85503 9.11924 9.03326 9.22018 9.13213 9.38515C9.25514 9.59037 9.48208 9.71788 9.72433 9.71788C9.96671 9.71788 10.1936 9.59037 10.3167 9.38515C10.4155 9.22018 10.5938 9.11924 10.7861 9.11924H11.1236C11.3159 9.11924 11.4941 9.22011 11.593 9.38509C11.7161 9.59037 11.9431 9.71788 12.1854 9.71788C12.4277 9.71788 12.6546 9.59037 12.7776 9.38521C12.8765 9.22018 13.0547 9.11924 13.247 9.11924H13.5715C13.7639 9.11924 13.9421 9.22018 14.041 9.38515C14.164 9.59037 14.3909 9.71788 14.6332 9.71788C14.8755 9.71788 15.1025 9.59037 15.2256 9.38509C15.3244 9.22018 15.5026 9.11924 15.6949 9.11924H15.8637C16.1659 9.11924 16.4109 9.36423 16.4109 9.6665ZM15.3164 10.676C15.1025 10.7646 14.8706 10.8124 14.6332 10.8124C14.1745 10.8124 13.7363 10.6338 13.4093 10.3278C13.0823 10.6338 12.6442 10.8124 12.1854 10.8124C11.7237 10.8124 11.2827 10.6314 10.9549 10.3217C10.6273 10.6315 10.1863 10.8124 9.72452 10.8124C9.26579 10.8124 8.82761 10.6338 8.50059 10.3278C8.17357 10.6338 7.73545 10.8124 7.27678 10.8124C6.81501 10.8124 6.37398 10.6314 6.04629 10.3217C5.71854 10.6315 5.27756 10.8124 4.81585 10.8124C4.35712 10.8124 3.91895 10.6338 3.59192 10.3278C3.2649 10.6338 2.82673 10.8124 2.36806 10.8124C2.13067 10.8124 1.89869 10.7646 1.68483 10.676V22.9056H15.3165L15.3164 10.676ZM4.13901 5.37625C3.85017 5.28686 3.5437 5.44825 3.4542 5.73696C3.24934 6.39757 3.26052 7.09326 3.48661 7.7487C3.5648 7.97539 3.7769 8.11768 4.00395 8.11768C4.06312 8.11768 4.12332 8.10801 4.18242 8.08758C4.46816 7.98907 4.61987 7.67756 4.52136 7.39183C4.37172 6.95797 4.36424 6.49784 4.49965 6.06106C4.5891 5.77241 4.42766 5.46582 4.13901 5.37625ZM11.2721 13.8145C12.1017 14.7159 12.239 16.2464 11.6137 17.623C10.9919 18.9924 9.75911 19.8957 8.54078 19.8723C8.51032 19.8735 8.47955 19.874 8.44902 19.874C7.26085 19.874 6.05632 19.0079 5.42325 17.6853C4.77049 16.3213 4.87702 14.7883 5.68837 13.8707C5.78646 13.7597 5.92528 13.6932 6.07322 13.6865C6.93565 13.6473 7.81559 14.0711 8.48891 14.8022C9.15153 14.0494 10.0222 13.6157 10.8835 13.6381C11.0316 13.6418 11.1718 13.7056 11.2721 13.8145ZM8.22312 16.3453C7.81182 15.4859 7.07417 14.8793 6.36485 14.7898C5.98955 15.3984 5.99928 16.3534 6.41058 17.2127C6.82188 18.0721 7.5596 18.6787 8.26891 18.7681C8.64421 18.1596 8.63442 17.2047 8.22312 16.3453ZM10.6142 14.7471C10.0884 14.8242 9.54732 15.1872 9.1418 15.7354C9.16539 15.7806 9.18826 15.8264 9.21039 15.8728C9.62193 16.7325 9.73175 17.6593 9.55352 18.4569C9.98228 18.1742 10.3667 17.7221 10.6172 17.1704C11.0111 16.3031 11.0017 15.3481 10.6142 14.7471Z"/>
</mask>
<path d="M1.45747 1.30636C1.30782 1.0438 1.3994 0.7096 1.66196 0.559953C2.2434 0.228675 2.7512 0.160206 3.17102 0.356249C3.66769 0.588289 3.89535 1.1015 4.04129 1.68787C4.82139 1.28429 5.68162 1.04398 6.56649 0.986029C7.52725 0.923094 8.46441 1.07073 9.35262 1.42469C9.63336 1.53664 9.77024 1.8549 9.65836 2.13565C9.54641 2.4164 9.22815 2.5534 8.94734 2.44139C8.21163 2.14812 7.4347 2.02595 6.63806 2.07813C5.79631 2.13328 4.98179 2.38715 4.26403 2.8159C4.33852 3.1923 4.4321 3.56486 4.56703 3.72035C4.76514 3.94862 4.74076 4.29425 4.51255 4.49236C4.40899 4.58229 4.28117 4.62637 4.15403 4.62637C4.00091 4.62637 3.84871 4.56253 3.74054 4.43787C3.36438 4.00456 3.23985 3.31501 3.11939 2.64813C3.04302 2.22522 2.90085 1.43801 2.70773 1.34777C2.66632 1.32825 2.50767 1.33762 2.20388 1.51073C1.94143 1.66069 1.60712 1.56893 1.45747 1.30636ZM7.95727 4.35901C8.16949 4.35901 8.37143 4.23484 8.46039 4.02755C8.57964 3.74984 8.45115 3.42799 8.17338 3.30874C7.53637 3.03535 6.84347 2.97309 6.16948 3.12888C5.87499 3.19692 5.69148 3.49086 5.75958 3.78535C5.82768 4.07984 6.12175 4.2636 6.41605 4.19525C6.86159 4.09218 7.31995 4.13347 7.74165 4.31456C7.81201 4.34478 7.88522 4.35901 7.95727 4.35901ZM9.05314 5.71951L9.19495 7.30986C9.19543 7.31722 9.1961 7.32451 9.19689 7.33175L9.26463 8.09117C9.28999 8.37569 9.52884 8.58985 9.8091 8.58985C9.82539 8.58985 9.84181 8.58906 9.85835 8.58766C10.1594 8.56084 10.3817 8.295 10.3548 7.99388L10.3392 7.81881H10.9638C11.266 7.81881 11.511 7.57382 11.511 7.27155C11.511 6.96928 11.266 6.72428 10.9638 6.72428H10.2416L10.1434 5.62221C10.1035 5.17498 10.3206 4.83464 10.5098 4.62783C10.8811 4.22189 11.4545 3.97957 12.0436 3.97957H13.4195C14.0086 3.97957 14.5819 4.22188 14.9533 4.62777C15.1154 4.80497 15.298 5.08036 15.3218 5.43718H14.6139C14.3116 5.43718 14.0666 5.68217 14.0666 5.98444C14.0666 6.28672 14.3116 6.53171 14.6139 6.53171H15.2386L15.1082 7.99394C15.0814 8.29493 15.3036 8.56078 15.6047 8.58766C15.9059 8.6135 16.1716 8.39223 16.1984 8.09111L16.4098 5.71938C16.4685 5.06066 16.238 4.41069 15.7608 3.88897C15.1857 3.26034 14.3104 2.88504 13.4195 2.88504H13.4006C13.633 2.07387 14.1037 1.39709 14.7217 1.01175C14.9782 0.851828 15.0565 0.514226 14.8965 0.257863C14.7367 0.00125638 14.3991 -0.0770025 14.1426 0.083042C13.5613 0.445514 13.0773 0.985847 12.7316 1.63521C12.3857 0.985786 11.9018 0.445514 11.3205 0.083042C11.0639 -0.0768809 10.7264 0.00137797 10.5665 0.257863C10.4066 0.514287 10.4848 0.851888 10.7413 1.01175C11.3593 1.39709 11.8301 2.07387 12.0624 2.88504H12.0436C11.1526 2.88504 10.2774 3.2604 9.7022 3.88909C9.22498 4.41075 8.99446 5.06078 9.05314 5.71951ZM6.36066 5.3017C6.1063 5.13837 5.76779 5.21225 5.60446 5.46673C5.44125 5.72109 5.51514 6.0596 5.76949 6.22287C6.1558 6.47078 6.44676 6.82729 6.611 7.25391C6.69467 7.4713 6.90203 7.60477 7.12184 7.60477C7.18721 7.60477 7.25367 7.59298 7.31831 7.56805C7.6004 7.45944 7.74104 7.14276 7.63244 6.86067C7.38398 6.21527 6.94423 5.67615 6.36066 5.3017ZM1.1417 8.30497C1.15374 8.30497 1.16584 8.3046 1.178 8.30375C1.4796 8.28405 1.70806 8.02355 1.68829 7.72195C1.61399 6.58686 1.89668 5.48163 2.50585 4.52574C2.66826 4.2709 2.59335 3.93256 2.33844 3.77009C2.08366 3.60773 1.74533 3.68265 1.58279 3.93749C0.847633 5.09106 0.506383 6.42438 0.596074 7.7934C0.615106 8.0829 0.855721 8.30497 1.1417 8.30497ZM16.4109 9.6665V23.4528C16.4109 23.7551 16.1659 24.0001 15.8637 24.0001H1.1375C0.835229 24.0001 0.590237 23.7551 0.590237 23.4528V9.6665C0.590237 9.36423 0.835229 9.11924 1.1375 9.11924H1.30624C1.49857 9.11924 1.67674 9.22018 1.77561 9.38515C1.89863 9.59037 2.12556 9.71788 2.36787 9.71788C2.61019 9.71788 2.83712 9.59037 2.9602 9.38515C3.05907 9.22018 3.2373 9.11924 3.42957 9.11924H3.75404C3.94637 9.11924 4.1246 9.22018 4.22347 9.38521C4.34642 9.59037 4.57335 9.71788 4.81567 9.71788C5.05799 9.71788 5.28498 9.59031 5.40811 9.38503C5.50699 9.22012 5.68515 9.11924 5.87742 9.11924H6.21496C6.4073 9.11924 6.58546 9.22018 6.68434 9.38515C6.80735 9.59037 7.03428 9.71788 7.27654 9.71788C7.51885 9.71788 7.74585 9.59037 7.86892 9.38515C7.96779 9.22018 8.14602 9.11924 8.33829 9.11924H8.6627C8.85503 9.11924 9.03326 9.22018 9.13213 9.38515C9.25514 9.59037 9.48208 9.71788 9.72433 9.71788C9.96671 9.71788 10.1936 9.59037 10.3167 9.38515C10.4155 9.22018 10.5938 9.11924 10.7861 9.11924H11.1236C11.3159 9.11924 11.4941 9.22011 11.593 9.38509C11.7161 9.59037 11.9431 9.71788 12.1854 9.71788C12.4277 9.71788 12.6546 9.59037 12.7776 9.38521C12.8765 9.22018 13.0547 9.11924 13.247 9.11924H13.5715C13.7639 9.11924 13.9421 9.22018 14.041 9.38515C14.164 9.59037 14.3909 9.71788 14.6332 9.71788C14.8755 9.71788 15.1025 9.59037 15.2256 9.38509C15.3244 9.22018 15.5026 9.11924 15.6949 9.11924H15.8637C16.1659 9.11924 16.4109 9.36423 16.4109 9.6665ZM15.3164 10.676C15.1025 10.7646 14.8706 10.8124 14.6332 10.8124C14.1745 10.8124 13.7363 10.6338 13.4093 10.3278C13.0823 10.6338 12.6442 10.8124 12.1854 10.8124C11.7237 10.8124 11.2827 10.6314 10.9549 10.3217C10.6273 10.6315 10.1863 10.8124 9.72452 10.8124C9.26579 10.8124 8.82761 10.6338 8.50059 10.3278C8.17357 10.6338 7.73545 10.8124 7.27678 10.8124C6.81501 10.8124 6.37398 10.6314 6.04629 10.3217C5.71854 10.6315 5.27756 10.8124 4.81585 10.8124C4.35712 10.8124 3.91895 10.6338 3.59192 10.3278C3.2649 10.6338 2.82673 10.8124 2.36806 10.8124C2.13067 10.8124 1.89869 10.7646 1.68483 10.676V22.9056H15.3165L15.3164 10.676ZM4.13901 5.37625C3.85017 5.28686 3.5437 5.44825 3.4542 5.73696C3.24934 6.39757 3.26052 7.09326 3.48661 7.7487C3.5648 7.97539 3.7769 8.11768 4.00395 8.11768C4.06312 8.11768 4.12332 8.10801 4.18242 8.08758C4.46816 7.98907 4.61987 7.67756 4.52136 7.39183C4.37172 6.95797 4.36424 6.49784 4.49965 6.06106C4.5891 5.77241 4.42766 5.46582 4.13901 5.37625ZM11.2721 13.8145C12.1017 14.7159 12.239 16.2464 11.6137 17.623C10.9919 18.9924 9.75911 19.8957 8.54078 19.8723C8.51032 19.8735 8.47955 19.874 8.44902 19.874C7.26085 19.874 6.05632 19.0079 5.42325 17.6853C4.77049 16.3213 4.87702 14.7883 5.68837 13.8707C5.78646 13.7597 5.92528 13.6932 6.07322 13.6865C6.93565 13.6473 7.81559 14.0711 8.48891 14.8022C9.15153 14.0494 10.0222 13.6157 10.8835 13.6381C11.0316 13.6418 11.1718 13.7056 11.2721 13.8145ZM8.22312 16.3453C7.81182 15.4859 7.07417 14.8793 6.36485 14.7898C5.98955 15.3984 5.99928 16.3534 6.41058 17.2127C6.82188 18.0721 7.5596 18.6787 8.26891 18.7681C8.64421 18.1596 8.63442 17.2047 8.22312 16.3453ZM10.6142 14.7471C10.0884 14.8242 9.54732 15.1872 9.1418 15.7354C9.16539 15.7806 9.18826 15.8264 9.21039 15.8728C9.62193 16.7325 9.73175 17.6593 9.55352 18.4569C9.98228 18.1742 10.3667 17.7221 10.6172 17.1704C11.0111 16.3031 11.0017 15.3481 10.6142 14.7471Z" fill="#F6613F" stroke="#F6613F" stroke-width="0.48" mask="url(#path-1-inside-1_1017_5712)"/>
</svg>
