<svg width="138" height="30" viewBox="0 0 138 30" fill="none" xmlns="http://www.w3.org/2000/svg">
<g clip-path="url(#clip0_36_2356)">
<path d="M137.555 13.3557V10.9427H134.558V7.19128L134.457 7.22234L131.643 8.0835L131.587 8.10035V10.9428H127.145V9.3593C127.145 8.62198 127.31 8.05775 127.634 7.68145C127.957 7.30967 128.419 7.12067 129.007 7.12067C129.43 7.12067 129.869 7.22035 130.31 7.41692L130.42 7.4663V4.92503L130.368 4.90592C129.957 4.75806 129.397 4.68359 128.704 4.68359C127.83 4.68359 127.036 4.8738 126.343 5.25075C125.65 5.62824 125.105 6.16713 124.723 6.85228C124.343 7.53664 124.149 8.32706 124.149 9.20175V10.9427H122.063V13.3557H124.149V23.5214H127.145V13.3557H131.587V19.8158C131.587 22.4764 132.842 23.8247 135.317 23.8247C135.724 23.8247 136.152 23.7771 136.589 23.6838C137.034 23.5879 137.337 23.4922 137.515 23.39L137.555 23.3667V20.9313L137.433 21.0119C137.27 21.1202 137.068 21.2087 136.83 21.2746C136.592 21.3416 136.393 21.3752 136.239 21.3752C135.659 21.3752 135.23 21.2189 134.964 20.9106C134.695 20.5995 134.558 20.0554 134.558 19.2943V13.3557H137.555ZM115.374 21.3756C114.287 21.3756 113.429 21.0151 112.825 20.305C112.218 19.5913 111.91 18.5737 111.91 17.2809C111.91 15.9471 112.218 14.9032 112.826 14.1769C113.43 13.4554 114.279 13.0892 115.349 13.0892C116.388 13.0892 117.215 13.4389 117.807 14.1293C118.402 14.8232 118.704 15.8587 118.704 17.2081C118.704 18.574 118.42 19.6232 117.86 20.3251C117.304 21.0217 116.467 21.3756 115.374 21.3756ZM115.507 10.6396C113.433 10.6396 111.785 11.2474 110.611 12.4461C109.437 13.6449 108.842 15.3039 108.842 17.3774C108.842 19.3469 109.423 20.931 110.569 22.0851C111.715 23.2396 113.274 23.8244 115.204 23.8244C117.214 23.8244 118.829 23.2082 120.003 21.9929C121.177 20.7789 121.772 19.1356 121.772 17.1105C121.772 15.1103 121.214 13.5143 120.112 12.3679C119.011 11.221 117.461 10.6396 115.507 10.6396ZM104.012 10.6396C102.601 10.6396 101.434 11.0005 100.543 11.7121C99.6455 12.4279 99.1905 13.3667 99.1905 14.5028C99.1905 15.0933 99.2888 15.6178 99.482 16.0627C99.6765 16.5091 99.9774 16.9021 100.377 17.232C100.774 17.5592 101.386 17.9019 102.198 18.2505C102.88 18.5313 103.389 18.7687 103.712 18.9559C104.028 19.1393 104.252 19.3237 104.379 19.5033C104.502 19.679 104.564 19.9195 104.564 20.2163C104.564 21.0614 103.931 21.4726 102.629 21.4726C102.146 21.4726 101.595 21.3717 100.992 21.1729C100.392 20.9771 99.8268 20.6903 99.3147 20.3226L99.1903 20.2334V23.1173L99.2359 23.1385C99.6597 23.3341 100.194 23.4991 100.824 23.6289C101.453 23.7589 102.024 23.825 102.52 23.825C104.051 23.825 105.284 23.4624 106.183 22.7465C107.089 22.0258 107.548 21.0648 107.548 19.8895C107.548 19.0416 107.301 18.3145 106.814 17.7281C106.33 17.1465 105.491 16.6125 104.32 16.1405C103.388 15.7662 102.79 15.4555 102.544 15.217C102.306 14.9866 102.186 14.6607 102.186 14.248C102.186 13.8822 102.335 13.5892 102.64 13.3518C102.948 13.1133 103.377 12.992 103.915 12.992C104.414 12.992 104.925 13.0709 105.433 13.2254C105.94 13.3799 106.386 13.5868 106.758 13.8399L106.88 13.9235V11.1879L106.833 11.1678C106.49 11.0206 106.037 10.8946 105.488 10.7924C104.94 10.6909 104.444 10.6396 104.012 10.6396ZM91.3819 21.3756C90.2949 21.3756 89.4375 21.0151 88.8336 20.305C88.2256 19.5913 87.9182 18.574 87.9182 17.2809C87.9182 15.9471 88.226 14.9032 88.8342 14.1769C89.4381 13.4554 90.287 13.0892 91.3578 13.0892C92.3961 13.0892 93.2228 13.4389 93.8152 14.1293C94.4105 14.8232 94.7125 15.8587 94.7125 17.2081C94.7125 18.574 94.4283 19.6232 93.8682 20.3251C93.3119 21.0217 92.4758 21.3756 91.3819 21.3756ZM91.5154 10.6396C89.4407 10.6396 87.7931 11.2474 86.6191 12.4461C85.4452 13.6449 84.8496 15.3039 84.8496 17.3774C84.8496 19.3477 85.431 20.931 86.577 22.0851C87.723 23.2396 89.2825 23.8244 91.212 23.8244C93.2223 23.8244 94.8374 23.2082 96.0115 21.9929C97.1852 20.7789 97.7803 19.1356 97.7803 17.1105C97.7803 15.1103 97.222 13.5143 96.1205 12.3679C95.0184 11.221 93.4689 10.6396 91.5154 10.6396ZM80.3028 13.121V10.9427H77.344V23.5212H80.3028V17.0868C80.3028 15.9927 80.5509 15.0938 81.0404 14.4149C81.5237 13.7441 82.1677 13.4041 82.954 13.4041C83.2205 13.4041 83.5197 13.4481 83.8437 13.535C84.1643 13.6214 84.3966 13.7153 84.5336 13.814L84.658 13.9041V10.9211L84.6101 10.9006C84.3345 10.7835 83.9447 10.7244 83.4515 10.7244C82.7079 10.7244 82.0425 10.9634 81.4726 11.4338C80.9723 11.8472 80.6107 12.4141 80.3343 13.121H80.3028ZM72.0452 10.6396C70.6878 10.6396 69.477 10.9307 68.4472 11.5045C67.4152 12.0796 66.6171 12.9007 66.0741 13.9448C65.5335 14.9863 65.259 16.2029 65.259 17.5597C65.259 18.7482 65.5251 19.8388 66.0511 20.8C66.5774 21.7629 67.3223 22.5161 68.2652 23.0385C69.2068 23.5603 70.295 23.8248 71.5 23.8248C72.9061 23.8248 74.1067 23.5437 75.0692 22.9893L75.1081 22.967V20.2562L74.9838 20.347C74.5477 20.6647 74.0605 20.9182 73.5362 21.1008C73.0132 21.2833 72.5365 21.3756 72.1184 21.3756C70.9574 21.3756 70.0253 21.0123 69.3488 20.2961C68.6708 19.5789 68.327 18.5719 68.327 17.3047C68.327 16.0296 68.6855 14.9966 69.3921 14.2345C70.0965 13.4746 71.0302 13.0892 72.1672 13.0892C73.1397 13.0892 74.0874 13.4185 74.984 14.0689L75.1081 14.159V11.3028L75.068 11.2802C74.7306 11.0913 74.2705 10.9354 73.6992 10.8171C73.1303 10.6991 72.5739 10.6396 72.0452 10.6396ZM63.2211 10.9428H60.2623V23.5212H63.2211V10.9428ZM61.772 5.58431C61.285 5.58431 60.8603 5.75009 60.5113 6.0786C60.1609 6.40803 59.9832 6.82282 59.9832 7.31233C59.9832 7.79414 60.1588 8.20136 60.5059 8.52204C60.8507 8.84179 61.2768 9.00385 61.7721 9.00385C62.2673 9.00385 62.695 8.84179 63.044 8.52257C63.3952 8.20136 63.5733 7.79427 63.5733 7.31233C63.5733 6.83994 63.3999 6.4294 63.0584 6.09187C62.7172 5.755 62.2842 5.58431 61.772 5.58431ZM54.3895 10.0147V23.5212H57.4091V5.96936H53.2298L47.9177 19.0063L42.7625 5.96936H38.4131V23.521H41.2507V10.0134H41.3482L46.7919 23.5212H48.9333L54.2921 10.0147H54.3895Z" fill="#706D6E"/>
<path d="M14.2639 14.0235H0.344727V0.104248H14.2639V14.0235Z" fill="#F1511B"/>
<path d="M29.6318 14.0235H15.7129V0.104248H29.6318V14.0235Z" fill="#80CC28"/>
<path d="M14.2635 29.3971H0.344727V15.478H14.2635V29.3971Z" fill="#00ADEF"/>
<path d="M29.6318 29.3971H15.7129V15.478H29.6318V29.3971Z" fill="#FBBC09"/>
</g>
<defs>
<clipPath id="clip0_36_2356">
<rect width="137.21" height="29.3081" fill="white" transform="translate(0.344727 0.0966797)"/>
</clipPath>
</defs>
</svg>
