<svg width="59" height="58" viewBox="0 0 59 58" fill="none" xmlns="http://www.w3.org/2000/svg">
<path d="M46.2132 29.0002V50.489C46.2132 51.7555 45.7101 52.9701 44.8145 53.8656C43.919 54.7612 42.7044 55.2643 41.4379 55.2643H17.5614C16.2949 55.2643 15.0803 54.7612 14.1848 53.8656C13.2892 52.9701 12.7861 51.7555 12.7861 50.489V7.51138C12.7861 6.24489 13.2892 5.03028 14.1848 4.13473C15.0803 3.23919 16.2949 2.73608 17.5614 2.73608H29.4997C30.1329 2.73608 30.7402 2.98764 31.188 3.43541C31.6357 3.88318 31.8873 4.49049 31.8873 5.12373C31.8873 5.75697 31.6357 6.36428 31.188 6.81205C30.7402 7.25982 30.1329 7.51138 29.4997 7.51138H17.5614V50.489H41.4379V29.0002C41.4379 28.3669 41.6894 27.7596 42.1372 27.3119C42.585 26.8641 43.1923 26.6125 43.8255 26.6125C44.4588 26.6125 45.0661 26.8641 45.5139 27.3119C45.9616 27.7596 46.2132 28.3669 46.2132 29.0002ZM29.4997 43.3261C29.0274 43.3261 28.5658 43.4661 28.1731 43.7285C27.7805 43.9908 27.4745 44.3637 27.2938 44.8C27.113 45.2363 27.0658 45.7164 27.1579 46.1795C27.25 46.6427 27.4774 47.0681 27.8113 47.402C28.1453 47.7359 28.5707 47.9633 29.0338 48.0555C29.497 48.1476 29.9771 48.1003 30.4134 47.9196C30.8497 47.7389 31.2225 47.4329 31.4849 47.0402C31.7473 46.6476 31.8873 46.1859 31.8873 45.7137C31.8873 45.0805 31.6357 44.4732 31.188 44.0254C30.7402 43.5776 30.1329 43.3261 29.4997 43.3261ZM55.7638 11.3316V13.2417C55.7638 13.495 55.6631 13.7379 55.484 13.9171C55.3049 14.0962 55.062 14.1968 54.8087 14.1968H53.3093C53.1112 14.2012 52.919 14.2647 52.7573 14.3791C52.5957 14.4936 52.4719 14.6537 52.4019 14.8391V14.8534C52.321 15.0339 52.2959 15.2345 52.3299 15.4294C52.364 15.6243 52.4556 15.8046 52.593 15.9469L53.6531 17.007C53.7437 17.096 53.8156 17.202 53.8648 17.3191C53.9139 17.4361 53.9392 17.5618 53.9392 17.6887C53.9392 17.8157 53.9139 17.9413 53.8648 18.0584C53.8156 18.1754 53.7437 18.2815 53.6531 18.3704L52.3136 19.7099C52.2247 19.8005 52.1186 19.8724 52.0016 19.9216C51.8845 19.9707 51.7589 19.996 51.6319 19.996C51.505 19.996 51.3793 19.9707 51.2623 19.9216C51.1452 19.8724 51.0392 19.8005 50.9503 19.7099L49.8901 18.6497C49.7478 18.5124 49.5675 18.4208 49.3726 18.3867C49.1777 18.3527 48.9771 18.3778 48.7966 18.4587H48.7823C48.5966 18.5281 48.4361 18.6517 48.3215 18.8135C48.207 18.9753 48.1437 19.1678 48.14 19.366V20.8822C48.14 21.1355 48.0394 21.3784 47.8603 21.5575C47.6812 21.7366 47.4382 21.8372 47.1849 21.8372H45.2581C45.0048 21.8372 44.7619 21.7366 44.5828 21.5575C44.4037 21.3784 44.3031 21.1355 44.3031 20.8822V19.3732C44.2993 19.175 44.2361 18.9825 44.1215 18.8207C44.007 18.6589 43.8465 18.5353 43.6608 18.4659H43.6465C43.4659 18.3849 43.2653 18.3598 43.0704 18.3939C42.8755 18.4279 42.6953 18.5195 42.5529 18.6569L41.4928 19.717C41.4039 19.8076 41.2978 19.8796 41.1808 19.9287C41.0637 19.9779 40.9381 20.0032 40.8111 20.0032C40.6842 20.0032 40.5585 19.9779 40.4415 19.9287C40.3244 19.8796 40.2184 19.8076 40.1295 19.717L38.79 18.3776C38.6994 18.2886 38.6274 18.1826 38.5783 18.0655C38.5292 17.9485 38.5038 17.8228 38.5038 17.6959C38.5038 17.5689 38.5292 17.4433 38.5783 17.3262C38.6274 17.2092 38.6994 17.1031 38.79 17.0142L39.8501 15.9541C39.9875 15.8117 40.0791 15.6315 40.1131 15.4366C40.1472 15.2417 40.1221 15.0411 40.0411 14.8605V14.8462C39.9712 14.6609 39.8474 14.5007 39.6857 14.3863C39.524 14.2718 39.3318 14.2083 39.1338 14.2039H37.6176C37.4922 14.2039 37.368 14.1792 37.2522 14.1312C37.1363 14.0833 37.031 14.0129 36.9423 13.9242C36.8536 13.8355 36.7833 13.7302 36.7353 13.6144C36.6873 13.4985 36.6626 13.3743 36.6626 13.2489V11.3316C36.6626 11.0783 36.7632 10.8354 36.9423 10.6563C37.1214 10.4772 37.3643 10.3765 37.6176 10.3765H39.1171C39.3155 10.3723 39.508 10.3086 39.6698 10.1936C39.8316 10.0787 39.9551 9.91784 40.0244 9.73189V9.71995C40.1054 9.53943 40.1304 9.33881 40.0964 9.14392C40.0624 8.94902 39.9708 8.76878 39.8334 8.62641L38.7733 7.56629C38.6827 7.47738 38.6107 7.37131 38.5616 7.25426C38.5124 7.13722 38.4871 7.01156 38.4871 6.88462C38.4871 6.75768 38.5124 6.63202 38.5616 6.51497C38.6107 6.39793 38.6827 6.29185 38.7733 6.20295L40.1127 4.86348C40.2016 4.77287 40.3077 4.70091 40.4248 4.65178C40.5418 4.60265 40.6675 4.57734 40.7944 4.57734C40.9213 4.57734 41.047 4.60265 41.1641 4.65178C41.2811 4.70091 41.3872 4.77287 41.4761 4.86348L42.5362 5.92359C42.6785 6.06114 42.8589 6.15268 43.0539 6.18632C43.2489 6.21996 43.4496 6.19414 43.6297 6.11222H43.6441C43.8294 6.04227 43.9896 5.9185 44.104 5.75683C44.2185 5.59515 44.282 5.40295 44.2863 5.20491V3.69114C44.2863 3.43784 44.387 3.19492 44.5661 3.01581C44.7452 2.83671 44.9881 2.73608 45.2414 2.73608H47.1682C47.4215 2.73608 47.6645 2.83671 47.8436 3.01581C48.0227 3.19492 48.1233 3.43784 48.1233 3.69114V5.19058C48.1277 5.38862 48.1912 5.58083 48.3056 5.7425C48.4201 5.90418 48.5802 6.02794 48.7656 6.09789H48.7799C48.96 6.17982 49.1607 6.20564 49.3557 6.172C49.5507 6.13836 49.7311 6.04681 49.8734 5.90927L50.9335 4.84915C51.0225 4.75855 51.1285 4.68658 51.2456 4.63745C51.3626 4.58832 51.4883 4.56302 51.6152 4.56302C51.7422 4.56302 51.8678 4.58832 51.9849 4.63745C52.1019 4.68658 52.208 4.75855 52.2969 4.84915L53.6364 6.18862C53.727 6.27753 53.7989 6.3836 53.8481 6.50065C53.8972 6.61769 53.9225 6.74335 53.9225 6.87029C53.9225 6.99723 53.8972 7.12289 53.8481 7.23994C53.7989 7.35698 53.727 7.46306 53.6364 7.55197L52.5763 8.61208C52.4389 8.75446 52.3473 8.9347 52.3132 9.12959C52.2792 9.32448 52.3043 9.52511 52.3852 9.70562V9.71756C52.4545 9.90351 52.5781 10.0644 52.7398 10.1793C52.9016 10.2943 53.0941 10.358 53.2925 10.3622H54.8087C54.9353 10.3622 55.0607 10.3874 55.1775 10.4363C55.2943 10.4852 55.4003 10.5568 55.4891 10.647C55.578 10.7372 55.6481 10.8442 55.6952 10.9617C55.7424 11.0793 55.7657 11.205 55.7638 11.3316ZM49.0784 12.2867C49.0784 11.72 48.9103 11.166 48.5955 10.6949C48.2806 10.2237 47.8332 9.85645 47.3096 9.63959C46.7861 9.42273 46.21 9.36599 45.6542 9.47655C45.0984 9.5871 44.5879 9.85998 44.1872 10.2607C43.7865 10.6614 43.5136 11.1719 43.403 11.7277C43.2925 12.2835 43.3492 12.8596 43.5661 13.3831C43.783 13.9067 44.1502 14.3541 44.6214 14.669C45.0925 14.9838 45.6465 15.1518 46.2132 15.1518C46.9731 15.1518 47.7018 14.85 48.2392 14.3127C48.7765 13.7753 49.0784 13.0466 49.0784 12.2867Z" fill="#AB0E12"/>
</svg>
