<svg width="138" height="18" viewBox="0 0 138 18" fill="none" xmlns="http://www.w3.org/2000/svg">
<path d="M57.3261 11.3399H66.0645L61.444 3.90605L52.9638 17.3466H49.1042L59.4189 1.20168C59.8675 0.549289 60.6149 0.155273 61.4438 0.155273C62.2456 0.155273 62.9932 0.535747 63.4281 1.17438L73.7838 17.3466H69.9243L68.1031 14.3433H59.256L57.3261 11.3399ZM97.4168 14.3433V0.31821H94.1417V15.7158C94.1417 16.1371 94.3048 16.5448 94.6174 16.8574C94.9299 17.1699 95.3513 17.3466 95.8132 17.3466H110.749L112.678 14.3433H97.4168ZM43.2333 11.8291C46.4134 11.8291 48.9954 9.2604 48.9954 6.08055C48.9954 2.90048 46.4134 0.31821 43.2333 0.31821H28.9052V17.3466H32.179V3.32158H43.0158C44.5379 3.32158 45.761 4.55844 45.761 6.08055C45.761 7.60244 44.5379 8.8393 43.0158 8.8393L33.7828 8.82576L43.5594 17.3466H48.316L41.7383 11.8291H43.2333ZM8.75086 17.3464C4.05019 17.3464 0.235352 13.5413 0.235352 8.83909C0.235352 4.13691 4.05019 0.31821 8.75086 0.31821H18.6485C23.3507 0.31821 27.1627 4.13691 27.1627 8.83909C27.1627 13.5413 23.3509 17.3464 18.6487 17.3464H8.75086ZM18.4282 14.343C21.4741 14.343 23.9405 11.8833 23.9405 8.83909C23.9405 5.79487 21.4741 3.32158 18.4286 3.32158H8.9699C5.92568 3.32158 3.45777 5.79509 3.45777 8.8393C3.45777 11.8835 5.92568 14.3433 8.9699 14.3433L18.4282 14.343ZM80.6194 17.3464C75.917 17.3464 72.0985 13.5413 72.0985 8.83909C72.0985 4.13691 75.917 0.31821 80.6194 0.31821H92.3747L90.4584 3.32137H80.8367C77.7925 3.32137 75.3192 5.79487 75.3192 8.83909C75.3192 11.8833 77.7925 14.343 80.8367 14.343H92.6465L90.7168 17.3464H80.6194ZM120.669 14.343C118.155 14.343 116.021 12.6578 115.369 10.3341H129.367L131.297 7.33052H115.369C116.022 5.02017 118.155 3.32158 120.669 3.32158H130.278L132.221 0.317996H120.452C115.75 0.317996 111.931 4.13691 111.931 8.83887C111.931 13.5413 115.75 17.3464 120.452 17.3464H130.55L132.479 14.343H120.669ZM133.974 2.12578C133.974 1.9293 134.012 1.73464 134.087 1.553C134.162 1.37137 134.272 1.20633 134.411 1.06739C134.55 0.928445 134.715 0.818341 134.896 0.743407C135.078 0.668474 135.273 0.63019 135.469 0.630757C136.312 0.630757 136.978 1.29669 136.978 2.12578C136.978 2.96841 136.312 3.63435 135.469 3.63435C134.64 3.63435 133.974 2.96841 133.974 2.12578ZM135.469 4.05544C136.529 4.05544 137.385 3.19927 137.385 2.13932C137.385 1.07937 136.529 0.2232 135.469 0.2232C134.423 0.2232 133.567 1.07937 133.567 2.13932C133.567 3.19927 134.423 4.05544 135.469 4.05544ZM135.292 0.997688C135.591 0.997688 135.714 1.01145 135.85 1.06561C136.23 1.18814 136.271 1.52777 136.271 1.66362C136.271 1.69092 136.271 1.75885 136.244 1.84032C136.23 1.922 136.176 2.08494 135.986 2.20725C135.958 2.22079 135.945 2.23455 135.89 2.26163L136.38 3.1451H135.904L135.469 2.32956H135.17V3.1451H134.749V0.997688H135.292ZM135.442 1.97617C135.578 1.96263 135.714 1.96263 135.795 1.84032C135.836 1.78593 135.85 1.73155 135.85 1.65008C135.85 1.54131 135.782 1.4463 135.686 1.39192C135.591 1.35108 135.496 1.35108 135.292 1.35108H135.17V1.97617H135.442Z" fill="#F80000"/>
</svg>
