<svg width="24" height="24" viewBox="0 0 24 24" fill="none" xmlns="http://www.w3.org/2000/svg">
<path d="M10.0515 2.53028L4.03149 6.4603C2.10148 7.7203 2.10148 10.5403 4.03149 11.8003L10.0515 15.7303C11.1315 16.4403 12.9115 16.4403 13.9915 15.7303L19.9816 11.8003C21.9016 10.5403 21.9016 7.7303 19.9816 6.4703L13.9915 2.54028C12.9115 1.82028 11.1315 1.82028 10.0515 2.53028Z" stroke="#222222" stroke-width="1.50001" stroke-linecap="round" stroke-linejoin="round"/>
<path d="M5.63109 13.0801L5.62109 17.7701C5.62109 19.0401 6.6011 20.4001 7.8011 20.8001L10.9911 21.8601C11.5411 22.0401 12.4511 22.0401 13.0111 21.8601L16.2011 20.8001C17.4011 20.4001 18.3811 19.0401 18.3811 17.7701V13.1301" stroke="#222222" stroke-width="1.50001" stroke-linecap="round" stroke-linejoin="round"/>
<path d="M21.4023 15V9" stroke="#222222" stroke-width="1.50001" stroke-linecap="round" stroke-linejoin="round"/>
</svg>
