<svg width="24" height="24" viewBox="0 0 24 24" fill="none" xmlns="http://www.w3.org/2000/svg">
<path d="M3.00023 8.2636V8.2501C3.00022 6.91669 3.39512 5.61314 4.13513 4.50392C4.87514 3.3947 5.9271 2.5295 7.15829 2.01748C8.38948 1.50546 9.74473 1.36956 11.0531 1.62693C12.3614 1.8843 13.5642 2.5234 14.5097 3.4636C15.2537 3.09642 16.0846 2.94204 16.9108 3.01751C17.737 3.09299 18.5262 3.39538 19.1913 3.89129C19.8564 4.38719 20.3714 5.0573 20.6795 5.82758C20.9877 6.59786 21.0768 7.43832 20.9372 8.2561C21.1425 8.27515 21.3416 8.3363 21.5222 8.43573C21.7027 8.53517 21.8609 8.67075 21.9867 8.83403C22.1125 8.9973 22.2034 9.18475 22.2535 9.38469C22.3037 9.58463 22.3121 9.79277 22.2782 9.9961C21.6002 14.0746 19.9232 16.6561 17.2502 17.7421V18.7501C17.2502 19.3468 17.0132 19.9191 16.5912 20.3411C16.1693 20.763 15.597 21.0001 15.0002 21.0001H9.00023C8.4035 21.0001 7.8312 20.763 7.40924 20.3411C6.98729 19.9191 6.75023 19.3468 6.75023 18.7501V17.7421C4.07723 16.6561 2.40023 14.0746 1.72223 9.9961C1.68951 9.79817 1.69683 9.59568 1.74375 9.40062C1.79067 9.20557 1.87625 9.02191 1.99541 8.86051C2.11457 8.69911 2.26489 8.56326 2.43749 8.46099C2.61008 8.35871 2.80144 8.29211 3.00023 8.2651V8.2636ZM4.50023 8.2501H6.00023C6.00023 7.25554 6.39532 6.30171 7.09858 5.59845C7.80185 4.89519 8.75567 4.5001 9.75023 4.5001C10.7448 4.5001 11.6986 4.89519 12.4019 5.59845C13.1051 6.30171 13.5002 7.25554 13.5002 8.2501H15.0002C15.0002 6.85771 14.4471 5.52236 13.4625 4.53779C12.478 3.55322 11.1426 3.0001 9.75023 3.0001C8.35785 3.0001 7.02249 3.55322 6.03792 4.53779C5.05336 5.52236 4.50023 6.85771 4.50023 8.2501ZM7.50023 8.2501H12.0002C12.0002 7.65336 11.7632 7.08107 11.3412 6.65911C10.9193 6.23715 10.347 6.0001 9.75023 6.0001C9.1535 6.0001 8.5812 6.23715 8.15924 6.65911C7.73729 7.08107 7.50023 7.65336 7.50023 8.2501ZM17.7992 8.2501H19.4057C19.519 7.80681 19.5295 7.34352 19.4366 6.89553C19.3437 6.44754 19.1497 6.02667 18.8695 5.665C18.5893 5.30333 18.2302 5.01039 17.8196 4.80852C17.409 4.60665 16.9578 4.50116 16.5002 4.5001C16.1402 4.5001 15.7982 4.5631 15.4802 4.6786C15.7457 5.1046 15.9647 5.5636 16.1327 6.0451C16.4184 5.97424 16.7186 5.98883 16.9961 6.08706C17.2736 6.18529 17.5161 6.36284 17.6936 6.59767C17.8711 6.8325 17.9757 7.11427 17.9945 7.40803C18.0133 7.70178 17.9454 7.99459 17.7992 8.2501ZM15.7502 18.0001H8.25023V18.7501C8.25023 18.949 8.32925 19.1398 8.4699 19.2804C8.61056 19.4211 8.80132 19.5001 9.00023 19.5001H15.0002C15.1991 19.5001 15.3899 19.4211 15.5306 19.2804C15.6712 19.1398 15.7502 18.949 15.7502 18.7501V18.0001ZM7.72223 16.5001H16.2782C18.6572 15.7351 20.1632 13.5721 20.7992 9.7501H3.20123C3.83723 13.5721 5.34323 15.7351 7.72223 16.5001Z" fill="#222222"/>
</svg>
