<svg width="24" height="24" viewBox="0 0 24 24" fill="none" xmlns="http://www.w3.org/2000/svg">
<path d="M22.1019 11.4522C22.2319 10.9477 22.295 10.4282 22.2894 9.90723C22.2894 8.31593 21.6572 6.7898 20.532 5.66459C19.4068 4.53937 17.8807 3.90723 16.2894 3.90723H16.2219C14.6347 3.91789 13.1163 4.55704 11.9994 5.68473C10.8453 4.58635 9.31003 3.97869 7.71686 3.98973C6.80222 4.0009 5.90171 4.21696 5.08157 4.62202C4.26143 5.02708 3.54251 5.61082 2.9777 6.33033C2.41289 7.04983 2.01654 7.8868 1.81782 8.77966C1.61909 9.67253 1.62303 10.5986 1.82936 11.4897C1.72897 11.5594 1.6471 11.6525 1.5909 11.761C1.53469 11.8695 1.50584 11.99 1.50686 12.1122C1.50686 12.3111 1.58588 12.5019 1.72653 12.6426C1.86718 12.7832 2.05795 12.8622 2.25686 12.8622H2.29436C2.59786 13.468 2.99811 14.0203 3.47936 14.4972L3.80186 14.7897C3.83279 14.8331 3.86797 14.8733 3.90686 14.9097L11.5719 22.4097C11.7116 22.5483 11.9001 22.6264 12.0969 22.6272C12.1961 22.6268 12.2943 22.6067 12.3857 22.5681C12.4771 22.5295 12.5599 22.4731 12.6294 22.4022L20.1294 14.7297C20.21 14.6465 20.2714 14.5467 20.3094 14.4372L20.5494 14.2047C20.9413 13.8036 21.2746 13.3491 21.5394 12.8547H21.7494C21.9483 12.8547 22.139 12.7757 22.2797 12.6351C22.4203 12.4944 22.4994 12.3036 22.4994 12.1047C22.4977 11.9703 22.4599 11.8389 22.3899 11.7241C22.32 11.6093 22.2205 11.5154 22.1019 11.4522ZM4.49936 6.88473C4.92326 6.45167 5.42833 6.10638 5.98573 5.8686C6.54313 5.63082 7.14191 5.5052 7.74788 5.49893C8.35384 5.49267 8.9551 5.60586 9.51729 5.83206C10.0795 6.05826 10.5916 6.39303 11.0244 6.81723C11.1559 6.94376 11.2787 7.07907 11.3919 7.22223C11.4253 7.26813 11.463 7.31081 11.5044 7.34973C11.6574 7.48193 11.855 7.55087 12.057 7.54251C12.2591 7.53415 12.4503 7.44912 12.5919 7.30473L12.6744 7.20723C12.7775 7.05808 12.8956 6.91986 13.0269 6.79473C13.4433 6.36592 13.9409 6.02436 14.4908 5.79C15.0406 5.55563 15.6317 5.43316 16.2294 5.42973H16.2744C16.9887 5.4239 17.6941 5.58821 18.3323 5.90906C18.9705 6.2299 19.5232 6.69807 19.9446 7.27485C20.366 7.85163 20.644 8.52044 20.7557 9.22597C20.8674 9.93151 20.8095 10.6535 20.5869 11.3322L13.6944 11.2497C13.5471 11.2498 13.4032 11.2933 13.2805 11.3746C13.1578 11.456 13.0618 11.5717 13.0044 11.7072L12.7494 10.7097C12.718 10.5959 12.6603 10.491 12.5808 10.4037C12.5013 10.3164 12.4023 10.2491 12.2919 10.2072C12.1798 10.1656 12.0593 10.1513 11.9406 10.1657C11.8219 10.18 11.7083 10.2226 11.6094 10.2897L10.6644 10.9272L9.61436 7.92723C9.56917 7.79775 9.48933 7.68314 9.38355 7.59586C9.27776 7.50859 9.15007 7.45199 9.01436 7.43223C8.87375 7.40545 8.72842 7.41947 8.59552 7.47263C8.46263 7.52579 8.34772 7.61587 8.26436 7.73223L5.67686 11.2497L3.33686 11.3097C3.1275 10.5349 3.12465 9.71867 3.3286 8.94235C3.53255 8.16604 3.93618 7.45664 4.49936 6.88473ZM19.4994 13.1472C19.3723 13.281 19.2343 13.4039 19.0869 13.5147C18.9372 13.6235 18.833 13.7838 18.7944 13.9647L12.0969 20.8047L5.12936 13.9872C5.08044 13.8911 5.01137 13.8067 4.92686 13.7397C4.79079 13.6401 4.66289 13.5297 4.54436 13.4097C4.35835 13.2233 4.19012 13.0199 4.04186 12.8022L6.08186 12.7497C6.19638 12.7466 6.30865 12.7172 6.41006 12.6639C6.51147 12.6106 6.59931 12.5348 6.66686 12.4422L8.63936 9.74973L9.53936 12.3372C9.57722 12.4458 9.63952 12.5441 9.72145 12.6248C9.80337 12.7054 9.90274 12.7661 10.0119 12.8022C10.1214 12.8391 10.2379 12.8501 10.3524 12.8345C10.4669 12.8189 10.5762 12.7771 10.6719 12.7122L11.5569 12.1122L12.1494 14.2872C12.1906 14.441 12.2797 14.5777 12.4037 14.6774C12.5278 14.7772 12.6803 14.8349 12.8394 14.8422H12.8769C13.0279 14.8418 13.1754 14.7957 13.2998 14.7101C13.4243 14.6244 13.52 14.5032 13.5744 14.3622L14.1969 12.7497L19.7544 12.8172C19.6761 12.9323 19.591 13.0425 19.4994 13.1472Z" fill="#222222"/>
</svg>
