<svg width="24" height="24" viewBox="0 0 24 24" fill="none" xmlns="http://www.w3.org/2000/svg">
<path d="M4.79 18.0002H4C3.46957 18.0002 2.96086 17.7895 2.58579 17.4144C2.21071 17.0394 2 16.5307 2 16.0002V6.49023C2 5.9598 2.21071 5.45109 2.58579 5.07602C2.96086 4.70095 3.46957 4.49023 4 4.49023H13.78C14.3104 4.49023 14.8191 4.70095 15.1942 5.07602C15.5693 5.45109 15.78 5.9598 15.78 6.49023V13.4002" stroke="black" stroke-width="1.5" stroke-linecap="round" stroke-linejoin="round"/>
<path d="M15.75 8.19043H18.53C18.709 8.18999 18.8857 8.23028 19.0469 8.30824C19.208 8.38621 19.3493 8.4998 19.46 8.64043L21.72 11.6404C21.951 11.9496 22.0771 12.3245 22.08 12.7104V17.7104C22.08 17.7635 22.0589 17.8143 22.0214 17.8519C21.9839 17.8894 21.933 17.9104 21.88 17.9104H18.83" stroke="black" stroke-width="1.5" stroke-linecap="round" stroke-linejoin="round"/>
<path d="M16.5095 20.0601C17.7466 20.0601 18.7495 19.0572 18.7495 17.8201C18.7495 16.583 17.7466 15.5801 16.5095 15.5801C15.2724 15.5801 14.2695 16.583 14.2695 17.8201C14.2695 19.0572 15.2724 20.0601 16.5095 20.0601Z" stroke="black" stroke-width="1.5" stroke-linecap="round" stroke-linejoin="round"/>
<path d="M7.02027 20.0601C8.25739 20.0601 9.26027 19.0572 9.26027 17.8201C9.26027 16.583 8.25739 15.5801 7.02027 15.5801C5.78316 15.5801 4.78027 16.583 4.78027 17.8201C4.78027 19.0572 5.78316 20.0601 7.02027 20.0601Z" stroke="black" stroke-width="1.5" stroke-linecap="round" stroke-linejoin="round"/>
<path d="M14.2804 17.9502H9.15039" stroke="black" stroke-width="1.5" stroke-linecap="round" stroke-linejoin="round"/>
</svg>
