<svg width="100" height="98" viewBox="0 0 100 98" fill="none" xmlns="http://www.w3.org/2000/svg">
<g clip-path="url(#clip0_768_11466)">
<path d="M4.16797 4.4165H95.8347V93.5833H4.16797V4.4165Z" fill="url(#paint0_radial_768_11466)"/>
<path d="M4.16661 4.41661H95.8334V93.5834H4.16661V4.41661ZM0 97.7502H100V0.25H0V97.7502ZM67.4167 40.25C64.1249 40.25 63.0001 41.9166 63.0001 43.2916C63.0001 44.7916 63.75 45.8333 68.1667 48.1249C74.7084 51.2917 76.7501 54.3333 76.7501 58.7917C76.7501 65.4583 71.6668 69.0417 64.7917 69.0417C61.1667 69.0417 58.0416 68.2916 56.25 67.2501C55.9584 67.1251 55.9167 66.9168 55.9167 66.5833V60.4583C55.9167 60.0417 56.125 59.9165 56.4168 60.125C59.0418 61.8335 62.0417 62.5834 64.7917 62.5834C68.0834 62.5834 69.4584 61.2084 69.4584 59.3333C69.4584 57.8333 68.5 56.5 64.2916 54.3333C58.3749 51.5 55.9167 48.625 55.9167 43.8334C55.9167 38.4582 60.1251 34 67.4167 34C71 34 73.5 34.5418 74.875 35.1667C75.2083 35.375 75.2916 35.7083 75.2916 35.9999V41.7081C75.2916 42.0414 75.0833 42.2499 74.6665 42.1247C72.8333 40.9584 70.125 40.25 67.4167 40.25ZM31.5833 45.2083C32.5417 45.2917 33.2917 45.2917 34.9583 45.2917C39.8335 45.2917 44.4167 43.5834 44.4167 36.9584C44.4167 31.6668 41.125 29 35.5834 29C33.9168 29 32.3334 29.0833 31.5833 29.125V45.2083ZM24.1668 23.0833C24.1668 22.7917 24.7502 22.5832 25.0833 22.5832C27.7501 22.4582 31.7084 22.3749 35.8334 22.3749C47.375 22.3749 51.8749 28.7082 51.8749 36.7916C51.8749 47.3749 44.2083 51.9166 34.7917 51.9166C33.2084 51.9166 32.6668 51.8333 31.5416 51.8333V67.8333C31.5416 68.1666 31.4166 68.3333 31.0417 68.3333H24.6667C24.3334 68.3333 24.1666 68.2083 24.1666 67.8333V23.0833H24.1668Z" fill="#31C5F0"/>
</g>
<defs>
<radialGradient id="paint0_radial_768_11466" cx="0" cy="0" r="1" gradientUnits="userSpaceOnUse" gradientTransform="translate(34.3585 24.3989) scale(69.6667 67.45)">
<stop stop-color="#34364E" stop-opacity="0.98"/>
<stop offset="1" stop-color="#0C0824"/>
</radialGradient>
<clipPath id="clip0_768_11466">
<rect width="100" height="97.52" fill="white" transform="translate(0 0.240234)"/>
</clipPath>
</defs>
</svg>
