<svg width="227" height="49" viewBox="0 0 227 49" fill="none" xmlns="http://www.w3.org/2000/svg">
<path d="M0.0546875 4.76074C0.0546875 2.5516 1.84555 0.760742 4.05469 0.760742H222.244C224.454 0.760742 226.244 2.5516 226.244 4.76074V44.7607C226.244 46.9699 224.454 48.7607 222.244 48.7607H4.05469C1.84555 48.7607 0.0546875 46.9699 0.0546875 44.7607V4.76074Z" fill="#222222"/>
<g clip-path="url(#clip0_760_19169)">
<path d="M55.9552 19.7369C52.2378 17.6577 46.2713 14.3191 37.0168 9.13723C36.3928 8.72516 35.6749 8.67116 35.0547 8.8811L50.9328 24.7593L55.9552 19.7369Z" fill="#32BBFF"/>
<path d="M35.0532 8.88086C34.9369 8.92023 34.8238 8.96773 34.7156 9.02511C34.0307 9.39561 33.5273 10.1085 33.5273 11.0102V38.5078C33.5273 39.4095 34.0306 40.1224 34.7156 40.4929C34.8236 40.5502 34.9367 40.5979 35.0528 40.6375L50.9313 24.759L35.0532 8.88086Z" fill="#32BBFF"/>
<path d="M50.9332 24.7593L35.0547 40.6377C35.6751 40.8492 36.393 40.7994 37.0171 40.3813C45.992 35.3557 51.8913 32.0565 55.6517 29.9597C55.7564 29.9009 55.8589 29.8434 55.9603 29.7864L50.9332 24.7593Z" fill="#32BBFF"/>
<path d="M33.5273 24.7598V38.5085C33.5273 39.4102 34.0306 40.1232 34.7156 40.4936C34.8236 40.5509 34.9367 40.5986 35.0528 40.6382L50.9313 24.7598H33.5273Z" fill="#2C9FD9"/>
<path d="M37.0145 9.13749C36.2735 8.64824 35.3998 8.66217 34.7148 9.02567L50.6896 25.0005L55.9528 19.7372C52.2355 17.658 46.269 14.3193 37.0145 9.13749Z" fill="#29CC5E"/>
<path d="M50.6897 24.5186L34.7148 40.4933C35.3998 40.8567 36.2735 40.8777 37.0145 40.3815C45.9894 35.3558 51.8886 32.0567 55.649 29.9598C55.7537 29.901 55.8563 29.8435 55.9576 29.7866L50.6897 24.5186Z" fill="#D93F21"/>
<path d="M62.5834 24.7597C62.5834 23.9978 62.199 23.2289 61.4371 22.8025C61.4371 22.8025 60.0121 22.0075 55.6444 19.5645L50.4492 24.7597L55.6495 29.96C59.9692 27.5345 61.437 26.7167 61.437 26.7167C62.199 26.2904 62.5834 25.5215 62.5834 24.7597Z" fill="#FFD500"/>
<path d="M61.4371 26.7169C62.199 26.2905 62.5834 25.5216 62.5834 24.7598H50.4492L55.6495 29.9601C59.9693 27.5347 61.4371 26.7169 61.4371 26.7169Z" fill="#FFAA00"/>
</g>
<path d="M88.8436 37.831H87.0707L86.8687 35.5892C86.4797 36.2916 85.8439 36.8969 84.9612 37.405C84.0785 37.9132 83.0163 38.1672 81.7745 38.1672C80.4131 38.1672 79.1564 37.8609 78.0044 37.2481C76.8524 36.6204 75.9024 35.6639 75.1543 34.3786C74.4212 33.0934 74.0547 31.5914 74.0547 29.8727C74.0547 28.154 74.4437 26.652 75.2216 25.3668C75.9996 24.0815 76.9721 23.1325 78.139 22.5197C79.3209 21.907 80.5851 21.6006 81.9316 21.6006C83.6372 21.6006 85.1183 22.0415 86.375 22.9232C87.6467 23.79 88.5144 24.9483 88.9782 26.398L86.9809 27.2498C86.6219 26.0991 85.9935 25.2098 85.0959 24.5821C84.2132 23.9395 83.1584 23.6182 81.9316 23.6182C80.3906 23.6182 79.0666 24.1637 77.9595 25.2547C76.8524 26.3457 76.2988 27.885 76.2988 29.8727C76.2988 31.8753 76.8374 33.4296 77.9146 34.5356C79.0068 35.6266 80.3158 36.1721 81.8419 36.1721C82.6797 36.1721 83.4202 36.0376 84.0636 35.7685C84.7218 35.4995 85.2305 35.1483 85.5896 34.7149C85.9636 34.2666 86.2404 33.8182 86.4199 33.3699C86.6144 32.9215 86.7266 32.4731 86.7565 32.0248H81.2359V30.052H88.8436V37.831ZM94.2216 35.2754C94.8799 35.9479 95.6803 36.2841 96.6228 36.2841C97.5654 36.2841 98.3583 35.9479 99.0016 35.2754C99.6599 34.5879 99.989 33.6389 99.989 32.4283C99.989 31.2327 99.6599 30.2986 99.0016 29.6261C98.3583 28.9386 97.5654 28.5949 96.6228 28.5949C95.6803 28.5949 94.8799 28.9386 94.2216 29.6261C93.5783 30.2986 93.2566 31.2327 93.2566 32.4283C93.2566 33.6389 93.5783 34.5879 94.2216 35.2754ZM92.6507 28.3483C93.698 27.2573 95.022 26.7118 96.6228 26.7118C98.2236 26.7118 99.5402 27.2573 100.573 28.3483C101.62 29.4243 102.143 30.7844 102.143 32.4283C102.143 34.0872 101.627 35.4622 100.595 36.5532C99.5627 37.6292 98.2386 38.1672 96.6228 38.1672C95.007 38.1672 93.683 37.6292 92.6507 36.5532C91.6184 35.4622 91.1022 34.0872 91.1022 32.4283C91.1022 30.7844 91.6184 29.4243 92.6507 28.3483ZM107.064 35.2754C107.722 35.9479 108.523 36.2841 109.465 36.2841C110.408 36.2841 111.201 35.9479 111.844 35.2754C112.502 34.5879 112.832 33.6389 112.832 32.4283C112.832 31.2327 112.502 30.2986 111.844 29.6261C111.201 28.9386 110.408 28.5949 109.465 28.5949C108.523 28.5949 107.722 28.9386 107.064 29.6261C106.421 30.2986 106.099 31.2327 106.099 32.4283C106.099 33.6389 106.421 34.5879 107.064 35.2754ZM105.493 28.3483C106.54 27.2573 107.864 26.7118 109.465 26.7118C111.066 26.7118 112.383 27.2573 113.415 28.3483C114.462 29.4243 114.986 30.7844 114.986 32.4283C114.986 34.0872 114.47 35.4622 113.437 36.5532C112.405 37.6292 111.081 38.1672 109.465 38.1672C107.85 38.1672 106.525 37.6292 105.493 36.5532C104.461 35.4622 103.945 34.0872 103.945 32.4283C103.945 30.7844 104.461 29.4243 105.493 28.3483ZM116.899 38.4138L118.942 37.9431C119.016 38.7053 119.323 39.3329 119.862 39.8261C120.4 40.3343 121.073 40.5883 121.881 40.5883C124.081 40.5883 125.18 39.4226 125.18 37.0912V35.5444C124.911 36.0674 124.485 36.4934 123.901 36.8222C123.333 37.151 122.659 37.3154 121.881 37.3154C120.445 37.3154 119.256 36.8296 118.313 35.8582C117.386 34.8718 116.922 33.6164 116.922 32.092C116.922 30.6125 117.386 29.372 118.313 28.3707C119.241 27.3545 120.43 26.8463 121.881 26.8463C123.527 26.8463 124.634 27.4142 125.203 28.5501V27.0481H127.29V37.0239C127.29 37.7413 127.193 38.4064 126.998 39.0191C126.819 39.6468 126.527 40.2222 126.123 40.7453C125.719 41.2683 125.15 41.6793 124.417 41.9782C123.699 42.2771 122.854 42.4266 121.881 42.4266C120.55 42.4266 119.42 42.0455 118.493 41.2833C117.565 40.536 117.034 39.5795 116.899 38.4138ZM122.196 35.5444C123.108 35.5444 123.849 35.2305 124.417 34.6028C124.986 33.9602 125.27 33.1233 125.27 32.092C125.27 31.0608 124.986 30.2314 124.417 29.6037C123.849 28.961 123.108 28.6397 122.196 28.6397C121.268 28.6397 120.512 28.9536 119.929 29.5813C119.36 30.209 119.076 31.0459 119.076 32.092C119.076 33.1532 119.353 33.9976 119.907 34.6252C120.475 35.238 121.238 35.5444 122.196 35.5444ZM132.768 37.831H130.658V21.6006H132.768V37.831ZM137.725 31.3298H143.627C143.597 30.5228 143.328 29.8652 142.819 29.3571C142.311 28.834 141.593 28.5725 140.665 28.5725C139.827 28.5725 139.139 28.849 138.6 29.4019C138.062 29.94 137.77 30.5826 137.725 31.3298ZM143.941 34.1321L145.759 34.7597C145.445 35.7611 144.862 36.583 144.009 37.2257C143.156 37.8534 142.124 38.1672 140.912 38.1672C139.401 38.1672 138.114 37.6516 137.052 36.6204C136.005 35.5743 135.481 34.1694 135.481 32.4059C135.481 30.7619 135.99 29.4019 137.007 28.3259C138.024 27.2498 139.236 26.7118 140.643 26.7118C142.273 26.7118 143.545 27.2274 144.458 28.2586C145.37 29.2749 145.827 30.6424 145.827 32.3611C145.827 32.6301 145.812 32.8542 145.782 33.0336H137.658C137.673 33.9901 137.987 34.7747 138.6 35.3874C139.229 36.0002 139.999 36.3066 140.912 36.3066C142.453 36.3066 143.463 35.5817 143.941 34.1321ZM156.554 29.3571H159.74C160.683 29.3571 161.431 29.118 161.984 28.6397C162.538 28.1465 162.815 27.489 162.815 26.667C162.815 25.83 162.538 25.165 161.984 24.6718C161.431 24.1637 160.683 23.9096 159.74 23.9096H156.554V29.3571ZM160.144 31.3298H156.554V37.831H154.354V21.9369H160.144C161.595 21.9369 162.777 22.3852 163.69 23.2819C164.603 24.1786 165.059 25.2995 165.059 26.6446C165.059 28.0046 164.603 29.1254 163.69 30.0072C162.777 30.889 161.595 31.3298 160.144 31.3298ZM169.41 37.831H167.301V21.6006H169.41V37.831ZM172.326 34.9391C172.326 34.0125 172.625 33.2727 173.223 32.7197C173.822 32.1518 174.615 31.8006 175.602 31.6661L178.519 31.2402C179.073 31.1655 179.35 30.8964 179.35 30.4331C179.35 29.8652 179.155 29.4019 178.766 29.0432C178.377 28.6846 177.794 28.5052 177.016 28.5052C176.298 28.5052 175.729 28.707 175.31 29.1105C174.891 29.4991 174.645 30.0222 174.57 30.6797L172.55 30.209C172.655 29.1778 173.126 28.3408 173.964 27.6982C174.802 27.0406 175.804 26.7118 176.971 26.7118C178.497 26.7118 179.626 27.0854 180.36 27.8327C181.093 28.565 181.459 29.5065 181.459 30.6573V36.06C181.459 36.7026 181.504 37.2929 181.594 37.831H179.529C179.454 37.3826 179.417 36.8969 179.417 36.3738C179.118 36.8521 178.676 37.2705 178.093 37.6292C177.524 37.9879 176.806 38.1672 175.939 38.1672C174.876 38.1672 174.009 37.8534 173.335 37.2257C172.662 36.583 172.326 35.8209 172.326 34.9391ZM176.23 36.3962C177.173 36.3962 177.928 36.1422 178.497 35.634C179.065 35.1259 179.35 34.3189 179.35 33.2129V32.7197L176.051 33.2129C175.572 33.2877 175.191 33.4595 174.906 33.7285C174.622 33.9976 174.48 34.3637 174.48 34.827C174.48 35.2455 174.637 35.6116 174.951 35.9255C175.28 36.2393 175.707 36.3962 176.23 36.3962ZM187.22 42.3369H184.909L187.602 36.6428L182.956 27.0481H185.38L188.746 34.4907L191.978 27.0481H194.244L187.22 42.3369Z" fill="white"/>
<path opacity="0.6" d="M80.2929 13.2782V10.1269H77.2665V11.1517H79.1815C79.1131 11.5787 78.6771 12.3303 77.5572 12.3303C76.5398 12.3303 75.6422 11.6214 75.6422 10.255C75.6422 8.82031 76.6339 8.19688 77.5486 8.19688C78.5318 8.19688 79.0362 8.82031 79.1901 9.35833L80.3185 8.95695C80.0193 8.02608 79.1388 7.09521 77.5486 7.09521C75.9072 7.09521 74.4453 8.29936 74.4453 10.255C74.4453 12.2107 75.8388 13.4063 77.4717 13.4063C78.3865 13.4063 78.9849 12.9964 79.2585 12.5865L79.3354 13.2782H80.2929ZM86.8821 13.2782V12.168H84.2661V10.7674H86.6342V9.71701H84.2661V8.33352H86.8821V7.22332H83.0863V13.2782H86.8821ZM94.2279 8.34206V7.22332H89.2096V8.34206H91.1246V13.2782H92.3129V8.34206H94.2279ZM101.573 13.2782V7.22332H100.377V13.2782H101.573ZM109.022 8.34206V7.22332H104.004V8.34206H105.919V13.2782H107.107V8.34206H109.022ZM116.034 10.2465C116.034 8.88009 116.991 8.23104 117.923 8.23104C118.864 8.23104 119.821 8.88009 119.821 10.2465C119.821 11.6129 118.864 12.262 117.923 12.262C116.991 12.262 116.034 11.6129 116.034 10.2465ZM114.811 10.255C114.811 12.2022 116.282 13.4063 117.923 13.4063C119.573 13.4063 121.044 12.2022 121.044 10.255C121.044 8.29936 119.573 7.09521 117.923 7.09521C116.282 7.09521 114.811 8.29936 114.811 10.255ZM128.842 13.2782V7.22332H127.662V11.2286L125.14 7.22332H123.67V13.2782H124.849V8.98257L127.603 13.2782H128.842Z" fill="white"/>
<defs>
<clipPath id="clip0_760_19169">
<rect width="32" height="32" fill="white" transform="translate(32.0547 8.76074)"/>
</clipPath>
</defs>
</svg>
