<svg width="59" height="58" viewBox="0 0 59 58" fill="none" xmlns="http://www.w3.org/2000/svg">
<path d="M18.1523 36.5914L26.3363 28.1095C26.7948 27.6281 27.5513 27.651 27.9869 28.1324L29.8205 30.1039C30.279 30.5853 31.0357 30.5853 31.4942 30.1039L36.2393 25.1294" stroke="#AB0E12" stroke-width="4" stroke-miterlimit="10" stroke-linecap="round" stroke-linejoin="round"/>
<path d="M40.6866 29.8287L40.8471 21.9199C40.8471 21.2093 40.2742 20.6133 39.5865 20.6133L31.6318 20.6591" stroke="#AB0E12" stroke-width="4" stroke-miterlimit="10" stroke-linecap="round" stroke-linejoin="round"/>
<path d="M29.5005 50.7812C41.528 50.7812 51.2783 41.0309 51.2783 29.0034C51.2783 16.9758 41.528 7.22559 29.5005 7.22559C17.4729 7.22559 7.72266 16.9758 7.72266 29.0034C7.72266 41.0309 17.4729 50.7812 29.5005 50.7812Z" stroke="#AB0E12" stroke-width="4" stroke-miterlimit="10" stroke-linecap="round" stroke-linejoin="round"/>
</svg>
