<svg width="60" height="60" viewBox="0 0 60 60" fill="none" xmlns="http://www.w3.org/2000/svg">
<g clip-path="url(#clip0_324_1719)">
<path d="M29.9999 0C13.4314 0 0 13.4315 0 29.9999C0 43.8113 9.33315 55.4427 22.0364 58.9315L58.9316 22.0369C55.4431 9.33326 43.8114 0 29.9999 0Z" fill="#00A8E1"/>
<path d="M58.9285 22.0378L48.4449 11.5542L11.5527 48.4464L22.0361 58.9297C24.5721 59.6263 27.2418 60.0002 29.9991 60.0002C46.5675 60.0002 59.999 46.5687 59.999 30.0003C59.9989 27.2431 59.6251 24.5736 58.9285 22.0378Z" fill="#00A8E1"/>
<path d="M30.0006 3.91309L15.2559 30L30.0006 56.0869C44.408 56.0869 56.0875 44.4074 56.0875 29.9999C56.0875 15.5924 44.408 3.91309 30.0006 3.91309Z" fill="#FFD652"/>
<path d="M3.91406 30C3.91406 44.4074 15.5935 56.087 30.001 56.087V3.91309C15.5937 3.91309 3.91406 15.5926 3.91406 30Z" fill="#FBE287"/>
<path d="M30.0008 6.52197L16.7305 30.0002L30.0008 53.4783C42.9674 53.4783 53.479 42.9667 53.479 30.0001C53.479 17.0334 42.9674 6.52197 30.0008 6.52197Z" fill="#FBE287"/>
<path d="M6.52148 30.0002C6.52148 42.9669 17.0331 53.4784 29.9997 53.4784V6.52197C17.0331 6.52197 6.52148 17.0336 6.52148 30.0002Z" fill="#F7EDBC"/>
<path d="M29.999 9.13037L18.2031 29.9999L29.999 50.8693C41.5249 50.8693 50.8685 41.5257 50.8685 29.9998C50.8685 18.4738 41.5249 9.13037 29.999 9.13037Z" fill="#FB9D46"/>
<path d="M9.13086 29.9999C9.13086 41.5259 18.4746 50.8694 30.0004 50.8694V9.13037C18.4746 9.13037 9.13086 18.4738 9.13086 29.9999Z" fill="#FDBA4C"/>
<path d="M47.3659 24.3565L38.9642 32.9115L40.7315 44.7715L29.9978 39.4272L26.3047 26.7027L29.9978 11.7393L35.5401 22.3728L47.3659 24.3565Z" fill="#FFD652"/>
<path d="M29.9983 11.7393V39.4272L19.2673 44.7715L21.032 32.9115L12.6328 24.3565L24.4586 22.3728L29.9983 11.7393Z" fill="#FBE287"/>
<path d="M41.9974 26.1008L33.8283 24.7305L29.9993 17.3843L26.0859 26.9485L29.9987 36.5128L37.4145 40.2052L36.1935 32.0104L41.9974 26.1008Z" fill="#F7EDBC"/>
<path d="M26.1722 24.7305L18.002 26.1009L23.8039 32.0104L22.5844 40.2052L29.9986 36.5128L29.9992 17.3843L26.1722 24.7305Z" fill="white"/>
</g>
<defs>
<clipPath id="clip0_324_1719">
<rect width="60" height="60" fill="white"/>
</clipPath>
</defs>
</svg>
