<svg width="80" height="80" viewBox="0 0 80 80" fill="none" xmlns="http://www.w3.org/2000/svg">
<rect width="80" height="80" rx="8" fill="#FBFBFB"/>
<path d="M52.8662 27.3632C52.8556 27.3119 52.8305 27.2647 52.794 27.2272C52.7575 27.1897 52.711 27.1633 52.66 27.1513C49.2612 26.3201 41.41 29.282 37.1518 33.537C36.393 34.2896 35.701 35.1069 35.0837 35.9795C33.7712 35.8607 32.4587 35.9607 31.3412 36.4482C28.1856 37.8357 27.2675 41.4595 27.0112 43.0151C26.9973 43.1003 27.0033 43.1876 27.0286 43.2702C27.0538 43.3528 27.0978 43.4284 27.157 43.4913C27.2163 43.5541 27.2892 43.6025 27.3701 43.6326C27.451 43.6628 27.5378 43.6739 27.6237 43.6651L32.6906 43.1088C32.6941 43.491 32.717 43.8728 32.7593 44.2526C32.7858 44.5151 32.9029 44.7602 33.0906 44.9457L35.0525 46.9076C35.2381 47.0954 35.4835 47.2125 35.7462 47.2388C36.1238 47.2809 36.5032 47.3039 36.8831 47.3076L36.3275 52.3701C36.3188 52.4559 36.33 52.5425 36.3601 52.6233C36.3903 52.7041 36.4386 52.7769 36.5014 52.8361C36.5641 52.8952 36.6397 52.9391 36.7221 52.9644C36.8046 52.9897 36.8917 52.9957 36.9768 52.982C38.5331 52.732 42.1643 51.8138 43.5437 48.6588C44.0312 47.5401 44.1312 46.2345 44.0187 44.9282C44.8939 44.3115 45.7135 43.6195 46.4681 42.8601C50.7418 38.6101 53.685 30.9313 52.8662 27.3632ZM42.6693 37.3545C42.2961 36.9813 42.0418 36.5057 41.9388 35.988C41.8358 35.4703 41.8886 34.9337 42.0906 34.446C42.2925 33.9583 42.6346 33.5415 43.0735 33.2482C43.5124 32.9549 44.0284 32.7984 44.5562 32.7984C45.0841 32.7984 45.6001 32.9549 46.039 33.2482C46.4779 33.5415 46.8199 33.9583 47.0219 34.446C47.2239 34.9337 47.2767 35.4703 47.1736 35.988C47.0706 36.5057 46.8164 36.9813 46.4431 37.3545C46.1955 37.6026 45.9014 37.7994 45.5776 37.9338C45.2538 38.0681 44.9068 38.1372 44.5562 38.1372C44.2057 38.1372 43.8586 38.0681 43.5348 37.9338C43.2111 37.7994 42.9169 37.6026 42.6693 37.3545Z" stroke="#54BD95" stroke-width="2" stroke-linecap="round" stroke-linejoin="round"/>
<path d="M30.8564 46.0005C30.2334 46.077 29.6537 46.3594 29.2095 46.803C28.1083 47.908 28.0039 52.0005 28.0039 52.0005C28.0039 52.0005 32.0989 51.8961 33.2008 50.7936C33.6461 50.3501 33.9291 49.7695 34.0039 49.1455" stroke="#54BD95" stroke-width="2" stroke-linecap="round" stroke-linejoin="round"/>
</svg>
