<svg width="24" height="24" viewBox="0 0 24 24" fill="none" xmlns="http://www.w3.org/2000/svg">
<path d="M21.6467 2.52229C21.6388 2.48382 21.62 2.44842 21.5926 2.42027C21.5652 2.39212 21.5303 2.37238 21.4921 2.36338C18.943 1.73994 13.0545 3.96135 9.86096 7.1526C9.29179 7.71709 8.7728 8.33003 8.30986 8.98447C7.32549 8.89541 6.34111 8.97041 5.50299 9.33604C3.13627 10.3767 2.44767 13.0945 2.25549 14.2612C2.24507 14.3251 2.24952 14.3906 2.26849 14.4525C2.28745 14.5145 2.32042 14.5712 2.36484 14.6183C2.40926 14.6655 2.46394 14.7018 2.52464 14.7244C2.58534 14.747 2.65043 14.7553 2.71486 14.7487L6.51502 14.3315C6.51765 14.6181 6.53486 14.9044 6.56658 15.1893C6.58641 15.3862 6.67427 15.57 6.81502 15.7092L8.28642 17.1806C8.42566 17.3214 8.60967 17.4093 8.80674 17.429C9.0899 17.4606 9.37449 17.4778 9.65939 17.4806L9.24267 21.2774C9.23617 21.3418 9.24455 21.4068 9.26716 21.4674C9.28978 21.528 9.32602 21.5826 9.3731 21.6269C9.42017 21.6713 9.47682 21.7042 9.53865 21.7232C9.60048 21.7422 9.66585 21.7467 9.72971 21.7363C10.8969 21.5488 13.6203 20.8603 14.6549 18.494C15.0205 17.6549 15.0955 16.6757 15.0111 15.696C15.6675 15.2335 16.2822 14.7145 16.8481 14.1449C20.0535 10.9574 22.2608 5.19838 21.6467 2.52229ZM13.9991 10.0157C13.7191 9.73582 13.5284 9.37918 13.4512 8.9909C13.3739 8.60262 13.4135 8.20015 13.565 7.83438C13.7165 7.46862 13.973 7.15599 14.3022 6.93604C14.6313 6.71608 15.0183 6.59868 15.4142 6.59868C15.8101 6.59868 16.1971 6.71608 16.5263 6.93604C16.8555 7.15599 17.112 7.46862 17.2635 7.83438C17.415 8.20015 17.4546 8.60262 17.3773 8.9909C17.3 9.37918 17.1094 9.73582 16.8294 10.0157C16.6437 10.2018 16.4231 10.3495 16.1803 10.4502C15.9375 10.5509 15.6771 10.6028 15.4142 10.6028C15.1513 10.6028 14.891 10.5509 14.6482 10.4502C14.4054 10.3495 14.1848 10.2018 13.9991 10.0157Z" stroke="#BBBBBB" stroke-width="1.5" stroke-linecap="round" stroke-linejoin="round"/>
<path d="M5.13937 16.5C4.67208 16.5574 4.23735 16.7692 3.90422 17.1019C3.07828 17.9306 3 21 3 21C3 21 6.07125 20.9217 6.89766 20.0948C7.23168 19.7622 7.44387 19.3268 7.5 18.8588" stroke="#BBBBBB" stroke-width="1.5" stroke-linecap="round" stroke-linejoin="round"/>
</svg>
