<svg width="55" height="52" viewBox="0 0 55 52" fill="none" xmlns="http://www.w3.org/2000/svg">
<path d="M27.6555 45.6077C31.4537 45.6077 34.5327 42.5286 34.5327 38.7305C34.5327 34.9323 31.4537 31.8533 27.6555 31.8533C23.8573 31.8533 20.7783 34.9323 20.7783 38.7305C20.7783 42.5286 23.8573 45.6077 27.6555 45.6077Z" stroke="white" stroke-width="4.5848" stroke-miterlimit="10"/>
<path d="M27.6553 31.8773V27.2925" stroke="white" stroke-width="3.5" stroke-miterlimit="10" stroke-linecap="round"/>
<path d="M27.6553 50.1925V45.6077" stroke="white" stroke-width="3.5" stroke-miterlimit="10"/>
<path d="M27.6553 31.8773V27.2925" stroke="white" stroke-width="3.5" stroke-miterlimit="10" stroke-linecap="round"/>
<path d="M27.6553 50.1925V45.6077" stroke="white" stroke-width="3.5" stroke-miterlimit="10" stroke-linecap="round"/>
<path d="M21.6856 35.2919L17.7217 32.9995" stroke="white" stroke-width="3.5" stroke-miterlimit="10" stroke-linecap="round"/>
<path d="M37.5645 44.4616L33.6006 42.1692" stroke="white" stroke-width="3.5" stroke-miterlimit="10" stroke-linecap="round"/>
<path d="M21.6856 35.2919L17.7217 32.9995" stroke="white" stroke-width="3.5" stroke-miterlimit="10" stroke-linecap="round"/>
<path d="M37.5645 44.4616L33.6006 42.1692" stroke="white" stroke-width="3.5" stroke-miterlimit="10" stroke-linecap="round"/>
<path d="M32.7245 33.777C31.8878 34.2608 31.6018 35.3313 32.0857 36.168C32.5695 37.0047 33.64 37.2907 34.4767 36.8068L32.7245 33.777ZM34.4767 36.8068L38.4406 34.5144L36.6884 31.4846L32.7245 33.777L34.4767 36.8068Z" fill="white"/>
<path d="M17.7217 44.4616L21.6856 42.1692" stroke="white" stroke-width="3.5" stroke-miterlimit="10" stroke-linecap="round"/>
<path d="M33.6006 35.2919L37.5645 32.9995" stroke="white" stroke-width="3.5" stroke-miterlimit="10" stroke-linecap="round"/>
<path d="M17.7217 44.4616L21.6856 42.1692" stroke="white" stroke-width="3.5" stroke-miterlimit="10" stroke-linecap="round"/>
<path d="M41.3856 38.7305H43.7735C46.0975 38.7298 48.3345 37.8467 50.0323 36.2597C51.73 34.6728 52.7619 32.5004 52.9193 30.1817C52.9312 29.9829 52.9312 29.7836 52.9193 29.5848C52.9193 28.3806 52.6821 27.1882 52.2213 26.0757C51.7604 24.9632 51.085 23.9524 50.2335 23.1009C49.3821 22.2494 48.3712 21.574 47.2587 21.1132C46.1462 20.6524 44.9538 20.4152 43.7497 20.4152H41.3617V15.8304C41.3492 12.1968 39.9018 8.71529 37.3347 6.14371C34.7676 3.57214 31.2886 2.11872 27.6551 2.09985H27.1298C24.7756 2.19098 22.4856 2.89266 20.4845 4.13602C18.4834 5.37938 16.84 7.1217 15.7155 9.19197C15.5932 9.38894 15.4893 9.59677 15.4051 9.81282C14.5527 11.7072 14.0898 13.7536 14.044 15.8304C12.5189 15.8079 11.0048 16.0913 9.59108 16.6639C8.17738 17.2365 6.89278 18.0866 5.81315 19.164C4.73353 20.2414 3.88079 21.5242 3.3053 22.9367C2.72982 24.3492 2.44327 25.8628 2.46258 27.3879C2.45128 27.5469 2.45128 27.7065 2.46258 27.8655C2.57985 30.8134 3.83399 33.6014 5.962 35.6448C8.09001 37.6882 10.9266 38.8283 13.8768 38.826" stroke="white" stroke-width="3.5" stroke-miterlimit="10" stroke-linecap="round"/>
</svg>
