<svg width="37" height="41" viewBox="0 0 37 41" fill="none" xmlns="http://www.w3.org/2000/svg">
<g clip-path="url(#clip0_36_2532)">
<path d="M18.8516 36.2979C27.6881 36.2979 34.8516 29.1344 34.8516 20.2979C34.8516 11.4613 27.6881 4.29785 18.8516 4.29785C10.015 4.29785 2.85156 11.4613 2.85156 20.2979C2.85156 29.1344 10.015 36.2979 18.8516 36.2979Z" fill="#FD8469"/>
<path d="M23.5379 26.5968C23.5379 26.7732 23.5127 26.9748 23.3867 27.0756C23.0843 27.3779 22.5804 27.4031 22.2528 27.1008L22.0765 26.9496C22.3032 27.1512 22.3032 27.5039 22.1017 27.7307L21.5473 28.285C21.3458 28.4866 20.993 28.4866 20.7914 28.285L20.4387 27.9323C20.6654 28.1591 20.6654 28.5622 20.4387 28.7638L20.1363 29.0409C19.9095 29.2425 19.5568 29.2425 19.33 29.0409L19.0528 28.7638C19.204 28.915 19.204 29.1669 19.0528 29.3181L18.7505 29.6205C18.5993 29.7716 18.3473 29.7716 18.1961 29.6205L17.4906 29.2425C17.4906 29.2425 17.4654 29.2425 17.4402 29.2173L17.1883 28.4866C17.1379 28.3354 17.1883 28.1591 17.2891 28.0583C17.5158 27.8315 17.5158 27.5039 17.2891 27.2772L16.9615 26.9496C16.7599 26.748 16.4576 26.7228 16.2308 26.8992L16.0292 27.0756L16.3064 26.7984C16.5835 26.5465 16.5835 26.1181 16.3064 25.8409L16.0544 25.589C15.7772 25.3118 15.3741 25.3118 15.0969 25.589L14.7694 25.9165C14.9961 25.6898 14.9961 25.3118 14.7694 25.085L14.3662 24.6819C14.1395 24.4551 13.7867 24.4551 13.5599 24.6567L12.5772 25.5134C12.7032 25.337 12.678 25.1102 12.5521 24.9591L12.2497 24.6567C12.0733 24.4803 11.8213 24.4803 11.645 24.6567L11.5946 24.7071C11.3426 24.4803 11.1158 24.3039 10.9395 24.1276L13.2828 18.685C13.9631 18.685 15.1977 18.6346 16.1552 18.0551C16.9615 17.5512 18.0198 17.7528 18.5237 18.5087C18.4229 18.5591 18.3221 18.6094 18.2213 18.6598C17.5662 19.0882 16.7347 19.3654 16.0796 19.5417C15.5505 19.6929 15.1725 20.1465 15.1221 20.7008C15.0969 21.2551 14.9458 21.8346 14.8198 22.2126C14.719 22.515 14.845 22.8173 15.1221 22.9937C15.2733 23.0693 15.4245 23.1197 15.6009 23.1197C15.8276 23.1197 16.0292 23.0441 16.2056 22.8929C16.8103 22.3638 17.667 21.5323 17.5914 21.1543C17.5914 21.1543 18.3977 21.2803 18.5741 21.0787C18.5741 21.0787 22.5552 24.1528 23.4875 26.0173C23.4623 26.0173 23.5379 26.3197 23.5379 26.5968Z" fill="#F9B54C"/>
<path d="M26.8387 24.2538C26.0576 24.7578 23.6135 26.2948 23.4623 25.9672C22.5048 24.1027 18.5237 21.0538 18.5237 21.0538C18.3474 21.2554 17.5411 21.1294 17.5411 21.1294C17.6167 21.5074 16.76 22.3641 16.1552 22.868C15.9789 23.0192 15.7773 23.0948 15.5505 23.0948C15.3993 23.0948 15.223 23.0444 15.0718 22.9688C14.7946 22.8176 14.6938 22.4901 14.7694 22.1877C14.8954 21.8097 15.0466 21.2302 15.0718 20.6759C15.097 20.1216 15.5001 19.668 16.0293 19.5168C16.6844 19.3405 17.5159 19.0381 18.171 18.6349C18.8009 18.2318 19.582 18.1814 20.2623 18.509C21.2198 18.9877 22.6812 19.3908 24.3946 18.6601L26.8387 24.2538Z" fill="#FFD05B"/>
<path d="M17.2888 28.0334C17.5156 27.8067 17.5156 27.4791 17.2888 27.2523L16.9613 26.9248C16.7597 26.7232 16.4573 26.7232 16.2306 26.8744L16.029 27.0508L16.3062 26.7736C16.5581 26.5216 16.5581 26.0681 16.3062 25.8161L16.0542 25.5641C15.8022 25.3122 15.3739 25.3122 15.0967 25.5641L14.7692 25.8665C14.9959 25.6397 14.9959 25.2618 14.7692 25.035L14.366 24.6319C14.1392 24.4051 13.7865 24.4051 13.5597 24.6067L12.5518 25.5138C12.7282 25.3374 12.7282 25.0854 12.5518 24.909L12.2495 24.6067C12.0731 24.4303 11.8211 24.4303 11.6447 24.6067L11.292 24.9594C11.3172 26.1185 12.3755 25.8665 12.3755 25.8665C12.2999 27.2775 13.8873 27.2019 13.8873 27.2019C13.6101 28.7138 15.4747 28.4618 15.4747 28.4618C15.5251 29.6208 17.4652 29.2429 17.4652 29.2429L17.2133 28.4618C17.1377 28.3106 17.1629 28.1342 17.2888 28.0334Z" fill="#FFD05B"/>
<path d="M12.5019 25.2615L12.4516 25.3371C12.3256 25.4883 12.0988 25.4883 11.9728 25.3623L11.7964 25.2111C11.6453 25.0851 11.6453 24.8584 11.7712 24.7324L11.8216 24.6568C11.9476 24.5056 12.1744 24.5056 12.3004 24.6316L12.4768 24.7828C12.6027 24.8836 12.6279 25.1103 12.5019 25.2615Z" fill="white"/>
<path d="M14.7692 25.4883L14.6684 25.5891C14.492 25.7907 14.2149 25.8159 14.0133 25.6395L13.7865 25.4379C13.5849 25.2615 13.5597 24.9844 13.7361 24.7828L13.8117 24.682C13.9881 24.4804 14.2652 24.4552 14.4668 24.6316L14.6936 24.8332C14.8952 25.0096 14.9204 25.2867 14.7692 25.4883Z" fill="white"/>
<path d="M16.3065 26.3702L16.2309 26.4709C16.0545 26.6725 15.7774 26.6977 15.5758 26.5213L15.349 26.3198C15.1474 26.1434 15.1222 25.8662 15.2986 25.6646L15.3742 25.5639C15.5506 25.3623 15.8277 25.3371 16.0293 25.5135L16.2561 25.715C16.4577 25.8914 16.4829 26.1938 16.3065 26.3702Z" fill="white"/>
<path d="M17.2137 27.5295L17.1381 27.6051C17.0122 27.7563 16.7602 27.7815 16.609 27.6555L16.4074 27.5043C16.2562 27.3784 16.231 27.1264 16.357 26.9752L16.4326 26.8996C16.5586 26.7484 16.8106 26.7232 16.9618 26.8492L17.1633 27.0004C17.3145 27.1264 17.3397 27.3784 17.2137 27.5295Z" fill="white"/>
<path d="M15.5504 22.1119L15.8024 21.482C15.878 21.2804 15.7772 21.0536 15.5504 20.978L15.0717 20.8521C15.0213 21.356 14.8953 21.8599 14.7693 22.2127C14.7441 22.2883 14.7441 22.3891 14.7441 22.4646C15.0717 22.5654 15.4245 22.4143 15.5504 22.1119Z" fill="white"/>
<path d="M28.8802 24.4049L27.2172 25.1356L24.2188 18.1309L25.4786 17.501L28.8802 24.4049Z" fill="white"/>
<path d="M34.8518 20.2978C34.8518 17.501 34.1463 14.8805 32.8864 12.6128L24.9746 16.4931L29.5352 25.7655L34.5998 23.1199C34.751 22.1876 34.8518 21.2553 34.8518 20.2978Z" fill="#324A5E"/>
<path d="M13.4847 18.1309L10.4862 25.1356L8.82324 24.4049L12.2248 17.501L13.4847 18.1309Z" fill="white"/>
<path d="M2.85156 20.2978C2.85156 21.2553 2.95235 22.1876 3.10353 23.0947L8.1681 25.7404L12.7287 16.4679L4.81692 12.6128C3.55707 14.8805 2.85156 17.501 2.85156 20.2978Z" fill="#324A5E"/>
<path d="M30.418 23.9513C30.8355 23.9513 31.1739 23.6128 31.1739 23.1954C31.1739 22.7779 30.8355 22.4395 30.418 22.4395C30.0005 22.4395 29.6621 22.7779 29.6621 23.1954C29.6621 23.6128 30.0005 23.9513 30.418 23.9513Z" fill="#2B3B4E"/>
<path d="M32.3321 22.9181C32.7496 22.9181 33.088 22.5796 33.088 22.1622C33.088 21.7447 32.7496 21.4062 32.3321 21.4062C31.9146 21.4062 31.5762 21.7447 31.5762 22.1622C31.5762 22.5796 31.9146 22.9181 32.3321 22.9181Z" fill="#2B3B4E"/>
<path d="M7.13579 24.2032C7.55326 24.2032 7.89169 23.8648 7.89169 23.4473C7.89169 23.0298 7.55326 22.6914 7.13579 22.6914C6.71831 22.6914 6.37988 23.0298 6.37988 23.4473C6.37988 23.8648 6.71831 24.2032 7.13579 24.2032Z" fill="#2B3B4E"/>
<path d="M5.22075 23.17C5.63822 23.17 5.97665 22.8316 5.97665 22.4141C5.97665 21.9966 5.63822 21.6582 5.22075 21.6582C4.80327 21.6582 4.46484 21.9966 4.46484 22.4141C4.46484 22.8316 4.80327 23.17 5.22075 23.17Z" fill="#2B3B4E"/>
</g>
<defs>
<clipPath id="clip0_36_2532">
<rect width="32" height="32" fill="white" transform="translate(2.85156 4.29785)"/>
</clipPath>
</defs>
</svg>
