<svg width="33" height="32" viewBox="0 0 33 32" fill="none" xmlns="http://www.w3.org/2000/svg">
<path d="M30.0354 2.66667C23.8131 0 16.702 0 16.702 0C16.702 0 9.59093 0 3.3687 2.66667C0.702038 16 3.3687 27.5556 16.702 32C30.0354 27.5556 32.702 16 30.0354 2.66667Z" fill="#CCD6DD"/>
<path d="M16.7019 30.1192C6.40149 26.4258 2.44504 17.6276 4.93304 3.95028C10.5357 1.80361 16.6379 1.77783 16.7019 1.77783C16.765 1.77783 22.8868 1.81339 28.4708 3.95028C30.9588 17.6276 27.0024 26.4258 16.7019 30.1192Z" fill="#55ACEE"/>
<path d="M28.471 3.95028C22.887 1.81339 16.7653 1.77783 16.7021 1.77783V30.1192C27.0026 26.4258 30.959 17.6276 28.471 3.95028Z" fill="#226699"/>
</svg>
