<svg width="100" height="92" viewBox="0 0 100 92" fill="none" xmlns="http://www.w3.org/2000/svg">
<g clip-path="url(#clip0_768_11445)">
<path fill-rule="evenodd" clip-rule="evenodd" d="M20.3201 33.2651L49.897 91.1558L0.183594 33.2651H20.3201Z" fill="#EA6C00"/>
<path fill-rule="evenodd" clip-rule="evenodd" d="M79.4807 33.2651L49.9038 91.1558L99.6172 33.2651H79.4807Z" fill="#EA6C00"/>
<path fill-rule="evenodd" clip-rule="evenodd" d="M20.3164 33.2651H79.4702L49.8933 91.1558L20.3164 33.2651Z" fill="#FDAD00"/>
<path fill-rule="evenodd" clip-rule="evenodd" d="M49.8933 1.18213L21.8731 4.14403L20.3164 33.2652L49.8933 1.18213Z" fill="#FDD231"/>
<path fill-rule="evenodd" clip-rule="evenodd" d="M49.8958 1.18213L77.9159 4.14403L79.4727 33.2652L49.8958 1.18213Z" fill="#FDD231"/>
<path fill-rule="evenodd" clip-rule="evenodd" d="M99.6172 33.2652L77.924 4.14404L79.4807 33.2652H99.6172Z" fill="#FDAD00"/>
<path fill-rule="evenodd" clip-rule="evenodd" d="M0.183594 33.2652L21.8768 4.14404L20.3201 33.2652H0.183594Z" fill="#FDAD00"/>
<path fill-rule="evenodd" clip-rule="evenodd" d="M49.8933 1.18213L20.3164 33.2652H79.4702L49.8933 1.18213Z" fill="#FEEEB7"/>
</g>
<defs>
<clipPath id="clip0_768_11445">
<rect width="100" height="90.52" fill="white" transform="translate(0 0.740234)"/>
</clipPath>
</defs>
</svg>
