<svg width="49" height="48" viewBox="0 0 49 48" fill="none" xmlns="http://www.w3.org/2000/svg">
<path d="M17.9219 3.89923C17.9219 2.9741 18.8594 2.22412 20.0158 2.22412H28.3913C29.5478 2.22412 30.4852 2.9741 30.4852 3.89923V5.57435C30.4852 6.49948 29.5478 7.24946 28.3913 7.24946H20.0158C18.8594 7.24946 17.9219 6.49948 17.9219 5.57435V3.89923Z" fill="#AB0E12"/>
<path d="M33.3341 3.50049H15.334C13.401 3.50049 11.834 5.0675 11.834 7.00051V41.0008C11.834 42.9338 13.401 44.5008 15.334 44.5008H33.3341C35.2672 44.5008 36.8342 42.9338 36.8342 41.0008V7.00051C36.8342 5.0675 35.2672 3.50049 33.3341 3.50049Z" stroke="#AB0E12" stroke-width="2.8"/>
<path d="M18.332 39.0005H30.3321" stroke="#AB0E12" stroke-width="2.8" stroke-linecap="round"/>
</svg>
