<svg width="48" height="48" viewBox="0 0 48 48" fill="none" xmlns="http://www.w3.org/2000/svg">
<path d="M34 41H14C8 41 4 38 4 31V17C4 10 8 7 14 7H34C40 7 44 10 44 17V31C44 38 40 41 34 41Z" stroke="#AB0E12" stroke-width="3" stroke-miterlimit="10" stroke-linecap="round" stroke-linejoin="round"/>
<path d="M24 30C27.3138 30 30 27.3138 30 24C30 20.6862 27.3138 18 24 18C20.6862 18 18 20.6862 18 24C18 27.3138 20.6862 30 24 30Z" stroke="#AB0E12" stroke-width="3" stroke-miterlimit="10" stroke-linecap="round" stroke-linejoin="round"/>
<path d="M38 14H32" stroke="#AB0E12" stroke-width="3" stroke-miterlimit="10" stroke-linecap="round" stroke-linejoin="round"/>
<path d="M16 34H10" stroke="#AB0E12" stroke-width="3" stroke-miterlimit="10" stroke-linecap="round" stroke-linejoin="round"/>
</svg>
