<svg width="49" height="48" viewBox="0 0 49 48" fill="none" xmlns="http://www.w3.org/2000/svg">
<g clip-path="url(#clip0_336_2130)">
<path d="M4.66699 42H44.667" stroke="#AB0E12" stroke-width="3" stroke-linecap="round" stroke-linejoin="round"/>
<path d="M18.667 22H10.667C9.56242 22 8.66699 22.8954 8.66699 24V40C8.66699 41.1046 9.56242 42 10.667 42H18.667C19.7716 42 20.667 41.1046 20.667 40V24C20.667 22.8954 19.7716 22 18.667 22Z" stroke="#AB0E12" stroke-width="3" stroke-linejoin="round"/>
<path d="M38.667 4H22.667C21.5624 4 20.667 4.89543 20.667 6V40C20.667 41.1046 21.5624 42 22.667 42H38.667C39.7716 42 40.667 41.1046 40.667 40V6C40.667 4.89543 39.7716 4 38.667 4Z" stroke="#AB0E12" stroke-width="3" stroke-linejoin="round"/>
<path d="M28.667 32.0083H32.667" stroke="#AB0E12" stroke-width="3" stroke-linecap="round" stroke-linejoin="round"/>
<path d="M12.667 32.0083H16.667" stroke="#AB0E12" stroke-width="3" stroke-linecap="round" stroke-linejoin="round"/>
<path d="M28.667 23.0083H32.667" stroke="#AB0E12" stroke-width="3" stroke-linecap="round" stroke-linejoin="round"/>
<path d="M28.667 14.0083H32.667" stroke="#AB0E12" stroke-width="3" stroke-linecap="round" stroke-linejoin="round"/>
</g>
<defs>
<clipPath id="clip0_336_2130">
<rect width="48" height="48" fill="white" transform="translate(0.666992)"/>
</clipPath>
</defs>
</svg>
