<svg width="55" height="54" viewBox="0 0 55 54" fill="none" xmlns="http://www.w3.org/2000/svg">
<path d="M25.1825 3.5825C25.9825 1.4725 29.01 1.4725 29.8125 3.5825L34.9875 17.9175C35.168 18.3845 35.486 18.7857 35.8993 19.0682C36.3126 19.3508 36.8019 19.5013 37.3025 19.5H50.02C52.37 19.5 53.395 22.425 51.5475 23.8575L42.4975 32C42.0921 32.3116 41.7959 32.7437 41.6512 33.2341C41.5066 33.7246 41.5211 34.2483 41.6925 34.73L44.9975 48.7375C45.8025 50.9875 43.1975 52.92 41.2275 51.535L28.935 43.735C28.514 43.4391 28.012 43.2804 27.4975 43.2804C26.983 43.2804 26.481 43.4391 26.06 43.735L13.7675 51.535C11.8 52.92 9.19251 50.985 9.99751 48.7375L13.3025 34.73C13.474 34.2483 13.4884 33.7246 13.3438 33.2341C13.1992 32.7437 12.9029 32.3116 12.4975 32L3.44751 23.8575C1.59751 22.425 2.62751 19.5 4.97251 19.5H17.69C18.1907 19.5017 18.6802 19.3513 19.0936 19.0687C19.5069 18.7861 19.8248 18.3847 20.005 17.9175L25.18 3.5825H25.1825Z" stroke="#222222" stroke-width="3.75" stroke-linecap="round" stroke-linejoin="round"/>
</svg>
