<svg width="49" height="48" viewBox="0 0 49 48" fill="none" xmlns="http://www.w3.org/2000/svg">
<path fill-rule="evenodd" clip-rule="evenodd" d="M8.33301 22C8.33301 14.268 14.601 8 22.333 8C30.065 8 36.333 14.268 36.333 22C36.333 29.732 30.065 36 22.333 36C14.601 36 8.33301 29.732 8.33301 22ZM22.333 4C12.3919 4 4.33301 12.0589 4.33301 22C4.33301 31.9412 12.3919 40 22.333 40C26.583 40 30.489 38.527 33.5684 36.0638L40.9188 43.4142C41.6998 44.1952 42.9662 44.1952 43.7472 43.4142C44.5282 42.6332 44.5282 41.3668 43.7472 40.5858L36.3968 33.2354C38.86 30.156 40.333 26.25 40.333 22C40.333 12.0589 32.2742 4 22.333 4Z" fill="#AB0E12"/>
</svg>
