<svg width="48" height="48" viewBox="0 0 48 48" fill="none" xmlns="http://www.w3.org/2000/svg">
<path d="M32 42H32.4C35.7604 42 37.4404 42 38.724 41.346C39.853 40.7708 40.7708 39.853 41.346 38.724C42 37.4404 42 35.7604 42 32.4V15.6C42 12.2397 42 10.5595 41.346 9.27606C40.7708 8.14708 39.853 7.2292 38.724 6.65396C37.4404 6 35.7604 6 32.4 6H15.6C12.2397 6 10.5595 6 9.27606 6.65396C8.14708 7.2292 7.2292 8.14708 6.65396 9.27606C6 10.5595 6 12.2397 6 15.6V16M23 25L34 14M34 14H24M34 14V24M12.4 42H17.6C19.8402 42 20.9604 42 21.816 41.564C22.5686 41.1806 23.1806 40.5686 23.564 39.816C24 38.9604 24 37.8402 24 35.6V30.4C24 28.1598 24 27.0396 23.564 26.184C23.1806 25.4314 22.5686 24.8194 21.816 24.436C20.9604 24 19.8402 24 17.6 24H12.4C10.1598 24 9.03968 24 8.18404 24.436C7.43138 24.8194 6.81946 25.4314 6.43598 26.184C6 27.0396 6 28.1598 6 30.4V35.6C6 37.8402 6 38.9604 6.43598 39.816C6.81946 40.5686 7.43138 41.1806 8.18404 41.564C9.03968 42 10.1598 42 12.4 42Z" stroke="#AB0E12" stroke-width="4" stroke-linecap="round" stroke-linejoin="round"/>
</svg>
