<svg width="61" height="60" viewBox="0 0 61 60" fill="none" xmlns="http://www.w3.org/2000/svg">
<path d="M28.1825 6.5825C28.9825 4.4725 32.01 4.4725 32.8125 6.5825L37.9875 20.9175C38.168 21.3845 38.486 21.7857 38.8993 22.0682C39.3126 22.3508 39.8019 22.5013 40.3025 22.5H53.02C55.37 22.5 56.395 25.425 54.5475 26.8575L45.4975 35C45.0921 35.3116 44.7959 35.7437 44.6512 36.2341C44.5066 36.7246 44.5211 37.2483 44.6925 37.73L47.9975 51.7375C48.8025 53.9875 46.1975 55.92 44.2275 54.535L31.935 46.735C31.514 46.4391 31.012 46.2804 30.4975 46.2804C29.983 46.2804 29.481 46.4391 29.06 46.735L16.7675 54.535C14.8 55.92 12.1925 53.985 12.9975 51.7375L16.3025 37.73C16.474 37.2483 16.4884 36.7246 16.3438 36.2341C16.1992 35.7437 15.9029 35.3116 15.4975 35L6.44751 26.8575C4.59751 25.425 5.62751 22.5 7.97251 22.5H20.69C21.1907 22.5017 21.6802 22.3513 22.0936 22.0687C22.5069 21.7861 22.8248 21.3847 23.005 20.9175L28.18 6.5825H28.1825Z" stroke="#54BD95" stroke-width="3.75" stroke-linecap="round" stroke-linejoin="round"/>
</svg>
