<svg width="48" height="48" viewBox="0 0 48 48" fill="none" xmlns="http://www.w3.org/2000/svg">
<path d="M35.6568 13.6569C36.813 14.813 37.391 15.391 37.6956 16.1261C38 16.8612 38 17.6787 38 19.3137V34C38 37.7712 38 39.6568 36.8284 40.8284C35.6568 42 33.7712 42 30 42H18C14.2288 42 12.3431 42 11.1716 40.8284C10 39.6568 10 37.7712 10 34V14C10 10.2288 10 8.34314 11.1716 7.17158C12.3431 6 14.2288 6 18 6H24.6862C26.3212 6 27.1388 6 27.8738 6.30448C28.609 6.60896 29.187 7.18702 30.3432 8.34314L35.6568 13.6569Z" stroke="#AB0E12" stroke-width="4" stroke-linejoin="round"/>
<path d="M18 28L21.1544 31.1544C21.6214 31.6214 22.3786 31.6214 22.8456 31.1544L30 24" stroke="#AB0E12" stroke-width="4" stroke-linecap="round" stroke-linejoin="round"/>
</svg>
