<svg width="61" height="60" viewBox="0 0 61 60" fill="none" xmlns="http://www.w3.org/2000/svg">
<path d="M50.1734 49.2977H33.0628L13.0126 59.8856C12.1834 60.2902 11.2789 59.5484 11.5804 58.8065L15.8769 49.2977H10.8266C5.09799 49.2977 0.5 45.1839 0.5 40.0586V9.2391C0.5 4.11376 5.09799 0 10.8266 0H50.1734C55.902 0 60.5 4.11376 60.5 9.2391V40.0586C60.5 45.1165 55.8266 49.2977 50.1734 49.2977Z" fill="#4B83FF"/>
<path d="M48.3003 27.674V22.424C48.3003 21.824 47.848 21.374 47.245 21.374H45.059C44.7575 20.024 44.1545 18.749 43.4761 17.624L44.9837 16.124C45.4359 15.674 45.4359 14.999 44.9837 14.624L41.2902 10.874C40.8379 10.424 40.1595 10.424 39.7827 10.874L38.2751 12.374C37.0691 11.624 35.7877 11.099 34.4309 10.724V8.54902C34.4309 7.94902 33.9786 7.49902 33.3756 7.49902H28.0992C27.4962 7.49902 27.044 7.94902 27.044 8.54902V10.724C25.6872 11.024 24.4058 11.624 23.2751 12.374L21.7676 10.874C21.3153 10.424 20.6369 10.424 20.26 10.874L16.5666 14.549C16.1143 14.999 16.1143 15.674 16.5666 16.049L18.0741 17.549C17.3957 18.749 16.8681 20.024 16.4912 21.299H14.3053C13.7023 21.299 13.25 21.749 13.25 22.349V27.599C13.25 28.199 13.7023 28.649 14.3053 28.649H16.4158C16.7173 29.999 17.3204 31.274 17.9987 32.399L16.4912 33.899C16.0389 34.349 16.0389 35.024 16.4912 35.399L20.1847 39.074C20.6369 39.524 21.3153 39.524 21.6922 39.074L23.1997 37.574C24.4058 38.324 25.6872 38.774 26.9686 39.149V41.324C26.9686 41.924 27.4209 42.374 28.0239 42.374H33.3003C33.9033 42.374 34.3555 41.924 34.3555 41.324V39.149C35.7123 38.849 36.9937 38.249 38.1244 37.574L39.6319 39.074C40.0842 39.524 40.7626 39.524 41.1394 39.074L44.8329 35.399C45.2852 34.949 45.2852 34.274 44.8329 33.899L43.3254 32.399C44.0038 31.199 44.5314 29.924 44.9083 28.649H47.1696C47.7726 28.724 48.3003 28.274 48.3003 27.674ZM31.2651 33.149C26.2902 33.449 22.2952 29.474 22.5967 24.524C22.8229 20.474 26.1394 17.174 30.2098 16.949C35.1847 16.649 39.1796 20.624 38.8781 25.574C38.5766 29.624 35.26 32.924 31.2651 33.149Z" fill="white"/>
</svg>
