<svg width="59" height="58" viewBox="0 0 59 58" fill="none" xmlns="http://www.w3.org/2000/svg">
<path d="M36.1153 14.3645C36.6636 14.6759 37.3128 14.7577 37.9212 14.5922C38.5296 14.4266 39.0479 14.0272 39.3629 13.481C39.6236 13.021 40.0296 12.6605 40.5172 12.4561C41.0048 12.2516 41.5465 12.2148 42.0573 12.3514C42.5681 12.488 43.0191 12.7902 43.3396 13.2107C43.6601 13.6313 43.832 14.1463 43.8283 14.675C43.8283 15.3083 43.5767 15.9157 43.1289 16.3635C42.6811 16.8113 42.0737 17.0629 41.4404 17.0629C40.8071 17.0629 40.1997 17.3145 39.7519 17.7623C39.3041 18.2101 39.0525 18.8175 39.0525 19.4508C39.0525 20.0841 39.3041 20.6915 39.7519 21.1393C40.1997 21.5871 40.8071 21.8387 41.4404 21.8387C42.6977 21.8379 43.9326 21.5062 45.0212 20.877C46.1097 20.2477 47.0134 19.343 47.6415 18.2539C48.2696 17.1647 48.6001 15.9294 48.5995 14.6721C48.599 13.4148 48.2676 12.1798 47.6386 11.0911C47.0096 10.0025 46.1052 9.09852 45.0162 8.47013C43.9272 7.84174 42.692 7.51103 41.4347 7.51123C40.1773 7.51143 38.9422 7.84254 37.8534 8.47128C36.7646 9.10002 35.8605 10.0042 35.2318 11.0931C35.0739 11.3656 34.9715 11.6667 34.9305 11.979C34.8895 12.2913 34.9106 12.6086 34.9927 12.9127C35.0749 13.2168 35.2163 13.5016 35.409 13.7508C35.6017 14 35.8417 14.2085 36.1153 14.3645ZM46.3834 31.3904C45.7566 31.309 45.1231 31.4795 44.6217 31.8645C44.1204 32.2494 43.7921 32.8174 43.7089 33.444C43.2078 37.4919 41.2439 41.2169 38.1872 43.9174C35.1304 46.6179 31.1917 48.1076 27.1129 48.1058H13.7644L15.3166 46.5537C15.7613 46.1063 16.011 45.501 16.011 44.8702C16.011 44.2393 15.7613 43.6341 15.3166 43.1867C12.9882 40.8492 11.4037 37.875 10.7626 34.6386C10.1214 31.4023 10.4524 28.0485 11.7137 24.9999C12.975 21.9513 15.1103 19.3441 17.8506 17.5068C20.5909 15.6695 23.8137 14.6841 27.1129 14.675C27.7462 14.675 28.3536 14.4234 28.8014 13.9756C29.2492 13.5278 29.5008 12.9204 29.5008 12.2871C29.5008 11.6537 29.2492 11.0464 28.8014 10.5986C28.3536 10.1507 27.7462 9.89915 27.1129 9.89915C23.0755 9.91599 19.1245 11.0698 15.7125 13.2284C12.3005 15.3869 9.56561 18.463 7.82107 22.1041C6.07653 25.7452 5.39294 29.8041 5.84861 33.8157C6.30427 37.8274 7.88077 41.6295 10.3975 44.7866L6.31414 48.7983C5.9828 49.1341 5.75834 49.5605 5.6691 50.0238C5.57985 50.487 5.62981 50.9663 5.81268 51.4011C5.99182 51.8372 6.29604 52.2105 6.68699 52.474C7.07794 52.7374 7.53813 52.8793 8.00956 52.8816H27.1129C32.3459 52.8824 37.3994 50.9737 41.3253 47.5138C45.2513 44.0538 47.78 39.2803 48.437 34.0887C48.4807 33.7765 48.4621 33.4588 48.3823 33.1538C48.3026 32.8488 48.1632 32.5626 47.9723 32.3118C47.7814 32.0609 47.5427 31.8503 47.27 31.6922C46.9973 31.5341 46.6959 31.4315 46.3834 31.3904ZM42.3478 24.3938C41.9131 24.2015 41.4308 24.1433 40.9628 24.2266L40.533 24.3699L40.1032 24.5848L39.745 24.8953C39.5302 25.1153 39.3599 25.3748 39.2435 25.6594C39.1023 25.9573 39.0367 26.2853 39.0525 26.6146C39.0455 26.933 39.1024 27.2497 39.2196 27.5459C39.3431 27.8324 39.5216 28.092 39.745 28.31C39.9681 28.5313 40.2327 28.7064 40.5237 28.8252C40.8146 28.9441 41.1261 29.0043 41.4404 29.0025C42.0737 29.0025 42.6811 28.7509 43.1289 28.3031C43.5767 27.8553 43.8283 27.2479 43.8283 26.6146C43.8364 26.3013 43.771 25.9906 43.6373 25.7072C43.3807 25.1334 42.9216 24.6743 42.3478 24.4177V24.3938Z" fill="#AB0E12"/>
</svg>
