<svg width="49" height="48" viewBox="0 0 49 48" fill="none" xmlns="http://www.w3.org/2000/svg">
<path d="M35.917 26.5C37.919 26.5 39.7315 27.3115 41.0435 28.6235C42.3555 29.9355 43.167 31.748 43.167 33.75C43.167 35.752 42.3555 37.5645 41.0435 38.8765C39.7315 40.1885 37.919 41 35.917 41C33.915 41 32.1025 40.1885 30.7905 38.8765C29.4785 37.5645 28.667 35.752 28.667 33.75C28.667 31.748 29.4785 29.9355 30.7905 28.6235C32.1025 27.3115 33.915 26.5 35.917 26.5ZM13.417 26.5C15.419 26.5 17.2315 27.3115 18.5435 28.6232C19.8555 29.9352 20.667 31.7477 20.667 33.75C20.667 35.752 19.8555 37.5647 18.5435 38.8767C17.2315 40.1885 15.4187 41 13.4167 41C11.4147 41 9.60249 40.1885 8.29049 38.8765C6.97849 37.5645 6.16699 35.7517 6.16699 33.7497C6.16699 31.7475 6.97849 29.9352 8.29024 28.6232C9.60224 27.3115 11.4147 26.5 13.417 26.5ZM24.417 7C26.419 7 28.2315 7.8115 29.5435 9.1235C30.2178 9.79585 30.7525 10.5948 31.1169 11.4745C31.4813 12.3542 31.6683 13.2973 31.667 14.2495C31.667 16.2517 30.8555 18.0645 29.5435 19.3765C28.2315 20.6885 26.4192 21.5 24.4172 21.5C22.415 21.5 20.6025 20.6885 19.2905 19.3765C17.9785 18.0642 17.167 16.2515 17.167 14.2495C17.167 12.2477 17.9785 10.4352 19.2905 9.1235C20.6025 7.8115 22.4147 7 24.417 7Z" stroke="#AB0E12" stroke-width="3"/>
</svg>
