<svg width="58" height="58" viewBox="0 0 58 58" fill="none" xmlns="http://www.w3.org/2000/svg">
<g clip-path="url(#clip0_336_5327)">
<path d="M14.3281 48.3569C14.3281 39.3234 25.0737 41.131 25.0737 37.5181C25.1939 36.2351 24.8461 34.952 24.0947 33.9052C23.2377 33.0927 22.5627 32.1078 22.1141 31.0154C21.6654 29.923 21.4534 28.7479 21.4919 27.5676C21.3753 25.5435 22.0624 23.5551 23.4039 22.0348C24.7453 20.5144 26.6327 19.5851 28.6556 19.4487C30.6786 19.5851 32.5659 20.5144 33.9074 22.0348C35.2489 23.5551 35.936 25.5435 35.8194 27.5676C35.8623 28.7514 35.6488 29.9305 35.1933 31.024C34.7379 32.1175 34.0513 33.0995 33.1807 33.9028C32.4595 34.9634 32.1264 36.2403 32.2375 37.5181C32.2375 41.131 42.9831 39.3258 42.9831 48.3592C42.9831 48.3592 40.1296 50.494 28.6556 50.494C17.1817 50.494 14.3281 48.3569 14.3281 48.3569Z" stroke="white" stroke-width="3.5" stroke-miterlimit="10"/>
<path d="M13.0999 38.4729C11.7412 38.4108 10.5424 38.3177 9.48936 38.2007C7.01759 38.1516 4.58927 37.5417 2.3877 36.4169C2.3877 27.3834 13.1333 29.1911 13.1333 25.5782C13.2534 24.2952 12.9057 23.012 12.1543 21.9652C11.2973 21.1527 10.6223 20.1678 10.1736 19.0754C9.72498 17.9831 9.51293 16.808 9.55145 15.6277C9.43484 13.6035 10.122 11.6151 11.4634 10.0948C12.8049 8.57449 14.6922 7.64513 16.7152 7.50879C18.7381 7.64513 20.6255 8.57449 21.967 10.0948C23.3084 11.6151 23.9955 13.6035 23.8789 15.6277" stroke="white" stroke-width="3.5" stroke-miterlimit="10"/>
<path d="M44.2098 38.4729C45.5685 38.4108 46.7672 38.3177 47.8203 38.2007C50.2921 38.1516 52.7204 37.5417 54.922 36.4169C54.922 27.3834 44.1763 29.1911 44.1763 25.5782C44.0562 24.2952 44.404 23.012 45.1554 21.9652C46.0123 21.1527 46.6874 20.1678 47.136 19.0754C47.5847 17.9831 47.7967 16.808 47.7582 15.6277C47.8748 13.6035 47.1877 11.6151 45.8462 10.0948C44.5048 8.57449 42.6174 7.64513 40.5945 7.50879C38.5715 7.64513 36.6842 8.57449 35.3427 10.0948C34.0012 11.6151 33.3141 13.6035 33.4307 15.6277" stroke="white" stroke-width="3.5" stroke-miterlimit="10"/>
</g>
<defs>
<clipPath id="clip0_336_5327">
<rect width="57.31" height="57.31" fill="white" transform="translate(0 0.345215)"/>
</clipPath>
</defs>
</svg>
