<svg width="48" height="48" viewBox="0 0 48 48" fill="none" xmlns="http://www.w3.org/2000/svg">
<path d="M22 16L18.8446 14.4223C18.2892 14.1446 17.6767 14 17.0557 14H15.6569C14.596 14 13.5786 14.4214 12.8284 15.1716L11.1716 16.8284C10.4214 17.5786 10 18.596 10 19.6569V29.8592C10 31.1966 10.6684 32.4456 11.7812 33.1874L19.5149 38.3432C20.9888 39.326 22.9336 39.222 24.2944 38.088L34 30" stroke="#AB0E12" stroke-width="2.8" stroke-linecap="round" stroke-linejoin="round"/>
<path d="M28.9091 25.8284C27.7023 24.2124 25.4813 23.7478 23.7279 24.7442L20.0173 26.8532C18.8253 27.5306 17.3276 27.3282 16.3581 26.3588C15.0914 25.092 15.1858 23.0112 16.5619 21.8646L24.8867 14.9271C25.6057 14.3281 26.5117 14 27.4475 14H29.0551C29.6761 14 30.2885 14.1446 30.8439 14.4223L35.7881 16.8944C37.1433 17.572 37.9993 18.957 37.9993 20.4722V25.9592C37.9993 29.8074 33.0971 31.436 30.7945 28.3528L28.9091 25.8284Z" stroke="#AB0E12" stroke-width="2.8" stroke-linecap="round" stroke-linejoin="round"/>
<path d="M2 34V16" stroke="#AB0E12" stroke-width="2.8" stroke-linecap="round" stroke-linejoin="round"/>
<path d="M2 34V16" stroke="#AB0E12" stroke-width="2.8" stroke-linecap="round" stroke-linejoin="round"/>
<path d="M46 34V16" stroke="#AB0E12" stroke-width="2.8" stroke-linecap="round" stroke-linejoin="round"/>
</svg>
