<svg width="48" height="48" viewBox="0 0 48 48" fill="none" xmlns="http://www.w3.org/2000/svg">
<path d="M25.06 40.8402H12.42C6.1 40.8402 4 36.6402 4 32.4202V15.5802C4 9.26016 6.1 7.16016 12.42 7.16016H25.06C31.38 7.16016 33.48 9.26016 33.48 15.5802V32.4202C33.48 38.7402 31.36 40.8402 25.06 40.8402Z" stroke="#AB0E12" stroke-width="3" stroke-linecap="round" stroke-linejoin="round"/>
<path d="M39.0405 34.1998L33.4805 30.2998V17.6798L39.0405 13.7798C41.7605 11.8798 44.0005 13.0398 44.0005 16.3798V31.6198C44.0005 34.9598 41.7605 36.1198 39.0405 34.1998Z" stroke="#AB0E12" stroke-width="3" stroke-linecap="round" stroke-linejoin="round"/>
<path d="M23 22C24.6568 22 26 20.6568 26 19C26 17.3431 24.6568 16 23 16C21.3432 16 20 17.3431 20 19C20 20.6568 21.3432 22 23 22Z" stroke="#AB0E12" stroke-width="3" stroke-linecap="round" stroke-linejoin="round"/>
</svg>
