<svg width="48" height="48" viewBox="0 0 48 48" fill="none" xmlns="http://www.w3.org/2000/svg">
<path d="M36.0013 19.9999C40.4203 19.9999 44.0026 23.5822 44.0026 28.0012C44.0026 30.0313 43.2465 31.8849 42.0006 33.2956L42.0004 42.4973C42.0004 43.6389 40.7914 44.3362 39.8202 43.8351L39.6413 43.7269L36.0006 41.1823L32.3613 43.7269C31.4255 44.3807 30.1614 43.7891 30.016 42.7059L30.0022 42.4973L30.0002 33.2935C28.7553 31.8831 28 30.0303 28 28.0012C28 23.5822 31.5823 19.9999 36.0013 19.9999ZM38.9988 35.4221C38.073 35.7964 37.0612 36.0025 36.0013 36.0025C34.9398 36.0025 33.9267 35.7958 32.9998 35.4205L33.0006 39.6183L35.1422 38.1241C35.5937 37.8086 36.1755 37.7692 36.6596 38.0058L36.8604 38.1241L38.9986 39.6183L38.9988 35.4221ZM38.5 6.0083C41.4251 6.0083 43.8168 8.29171 43.99 11.1733L44 11.5083L44.0028 22C43.1941 20.9236 42.1734 20.0156 41.0025 19.3382L41 11.5083C41 10.2139 40.0162 9.14923 38.7556 9.02121L38.5 9.0083H9.5C8.20558 9.0083 7.14093 9.99205 7.01291 11.2527L7 11.5083V30.5083C7 31.8027 7.98375 32.8674 9.24439 32.9954L9.5 33.0083L27.3433 33.0108L27.591 33.4156L27.8582 33.809L28 33.9959L27.998 36.0083H9.5C6.57494 36.0083 4.18319 33.7249 4.01004 30.8433L4 30.5083V11.5083C4 8.58324 6.28341 6.19149 9.16495 6.01834L9.5 6.0083H38.5ZM36.0013 22.9999C33.2391 22.9999 31 25.239 31 28.0012C31 30.7633 33.2391 33.0025 36.0013 33.0025C38.7634 33.0025 41.0026 30.7633 41.0026 28.0012C41.0026 25.239 38.7634 22.9999 36.0013 22.9999ZM22.5 24.9999C23.3284 24.9999 24 25.6715 24 26.4999C24 27.2593 23.4357 27.8869 22.7035 27.9862L22.5 27.9999H13.5C12.6716 27.9999 12 27.3283 12 26.4999C12 25.7405 12.5643 25.1129 13.2965 25.0136L13.5 24.9999H22.5ZM34.5 13.9999C35.3284 13.9999 36 14.6715 36 15.4999C36 16.2593 35.4357 16.8869 34.7035 16.9862L34.5 16.9999H13.5C12.6716 16.9999 12 16.3283 12 15.4999C12 14.7405 12.5643 14.1129 13.2965 14.0136L13.5 13.9999H34.5Z" fill="#AB0E12"/>
</svg>
