<svg width="50" height="48" viewBox="0 0 50 48" fill="none" xmlns="http://www.w3.org/2000/svg">
<path d="M38.9016 14.81C37.4163 7.86625 31.1872 2.75049 24.0029 2.75049C15.5928 2.75049 8.7529 9.59039 8.7529 18.0005C8.7529 18.2705 8.76164 18.5453 8.78008 18.8306C4.25621 19.4319 0.75293 23.3137 0.75293 28.0005C0.75293 33.1006 4.90286 37.2505 10.0029 37.2505H17.003C17.693 37.2505 18.253 36.6906 18.253 36.0005C18.253 35.3104 17.693 34.7505 17.003 34.7505H10.0029C6.28103 34.7505 3.2529 31.7224 3.2529 28.0004C3.2529 24.282 6.27439 21.2585 9.9243 21.2485C10.1245 21.2711 10.344 21.2489 10.5465 21.1856C10.7534 21.121 10.9604 21.0076 11.1099 20.8342C11.3474 20.5614 11.4548 20.1984 11.4023 19.8384C11.2996 19.1292 11.253 18.5456 11.253 18.0005C11.253 10.9705 16.973 5.25046 24.003 5.25046C30.3004 5.25046 35.721 9.95483 36.6095 16.1917C36.6571 16.5274 36.8733 16.7934 37.1271 16.9692C37.3815 17.1454 37.6997 17.2505 38.003 17.2505C42.8269 17.2505 46.753 21.1765 46.753 26.0005C46.753 30.8244 42.8269 34.7505 38.003 34.7505H35.003C34.3129 34.7505 33.7529 35.3104 33.7529 36.0005C33.7529 36.6906 34.3129 37.2505 35.003 37.2505H38.003C44.2071 37.2505 49.2529 32.2025 49.2529 26.0006C49.2529 20.1417 44.7541 15.3197 38.9016 14.81Z" fill="#AB0E12" stroke="#AB0E12" stroke-width="0.5"/>
<path d="M29.75 36.25H22.25C21.5597 36.25 21 35.6909 21 35V30C21 27.243 23.243 25 26 25C28.7576 25 31 27.243 31 30V35C31 35.6909 30.4409 36.25 29.75 36.25ZM23.5 33.75H28.5V30C28.5 28.6212 27.3781 27.5 26 27.5C24.6212 27.5 23.5 28.6212 23.5 30V33.75Z" fill="#AB0E12"/>
<path d="M31 46.25H21C19.6212 46.25 18.5 45.1281 18.5 43.75V36.25C18.5 34.8719 19.6212 33.75 21 33.75H31C32.3781 33.75 33.5 34.8719 33.5 36.25V43.75C33.5 45.1281 32.3781 46.25 31 46.25ZM21 36.25V43.75H31.0025L31 36.25H21Z" fill="#AB0E12"/>
</svg>
