<svg width="58" height="58" viewBox="0 0 58 58" fill="none" xmlns="http://www.w3.org/2000/svg">
<path d="M19.1045 52.8783H38.2078C47.8073 52.8783 49.5266 49.0338 50.028 44.3534L51.819 25.2501C52.4637 19.4236 50.7922 14.6716 40.5958 14.6716H16.7166C6.52019 14.6716 4.84865 19.4236 5.49338 25.2501L7.28432 44.3534C7.78578 49.0338 9.50508 52.8783 19.1045 52.8783Z" stroke="white" stroke-width="3.58187" stroke-miterlimit="10" stroke-linecap="round" stroke-linejoin="round"/>
<path d="M19.1045 14.6718V12.7614C19.1045 8.53484 19.1045 5.12012 26.7458 5.12012H30.5665C38.2078 5.12012 38.2078 8.53484 38.2078 12.7614V14.6718" stroke="white" stroke-width="3.58187" stroke-miterlimit="10" stroke-linecap="round" stroke-linejoin="round"/>
<path d="M33.4315 31.3872V33.7751C33.4315 33.799 33.4315 33.799 33.4315 33.8229C33.4315 36.4257 33.4077 38.5509 28.6557 38.5509C23.9276 38.5509 23.8799 36.4496 23.8799 33.8467V31.3872C23.8799 28.9993 23.8799 28.9993 26.2678 28.9993H31.0436C33.4315 28.9993 33.4315 28.9993 33.4315 31.3872Z" stroke="white" stroke-width="3.58187" stroke-miterlimit="10" stroke-linecap="round" stroke-linejoin="round"/>
<path d="M51.6992 26.6113C46.1831 30.623 39.879 33.0109 33.4316 33.8228" stroke="white" stroke-width="3.58187" stroke-miterlimit="10" stroke-linecap="round" stroke-linejoin="round"/>
<path d="M6.25684 27.2561C11.6296 30.9335 17.695 33.1543 23.8797 33.8468" stroke="white" stroke-width="3.58187" stroke-miterlimit="10" stroke-linecap="round" stroke-linejoin="round"/>
</svg>
