<svg width="49" height="48" viewBox="0 0 49 48" fill="none" xmlns="http://www.w3.org/2000/svg">
<path fill-rule="evenodd" clip-rule="evenodd" d="M27.316 29.6856C26.9759 29.69 26.6474 29.8099 26.3844 30.0255L23.3404 32.5069L22.356 31.5899C22.0653 31.3191 21.6789 31.1747 21.2818 31.1884C20.8847 31.2021 20.5093 31.3729 20.2379 31.6631C20.1033 31.8072 19.9985 31.9763 19.9294 32.1609C19.8602 32.3455 19.8281 32.5418 19.8349 32.7388C19.8417 32.9358 19.8872 33.1295 19.969 33.3089C20.0507 33.4883 20.1669 33.6498 20.3111 33.7842L22.2505 35.5947C22.5157 35.8412 22.861 35.9835 23.2228 35.9954C23.5847 36.0072 23.9386 35.8878 24.2193 35.6592L28.2827 32.3487C28.5906 32.0972 28.7861 31.7338 28.8262 31.3383C28.8663 30.9428 28.7478 30.5475 28.4966 30.2393C28.3542 30.0641 28.174 29.9234 27.9696 29.8275C27.7652 29.7316 27.5418 29.6831 27.316 29.6856Z" fill="#AB0E12"/>
<path fill-rule="evenodd" clip-rule="evenodd" d="M21.3329 6C15.5517 6 10.8329 10.7188 10.8329 16.4999C10.8329 16.5049 10.8329 16.51 10.8329 16.515C10.8338 16.6105 10.8559 16.7038 10.8594 16.7991C6.63064 17.5312 3.33301 21.0695 3.33301 25.5002C3.33301 30.453 7.38021 34.5002 12.333 34.5002H15.4619C16.1814 38.7437 19.8916 42.0001 24.333 42.0001C28.7743 42.0001 32.4845 38.7437 33.204 34.5002H37.8329C41.9572 34.5002 45.3329 31.1245 45.3329 27.0002C45.3329 23.3934 42.7011 20.5009 39.2948 19.7962C39.2993 19.7003 39.3321 19.608 39.3329 19.512C39.3329 19.511 39.3329 19.51 39.3329 19.509C39.3329 19.508 39.3329 19.507 39.3329 19.506C39.3329 19.505 39.3329 19.504 39.3329 19.503C39.3329 19.502 39.3329 19.501 39.3329 19.5C39.3328 15.3757 35.9572 12.0001 31.8329 12C31.8289 12 31.8249 12 31.8209 12C31.4596 12.003 31.1164 12.1274 30.7604 12.1817C29.0657 8.49946 25.4654 6.00025 21.3329 6ZM21.3329 8.99998C24.6225 9.00019 27.5154 11.1296 28.4931 14.2705C28.5527 14.462 28.6502 14.6396 28.7797 14.7927C28.9092 14.9459 29.0681 15.0715 29.247 15.1622C29.4259 15.2529 29.6212 15.3068 29.8213 15.3207C30.0214 15.3346 30.2223 15.3082 30.412 15.2431C30.8696 15.0859 31.3519 15.0042 31.8358 14.9999C34.3365 15.0014 36.3313 16.9963 36.3329 19.497V19.5C36.3299 19.8806 36.2763 20.2571 36.1776 20.625C36.1149 20.8582 36.1094 21.1031 36.1616 21.3389C36.2139 21.5747 36.3222 21.7944 36.4775 21.9793C36.6328 22.1643 36.8305 22.3089 37.0537 22.4011C37.2769 22.4933 37.5191 22.5303 37.7596 22.5088C37.8003 22.5058 37.8163 22.5043 37.8417 22.5028C40.34 22.5088 42.3329 24.5002 42.3329 26.9998C42.3329 29.5029 40.3359 31.4998 37.8329 31.4998H33.204C32.4845 27.2562 28.7743 23.9998 24.3329 23.9998C19.8916 23.9998 16.1813 27.2562 15.4618 31.4998H12.3329C9.00148 31.4998 6.33296 28.8313 6.33296 25.4998C6.33296 22.1684 9.00148 19.4999 12.3329 19.4999C12.3464 19.4999 12.3792 19.5012 12.4297 19.5029C12.6527 19.5094 12.8743 19.4661 13.0784 19.3761C13.2825 19.2862 13.464 19.1518 13.6097 18.9829C13.7553 18.8139 13.8615 18.6147 13.9204 18.3995C13.9793 18.1844 13.9895 17.9588 13.9502 17.7392C13.8768 17.329 13.8374 16.9152 13.833 16.4999V16.497C13.8345 12.3385 17.174 8.99998 21.3329 8.99998ZM24.3329 26.9999C27.6644 26.9999 30.3329 29.6684 30.3329 32.9998C30.3329 36.3313 27.6644 38.9998 24.3329 38.9998C21.0015 38.9998 18.3329 36.3313 18.3329 32.9998C18.3329 29.6684 21.0015 26.9999 24.3329 26.9999Z" fill="#AB0E12"/>
</svg>
