<svg width="49" height="48" viewBox="0 0 49 48" fill="none" xmlns="http://www.w3.org/2000/svg">
<path d="M18.2559 3.89923C18.2559 2.9741 19.1933 2.22412 20.3498 2.22412H28.7253C29.8818 2.22412 30.8192 2.9741 30.8192 3.89923V5.57435C30.8192 6.49948 29.8818 7.24946 28.7253 7.24946H20.3498C19.1933 7.24946 18.2559 6.49948 18.2559 5.57435V3.89923Z" fill="#AB0E12"/>
<path d="M33.6662 3.5H15.666C13.733 3.5 12.166 5.06701 12.166 7.00003V41.0003C12.166 42.9333 13.733 44.5003 15.666 44.5003H33.6662C35.5992 44.5003 37.1662 42.9333 37.1662 41.0003V7.00003C37.1662 5.06701 35.5992 3.5 33.6662 3.5Z" stroke="#AB0E12" stroke-width="2.8"/>
<path d="M18.666 39.0005H30.6661" stroke="#AB0E12" stroke-width="2.8" stroke-linecap="round"/>
</svg>
