<svg width="48" height="48" viewBox="0 0 48 48" fill="none" xmlns="http://www.w3.org/2000/svg">
<path d="M21.4997 45.0001H26.5397C28.4597 45.0001 29.6997 43.6402 29.3397 41.9802L28.5197 38.3604H19.5197L18.6997 41.9802C18.3397 43.5402 19.6997 45.0001 21.4997 45.0001Z" stroke="#AB0E12" stroke-width="2.8" stroke-linecap="round" stroke-linejoin="round"/>
<path d="M28.5201 38.3403L31.9801 35.2601C33.9201 33.5401 34.0001 32.3401 32.4601 30.4001L26.3601 22.6603C25.0801 21.0403 22.9801 21.0403 21.7001 22.6603L15.6001 30.4001C14.0601 32.3401 14.0601 33.6001 16.0801 35.2601L19.5401 38.3403" stroke="#AB0E12" stroke-width="2.8" stroke-linecap="round" stroke-linejoin="round"/>
<path d="M24.0195 22.2402V27.3002" stroke="#AB0E12" stroke-width="2.8" stroke-linecap="round" stroke-linejoin="round"/>
<path d="M25.04 10H23.04C21.94 10 21.04 9.1 21.04 8V6C21.04 4.9 21.94 4 23.04 4H25.04C26.14 4 27.04 4.9 27.04 6V8C27.04 9.1 26.14 10 25.04 10Z" stroke="#AB0E12" stroke-width="2.8" stroke-linecap="round" stroke-linejoin="round"/>
<path d="M6.54004 28.34H8.54004C9.64004 28.34 10.54 27.44 10.54 26.34V24.34C10.54 23.24 9.64004 22.3398 8.54004 22.3398H6.54004C5.44004 22.3398 4.54004 23.24 4.54004 24.34V26.34C4.54004 27.44 5.44004 28.34 6.54004 28.34Z" stroke="#AB0E12" stroke-width="2.8" stroke-linecap="round" stroke-linejoin="round"/>
<path d="M41.46 28.34H39.46C38.36 28.34 37.46 27.44 37.46 26.34V24.34C37.46 23.24 38.36 22.3398 39.46 22.3398H41.46C42.56 22.3398 43.46 23.24 43.46 24.34V26.34C43.46 27.44 42.56 28.34 41.46 28.34Z" stroke="#AB0E12" stroke-width="2.8" stroke-linecap="round" stroke-linejoin="round"/>
<path d="M21.04 7.12012C13.42 8.02012 7.5 14.4801 7.5 22.34" stroke="#AB0E12" stroke-width="2.8" stroke-linecap="round" stroke-linejoin="round"/>
<path d="M40.5 22.34C40.5 14.5001 34.62 8.06012 27.04 7.12012" stroke="#AB0E12" stroke-width="2.8" stroke-linecap="round" stroke-linejoin="round"/>
</svg>
