<svg width="49" height="48" viewBox="0 0 49 48" fill="none" xmlns="http://www.w3.org/2000/svg">
<path fill-rule="evenodd" clip-rule="evenodd" d="M28.333 14C27.2284 14 26.333 14.8954 26.333 16V32C26.333 33.1046 27.2284 34 28.333 34H36.333C37.4376 34 38.333 33.1046 38.333 32V16C38.333 14.8954 37.4376 14 36.333 14H28.333ZM34.333 18H30.333V30H34.333V18Z" fill="#AB0E12"/>
<path d="M12.333 14C11.2284 14 10.333 14.8954 10.333 16C10.333 17.1046 11.2284 18 12.333 18H20.333C21.4376 18 22.333 17.1046 22.333 16C22.333 14.8954 21.4376 14 20.333 14H12.333Z" fill="#AB0E12"/>
<path d="M12.333 22C11.2284 22 10.333 22.8954 10.333 24C10.333 25.1046 11.2284 26 12.333 26H20.333C21.4376 26 22.333 25.1046 22.333 24C22.333 22.8954 21.4376 22 20.333 22H12.333Z" fill="#AB0E12"/>
<path d="M10.333 32C10.333 30.8954 11.2284 30 12.333 30H20.333C21.4376 30 22.333 30.8954 22.333 32C22.333 33.1046 21.4376 34 20.333 34H12.333C11.2284 34 10.333 33.1046 10.333 32Z" fill="#AB0E12"/>
<path fill-rule="evenodd" clip-rule="evenodd" d="M8.33301 6C5.01931 6 2.33301 8.6863 2.33301 12V36C2.33301 39.3138 5.01931 42 8.33301 42H40.333C43.6468 42 46.333 39.3138 46.333 36V12C46.333 8.6863 43.6468 6 40.333 6H8.33301ZM40.333 10H8.33301C7.22845 10 6.33301 10.8954 6.33301 12V36C6.33301 37.1046 7.22845 38 8.33301 38H40.333C41.4376 38 42.333 37.1046 42.333 36V12C42.333 10.8954 41.4376 10 40.333 10Z" fill="#AB0E12"/>
</svg>
