<svg width="58" height="58" viewBox="0 0 58 58" fill="none" xmlns="http://www.w3.org/2000/svg">
<path d="M13.3129 5.29738C13.9334 5.59561 14.328 6.22311 14.328 6.91157C14.328 8.89316 15.0733 10.0341 16.007 11.4235L16.0749 11.5244C16.869 12.7041 17.9099 14.2506 17.9099 16.4632C17.9099 18.721 16.7704 20.7127 15.0352 21.8946C15.4917 22.2773 15.8962 22.7494 16.2437 23.3118C17.3798 25.1504 17.9099 27.9598 17.9099 31.9964C17.9099 36.0847 17.3608 40.9943 16.4662 44.9138C16.0214 46.8628 15.4705 48.6607 14.8121 50.012C14.4856 50.6821 14.088 51.3366 13.593 51.8486C13.1034 52.3546 12.3469 52.8906 11.3431 52.8906C10.3394 52.8906 9.58291 52.3546 9.09331 51.8486C8.59828 51.3366 8.20069 50.6821 7.87416 50.012C7.21579 48.6607 6.66487 46.8628 6.22008 44.9138C5.32552 40.9943 4.77637 36.0847 4.77637 31.9964C4.77637 27.9598 5.30646 25.1504 6.44254 23.3118C6.79005 22.7494 7.19454 22.2773 7.65106 21.8946C5.91583 20.7127 4.77637 18.721 4.77637 16.4632C4.77637 15.584 4.77718 14.0726 5.69192 12.1212C6.5871 10.2115 8.28818 8.01717 11.4183 5.51308C11.9559 5.083 12.6924 4.99916 13.3129 5.29738ZM8.35824 16.4602V16.4632C8.35824 18.1117 9.69462 19.4481 11.3431 19.4481C12.9917 19.4481 14.328 18.1117 14.328 16.4632C14.328 15.4148 13.8867 14.69 13.0341 13.4214L13.0049 13.3779C12.4584 12.5649 11.8129 11.6046 11.3522 10.3682C10.0549 11.6874 9.33848 12.781 8.93514 13.6415C8.35824 14.8722 8.35824 15.748 8.35824 16.4602ZM9.48971 25.1946C8.89724 26.1534 8.35824 28.1198 8.35824 31.9964C8.35824 35.8209 8.87819 40.463 9.71214 44.1167C10.1316 45.9547 10.6098 47.4488 11.0942 48.4431C11.1833 48.6261 11.2669 48.7798 11.3431 48.9076C11.4194 48.7798 11.5029 48.6261 11.5921 48.4431C12.0765 47.4488 12.5547 45.9547 12.9741 44.1167C13.8081 40.463 14.328 35.8209 14.328 31.9964C14.328 28.1198 13.789 26.1534 13.1966 25.1946C12.927 24.7581 12.6593 24.5516 12.4202 24.4355C12.1627 24.3106 11.8223 24.2356 11.3431 24.2356C10.8639 24.2356 10.5236 24.3106 10.2661 24.4355C10.0269 24.5516 9.7593 24.7581 9.48971 25.1946Z" fill="white"/>
<path d="M23.879 35.9653C22.5935 35.7497 21.3661 35.3629 20.2209 34.8292C20.271 33.859 20.2971 32.9088 20.2971 31.9964C20.2971 31.5766 20.2917 31.1647 20.2805 30.7611C21.3577 31.4849 22.5731 32.0191 23.879 32.3154V25.4179C23.879 23.4397 25.4826 21.836 27.4607 21.836H37.0124C37.0124 15.9014 32.2015 11.0904 26.2668 11.0904C23.8111 11.0904 21.5478 11.9142 19.7381 13.3005C19.2617 11.9814 18.5807 10.9709 18.1069 10.2679L18.0107 10.125C20.3444 8.47682 23.1926 7.50854 26.2668 7.50854C34.1796 7.50854 40.5943 13.9232 40.5943 21.836H48.952C50.9304 21.836 52.5339 23.4397 52.5339 25.4179V46.9092C52.5339 48.8873 50.9304 50.491 48.952 50.491H27.4607C25.4826 50.491 23.879 48.8873 23.879 46.9092V35.9653ZM27.4607 36.1146V46.9092H48.952V25.4179H40.143C38.6484 31.2253 33.6041 35.6076 27.4607 36.1146ZM36.4011 25.4179H27.4607V32.516C31.6136 32.057 35.0531 29.2314 36.4011 25.4179Z" fill="white"/>
</svg>
