<svg width="137" height="33" viewBox="0 0 137 33" fill="none" xmlns="http://www.w3.org/2000/svg">
<path fill-rule="evenodd" clip-rule="evenodd" d="M48.7964 24.2376C48.4112 25.2503 48.0048 25.8735 46.6721 25.8735C45.3371 25.8735 44.9322 25.2496 44.5499 24.2376L40.6 14.0743C40.4111 13.5822 40.3555 13.2849 40.3555 12.9276C40.3555 11.6666 41.3353 11.0163 42.3985 11.0163C43.4874 11.0163 43.9539 11.8043 44.1399 12.4047L46.6443 20.1639H46.6992L49.2021 12.4047C49.3947 11.8043 49.856 11.0163 50.9442 11.0163H54.7981C55.7948 11.0163 56.4502 11.5604 56.5856 12.516C57.5471 11.4762 58.8066 10.8787 60.2646 10.8787C61.9071 10.8787 63.2867 11.5604 64.3199 12.8683C65.4044 11.6117 67.1355 10.8787 68.4792 10.8787C71.6749 10.8787 73.8461 12.7342 73.8461 16.1635V23.6942C73.8461 24.9999 73.0296 25.8742 71.8924 25.8742C70.7493 25.8742 69.9387 25.0006 69.9387 23.6942V16.8504C69.9387 15.2687 69.0578 14.149 67.6291 14.149C66.1784 14.149 65.299 15.2694 65.299 16.8504V23.6942C65.299 24.9999 64.4788 25.8742 63.3453 25.8742C62.2022 25.8742 61.3937 25.0006 61.3937 23.6942V16.8504C61.3937 15.2687 60.5099 14.149 59.082 14.149C57.4666 14.149 56.7489 15.2694 56.7489 16.8504V23.6942C56.7489 24.9999 55.9354 25.8742 54.7981 25.8742C53.6558 25.8742 52.8437 25.0006 52.8437 23.6942V13.9074L48.7964 24.2376ZM75.1876 13.0081C75.0807 12.6508 74.9943 12.3293 74.9943 12.0818C74.9943 11.6146 75.3246 11.0156 76.1425 11.0156C76.6588 11.0156 77.1479 11.2031 77.4782 12.2466L80.5559 22.1733H80.6101L83.6337 12.601C83.964 11.5611 84.177 11.0156 85.055 11.0156C85.9235 11.0156 86.1432 11.5611 86.4683 12.601L89.4948 22.1733H89.5505L92.6253 12.2466C92.9556 11.2031 93.4462 11.0156 93.9581 11.0156C94.7789 11.0156 95.1019 11.6139 95.1019 12.0811C95.1019 12.3256 95.0206 12.65 94.9115 13.0067L90.9367 24.6169C90.6123 25.544 90.23 25.8727 89.549 25.8727C88.8914 25.8727 88.4865 25.544 88.1914 24.6169L85.0836 14.8073H85.0294L81.9231 24.6169C81.6243 25.544 81.2194 25.8727 80.5655 25.8727C79.8815 25.8727 79.5029 25.544 79.1727 24.6169L75.1876 13.0081ZM98.5062 18.4445C98.5062 15.9716 99.5431 13.0726 102.489 13.0726C105.435 13.0726 106.473 15.9709 106.473 18.4445C106.473 20.9086 105.435 23.8136 102.489 23.8136C99.5431 23.8136 98.5062 20.9094 98.5062 18.4445ZM108.733 12.1733C108.733 11.3385 108.076 11.0156 107.614 11.0156C107.121 11.0156 106.502 11.3385 106.502 12.1733V12.9356H106.443C105.328 11.7142 104.155 11.0156 102.489 11.0156C98.3956 11.0156 96.1058 14.5796 96.1058 18.4445C96.1058 22.3088 98.3956 25.8735 102.489 25.8735C104.047 25.8735 105.406 25.1698 106.443 23.7037H106.502V24.7092C106.502 25.5498 107.121 25.8735 107.614 25.8735C108.076 25.8735 108.733 25.5505 108.733 24.7092V12.1733ZM111.889 12.2985C111.889 11.5084 112.349 11.0193 113.083 11.0193C113.818 11.0193 114.287 11.5077 114.287 12.2985V13.5317H114.343C114.885 12.4084 116.224 11.02 117.613 11.02C118.452 11.02 118.947 11.5641 118.947 12.2466C118.947 12.929 118.452 13.364 117.445 13.5566C116.027 13.8012 114.287 14.8666 114.287 17.6778V24.5898C114.287 25.3807 113.818 25.8727 113.083 25.8727C112.349 25.8727 111.889 25.3807 111.889 24.5898V12.2985ZM122.001 17.5783C122.08 15.3529 123.139 12.9642 126.114 13.0733C128.761 13.0733 129.96 15.4891 129.96 17.5783H122.001ZM131.024 19.3789C132.056 19.3789 132.359 18.9396 132.359 18.0989C132.359 14.5796 130.069 11.0163 126.114 11.0163C122.05 11.0163 119.596 14.4983 119.596 18.4511C119.596 22.311 121.618 25.8742 126.251 25.8742C129.086 25.8742 132.057 24.0889 132.057 22.9151C132.057 22.2275 131.626 21.8467 131.186 21.8467C130.288 21.8467 129.468 23.815 126.275 23.815C123.582 23.815 122.001 21.8731 122.001 19.3797L131.024 19.3789Z" fill="#5C4835"/>
<path fill-rule="evenodd" clip-rule="evenodd" d="M7.46072 0.682373C6.84439 0.683341 6.25359 0.928604 5.81778 1.36441C5.38197 1.80022 5.13671 2.39103 5.13574 3.00735V20.2129C5.13574 20.8297 5.38062 21.4213 5.81658 21.8577C6.25253 22.2941 6.84389 22.5395 7.46072 22.5401H24.6692C25.2861 22.5397 25.8777 22.2943 26.3138 21.858C26.7499 21.4216 26.9949 20.8299 26.9949 20.2129V3.00735C26.9936 2.39102 26.7481 1.80033 26.3122 1.36458C25.8763 0.928835 25.2855 0.683534 24.6692 0.682373H7.46072ZM6.43993 20.2122V3.00735C6.44012 2.87356 6.46668 2.74112 6.51811 2.6176C6.56953 2.49409 6.6448 2.38192 6.7396 2.28752C6.83441 2.19312 6.9469 2.11834 7.07064 2.06745C7.19437 2.01656 7.32693 1.99057 7.46072 1.99095H24.6692C25.2309 1.99095 25.6893 2.4457 25.6893 3.00735V20.2129C25.6893 20.779 25.2309 21.2366 24.6692 21.2366H7.46072C6.89687 21.2366 6.43993 20.779 6.43993 20.2122Z" fill="#698DBA"/>
<path fill-rule="evenodd" clip-rule="evenodd" d="M12.5982 5.82593C11.9832 5.8269 11.3937 6.07162 10.9589 6.50646C10.524 6.94131 10.2793 7.53081 10.2783 8.14578V25.3565C10.2787 25.9719 10.5231 26.562 10.958 26.9975C11.3929 27.4329 11.9828 27.6781 12.5982 27.6792H29.8066C30.4228 27.6791 31.0136 27.4343 31.4494 26.9988C31.8852 26.5633 32.1303 25.9726 32.1309 25.3565V8.14578C32.1295 7.53017 31.8841 6.94023 31.4484 6.50534C31.0127 6.07045 30.4223 5.82612 29.8066 5.82593H12.5982ZM11.5788 25.3572V8.14578C11.5792 7.87595 11.6867 7.61732 11.8777 7.42673C12.0687 7.23613 12.3276 7.12918 12.5974 7.12938H29.8059C30.3705 7.12938 30.8245 7.58339 30.8245 8.14578V25.3565C30.8245 25.9225 30.3705 26.3751 29.8059 26.3751H12.5974C12.4637 26.3752 12.3313 26.3489 12.2077 26.2978C12.0841 26.2467 11.9718 26.1717 11.8772 26.0772C11.7826 25.9827 11.7076 25.8704 11.6564 25.7469C11.6052 25.6233 11.5788 25.4909 11.5788 25.3572Z" fill="#698DBA"/>
<path fill-rule="evenodd" clip-rule="evenodd" d="M2.32351 10.9651C1.70764 10.9659 1.11721 11.2108 0.681655 11.6462C0.246101 12.0816 0.000969238 12.672 4.62704e-07 13.2879V30.4964C-0.000192196 30.8015 0.0597809 31.1037 0.176489 31.3856C0.293197 31.6676 0.46435 31.9238 0.680156 32.1395C0.895962 32.3552 1.15219 32.5263 1.43417 32.6429C1.71615 32.7595 2.01836 32.8194 2.32351 32.8191H19.5305C19.8357 32.8192 20.1378 32.7592 20.4198 32.6425C20.7017 32.5259 20.9579 32.3548 21.1737 32.1391C21.3895 31.9234 21.5608 31.6673 21.6776 31.3855C21.7945 31.1036 21.8547 30.8015 21.8548 30.4964V13.2879C21.8532 12.6721 21.6078 12.0819 21.1722 11.6466C20.7366 11.2113 20.1463 10.9662 19.5305 10.9651H2.32351ZM1.30272 30.4956V13.2871C1.30272 12.7277 1.75893 12.2693 2.32424 12.2693H19.5313C20.0944 12.2693 20.552 12.7277 20.552 13.2871V30.4956C20.552 31.058 20.0944 31.5171 19.5313 31.5171H2.32351C2.05271 31.517 1.79307 31.4092 1.60166 31.2177C1.41024 31.0261 1.30272 30.7664 1.30272 30.4956Z" fill="#698DBA"/>
<path fill-rule="evenodd" clip-rule="evenodd" d="M134.212 11.2637V11.5807H133.457V13.7468H133.078V11.5807H132.327V11.2637H134.212ZM136.625 13.7468L136.523 12.2574C136.508 12.0567 136.519 11.8224 136.511 11.5756H136.496C136.434 11.8099 136.36 12.075 136.281 12.2918L135.771 13.7109H135.478L134.979 12.2574C134.914 12.0538 134.853 11.8063 134.791 11.5756H134.776C134.77 11.8121 134.776 12.026 134.76 12.2515L134.672 13.7468H134.307L134.496 11.2637H135L135.479 12.6052C135.54 12.7949 135.593 12.9977 135.655 13.2328H135.67C135.723 12.9977 135.778 12.7846 135.849 12.6015L136.326 11.2637H136.812L137 13.7468H136.625Z" fill="#5C4835"/>
</svg>
