<svg width="32" height="32" viewBox="0 0 32 32" fill="none" xmlns="http://www.w3.org/2000/svg">
<g clip-path="url(#clip0_455_2394)">
<path d="M8 26.8087C8 21.7647 14 22.774 14 20.7566C14.0671 20.0403 13.873 19.3238 13.4534 18.7393C12.9749 18.2856 12.5979 17.7357 12.3474 17.1257C12.0969 16.5158 11.9785 15.8596 12 15.2006C11.9349 14.0704 12.3186 12.9601 13.0676 12.1112C13.8167 11.2623 14.8705 10.7434 16.0001 10.6672C17.1296 10.7434 18.1835 11.2623 18.9325 12.1112C19.6815 12.9601 20.0652 14.0704 20.0001 15.2006C20.0241 15.8616 19.9048 16.5199 19.6505 17.1305C19.3962 17.7411 19.0129 18.2894 18.5267 18.738C18.1241 19.3302 17.938 20.0432 18.0001 20.7566C18.0001 22.774 24.0001 21.766 24.0001 26.81C24.0001 26.81 22.4068 28.002 16.0001 28.002C9.59335 28.002 8 26.8087 8 26.8087Z" stroke="white" stroke-width="1.9543" stroke-miterlimit="10"/>
<path d="M7.31341 21.2897C6.55474 21.255 5.8854 21.203 5.29739 21.1377C3.91723 21.1103 2.56133 20.7697 1.33203 20.1417C1.33203 15.0977 7.33208 16.107 7.33208 14.0897C7.39914 13.3733 7.20498 12.6568 6.78541 12.0723C6.3069 11.6186 5.92998 11.0687 5.67947 10.4587C5.42896 9.84877 5.31056 9.19265 5.33206 8.53361C5.26695 7.40337 5.65062 6.29311 6.39966 5.4442C7.14869 4.5953 8.20254 4.07637 9.33209 4.00024C10.4616 4.07637 11.5155 4.5953 12.2645 5.4442C13.0136 6.29311 13.3972 7.40337 13.3321 8.53361" stroke="white" stroke-width="1.9543" stroke-miterlimit="10"/>
<path d="M24.684 21.2897C25.4427 21.255 26.112 21.203 26.7 21.1377C28.0802 21.1103 29.4361 20.7697 30.6654 20.1417C30.6654 15.0977 24.6654 16.107 24.6654 14.0897C24.5983 13.3733 24.7925 12.6568 25.212 12.0723C25.6905 11.6186 26.0675 11.0687 26.318 10.4587C26.5685 9.84877 26.6869 9.19265 26.6654 8.53361C26.7305 7.40337 26.3468 6.29311 25.5978 5.4442C24.8488 4.5953 23.7949 4.07637 22.6653 4.00024C21.5358 4.07637 20.4819 4.5953 19.7329 5.4442C18.9839 6.29311 18.6002 7.40337 18.6653 8.53361" stroke="white" stroke-width="1.9543" stroke-miterlimit="10"/>
</g>
<defs>
<clipPath id="clip0_455_2394">
<rect width="32.0002" height="32.0002" fill="white"/>
</clipPath>
</defs>
</svg>
