<svg width="32" height="32" viewBox="0 0 32 32" fill="none" xmlns="http://www.w3.org/2000/svg">
<path d="M13.9869 2.97382L7.33354 5.46715C5.8002 6.04049 4.54688 7.85382 4.54688 9.49382V19.4005C4.54688 20.9738 5.58689 23.0405 6.85356 23.9872L12.5869 28.2672C14.4669 29.6805 17.5602 29.6805 19.4402 28.2672L25.1735 23.9872C26.4402 23.0405 27.4802 20.9738 27.4802 19.4005V9.49382C27.4802 7.85382 26.2269 6.04049 24.6935 5.46715L18.0402 2.97382C16.9069 2.56049 15.0935 2.56049 13.9869 2.97382Z" stroke="#AB0E12" stroke-width="2" stroke-linecap="round" stroke-linejoin="round"/>
<path d="M16.0013 20.6669C18.9468 20.6669 21.3346 18.2791 21.3346 15.3336C21.3346 12.3881 18.9468 10.0002 16.0013 10.0002C13.0558 10.0002 10.668 12.3881 10.668 15.3336C10.668 18.2791 13.0558 20.6669 16.0013 20.6669Z" stroke="#AB0E12" stroke-width="2" stroke-miterlimit="10" stroke-linecap="round" stroke-linejoin="round"/>
<path d="M16.3346 13.6667V14.9067C16.3346 15.3734 16.0946 15.8134 15.6813 16.0534L14.668 16.6667" stroke="#AB0E12" stroke-width="2" stroke-miterlimit="10" stroke-linecap="round" stroke-linejoin="round"/>
</svg>
