<svg width="32" height="32" viewBox="0 0 32 32" fill="none" xmlns="http://www.w3.org/2000/svg">
<path d="M15.9987 19.9997L11.9987 15.9997M15.9987 19.9997C17.8611 19.2913 19.6479 18.398 21.332 17.3331M15.9987 19.9997V26.6664C15.9987 26.6664 20.0387 25.9331 21.332 23.9997C22.772 21.8397 21.332 17.3331 21.332 17.3331M11.9987 15.9997C12.7082 14.1589 13.6016 12.3944 14.6654 10.733C16.219 8.249 18.3822 6.20375 20.9494 4.7918C23.5166 3.37985 26.4023 2.64817 29.332 2.66635C29.332 6.29301 28.292 12.6663 21.332 17.3331M11.9987 15.9997H5.33203C5.33203 15.9997 6.06536 11.9597 7.9987 10.6663C10.1587 9.22635 14.6654 10.6663 14.6654 10.6663M5.9987 21.9997C3.9987 23.6797 3.33203 28.6664 3.33203 28.6664C3.33203 28.6664 8.3187 27.9997 9.9987 25.9997C10.9454 24.8797 10.932 23.1597 9.8787 22.1197C9.36044 21.6251 8.67775 21.3392 7.96167 21.3171C7.24558 21.2949 6.54654 21.538 5.9987 21.9997Z" stroke="white" stroke-width="2.66667" stroke-linecap="round" stroke-linejoin="round"/>
</svg>
