<svg width="32" height="32" viewBox="0 0 32 32" fill="none" xmlns="http://www.w3.org/2000/svg">
<path d="M13.9869 2.97357L7.33354 5.46691C5.8002 6.04024 4.54688 7.85357 4.54688 9.49357V19.4002C4.54688 20.9736 5.58689 23.0402 6.85356 23.9869L12.5869 28.2669C14.4669 29.6802 17.5602 29.6802 19.4402 28.2669L25.1735 23.9869C26.4402 23.0402 27.4802 20.9736 27.4802 19.4002V9.49357C27.4802 7.85357 26.2269 6.04024 24.6935 5.46691L18.0402 2.97357C16.9069 2.56024 15.0935 2.56024 13.9869 2.97357Z" stroke="white" stroke-width="2" stroke-linecap="round" stroke-linejoin="round"/>
<path d="M16.0013 20.6667C18.9468 20.6667 21.3346 18.2789 21.3346 15.3333C21.3346 12.3878 18.9468 10 16.0013 10C13.0558 10 10.668 12.3878 10.668 15.3333C10.668 18.2789 13.0558 20.6667 16.0013 20.6667Z" stroke="white" stroke-width="2" stroke-miterlimit="10" stroke-linecap="round" stroke-linejoin="round"/>
<path d="M16.3346 13.6665V14.9065C16.3346 15.3732 16.0946 15.8132 15.6813 16.0532L14.668 16.6665" stroke="white" stroke-width="2" stroke-miterlimit="10" stroke-linecap="round" stroke-linejoin="round"/>
</svg>
