<svg width="49" height="48" viewBox="0 0 49 48" fill="none" xmlns="http://www.w3.org/2000/svg">
<path d="M8.91699 39.75C11.767 42.6 16.567 42.6 19.417 39.75L24.667 34.5L14.167 24L8.91699 29.25C5.91699 32.25 5.91699 36.9 8.91699 39.75Z" stroke="#AB0E12" stroke-width="3" stroke-miterlimit="10" stroke-linecap="round" stroke-linejoin="round"/>
<path d="M12.667 22.5L26.167 36" stroke="#AB0E12" stroke-width="3" stroke-miterlimit="10" stroke-linecap="round" stroke-linejoin="round"/>
<path d="M15.667 25.5L21.667 19.5" stroke="#AB0E12" stroke-width="3" stroke-miterlimit="10" stroke-linecap="round" stroke-linejoin="round"/>
<path d="M23.167 33L29.167 27" stroke="#AB0E12" stroke-width="3" stroke-miterlimit="10" stroke-linecap="round" stroke-linejoin="round"/>
<path d="M3.66699 45L8.16699 40.5" stroke="#AB0E12" stroke-width="3" stroke-miterlimit="10" stroke-linecap="round" stroke-linejoin="round"/>
<path d="M40.417 8.25005C37.567 5.40005 32.767 5.40005 29.917 8.25005L24.667 13.5L35.167 24L40.417 18.75C43.417 15.75 43.417 11.1 40.417 8.25005Z" stroke="#AB0E12" stroke-width="3" stroke-miterlimit="10" stroke-linecap="round" stroke-linejoin="round"/>
<path d="M45.667 3L41.167 7.5" stroke="#AB0E12" stroke-width="3" stroke-miterlimit="10" stroke-linecap="round" stroke-linejoin="round"/>
</svg>
