<svg width="48" height="48" viewBox="0 0 48 48" fill="none" xmlns="http://www.w3.org/2000/svg">
<g clip-path="url(#clip0_336_1938)">
<mask id="path-1-outside-1_336_1938" maskUnits="userSpaceOnUse" x="-0.126953" y="-1" width="48" height="50" fill="black">
<rect fill="white" x="-0.126953" y="-1" width="48" height="50"/>
<path d="M18.1522 11.7281C11.9124 14.1472 7.74372 20.2698 7.74372 26.9636V31.4212C7.74372 32.0311 7.20192 32.541 6.59202 32.541H4.29023C2.4122 32.541 0.873047 30.9975 0.873047 29.1195V24.084C0.873047 22.6 1.82832 21.2968 3.2438 20.8411C3.82474 20.6541 4.45071 20.9733 4.63756 21.5538C4.82442 22.1342 4.5026 22.7564 3.92203 22.9433C3.43041 23.1015 3.08148 23.5707 3.08148 24.084V29.1195C3.08148 29.7798 3.63003 30.3326 4.29023 30.3326H5.53529V26.9637C5.53529 23.1499 6.66085 19.4861 8.83505 16.3685C10.9592 13.3229 13.8812 11.0062 17.3303 9.66912C17.8988 9.44877 18.5385 9.73084 18.759 10.2996C18.9792 10.8681 18.7207 11.5076 18.1522 11.7281ZM36.0932 12.3567C36.0932 14.6732 34.2085 16.558 31.8918 16.558C29.5753 16.558 27.6905 14.6733 27.6905 12.3567C27.6905 10.04 29.5752 8.15537 31.8918 8.15537C34.2085 8.15537 36.0932 10.0401 36.0932 12.3567ZM33.8848 12.3567C33.8848 11.2578 32.9907 10.3638 31.8918 10.3638C30.793 10.3638 29.8989 11.2578 29.8989 12.3567C29.8989 13.4555 30.793 14.3495 31.8918 14.3495C32.9907 14.3495 33.8848 13.4555 33.8848 12.3567ZM47.1274 24.0839V29.1194C47.1274 30.9974 45.6495 32.5409 43.7714 32.5409H41.732C41.0622 34.6266 39.9993 36.6863 38.568 38.4912C36.2163 41.457 32.9801 43.6516 29.3811 44.7377C29.2192 46.5543 27.6889 47.9998 25.8313 47.9998H22.2305C20.2654 47.9998 18.6666 46.407 18.6666 44.4418C18.6666 42.4763 20.2654 40.8837 22.2305 40.8837H25.8314C27.1248 40.8837 28.2596 41.5535 28.8842 42.5873C35.6902 40.4813 40.3653 34.1734 40.3653 26.9633C40.3653 24.7412 39.9277 22.5898 39.0641 20.5652L37.6113 19.916C36.9859 20.3907 36.3092 20.7826 35.5885 21.0873L35.4076 22.8315C35.3481 23.9806 34.011 24.691 31.8921 24.691C29.7673 24.691 28.4307 23.9787 28.3761 22.8261L28.1958 21.0874C27.4751 20.7828 26.7983 20.3909 26.1728 19.9162L24.5663 20.6342C23.5417 21.1551 22.259 20.3523 21.2003 18.5183C20.8182 17.8566 20.5449 17.1665 20.4308 16.5755C20.1925 15.3407 20.69 14.7808 21.0548 14.5431L22.4821 13.509C22.4357 13.1267 22.4122 12.7408 22.4122 12.3554C22.4122 11.9637 22.4364 11.5718 22.4843 11.1837L21.0576 10.1502C20.0865 9.52668 20.1379 8.0128 21.2005 6.17269C22.2594 4.33809 23.5426 3.53533 24.5673 4.05738L26.1893 4.78223C26.8096 4.31356 27.4801 3.92622 28.1935 3.62428L28.3761 1.86477C28.4306 0.712464 29.7672 0 31.8918 0C34.0117 0 35.349 0.71087 35.4075 1.86073L35.5903 3.6244C36.3036 3.92622 36.9743 4.3138 37.5947 4.78236L39.2137 4.0591C39.6019 3.8623 40.3357 3.71151 41.2857 4.53489C41.7406 4.92922 42.2014 5.51089 42.5834 6.17281C43.6432 8.00789 43.6965 9.52128 42.7308 10.1473L41.2997 11.184C41.3476 11.5721 41.3717 11.9639 41.3717 12.3556C41.3717 12.7414 41.3484 13.1274 41.3021 13.509L42.7324 14.5455C43.6965 15.1722 43.6426 16.6852 42.5833 18.5194C42.2015 19.1811 41.7406 19.7637 41.2857 20.1582L41.284 20.1616C42.1402 22.3266 42.5737 24.6165 42.5737 26.9712C42.5737 28.1095 42.4733 29.2281 42.2751 30.3323H43.7714C44.4318 30.3323 44.919 29.7796 44.919 29.1193V24.0838C44.919 23.5703 44.5943 23.1013 44.1027 22.943C43.5223 22.7562 43.2219 22.134 43.4088 21.5536C43.5956 20.9731 44.2053 20.6539 44.7857 20.8408C46.2013 21.2968 47.1274 22.6 47.1274 24.0839ZM27.1869 44.425C27.1869 44.3349 27.178 44.2356 27.1612 44.1503C27.1583 44.1376 27.1556 44.1362 27.153 44.1233C27.0155 43.5206 26.4751 43.0923 25.8314 43.0923H22.2305C21.4831 43.0923 20.875 43.6942 20.875 44.4416C20.875 45.1894 21.4831 45.7914 22.2305 45.7914H25.8314C26.5788 45.7916 27.1869 45.1725 27.1869 44.425ZM39.4536 9.79451L41.1862 8.53927C41.1357 8.28076 40.9883 7.82705 40.6708 7.27727C40.3535 6.72762 40.0344 6.37316 39.8358 6.20017L37.8748 7.07618C37.4804 7.25249 37.0192 7.18231 36.6948 6.89681C35.963 6.25268 35.127 5.76965 34.2103 5.46157C33.8001 5.32367 33.5084 4.95903 33.4637 4.52863L33.2424 2.3932C32.9933 2.30769 32.5267 2.20843 31.8918 2.20843C31.2571 2.20843 30.7905 2.30769 30.5414 2.39308L30.3198 4.52863C30.2751 4.95891 29.9832 5.32355 29.5733 5.46145C28.656 5.76977 27.8202 6.25256 27.089 6.89656C26.7646 7.18231 26.3031 7.25237 25.9087 7.07594L23.948 6.19968C23.7493 6.37267 23.4301 6.72713 23.1127 7.2769C22.7953 7.82656 22.6478 8.28027 22.5974 8.5389L24.33 9.79415C24.6803 10.048 24.8502 10.4829 24.7646 10.9069C24.6689 11.3809 24.6204 11.8682 24.6204 12.3556C24.6204 12.8374 24.6679 13.3197 24.7616 13.7894C24.8461 14.2127 24.6761 14.6464 24.3267 14.8997L22.5975 16.1526C22.6481 16.4111 22.7954 16.8648 23.1128 17.4143C23.4302 17.9642 23.7494 18.3187 23.9481 18.4917L25.894 17.6222C26.2894 17.4454 26.7517 17.5163 27.0762 17.8033C27.811 18.4534 28.6518 18.9404 29.5752 19.2503C29.9854 19.3881 30.2774 19.7527 30.3221 20.1831L30.5416 22.2982C30.7908 22.3837 31.2573 22.4828 31.8921 22.4828C32.527 22.4828 32.9936 22.3836 33.2428 22.298L33.4621 20.1832C33.5068 19.7528 33.7987 19.3882 34.2088 19.2503C35.1324 18.9401 35.9732 18.4532 36.7078 17.8031C37.0323 17.516 37.4944 17.4453 37.8899 17.6219L39.836 18.4913C40.0347 18.3182 40.3537 17.9639 40.6708 17.4143C40.9885 16.8644 41.1359 16.4106 41.1864 16.1521L39.4572 14.8994C39.1074 14.6461 38.9374 14.2119 39.0223 13.7885C39.116 13.3206 39.1634 12.8385 39.1634 12.3556C39.1634 11.8684 39.1148 11.381 39.0193 10.9071C38.9335 10.4832 39.1033 10.0482 39.4536 9.79451Z"/>
</mask>
<path d="M18.1522 11.7281C11.9124 14.1472 7.74372 20.2698 7.74372 26.9636V31.4212C7.74372 32.0311 7.20192 32.541 6.59202 32.541H4.29023C2.4122 32.541 0.873047 30.9975 0.873047 29.1195V24.084C0.873047 22.6 1.82832 21.2968 3.2438 20.8411C3.82474 20.6541 4.45071 20.9733 4.63756 21.5538C4.82442 22.1342 4.5026 22.7564 3.92203 22.9433C3.43041 23.1015 3.08148 23.5707 3.08148 24.084V29.1195C3.08148 29.7798 3.63003 30.3326 4.29023 30.3326H5.53529V26.9637C5.53529 23.1499 6.66085 19.4861 8.83505 16.3685C10.9592 13.3229 13.8812 11.0062 17.3303 9.66912C17.8988 9.44877 18.5385 9.73084 18.759 10.2996C18.9792 10.8681 18.7207 11.5076 18.1522 11.7281ZM36.0932 12.3567C36.0932 14.6732 34.2085 16.558 31.8918 16.558C29.5753 16.558 27.6905 14.6733 27.6905 12.3567C27.6905 10.04 29.5752 8.15537 31.8918 8.15537C34.2085 8.15537 36.0932 10.0401 36.0932 12.3567ZM33.8848 12.3567C33.8848 11.2578 32.9907 10.3638 31.8918 10.3638C30.793 10.3638 29.8989 11.2578 29.8989 12.3567C29.8989 13.4555 30.793 14.3495 31.8918 14.3495C32.9907 14.3495 33.8848 13.4555 33.8848 12.3567ZM47.1274 24.0839V29.1194C47.1274 30.9974 45.6495 32.5409 43.7714 32.5409H41.732C41.0622 34.6266 39.9993 36.6863 38.568 38.4912C36.2163 41.457 32.9801 43.6516 29.3811 44.7377C29.2192 46.5543 27.6889 47.9998 25.8313 47.9998H22.2305C20.2654 47.9998 18.6666 46.407 18.6666 44.4418C18.6666 42.4763 20.2654 40.8837 22.2305 40.8837H25.8314C27.1248 40.8837 28.2596 41.5535 28.8842 42.5873C35.6902 40.4813 40.3653 34.1734 40.3653 26.9633C40.3653 24.7412 39.9277 22.5898 39.0641 20.5652L37.6113 19.916C36.9859 20.3907 36.3092 20.7826 35.5885 21.0873L35.4076 22.8315C35.3481 23.9806 34.011 24.691 31.8921 24.691C29.7673 24.691 28.4307 23.9787 28.3761 22.8261L28.1958 21.0874C27.4751 20.7828 26.7983 20.3909 26.1728 19.9162L24.5663 20.6342C23.5417 21.1551 22.259 20.3523 21.2003 18.5183C20.8182 17.8566 20.5449 17.1665 20.4308 16.5755C20.1925 15.3407 20.69 14.7808 21.0548 14.5431L22.4821 13.509C22.4357 13.1267 22.4122 12.7408 22.4122 12.3554C22.4122 11.9637 22.4364 11.5718 22.4843 11.1837L21.0576 10.1502C20.0865 9.52668 20.1379 8.0128 21.2005 6.17269C22.2594 4.33809 23.5426 3.53533 24.5673 4.05738L26.1893 4.78223C26.8096 4.31356 27.4801 3.92622 28.1935 3.62428L28.3761 1.86477C28.4306 0.712464 29.7672 0 31.8918 0C34.0117 0 35.349 0.71087 35.4075 1.86073L35.5903 3.6244C36.3036 3.92622 36.9743 4.3138 37.5947 4.78236L39.2137 4.0591C39.6019 3.8623 40.3357 3.71151 41.2857 4.53489C41.7406 4.92922 42.2014 5.51089 42.5834 6.17281C43.6432 8.00789 43.6965 9.52128 42.7308 10.1473L41.2997 11.184C41.3476 11.5721 41.3717 11.9639 41.3717 12.3556C41.3717 12.7414 41.3484 13.1274 41.3021 13.509L42.7324 14.5455C43.6965 15.1722 43.6426 16.6852 42.5833 18.5194C42.2015 19.1811 41.7406 19.7637 41.2857 20.1582L41.284 20.1616C42.1402 22.3266 42.5737 24.6165 42.5737 26.9712C42.5737 28.1095 42.4733 29.2281 42.2751 30.3323H43.7714C44.4318 30.3323 44.919 29.7796 44.919 29.1193V24.0838C44.919 23.5703 44.5943 23.1013 44.1027 22.943C43.5223 22.7562 43.2219 22.134 43.4088 21.5536C43.5956 20.9731 44.2053 20.6539 44.7857 20.8408C46.2013 21.2968 47.1274 22.6 47.1274 24.0839ZM27.1869 44.425C27.1869 44.3349 27.178 44.2356 27.1612 44.1503C27.1583 44.1376 27.1556 44.1362 27.153 44.1233C27.0155 43.5206 26.4751 43.0923 25.8314 43.0923H22.2305C21.4831 43.0923 20.875 43.6942 20.875 44.4416C20.875 45.1894 21.4831 45.7914 22.2305 45.7914H25.8314C26.5788 45.7916 27.1869 45.1725 27.1869 44.425ZM39.4536 9.79451L41.1862 8.53927C41.1357 8.28076 40.9883 7.82705 40.6708 7.27727C40.3535 6.72762 40.0344 6.37316 39.8358 6.20017L37.8748 7.07618C37.4804 7.25249 37.0192 7.18231 36.6948 6.89681C35.963 6.25268 35.127 5.76965 34.2103 5.46157C33.8001 5.32367 33.5084 4.95903 33.4637 4.52863L33.2424 2.3932C32.9933 2.30769 32.5267 2.20843 31.8918 2.20843C31.2571 2.20843 30.7905 2.30769 30.5414 2.39308L30.3198 4.52863C30.2751 4.95891 29.9832 5.32355 29.5733 5.46145C28.656 5.76977 27.8202 6.25256 27.089 6.89656C26.7646 7.18231 26.3031 7.25237 25.9087 7.07594L23.948 6.19968C23.7493 6.37267 23.4301 6.72713 23.1127 7.2769C22.7953 7.82656 22.6478 8.28027 22.5974 8.5389L24.33 9.79415C24.6803 10.048 24.8502 10.4829 24.7646 10.9069C24.6689 11.3809 24.6204 11.8682 24.6204 12.3556C24.6204 12.8374 24.6679 13.3197 24.7616 13.7894C24.8461 14.2127 24.6761 14.6464 24.3267 14.8997L22.5975 16.1526C22.6481 16.4111 22.7954 16.8648 23.1128 17.4143C23.4302 17.9642 23.7494 18.3187 23.9481 18.4917L25.894 17.6222C26.2894 17.4454 26.7517 17.5163 27.0762 17.8033C27.811 18.4534 28.6518 18.9404 29.5752 19.2503C29.9854 19.3881 30.2774 19.7527 30.3221 20.1831L30.5416 22.2982C30.7908 22.3837 31.2573 22.4828 31.8921 22.4828C32.527 22.4828 32.9936 22.3836 33.2428 22.298L33.4621 20.1832C33.5068 19.7528 33.7987 19.3882 34.2088 19.2503C35.1324 18.9401 35.9732 18.4532 36.7078 17.8031C37.0323 17.516 37.4944 17.4453 37.8899 17.6219L39.836 18.4913C40.0347 18.3182 40.3537 17.9639 40.6708 17.4143C40.9885 16.8644 41.1359 16.4106 41.1864 16.1521L39.4572 14.8994C39.1074 14.6461 38.9374 14.2119 39.0223 13.7885C39.116 13.3206 39.1634 12.8385 39.1634 12.3556C39.1634 11.8684 39.1148 11.381 39.0193 10.9071C38.9335 10.4832 39.1033 10.0482 39.4536 9.79451Z" fill="#AB0E12"/>
<path d="M18.1522 11.7281C11.9124 14.1472 7.74372 20.2698 7.74372 26.9636V31.4212C7.74372 32.0311 7.20192 32.541 6.59202 32.541H4.29023C2.4122 32.541 0.873047 30.9975 0.873047 29.1195V24.084C0.873047 22.6 1.82832 21.2968 3.2438 20.8411C3.82474 20.6541 4.45071 20.9733 4.63756 21.5538C4.82442 22.1342 4.5026 22.7564 3.92203 22.9433C3.43041 23.1015 3.08148 23.5707 3.08148 24.084V29.1195C3.08148 29.7798 3.63003 30.3326 4.29023 30.3326H5.53529V26.9637C5.53529 23.1499 6.66085 19.4861 8.83505 16.3685C10.9592 13.3229 13.8812 11.0062 17.3303 9.66912C17.8988 9.44877 18.5385 9.73084 18.759 10.2996C18.9792 10.8681 18.7207 11.5076 18.1522 11.7281ZM36.0932 12.3567C36.0932 14.6732 34.2085 16.558 31.8918 16.558C29.5753 16.558 27.6905 14.6733 27.6905 12.3567C27.6905 10.04 29.5752 8.15537 31.8918 8.15537C34.2085 8.15537 36.0932 10.0401 36.0932 12.3567ZM33.8848 12.3567C33.8848 11.2578 32.9907 10.3638 31.8918 10.3638C30.793 10.3638 29.8989 11.2578 29.8989 12.3567C29.8989 13.4555 30.793 14.3495 31.8918 14.3495C32.9907 14.3495 33.8848 13.4555 33.8848 12.3567ZM47.1274 24.0839V29.1194C47.1274 30.9974 45.6495 32.5409 43.7714 32.5409H41.732C41.0622 34.6266 39.9993 36.6863 38.568 38.4912C36.2163 41.457 32.9801 43.6516 29.3811 44.7377C29.2192 46.5543 27.6889 47.9998 25.8313 47.9998H22.2305C20.2654 47.9998 18.6666 46.407 18.6666 44.4418C18.6666 42.4763 20.2654 40.8837 22.2305 40.8837H25.8314C27.1248 40.8837 28.2596 41.5535 28.8842 42.5873C35.6902 40.4813 40.3653 34.1734 40.3653 26.9633C40.3653 24.7412 39.9277 22.5898 39.0641 20.5652L37.6113 19.916C36.9859 20.3907 36.3092 20.7826 35.5885 21.0873L35.4076 22.8315C35.3481 23.9806 34.011 24.691 31.8921 24.691C29.7673 24.691 28.4307 23.9787 28.3761 22.8261L28.1958 21.0874C27.4751 20.7828 26.7983 20.3909 26.1728 19.9162L24.5663 20.6342C23.5417 21.1551 22.259 20.3523 21.2003 18.5183C20.8182 17.8566 20.5449 17.1665 20.4308 16.5755C20.1925 15.3407 20.69 14.7808 21.0548 14.5431L22.4821 13.509C22.4357 13.1267 22.4122 12.7408 22.4122 12.3554C22.4122 11.9637 22.4364 11.5718 22.4843 11.1837L21.0576 10.1502C20.0865 9.52668 20.1379 8.0128 21.2005 6.17269C22.2594 4.33809 23.5426 3.53533 24.5673 4.05738L26.1893 4.78223C26.8096 4.31356 27.4801 3.92622 28.1935 3.62428L28.3761 1.86477C28.4306 0.712464 29.7672 0 31.8918 0C34.0117 0 35.349 0.71087 35.4075 1.86073L35.5903 3.6244C36.3036 3.92622 36.9743 4.3138 37.5947 4.78236L39.2137 4.0591C39.6019 3.8623 40.3357 3.71151 41.2857 4.53489C41.7406 4.92922 42.2014 5.51089 42.5834 6.17281C43.6432 8.00789 43.6965 9.52128 42.7308 10.1473L41.2997 11.184C41.3476 11.5721 41.3717 11.9639 41.3717 12.3556C41.3717 12.7414 41.3484 13.1274 41.3021 13.509L42.7324 14.5455C43.6965 15.1722 43.6426 16.6852 42.5833 18.5194C42.2015 19.1811 41.7406 19.7637 41.2857 20.1582L41.284 20.1616C42.1402 22.3266 42.5737 24.6165 42.5737 26.9712C42.5737 28.1095 42.4733 29.2281 42.2751 30.3323H43.7714C44.4318 30.3323 44.919 29.7796 44.919 29.1193V24.0838C44.919 23.5703 44.5943 23.1013 44.1027 22.943C43.5223 22.7562 43.2219 22.134 43.4088 21.5536C43.5956 20.9731 44.2053 20.6539 44.7857 20.8408C46.2013 21.2968 47.1274 22.6 47.1274 24.0839ZM27.1869 44.425C27.1869 44.3349 27.178 44.2356 27.1612 44.1503C27.1583 44.1376 27.1556 44.1362 27.153 44.1233C27.0155 43.5206 26.4751 43.0923 25.8314 43.0923H22.2305C21.4831 43.0923 20.875 43.6942 20.875 44.4416C20.875 45.1894 21.4831 45.7914 22.2305 45.7914H25.8314C26.5788 45.7916 27.1869 45.1725 27.1869 44.425ZM39.4536 9.79451L41.1862 8.53927C41.1357 8.28076 40.9883 7.82705 40.6708 7.27727C40.3535 6.72762 40.0344 6.37316 39.8358 6.20017L37.8748 7.07618C37.4804 7.25249 37.0192 7.18231 36.6948 6.89681C35.963 6.25268 35.127 5.76965 34.2103 5.46157C33.8001 5.32367 33.5084 4.95903 33.4637 4.52863L33.2424 2.3932C32.9933 2.30769 32.5267 2.20843 31.8918 2.20843C31.2571 2.20843 30.7905 2.30769 30.5414 2.39308L30.3198 4.52863C30.2751 4.95891 29.9832 5.32355 29.5733 5.46145C28.656 5.76977 27.8202 6.25256 27.089 6.89656C26.7646 7.18231 26.3031 7.25237 25.9087 7.07594L23.948 6.19968C23.7493 6.37267 23.4301 6.72713 23.1127 7.2769C22.7953 7.82656 22.6478 8.28027 22.5974 8.5389L24.33 9.79415C24.6803 10.048 24.8502 10.4829 24.7646 10.9069C24.6689 11.3809 24.6204 11.8682 24.6204 12.3556C24.6204 12.8374 24.6679 13.3197 24.7616 13.7894C24.8461 14.2127 24.6761 14.6464 24.3267 14.8997L22.5975 16.1526C22.6481 16.4111 22.7954 16.8648 23.1128 17.4143C23.4302 17.9642 23.7494 18.3187 23.9481 18.4917L25.894 17.6222C26.2894 17.4454 26.7517 17.5163 27.0762 17.8033C27.811 18.4534 28.6518 18.9404 29.5752 19.2503C29.9854 19.3881 30.2774 19.7527 30.3221 20.1831L30.5416 22.2982C30.7908 22.3837 31.2573 22.4828 31.8921 22.4828C32.527 22.4828 32.9936 22.3836 33.2428 22.298L33.4621 20.1832C33.5068 19.7528 33.7987 19.3882 34.2088 19.2503C35.1324 18.9401 35.9732 18.4532 36.7078 17.8031C37.0323 17.516 37.4944 17.4453 37.8899 17.6219L39.836 18.4913C40.0347 18.3182 40.3537 17.9639 40.6708 17.4143C40.9885 16.8644 41.1359 16.4106 41.1864 16.1521L39.4572 14.8994C39.1074 14.6461 38.9374 14.2119 39.0223 13.7885C39.116 13.3206 39.1634 12.8385 39.1634 12.3556C39.1634 11.8684 39.1148 11.381 39.0193 10.9071C38.9335 10.4832 39.1033 10.0482 39.4536 9.79451Z" stroke="#AB0E12" stroke-width="0.8" mask="url(#path-1-outside-1_336_1938)"/>
</g>
<defs>
<clipPath id="clip0_336_1938">
<rect width="48" height="48" fill="white"/>
</clipPath>
</defs>
</svg>
