<svg width="58" height="58" viewBox="0 0 58 58" fill="none" xmlns="http://www.w3.org/2000/svg">
<path d="M21 5C21 3.89544 22.1193 3 23.5 3H33.5C34.8807 3 36 3.89544 36 5V7C36 8.10456 34.8807 9 33.5 9H23.5C22.1193 9 21 8.10456 21 7V5Z" fill="white"/>
<path d="M39.4006 4.52393H17.9093C15.6014 4.52393 13.7305 6.39486 13.7305 8.70278V49.2974C13.7305 51.6053 15.6014 53.4762 17.9093 53.4762H39.4006C41.7085 53.4762 43.5794 51.6053 43.5794 49.2974V8.70278C43.5794 6.39486 41.7085 4.52393 39.4006 4.52393Z" stroke="white" stroke-width="3.5"/>
<path d="M21.4912 46.9094H35.8187" stroke="white" stroke-width="3.5" stroke-linecap="round"/>
<path d="M27.7028 22.0686H23.4474C22.6858 22.0686 22.0684 22.686 22.0684 23.4476V27.703C22.0684 28.0687 22.2136 28.4195 22.4723 28.6781L27.5008 33.7067C28.3086 34.5145 29.6183 34.5145 30.4261 33.7067L33.7064 30.4264C34.5142 29.6185 34.5142 28.3089 33.7064 27.5011L28.6779 22.4725C28.4192 22.2139 28.0685 22.0686 27.7028 22.0686Z" stroke="white" stroke-width="2.5" stroke-linecap="round" stroke-linejoin="round"/>
<path d="M26.0343 27.0685C26.6055 27.0685 27.0685 26.6055 27.0685 26.0343C27.0685 25.4631 26.6055 25 26.0343 25C25.4631 25 25 25.4631 25 26.0343C25 26.6055 25.4631 27.0685 26.0343 27.0685Z" fill="white"/>
</svg>
