<svg width="48" height="48" viewBox="0 0 48 48" fill="none" xmlns="http://www.w3.org/2000/svg">
<path d="M33 42C38.799 42 43.5 37.299 43.5 31.5C43.5 25.701 38.799 21 33 21C27.201 21 22.5 25.701 22.5 31.5C22.5 37.299 27.201 42 33 42Z" stroke="#AB0E12" stroke-width="3" stroke-miterlimit="10" stroke-linecap="round" stroke-linejoin="round"/>
<path d="M25.9506 23.7L18.9006 13.35C17.7006 11.55 15.3006 11.55 14.1006 13.35L5.10057 26.7C3.60057 28.65 5.10057 31.5 7.50057 31.5H22.5006" stroke="#AB0E12" stroke-width="3" stroke-miterlimit="10" stroke-linecap="round" stroke-linejoin="round"/>
<path d="M22.5 18.6V10.5C22.5 8.85 23.85 7.5 25.5 7.5H37.5C39.15 7.5 40.5 8.85 40.5 10.5V22.5" stroke="#AB0E12" stroke-width="3" stroke-miterlimit="10" stroke-linecap="round" stroke-linejoin="round"/>
</svg>
